<?xml version="1.0" encoding="utf-8"?>
<!-- Generator: Adobe Illustrator 16.0.0, SVG Export Plug-In . SVG Version: 6.00 Build 0)  -->
<!DOCTYPE svg PUBLIC "-//W3C//DTD SVG 1.1//EN" "http://www.w3.org/Graphics/SVG/1.1/DTD/svg11.dtd">
<svg version="1.1" id="Layer_2" xmlns="http://www.w3.org/2000/svg" xmlns:xlink="http://www.w3.org/1999/xlink" x="0px" y="0px"
	 width="1000px" height="1000px" viewBox="0 0 1000 1000" enable-background="new 0 0 1000 1000" xml:space="preserve">
<g id="default" display="none">
	<g id="default_x5F_ngang" display="inline">
		<line fill="none" stroke="#EC008C" stroke-miterlimit="10" x1="179" y1="17.749" x2="824.5" y2="17.749"/>
		<line fill="none" stroke="#EC008C" stroke-miterlimit="10" x1="179" y1="811.242" x2="824.5" y2="811.242"/>
		<line fill="none" stroke="#EC008C" stroke-miterlimit="10" x1="179" y1="419.87" x2="824.5" y2="419.87"/>
		<line fill="none" stroke="#EC008C" stroke-miterlimit="10" x1="179" y1="610.914" x2="824.5" y2="610.914"/>
		<line fill="none" stroke="#EC008C" stroke-miterlimit="10" x1="179" y1="511.239" x2="824.5" y2="511.239"/>
		<line fill="none" stroke="#EC008C" stroke-miterlimit="10" x1="179" y1="463.355" x2="824.5" y2="463.355"/>
		<line fill="none" stroke="#EC008C" stroke-miterlimit="10" x1="824.5" y1="558.145" x2="179" y2="558.145"/>
		<line fill="none" stroke="#EC008C" stroke-miterlimit="10" x1="179" y1="706.68" x2="824.5" y2="706.68"/>
		<line fill="none" stroke="#EC008C" stroke-miterlimit="10" x1="824.5" y1="659.774" x2="179" y2="659.774"/>
		<line fill="none" stroke="#EC008C" stroke-miterlimit="10" x1="179" y1="759.449" x2="824.5" y2="759.449"/>
		<line fill="none" stroke="#EC008C" stroke-miterlimit="10" x1="179" y1="216.122" x2="824.5" y2="216.122"/>
		<line fill="none" stroke="#EC008C" stroke-miterlimit="10" x1="824.5" y1="317.751" x2="179" y2="317.751"/>
		<line fill="none" stroke="#EC008C" stroke-miterlimit="10" x1="179" y1="264.005" x2="824.5" y2="264.005"/>
		<line fill="none" stroke="#EC008C" stroke-miterlimit="10" x1="824.5" y1="367.589" x2="179" y2="367.589"/>
		<line fill="none" stroke="#EC008C" stroke-miterlimit="10" x1="179" y1="113.516" x2="824.5" y2="113.516"/>
		<line fill="none" stroke="#EC008C" stroke-miterlimit="10" x1="179" y1="59.769" x2="824.5" y2="59.769"/>
		<line fill="none" stroke="#EC008C" stroke-miterlimit="10" x1="824.5" y1="163.353" x2="179" y2="163.353"/>
	</g>
	<g id="default_x5F_doc" display="inline">
		<line fill="none" stroke="#EC008C" stroke-miterlimit="10" x1="195.935" y1="7" x2="195.935" y2="832.74"/>
		<line fill="none" stroke="#EC008C" stroke-miterlimit="10" x1="804.577" y1="7" x2="804.577" y2="832.74"/>
		<line fill="none" stroke="#EC008C" stroke-miterlimit="10" x1="497.766" y1="7" x2="497.766" y2="832.74"/>
		<line fill="none" stroke="#EC008C" stroke-miterlimit="10" x1="343.363" y1="7" x2="343.363" y2="832.74"/>
		<line fill="none" stroke="#EC008C" stroke-miterlimit="10" x1="633.24" y1="7" x2="633.24" y2="832.74"/>
		<line fill="none" stroke="#EC008C" stroke-miterlimit="10" x1="268.653" y1="7" x2="268.653" y2="832.74"/>
		<line fill="none" stroke="#EC008C" stroke-miterlimit="10" x1="419.07" y1="7" x2="419.07" y2="832.74"/>
		<line fill="none" stroke="#EC008C" stroke-miterlimit="10" x1="576.461" y1="7" x2="576.461" y2="832.74"/>
		<line fill="none" stroke="#EC008C" stroke-miterlimit="10" x1="661.133" y1="7" x2="661.133" y2="832.74"/>
		<line fill="none" stroke="#EC008C" stroke-miterlimit="10" x1="217.85" y1="7" x2="217.85" y2="832.74"/>
		<line fill="none" stroke="#EC008C" stroke-miterlimit="10" x1="242.753" y1="7" x2="242.753" y2="832.74"/>
		<line fill="none" stroke="#EC008C" stroke-miterlimit="10" x1="292.56" y1="7" x2="292.56" y2="832.74"/>
		<line fill="none" stroke="#EC008C" stroke-miterlimit="10" x1="317.464" y1="7" x2="317.464" y2="832.74"/>
		<line fill="none" stroke="#EC008C" stroke-miterlimit="10" x1="368.267" y1="7" x2="368.267" y2="832.74"/>
		<line fill="none" stroke="#EC008C" stroke-miterlimit="10" x1="393.17" y1="7" x2="393.17" y2="832.74"/>
		<line fill="none" stroke="#EC008C" stroke-miterlimit="10" x1="443.974" y1="7" x2="443.974" y2="832.74"/>
		<line fill="none" stroke="#EC008C" stroke-miterlimit="10" x1="469.874" y1="832.74" x2="469.874" y2="7"/>
		<line fill="none" stroke="#EC008C" stroke-miterlimit="10" x1="523.665" y1="7" x2="523.665" y2="832.74"/>
		<line fill="none" stroke="#EC008C" stroke-miterlimit="10" x1="549.564" y1="832.74" x2="549.564" y2="7"/>
		<line fill="none" stroke="#EC008C" stroke-miterlimit="10" x1="604.353" y1="7" x2="604.353" y2="832.74"/>
		<line fill="none" stroke="#EC008C" stroke-miterlimit="10" x1="690.021" y1="7" x2="690.021" y2="832.74"/>
		<line fill="none" stroke="#EC008C" stroke-miterlimit="10" x1="717.913" y1="832.74" x2="717.913" y2="7"/>
		<line fill="none" stroke="#EC008C" stroke-miterlimit="10" x1="747.797" y1="7" x2="747.797" y2="832.74"/>
		<line fill="none" stroke="#EC008C" stroke-miterlimit="10" x1="776.686" y1="832.74" x2="776.686" y2="7"/>
	</g>
</g>
<g id="moved">
	<g id="moved_x5F_ngang">
		<path fill="none" stroke="#EC008C" stroke-miterlimit="10" d="M179.164,24.003c0,0,139.031,72.02,320.073,73.017
			c175.038,3.671,328.075-73.017,328.075-73.017"/>
		<path fill="none" stroke="#EC008C" stroke-miterlimit="10" d="M179.164,835.187c0,0,376.752,3.664,416.429,0
			c39.674-3.663,70.027-3.946,90.687-4c46.679-1.664,102.023,12.332,141.032-8.002"/>
		<line fill="none" stroke="#EC008C" stroke-miterlimit="10" x1="179.164" y1="431.595" x2="827.312" y2="431.595"/>
		<line fill="none" stroke="#EC008C" stroke-miterlimit="10" x1="179.164" y1="627.14" x2="827.312" y2="627.14"/>
		<line fill="none" stroke="#EC008C" stroke-miterlimit="10" x1="179.164" y1="525.116" x2="827.312" y2="525.116"/>
		<line fill="none" stroke="#EC008C" stroke-miterlimit="10" x1="179.164" y1="476.105" x2="827.312" y2="476.105"/>
		<line fill="none" stroke="#EC008C" stroke-miterlimit="10" x1="827.312" y1="573.127" x2="179.164" y2="573.127"/>
		<line fill="none" stroke="#EC008C" stroke-miterlimit="10" x1="179.164" y1="728.162" x2="827.312" y2="728.162"/>
		<line fill="none" stroke="#EC008C" stroke-miterlimit="10" x1="827.312" y1="679.152" x2="179.164" y2="679.152"/>
		<line fill="none" stroke="#EC008C" stroke-miterlimit="10" x1="179.164" y1="782.175" x2="827.312" y2="782.175"/>
		<path fill="none" stroke="#EC008C" stroke-miterlimit="10" d="M179.164,217.046c0,0,220.387,23.5,320.073,23.5
			c99.687,0,328.075-23.5,328.075-23.5"/>
		<line fill="none" stroke="#EC008C" stroke-miterlimit="10" x1="827.312" y1="327.071" x2="179.164" y2="327.071"/>
		<path fill="none" stroke="#EC008C" stroke-miterlimit="10" d="M179.164,274.059c0,0,245.121,9.002,320.073,9.002
			c74.953,0,328.075-9.002,328.075-9.002"/>
		<line fill="none" stroke="#EC008C" stroke-miterlimit="10" x1="827.312" y1="378.083" x2="179.164" y2="378.083"/>
		<path fill="none" stroke="#EC008C" stroke-miterlimit="10" d="M179.164,114.023c0,0,171.042,55.158,320.073,51.085
			c149.034-4.072,328.075-51.085,328.075-51.085"/>
		<path fill="none" stroke="#EC008C" stroke-miterlimit="10" d="M179.164,70.014c0,0,195.713,55.062,320.073,55.062
			c124.36,0,328.075-63.064,328.075-63.064"/>
		<path fill="none" stroke="#EC008C" stroke-miterlimit="10" d="M827.312,162.034c0,0-208.379,41.155-328.075,41.084
			c-119.696-0.072-320.073-41.084-320.073-41.084"/>
	</g>
	<g id="moved_x5F_doc">
		<path fill="none" stroke="#EC008C" stroke-miterlimit="10" d="M190.167,13l7.031,581.462c0,0-1.601,98.001-1.482,149.361
			c0.119,51.359,6.454,110.368,6.454,110.368"/>
		<path fill="none" stroke="#EC008C" stroke-miterlimit="10" d="M811.309,13c0,0-8.067,131.397-8.247,172.724
			c-0.179,41.326-0.502,111.348-0.502,111.348s1.08,200.705-0.253,258.054c-1.334,57.349,7.419,250.737,5.001,299.066"/>
		<line fill="none" stroke="#EC008C" stroke-miterlimit="10" x1="499.237" y1="13" x2="499.237" y2="854.191"/>
		<line fill="none" stroke="#EC008C" stroke-miterlimit="10" x1="344.202" y1="13" x2="344.202" y2="854.191"/>
		<line fill="none" stroke="#EC008C" stroke-miterlimit="10" x1="635.267" y1="13" x2="635.267" y2="854.191"/>
		<path fill="none" stroke="#EC008C" stroke-miterlimit="10" d="M269.185,13c0,0-2,697.497-2,727.503s2,113.688,2,113.688"/>
		<line fill="none" stroke="#EC008C" stroke-miterlimit="10" x1="420.219" y1="13" x2="420.219" y2="854.191"/>
		<line fill="none" stroke="#EC008C" stroke-miterlimit="10" x1="578.254" y1="13" x2="578.254" y2="854.191"/>
		<line fill="none" stroke="#EC008C" stroke-miterlimit="10" x1="663.273" y1="13" x2="663.273" y2="854.191"/>
		<path fill="none" stroke="#EC008C" stroke-miterlimit="10" d="M218.173,13c0,0,1.937,703.52,1.937,728.848
			s4.064,112.344,4.064,112.344"/>
		<path fill="none" stroke="#EC008C" stroke-miterlimit="10" d="M243.178,13c0,0-1.227,720.199-1.227,745.501
			c0,25.3,3.227,95.69,3.227,95.69"/>
		<line fill="none" stroke="#EC008C" stroke-miterlimit="10" x1="293.19" y1="13" x2="293.19" y2="854.191"/>
		<line fill="none" stroke="#EC008C" stroke-miterlimit="10" x1="318.195" y1="13" x2="318.195" y2="854.191"/>
		<line fill="none" stroke="#EC008C" stroke-miterlimit="10" x1="369.208" y1="13" x2="369.208" y2="854.191"/>
		<line fill="none" stroke="#EC008C" stroke-miterlimit="10" x1="394.213" y1="13" x2="394.213" y2="854.191"/>
		<line fill="none" stroke="#EC008C" stroke-miterlimit="10" x1="445.225" y1="13" x2="445.225" y2="854.191"/>
		<line fill="none" stroke="#EC008C" stroke-miterlimit="10" x1="471.23" y1="854.191" x2="471.23" y2="13"/>
		<line fill="none" stroke="#EC008C" stroke-miterlimit="10" x1="525.243" y1="13" x2="525.243" y2="854.191"/>
		<line fill="none" stroke="#EC008C" stroke-miterlimit="10" x1="551.248" y1="854.191" x2="551.248" y2="13"/>
		<line fill="none" stroke="#EC008C" stroke-miterlimit="10" x1="606.262" y1="13" x2="606.262" y2="854.191"/>
		<line fill="none" stroke="#EC008C" stroke-miterlimit="10" x1="692.281" y1="13" x2="692.281" y2="854.191"/>
		<line fill="none" stroke="#EC008C" stroke-miterlimit="10" x1="720.287" y1="854.191" x2="720.287" y2="13"/>
		<polyline fill="none" stroke="#EC008C" stroke-miterlimit="10" points="750.294,13 748.067,203.716 749.294,854.191 		"/>
		<path fill="none" stroke="#EC008C" stroke-miterlimit="10" d="M778.3,854.191c0,0-3.629-602.403-2.448-652.473
			C777.034,151.649,780.302,13,780.302,13"/>
	</g>
</g>
</svg>
