<svg display="none" width="0" height="0" version="1.1" xmlns="http://www.w3.org/2000/svg" xmlns:xlink="http://www.w3.org/1999/xlink">
    <defs>
        <symbol id="edit-success" viewBox="0 0 67 65">
            <path d="M53 20.0138V43.3971C53 48.7006 48.7006 53 43.3971 53H9.60294C4.29942 53 0 48.7006 0 43.3971V9.60294C0 4.29942 4.29942 0 9.60294 0L20.97 2.55466L32.9853 0C34.214 0 35.3924 0.488076 36.2613 1.35699L51.6429 16.7375C52.5118 17.6065 53 18.785 53 20.0138Z" fill="#9DC6FB"/>
            <path d="M14.4966 53H9.60294C4.29973 53 0 48.7003 0 43.3971V9.60294C0 4.29973 4.29973 0 9.60294 0L11.4313 0.49967C7.63107 1.77902 4.89381 5.37153 4.89381 9.60283V43.397C4.8937 48.7003 9.19343 53 14.4966 53Z" fill="#80B4FB"/>
            <path d="M28.9308 17.157H13.6565C11.4176 17.157 9.60254 15.3419 9.60254 13.103V0H32.9849V13.103C32.9849 15.3419 31.1698 17.157 28.9308 17.157Z" fill="#F9F6F9"/>
            <path d="M26.183 14.1508C24.5966 14.1508 23.3105 12.8647 23.3105 11.2783V6.17181C23.3105 4.58544 24.5966 3.29936 26.183 3.29936C27.7694 3.29936 29.0555 4.58544 29.0555 6.17181V11.2783C29.0555 12.8647 27.7694 14.1508 26.183 14.1508Z" fill="#2B4D66"/>
            <path d="M38.0478 23.9383H14.9514C11.9974 23.9383 9.60254 26.333 9.60254 29.2872V39.4412C9.60254 42.3953 11.9973 44.7901 14.9514 44.7901H38.0478C41.0018 44.7901 43.3967 42.3953 43.3967 39.4412V29.2872C43.3967 26.333 41.0019 23.9383 38.0478 23.9383Z" fill="#F9F6F9"/>
            <path d="M37.1385 32.7436H15.8613C15.4196 32.7436 15.0615 32.3856 15.0615 31.9439C15.0615 31.5022 15.4196 31.1441 15.8613 31.1441H37.1385C37.5802 31.1441 37.9383 31.5022 37.9383 31.9439C37.9384 32.3856 37.5802 32.7436 37.1385 32.7436Z" fill="#407093"/>
            <path d="M37.1385 37.5843H15.8613C15.4196 37.5843 15.0615 37.2262 15.0615 36.7845C15.0615 36.3428 15.4196 35.9847 15.8613 35.9847H37.1385C37.5802 35.9847 37.9383 36.3428 37.9383 36.7845C37.9384 37.2262 37.5802 37.5843 37.1385 37.5843Z" fill="#407093"/>
            <path d="M49.556 64.112C58.6996 64.112 66.112 56.6996 66.112 47.556C66.112 38.4124 58.6996 31 49.556 31C40.4124 31 33 38.4124 33 47.556C33 56.6996 40.4124 64.112 49.556 64.112Z" fill="#6FCF97"/>
            <path d="M58.5577 42.7961L47.7963 54.5923C47.072 55.4201 45.8303 55.4201 45.1059 54.5923L40.553 49.522C39.9322 48.7977 39.9322 47.6595 40.6565 46.9351C41.3809 46.3143 42.519 46.3143 43.2434 47.0386L46.4511 50.6602L55.8673 40.4162C56.5917 39.6918 57.7299 39.5884 58.4542 40.3127C59.1785 40.9336 59.1785 42.1753 58.5577 42.7961Z" fill="white"/>
        </symbol>
        <symbol id="gearlaunch" viewBox="0 0 200 200">
            <path fill="#29b9cd" d="M0,99.959c0.564-29.218,11.194-54.042,32.758-73.904c15.009-13.827,32.791-22.074,53-25.011
		c13.552-1.969,26.947-1.143,40.178,2.382c1.267,0.338,1.267,0.343,0.312,1.297c-15.692,15.695-31.387,31.388-47.082,47.083
		c-7.409,7.409-14.825,14.814-22.228,22.23c-6.357,6.371-12.689,12.769-19.07,19.113c-0.746,0.742-0.609,1.113,0.05,1.772
		c22.432,22.401,44.848,44.818,67.25,67.25c0.627,0.629,0.95,0.779,1.674,0.052c14.851-14.901,29.728-29.776,44.621-44.634
		c0.644-0.642,0.755-0.982,0.039-1.692c-6.728-6.665-13.422-13.365-20.096-20.084c-0.674-0.679-1.041-0.757-1.766-0.026
		c-7.559,7.615-15.169,15.179-22.724,22.798c-0.761,0.768-1.127,0.694-1.844-0.028c-6.054-6.112-12.14-12.194-18.248-18.252
		c-0.626-0.623-0.677-0.939-0.02-1.594c25.195-25.158,50.37-50.336,75.533-75.526c0.612-0.611,0.974-0.672,1.657-0.089
		c18.452,15.688,30.329,35.329,34.376,59.225c5.381,31.778-2.57,60.118-23.935,84.332c-15.264,17.298-34.518,27.96-57.285,31.771
		c-28.417,4.755-54.44-1.418-77.457-18.794c-20.488-15.476-33.062-36.092-37.938-61.336c-0.438-2.267-0.766-4.559-1.039-6.852
		C0.263,107.636,0.035,103.812,0,99.959z" />
        </symbol>
        <symbol id="redo-alt-solid" viewBox="0 0 512 512">
            <path class="path-1" fill="currentColor" d="M507.817,0h-48.131c-6.958,0-12.501,5.82-12.169,12.774l4.026,84.072C405.366,42.564,336.593,8.127,259.771,8.127
                C121.032,8.127,7.897,121.423,8,260.253C8.103,399.307,120.786,512,259.771,512c64.897,0,124.06-24.571,168.704-64.923
                c5.19-4.691,5.436-12.76,0.489-17.709l-34.486-34.511c-4.535-4.537-11.817-4.792-16.631-0.551
                c-31.472,27.737-72.792,44.551-118.076,44.551c-98.746,0-178.676-79.965-178.676-178.794c0-98.811,79.912-178.793,178.676-178.793
                c61.817,0,116.246,31.348,148.32,79.035l-103.068-4.942c-6.949-0.333-12.766,5.214-12.766,12.176v48.164
                c0,6.732,5.455,12.191,12.182,12.191h203.378c6.729,0,12.183-5.458,12.183-12.191V12.19C520,5.458,514.546,0,507.817,0z"/>
        </symbol>
        <symbol id="key-solid" viewBox="0 0 512 512">
            <path d="M512,176.001C512,273.204,433.202,352,336,352c-11.221,0-22.19-1.062-32.827-3.069l-24.012,27.014
                c-4.554,5.124-11.082,8.055-17.938,8.055H224v40c0,13.256-10.745,24-24,24h-40v40c0,13.256-10.745,24-24,24H24
                c-13.255,0-24-10.744-24-24V409.94c0-6.365,2.529-12.47,7.029-16.97l161.802-161.802C163.108,213.814,160,195.271,160,176
                C160,78.798,238.797,0.001,336,0C433.488-0.001,512,78.511,512,176.001z M336,128c0,26.51,21.49,48,48,48c26.511,0,48-21.49,48-48
                s-21.489-48-48-48C357.49,80,336,101.49,336,128z" />
        </symbol>
        <symbol id="horizontal-center" viewBox="0 0 29 18">
            <path fill="currentColor" d="M0,9c0-0.552,0.448-1,1-1h10c0.552,0,1,0.448,1,1c0,0.553-0.448,1-1,1H1C0.448,10,0,9.553,0,9z"/>
            <path fill="currentColor" d="M13,9l-4.5,5.196V3.804L13,9z"/>
            <path fill="currentColor" d="M16,9l4.5-5.196v10.393L16,9z"/>
            <path fill="currentColor" d="M29,9c0,0.553-0.447,1-1,1H18c-0.553,0-1-0.447-1-1c0-0.552,0.447-1,1-1h10C28.553,8,29,8.448,29,9z"/>
            <path fill="currentColor" d="M14,17.5v-17C14,0.224,14.224,0,14.5,0l0,0C14.776,0,15,0.224,15,0.5v17c0,0.276-0.224,0.5-0.5,0.5l0,0 C14.224,18,14,17.776,14,17.5z"/>
        </symbol>
        <symbol id="vertical-center" viewBox="0 0 18 29">
            <path fill="currentColor" d="M9,0c0.553,0,1,0.448,1,1v10c0,0.552-0.447,1-1,1c-0.552,0-1-0.448-1-1V1C8,0.448,8.448,0,9,0z"/>
            <path fill="currentColor" d="M9,13L3.804,8.5h10.393L9,13z"/>
            <path fill="currentColor" d="M9,16l5.196,4.5H3.804L9,16z"/>
            <path fill="currentColor" d="M9,29c-0.552,0-1-0.447-1-1V18c0-0.553,0.448-1,1-1c0.553,0,1,0.447,1,1v10C10,28.553,9.553,29,9,29z"/>
            <path fill="currentColor" d="M0.5,14h17c0.276,0,0.5,0.224,0.5,0.5l0,0c0,0.276-0.224,0.5-0.5,0.5h-17C0.224,15,0,14.776,0,14.5l0,0 C0,14.224,0.224,14,0.5,14z"/>
        </symbol>
        <symbol viewBox="0 0 512.001 512" id="crosshair-solid">
            <path fill="currentColor" d="M500.001,224h-30.364C455.724,130.325,381.676,56.276,288,42.364V12c0-6.627-5.373-12-12-12h-40c-6.627,0-12,5.373-12,12
                v30.364C130.325,56.276,56.276,130.325,42.364,224H12c-6.627,0-12,5.373-12,12v40c0,6.627,5.373,12,12,12h30.364
                C56.276,381.675,130.325,455.724,224,469.636V500c0,6.627,5.373,12,12,12h40c6.627,0,12-5.373,12-12v-30.363
                C381.676,455.724,455.724,381.675,469.636,288h30.364c6.627,0,12-5.373,12-12v-40C512.001,229.373,506.628,224,500.001,224z
                M288,404.634V364c0-6.627-5.373-12-12-12h-40c-6.627,0-12,5.373-12,12v40.634C165.826,392.232,119.783,346.243,107.366,288H148
                c6.627,0,12-5.373,12-12v-40c0-6.627-5.373-12-12-12h-40.634C119.768,165.826,165.757,119.783,224,107.366V148
                c0,6.627,5.373,12,12,12h40c6.627,0,12-5.373,12-12v-40.634C346.175,119.768,392.218,165.757,404.635,224h-40.634
                c-6.628,0-12,5.373-12,12v40c0,6.627,5.372,12,12,12h40.634C392.232,346.174,346.243,392.217,288,404.634z M288,256
                c0,17.673-14.327,32-32,32s-32-14.327-32-32s14.327-32,32-32S288,238.327,288,256z"/>
        </symbol>
        <symbol viewBox="0 0 24 24" id="opacity">
            <path fill="currentColor"  d="M22.0129 5.3873C21.1464 4.07888 20.0492 2.96724 18.7519 2.08309C18.4309 1.86441 17.9935 1.94715 17.7748 2.26787C17.5561 2.58863 17.6389 3.02584 17.9597 3.24451C19.1057 4.02549 20.0749 5.00748 20.8402 6.16323C21.0544 6.48657 21.4904 6.57577 21.8147 6.36132C22.1384 6.14705 22.2272 5.71098 22.0129 5.3873Z"/>
            <path fill="currentColor"  d="M21.8118 17.6448C21.4882 17.4303 21.0519 17.5189 20.8374 17.8424C20.0712 18.9978 19.1016 19.9793 17.9552 20.7597C17.6342 20.9782 17.5512 21.4154 17.7698 21.7362C17.9884 22.0571 18.426 22.1399 18.7468 21.9215C20.0446 21.0381 21.1423 19.9269 22.0096 18.6188C22.2241 18.2953 22.1356 17.8592 21.8118 17.6448Z"/>
            <path fill="currentColor"  d="M23.7762 9.68341C23.7016 9.30245 23.332 9.05416 22.951 9.12869C22.5699 9.20327 22.3215 9.57255 22.3961 9.95345C22.6516 11.2579 22.6679 12.6644 22.395 14.0537C22.3201 14.4345 22.5684 14.8039 22.9494 14.8787C23.3317 14.9537 23.7002 14.7043 23.7748 14.3245C24.0657 12.8442 24.0838 11.2538 23.7762 9.68341Z"/>
            <path fill="currentColor"  d="M15.0158 22.9083C14.9362 22.5284 14.5635 22.2852 14.1834 22.3644C13.6978 22.4661 13.2022 22.5328 12.7031 22.5655V1.4348C13.2022 1.46757 13.6978 1.53422 14.1834 1.63589C14.564 1.71539 14.9362 1.47164 15.0158 1.09205C15.0954 0.712129 14.8518 0.339614 14.4717 0.260067C6.99948 -1.30434 0 4.38769 0 12.0002C0 19.629 7.01555 25.3013 14.4717 23.7403C14.8518 23.6607 15.0954 23.2882 15.0158 22.9083Z"/>
        </symbol>

        <symbol  viewBox="0 0 9 12" id="wait">
            <path d="M6.50588 5.07431C7.09355 4.72537 7.58053 4.2298 7.91914 3.6361C8.25774 3.04241 8.43636 2.37096 8.4375 1.6875V1.125H9V0H0V1.125H0.5625V1.6875C0.563641 2.37096 0.742258 3.04241 1.08086 3.6361C1.41947 4.2298 1.90645 4.72537 2.49412 5.07431C2.69325 5.19131 2.8125 5.38088 2.8125 5.58056V5.66944C2.8125 5.86856 2.69325 6.05756 2.49412 6.17569C1.90645 6.52463 1.41947 7.02021 1.08086 7.6139C0.742258 8.20759 0.563641 8.87904 0.5625 9.5625V10.125H0V11.25H9V10.125H8.4375V9.5625C8.43643 8.87917 8.2579 8.20783 7.91939 7.61423C7.58088 7.02063 7.094 6.52513 6.50644 6.17625C6.30675 6.05813 6.1875 5.86856 6.1875 5.66944V5.58056C6.1875 5.38088 6.30675 5.19131 6.50588 5.07431ZM5.93494 7.14488C6.35421 7.39411 6.70158 7.74794 6.94306 8.17173C7.18453 8.59552 7.31183 9.07474 7.3125 9.5625V10.125H1.6875V9.5625C1.68824 9.07462 1.81562 8.59528 2.05719 8.1714C2.29876 7.74752 2.64624 7.39361 3.06562 7.14431C3.61181 6.822 3.9375 6.27019 3.9375 5.66944V5.58056C3.9375 4.97925 3.61125 4.42688 3.06506 4.10513C2.64579 3.85589 2.29842 3.50206 2.05694 3.07827C1.81547 2.65448 1.68817 2.17526 1.6875 1.6875V1.125H7.3125V1.6875C7.3125 2.6775 6.78487 3.60338 5.93494 4.10513C5.38875 4.42688 5.0625 4.97925 5.0625 5.58056V5.66944C5.0625 6.27019 5.38819 6.822 5.93494 7.14488Z" fill="currentColor"/>
            <path d="M3.58048 3.6405C3.86307 3.78796 4.09525 3.9895 4.25602 4.22688C4.4168 4.46426 4.50108 4.72998 4.50125 5C4.50125 4.43321 4.86455 3.93451 5.41451 3.6445C5.69792 3.49473 5.90547 3.2691 6 3.00801L3 3C3.09558 3.26838 3.30175 3.49069 3.57548 3.63849L3.58048 3.6405Z" fill="currentColor"/>
        </symbol>
        <symbol viewBox="0 -18 512 512" id="add-image">
            <path d="m432 0h-352c-44.113281 0-80 35.886719-80 80v280c0 44.113281 35.886719 80 80 80h190c7.628906 0 14.59375-4.339844 17.957031-11.191406 3.359375-6.847656 2.53125-15.015625-2.140625-21.046875l-52.3125-67.609375 144.992188-184.425782 93.503906 111.546876v33.726562c0 11.046875 8.953125 20 20 20s20-8.953125 20-20v-221c0-44.113281-35.886719-80-80-80zm-38.671875 111.152344c-3.871094-4.617188-9.609375-7.253906-15.640625-7.148438-6.027344.09375-11.6875 2.898438-15.410156 7.636719l-154.015625 195.894531-52.445313-67.773437c-3.789062-4.898438-9.628906-7.761719-15.816406-7.761719-.007812 0-.019531 0-.027344 0-6.199218.007812-12.046875 2.890625-15.824218 7.804688l-44.015626 57.21875c-6.734374 8.757812-5.097656 21.3125 3.65625 28.046874 8.757813 6.738282 21.3125 5.097657 28.046876-3.65625l28.210937-36.671874 89.1875 115.257812h-149.234375c-22.054688 0-40-17.945312-40-40v-280c0-22.054688 17.945312-40 40-40h352c22.054688 0 40 17.945312 40 40v125.007812zm-253.328125-39.152344c-33.085938 0-60 26.914062-60 60s26.914062 60 60 60 60-26.914062 60-60-26.914062-60-60-60zm0 80c-11.027344 0-20-8.972656-20-20s8.972656-20 20-20 20 8.972656 20 20-8.972656 20-20 20zm372 229c0 11.046875-8.953125 20-20 20h-55v55c0 11.046875-8.953125 20-20 20s-20-8.953125-20-20v-55h-55c-11.046875 0-20-8.953125-20-20s8.953125-20 20-20h55v-55c0-11.046875 8.953125-20 20-20s20 8.953125 20 20v55h55c11.046875 0 20 8.953125 20 20zm0 0"/>
        </symbol>

        <symbol viewBox="0 0 10 10" fill="none" id="cross">
            <path d="M10.0001 1.00954L8.9906 1.52588e-05L5.00012 3.99049L1.00965 1.52588e-05L0.00012207 1.00954L3.9906 5.00002L0.00012207 8.99049L1.00965 10L5.00012 6.00954L8.9906 10L10.0001 8.99049L6.00965 5.00002L10.0001 1.00954Z" fill="currentColor"/>
        </symbol>
        <symbol id="popup-warning" viewBox="0 0 50 50">
            <path d="M49.7496 43.8439L26.5381 4.33272C25.8471 3.15645 24.153 3.15645 23.4619 4.33272L0.2505 43.8439C-0.45204 45.0397 0.406262 46.5495 1.78859 46.5495H48.2113C49.5937 46.5494 50.4521 45.0397 49.7496 43.8439Z" fill="#464655"/>
            <path d="M30.2822 10.7063C22.9067 16.0286 18.1015 24.6915 18.1015 34.4817C18.1015 38.7854 19.0368 42.8682 20.703 46.5494H48.2114C49.5937 46.5494 50.452 45.0397 49.7494 43.8438L30.2822 10.7063Z" fill="#5B5D6E"/>
            <path d="M24.6284 9.1541L5.25273 42.1361C5.00175 42.5633 5.30986 43.1015 5.80527 43.1015H44.1949C44.6903 43.1015 44.9984 42.5633 44.7475 42.1361L25.3716 9.1541C25.205 8.87051 24.795 8.87051 24.6284 9.1541Z" fill="#FFDC64"/>
            <path d="M18.1016 34.4817C18.1016 37.4819 18.5545 40.376 19.3922 43.1016H44.1949C44.6903 43.1016 44.9985 42.5634 44.7475 42.1362L27.5771 12.9083C21.7534 18.2645 18.1016 25.9456 18.1016 34.4817Z" fill="#FFF082"/>
            <path d="M25.0027 38.7911C25.9548 38.7911 26.7267 38.0193 26.7267 37.0672C26.7267 36.1151 25.9548 35.3433 25.0027 35.3433C24.0506 35.3433 23.2788 36.1151 23.2788 37.0672C23.2788 38.0193 24.0506 38.7911 25.0027 38.7911Z" fill="#464655"/>
            <path d="M23.3446 20.8175L24.0835 31.9C24.1157 32.3832 24.4911 32.7578 24.9434 32.7578H25.0621C25.5144 32.7578 25.8897 32.3834 25.922 31.9L26.6608 20.8175C26.6965 20.2828 26.3013 19.8281 25.801 19.8281H24.2046C23.7042 19.8281 23.309 20.2829 23.3446 20.8175Z" fill="#464655"/>
            <path d="M44.1949 43.9635H5.80488C5.26787 43.9635 4.76777 43.6738 4.50087 43.2075C4.23398 42.7407 4.2374 42.1629 4.50927 41.6995L23.8855 8.7166C24.1203 8.31758 24.537 8.07939 25.0009 8.07939C25.4639 8.07939 25.8806 8.31758 26.1154 8.7166L45.4905 41.6994C45.7624 42.1633 45.7658 42.7411 45.4989 43.2074C45.2321 43.6738 44.732 43.9635 44.1949 43.9635ZM6.1913 42.2395H43.8086L24.9998 10.223L6.1913 42.2395Z" fill="#FFC850"/>
            <path d="M43.8085 42.2396H19.1474C19.3068 42.822 19.4848 43.3962 19.6787 43.9635H44.1951C44.7321 43.9635 45.2322 43.6738 45.4991 43.2075C45.766 42.7412 45.7626 42.1634 45.4907 41.6995L28.2358 12.3266C27.7912 12.7117 27.3569 13.1083 26.9363 13.5191L43.8085 42.2396Z" fill="#FFDC64"/>
        </symbol>
        <symbol id="payout" viewBox="0 0 15 14" fill="none">
            <path d="M12.75 3H12V2.25C12 1.65326 11.7629 1.08097 11.341 0.65901C10.919 0.237053 10.3467 0 9.75 0H2.25C1.65326 0 1.08097 0.237053 0.65901 0.65901C0.237053 1.08097 0 1.65326 0 2.25V11.25C0 11.8467 0.237053 12.419 0.65901 12.841C1.08097 13.2629 1.65326 13.5 2.25 13.5H12.75C13.3467 13.5 13.919 13.2629 14.341 12.841C14.7629 12.419 15 11.8467 15 11.25V5.25C15 4.65326 14.7629 4.08097 14.341 3.65901C13.919 3.23705 13.3467 3 12.75 3ZM2.25 1.5H9.75C9.94891 1.5 10.1397 1.57902 10.2803 1.71967C10.421 1.86032 10.5 2.05109 10.5 2.25V3H2.25C2.05109 3 1.86032 2.92098 1.71967 2.78033C1.57902 2.63968 1.5 2.44891 1.5 2.25C1.5 2.05109 1.57902 1.86032 1.71967 1.71967C1.86032 1.57902 2.05109 1.5 2.25 1.5ZM13.5 9H12.75C12.5511 9 12.3603 8.92098 12.2197 8.78033C12.079 8.63968 12 8.44891 12 8.25C12 8.05109 12.079 7.86032 12.2197 7.71967C12.3603 7.57902 12.5511 7.5 12.75 7.5H13.5V9ZM13.5 6H12.75C12.1533 6 11.581 6.23705 11.159 6.65901C10.7371 7.08097 10.5 7.65326 10.5 8.25C10.5 8.84674 10.7371 9.41903 11.159 9.84099C11.581 10.2629 12.1533 10.5 12.75 10.5H13.5V11.25C13.5 11.4489 13.421 11.6397 13.2803 11.7803C13.1397 11.921 12.9489 12 12.75 12H2.25C2.05109 12 1.86032 11.921 1.71967 11.7803C1.57902 11.6397 1.5 11.4489 1.5 11.25V4.3725C1.74095 4.45726 1.99458 4.50038 2.25 4.5H12.75C12.9489 4.5 13.1397 4.57902 13.2803 4.71967C13.421 4.86032 13.5 5.05109 13.5 5.25V6Z" fill="currentColor"/>
        </symbol>
        <symbol  viewBox="0 0 26 24" id="shop">
        <path d="M24.5944 12.1123V23.9997H18.8333V16.5074H14.659V23.9997H1.40557V12.1122C0.546801 11.3903 0 10.3088 0 9.10173V5.56803L3.44951 0H22.447L26 5.56118V9.10173C26 10.3088 25.4532 11.3904 24.5944 12.1123ZM18.4031 1.81955L19.9549 5.85006V8.21839V9.10173C19.9549 9.43781 20.0342 9.75556 20.1744 10.0379C20.5202 10.7344 21.2388 11.2145 22.0677 11.2145C22.3157 11.2145 22.5536 11.1712 22.7749 11.0924C23.5931 10.8008 24.1805 10.0188 24.1805 9.10175V8.21842V6.09284L21.4503 1.81957H18.4031V1.81955ZM13.9098 1.81955V8.21842V9.10175C13.9098 9.43783 13.989 9.75559 14.1292 10.038C14.4751 10.7345 15.1937 11.2145 16.0226 11.2145C16.8515 11.2145 17.5701 10.7345 17.9159 10.038C18.0561 9.75559 18.1354 9.43781 18.1354 9.10175V8.21842V6.18825L16.4533 1.81957L13.9098 1.81955ZM9.54666 1.81955L7.86465 6.18825V8.21842V9.10175C7.86465 9.43783 7.9439 9.75559 8.08412 10.038C8.42994 10.7345 9.14853 11.2145 9.97744 11.2145C10.8064 11.2145 11.5249 10.7345 11.8708 10.038C12.011 9.75559 12.0902 9.43781 12.0902 9.10175V8.21842V1.81955H9.54666ZM4.46268 1.81955L1.81955 6.08599V8.21842V9.10175C1.81955 10.0188 2.40697 10.8009 3.22512 11.0924C3.44638 11.1712 3.68432 11.2145 3.93234 11.2145C4.76125 11.2145 5.47981 10.7345 5.82563 10.038C5.96584 9.75559 6.0451 9.43781 6.0451 9.10175V8.21842V5.85009L7.59691 1.8196H4.46268V1.81955ZM3.22512 22.1801H12.8395V14.6879H20.6528V22.1801H22.7749V12.9702C22.5454 13.0121 22.309 13.0341 22.0677 13.0341C20.8539 13.0341 19.767 12.4815 19.0451 11.6145C18.3232 12.4815 17.2363 13.0341 16.0226 13.0341C14.8088 13.0341 13.7219 12.4815 13 11.6145C12.2781 12.4815 11.1911 13.0341 9.97744 13.0341C8.76374 13.0341 7.67678 12.4815 6.95487 11.6145C6.23297 12.4815 5.14603 13.0341 3.93234 13.0341C3.69095 13.0341 3.45463 13.0121 3.22512 12.9702V22.1801Z" fill="currentColor"/>
        </symbol>
        <symbol viewBox="0 0 12 12" id="arrow-down">
            <path fill="currentColor" d="M12,6,10.94,4.94,6.75,9.13V0H5.25V9.13L1.06,4.94,0,6l6,6Z"/>
        </symbol>
        <symbol viewBox="0 0 12 12" id="arrow-up">
            <path fill="currentColor" d="M0,6,1.06,7.06,5.25,2.87V12h1.5V2.87l4.19,4.19L12,6,6,0Z"/>
        </symbol>
    </defs>
</svg>