<svg width="14" height="13" viewBox="0 0 14 13" fill="none" xmlns="http://www.w3.org/2000/svg">
<path d="M11.7653 0.980646C11.6465 0.783662 11.479 0.620613 11.2788 0.507227C11.0787 0.393841 10.8527 0.333944 10.6227 0.333313H3.37734C2.912 0.333313 2.474 0.581313 2.23467 0.980646L0.42867 3.98998C0.366173 4.09359 0.333206 4.21232 0.333336 4.33331C0.335999 4.97679 0.572999 5.59726 1 6.07865V11.6666C1 12.402 1.598 13 2.33334 13H11.6667C12.402 13 13 12.402 13 11.6666V6.07865C13.427 5.59726 13.664 4.97679 13.6667 4.33331C13.6668 4.21232 13.6338 4.09359 13.5713 3.98998L11.7653 0.980646ZM12.3227 4.50065C12.2815 4.82253 12.1246 5.11841 11.8812 5.333C11.6377 5.54758 11.3245 5.66619 11 5.66665C10.2647 5.66665 9.66667 5.06865 9.66667 4.33331C9.66667 4.28798 9.65 4.24798 9.64067 4.20531L9.654 4.20265L9.14667 1.66665H10.6227L12.3227 4.50065ZM6.21267 1.66665H7.78667L8.32867 4.37665C8.30534 5.09131 7.72 5.66665 7 5.66665C6.28 5.66665 5.69467 5.09131 5.67134 4.37665L6.21267 1.66665ZM3.37734 1.66665H4.85334L4.34667 4.20265L4.36 4.20531C4.35 4.24798 4.33334 4.28798 4.33334 4.33331C4.33334 5.06865 3.73534 5.66665 3 5.66665C2.6755 5.66619 2.36227 5.54758 2.11886 5.333C1.87544 5.11841 1.71849 4.82253 1.67734 4.50065L3.37734 1.66665ZM5.66667 11.6666V9.66665H8.33334V11.6666H5.66667ZM9.66667 11.6666V9.66665C9.66667 8.93131 9.06867 8.33331 8.33334 8.33331H5.66667C4.93134 8.33331 4.33334 8.93131 4.33334 9.66665V11.6666H2.33334V6.90531C2.54734 6.96065 2.768 6.99998 3 6.99998C3.37855 7.00018 3.75277 6.91958 4.09767 6.76357C4.44257 6.60756 4.7502 6.37973 5 6.09531C5.48867 6.64998 6.20467 6.99998 7 6.99998C7.79534 6.99998 8.51134 6.64998 9 6.09531C9.2498 6.37973 9.55743 6.60756 9.90233 6.76357C10.2472 6.91958 10.6215 7.00018 11 6.99998C11.232 6.99998 11.4527 6.96065 11.6667 6.90531V11.6666H9.66667Z" fill="white"/>
</svg>
