<?xml version="1.0" encoding="utf-8"?>
<!-- Generator: Adobe Illustrator 16.0.0, SVG Export Plug-In . SVG Version: 6.00 Build 0)  -->
<!DOCTYPE svg PUBLIC "-//W3C//DTD SVG 1.1//EN" "http://www.w3.org/Graphics/SVG/1.1/DTD/svg11.dtd">
<svg version="1.1" xmlns="http://www.w3.org/2000/svg" xmlns:xlink="http://www.w3.org/1999/xlink" x="0px" y="0px" width="1000px"
	 height="1000px" viewBox="0 0 1000 1000" enable-background="new 0 0 1000 1000" xml:space="preserve">
<g id="Layer_2" display="none">
	
		<image display="inline" overflow="visible" width="1000" height="1000" xlink:href="map2.png"  transform="matrix(1 0 0 1 0.5 74.5)">
	</image>
	
		<image display="inline" overflow="visible" width="1000" height="1000" xlink:href="map.png"  transform="matrix(1 0 0 1 0.5 74.5)">
	</image>
</g>
<g id="Layer_1">
	<g id="default" display="none">
		<g id="default_doc" display="inline">
			<line fill="none" stroke="#2E3192" stroke-miterlimit="10" x1="500" y1="289.26" x2="500" y2="879.504"/>
			<line fill="none" stroke="#2E3192" stroke-miterlimit="10" x1="132.521" y1="385.195" x2="132.521" y2="772.423"/>
			<line fill="none" stroke="#2E3192" stroke-miterlimit="10" x1="876.423" y1="378.691" x2="876.423" y2="788.447"/>
			<line fill="none" stroke="#2E3192" stroke-miterlimit="10" x1="155.285" y1="378.691" x2="155.285" y2="781.943"/>
			<line fill="none" stroke="#2E3192" stroke-miterlimit="10" x1="178.049" y1="368.935" x2="178.049" y2="788.447"/>
			<line fill="none" stroke="#2E3192" stroke-miterlimit="10" x1="200.813" y1="361.618" x2="200.813" y2="807.146"/>
			<line fill="none" stroke="#2E3192" stroke-miterlimit="10" x1="223.577" y1="352.675" x2="223.577" y2="807.146"/>
			<line fill="none" stroke="#2E3192" stroke-miterlimit="10" x1="246.716" y1="347.797" x2="246.716" y2="824.22"/>
			<line fill="none" stroke="#2E3192" stroke-miterlimit="10" x1="270.358" y1="341.293" x2="270.358" y2="833.976"/>
			<line fill="none" stroke="#2E3192" stroke-miterlimit="10" x1="294.309" y1="341.293" x2="294.309" y2="840.479"/>
			<line fill="none" stroke="#2E3192" stroke-miterlimit="10" x1="317.886" y1="333.163" x2="317.886" y2="852.675"/>
			<line fill="none" stroke="#2E3192" stroke-miterlimit="10" x1="341.902" y1="330.098" x2="341.902" y2="846.357"/>
			<line fill="none" stroke="#2E3192" stroke-miterlimit="10" x1="366.293" y1="322.594" x2="366.293" y2="860.805"/>
			<line fill="none" stroke="#2E3192" stroke-miterlimit="10" x1="392.683" y1="322.594" x2="392.683" y2="855.927"/>
			<line fill="none" stroke="#2E3192" stroke-miterlimit="10" x1="419.325" y1="316.463" x2="419.325" y2="862.805"/>
			<line fill="none" stroke="#2E3192" stroke-miterlimit="10" x1="447.155" y1="312.837" x2="447.155" y2="855.927"/>
			<line fill="none" stroke="#2E3192" stroke-miterlimit="10" x1="473.545" y1="312.837" x2="473.545" y2="862.805"/>
			<line fill="none" stroke="#2E3192" stroke-miterlimit="10" x1="854.285" y1="377.691" x2="854.285" y2="780.943"/>
			<line fill="none" stroke="#2E3192" stroke-miterlimit="10" x1="830.049" y1="367.935" x2="830.049" y2="787.447"/>
			<line fill="none" stroke="#2E3192" stroke-miterlimit="10" x1="805.813" y1="360.618" x2="805.813" y2="806.146"/>
			<line fill="none" stroke="#2E3192" stroke-miterlimit="10" x1="781.577" y1="351.675" x2="781.577" y2="806.146"/>
			<line fill="none" stroke="#2E3192" stroke-miterlimit="10" x1="755.716" y1="346.797" x2="755.716" y2="823.22"/>
			<line fill="none" stroke="#2E3192" stroke-miterlimit="10" x1="703.357" y1="340.293" x2="703.357" y2="832.976"/>
			<line fill="none" stroke="#2E3192" stroke-miterlimit="10" x1="730.309" y1="340.293" x2="730.309" y2="839.479"/>
			<line fill="none" stroke="#2E3192" stroke-miterlimit="10" x1="677.887" y1="332.163" x2="677.887" y2="851.675"/>
			<line fill="none" stroke="#2E3192" stroke-miterlimit="10" x1="651.902" y1="329.098" x2="651.902" y2="845.357"/>
			<line fill="none" stroke="#2E3192" stroke-miterlimit="10" x1="627.293" y1="321.594" x2="627.293" y2="859.805"/>
			<line fill="none" stroke="#2E3192" stroke-miterlimit="10" x1="602.684" y1="321.594" x2="602.684" y2="854.927"/>
			<line fill="none" stroke="#2E3192" stroke-miterlimit="10" x1="578.325" y1="315.463" x2="578.325" y2="861.805"/>
			<line fill="none" stroke="#2E3192" stroke-miterlimit="10" x1="553.154" y1="311.837" x2="553.154" y2="854.927"/>
			<line fill="none" stroke="#2E3192" stroke-miterlimit="10" x1="526.545" y1="311.837" x2="526.545" y2="861.805"/>
		</g>
		<g id="default_ngang" display="inline">
			<path fill="none" stroke="#2E3192" stroke-miterlimit="10" d="M129.521,408.772c0,0,185.927-79.675,370.479-79.675
				s379.423,79.674,379.423,79.674"/>
			<path fill="none" stroke="#2E3192" stroke-miterlimit="10" d="M129.521,753.488c0,0,185.927,80.486,370.479,80.486
				s379.423-80.486,379.423-80.486"/>
			<path fill="none" stroke="#2E3192" stroke-miterlimit="10" d="M129.521,425.033c0,0,185.37-66.667,370.479-66.667
				s379.423,66.667,379.423,66.667"/>
			<path fill="none" stroke="#2E3192" stroke-miterlimit="10" d="M129.521,444.545c0,0,184.301-59.35,370.479-59.35
				s379.423,59.35,379.423,59.35"/>
			<path fill="none" stroke="#2E3192" stroke-miterlimit="10" d="M129.521,464.057c0,0,185.927-54.284,370.479-54.284
				s379.423,54.284,379.423,54.284"/>
			<path fill="none" stroke="#2E3192" stroke-miterlimit="10" d="M129.521,483.569c0,0,185.927-46.407,370.479-46.407
				s379.423,46.407,379.423,46.407"/>
			<path fill="none" stroke="#2E3192" stroke-miterlimit="10" d="M129.521,504.707c0,0,186.374-41.341,370.479-41.341
				s379.423,41.341,379.423,41.341"/>
			<path fill="none" stroke="#2E3192" stroke-miterlimit="10" d="M129.521,526.658c0,0,185.927-32.089,370.479-32.089
				s379.423,32.089,379.423,32.089"/>
			<path fill="none" stroke="#2E3192" stroke-miterlimit="10" d="M129.521,546.171c0,0,185.927-18.96,370.479-18.96
				s379.423,18.96,379.423,18.96"/>
			<path fill="none" stroke="#2E3192" stroke-miterlimit="10" d="M129.521,567.309c0,0,184.301-8.08,370.479-8.08
				s379.423,8.08,379.423,8.08"/>
			<path fill="none" stroke="#2E3192" stroke-miterlimit="10" d="M129.521,586.821c0,0,185.927,1.486,370.479,1.486
				s379.423-1.486,379.423-1.486"/>
			<path fill="none" stroke="#2E3192" stroke-miterlimit="10" d="M129.521,605.521c0,0,185.927,9.805,370.479,9.805
				s379.423-9.805,379.423-9.805"/>
			<path fill="none" stroke="#2E3192" stroke-miterlimit="10" d="M129.521,626.658c0,0,185.793,17,370.479,17s379.423-17,379.423-17
				"/>
			<path fill="none" stroke="#2E3192" stroke-miterlimit="10" d="M129.521,646.983c0,0,185.113,27.316,370.479,27.316
				s379.423-27.316,379.423-27.316"/>
			<path fill="none" stroke="#2E3192" stroke-miterlimit="10" d="M129.521,669.748c0,0,185.113,37.699,370.479,37.699
				s379.423-37.699,379.423-37.699"/>
			<path fill="none" stroke="#2E3192" stroke-miterlimit="10" d="M129.521,688.447c0,0,185.113,51.895,370.479,51.895
				s379.423-51.895,379.423-51.895"/>
			<path fill="none" stroke="#2E3192" stroke-miterlimit="10" d="M129.521,708.771c0,0,185.927,63.65,370.479,63.65
				s379.423-63.65,379.423-63.65"/>
			<path fill="none" stroke="#2E3192" stroke-miterlimit="10" d="M129.521,729.098c0,0,185.113,73.162,370.479,73.162
				s379.423-73.162,379.423-73.162"/>
		</g>
	</g>
	<g id="moved">
		<g id="moved_doc">
			<line fill="none" stroke="#2E3192" stroke-miterlimit="10" x1="500" y1="316.26" x2="500" y2="906.504"/>
			<line fill="none" stroke="#2E3192" stroke-miterlimit="10" x1="172.521" y1="323.195" x2="201.521" y2="710.423"/>
			<line fill="none" stroke="#2E3192" stroke-miterlimit="10" x1="842.423" y1="329.691" x2="795.423" y2="738.447"/>
			<line fill="none" stroke="#2E3192" stroke-miterlimit="10" x1="193.951" y1="328.156" x2="209.951" y2="721.408"/>
			<line fill="none" stroke="#2E3192" stroke-miterlimit="10" x1="212.049" y1="324.935" x2="223.049" y2="729.447"/>
			<line fill="none" stroke="#2E3192" stroke-miterlimit="10" x1="228.813" y1="321.618" x2="238.813" y2="739.146"/>
			<line fill="none" stroke="#2E3192" stroke-miterlimit="10" x1="245.577" y1="319.675" x2="254.577" y2="774.146"/>
			<line fill="none" stroke="#2E3192" stroke-miterlimit="10" x1="263.716" y1="324.797" x2="269.716" y2="801.22"/>
			<line fill="none" stroke="#2E3192" stroke-miterlimit="10" x1="281.358" y1="322.293" x2="286.358" y2="814.976"/>
			<line fill="none" stroke="#2E3192" stroke-miterlimit="10" x1="301.309" y1="323.293" x2="303.309" y2="822.479"/>
			<line fill="none" stroke="#2E3192" stroke-miterlimit="10" x1="322.886" y1="317.163" x2="322.886" y2="836.675"/>
			<line fill="none" stroke="#2E3192" stroke-miterlimit="10" x1="346.902" y1="319.098" x2="346.902" y2="835.357"/>
			<line fill="none" stroke="#2E3192" stroke-miterlimit="10" x1="371.293" y1="322.594" x2="371.293" y2="870.805"/>
			<line fill="none" stroke="#2E3192" stroke-miterlimit="10" x1="397.683" y1="322.594" x2="397.683" y2="855.927"/>
			<line fill="none" stroke="#2E3192" stroke-miterlimit="10" x1="423.325" y1="316.463" x2="423.325" y2="872.805"/>
			<line fill="none" stroke="#2E3192" stroke-miterlimit="10" x1="449.155" y1="322.837" x2="449.155" y2="865.927"/>
			<line fill="none" stroke="#2E3192" stroke-miterlimit="10" x1="474.545" y1="322.837" x2="474.545" y2="872.805"/>
			<line fill="none" stroke="#2E3192" stroke-miterlimit="10" x1="827.285" y1="328.691" x2="788.285" y2="731.943"/>
			<line fill="none" stroke="#2E3192" stroke-miterlimit="10" x1="810.049" y1="322.935" x2="777.049" y2="742.447"/>
			<line fill="none" stroke="#2E3192" stroke-miterlimit="10" x1="788.813" y1="325.618" x2="765.813" y2="770.146"/>
			<line fill="none" stroke="#2E3192" stroke-miterlimit="10" x1="764.577" y1="325.675" x2="754.577" y2="780.146"/>
			<line fill="none" stroke="#2E3192" stroke-miterlimit="10" x1="742.716" y1="324.797" x2="738.716" y2="801.22"/>
			<line fill="none" stroke="#2E3192" stroke-miterlimit="10" x1="695.357" y1="323.293" x2="695.357" y2="815.976"/>
			<line fill="none" stroke="#2E3192" stroke-miterlimit="10" x1="719.309" y1="323.293" x2="719.309" y2="822.479"/>
			<line fill="none" stroke="#2E3192" stroke-miterlimit="10" x1="671.887" y1="317.163" x2="671.887" y2="836.675"/>
			<line fill="none" stroke="#2E3192" stroke-miterlimit="10" x1="647.902" y1="314.098" x2="647.902" y2="830.357"/>
			<line fill="none" stroke="#2E3192" stroke-miterlimit="10" x1="623.293" y1="317.594" x2="623.293" y2="855.805"/>
			<line fill="none" stroke="#2E3192" stroke-miterlimit="10" x1="598.684" y1="321.594" x2="598.684" y2="854.927"/>
			<line fill="none" stroke="#2E3192" stroke-miterlimit="10" x1="574.325" y1="322.463" x2="574.325" y2="868.805"/>
			<line fill="none" stroke="#2E3192" stroke-miterlimit="10" x1="550.154" y1="318.837" x2="550.154" y2="861.927"/>
			<line fill="none" stroke="#2E3192" stroke-miterlimit="10" x1="525.545" y1="318.837" x2="525.545" y2="868.805"/>
		</g>
		<g id="moved_ngang">
			<path fill="none" stroke="#2E3192" stroke-miterlimit="10" d="M170.521,359.772c0,0,144.927-26.675,329.479-26.675
				s343.423,38.675,343.423,38.675"/>
			<path fill="none" stroke="#2E3192" stroke-miterlimit="10" d="M185.521,557.488c0,0,129.927,244.486,314.479,244.486
				s318.423-233.486,318.423-233.486"/>
			<path fill="none" stroke="#2E3192" stroke-miterlimit="10" d="M168.521,366.033c0,0,146.37-7.667,331.479-7.667
				s343.423,20.667,343.423,20.667"/>
			<path fill="none" stroke="#2E3192" stroke-miterlimit="10" d="M168.521,373.545c0,0,145.301,15.65,331.479,15.65
				s343.423-1.65,343.423-1.65"/>
			<path fill="none" stroke="#2E3192" stroke-miterlimit="10" d="M168.521,381.057c-4.333-1.083,141.25,35.715,331.479,35.715
				c184.553,0,343.423-21.715,343.423-21.715"/>
			<path fill="none" stroke="#2E3192" stroke-miterlimit="10" d="M167.521,388.569c0,0,147.927,53.593,332.479,53.593
				s343.423-39.593,343.423-39.593"/>
			<path fill="none" stroke="#2E3192" stroke-miterlimit="10" d="M168.521,397.707c0,0,147.374,69.659,331.479,69.659
				s341.423-55.659,341.423-55.659"/>
			<path fill="none" stroke="#2E3192" stroke-miterlimit="10" d="M171.521,406.658c0,0,143.927,88.911,328.479,88.911
				s340.423-74.911,340.423-74.911"/>
			<path fill="none" stroke="#2E3192" stroke-miterlimit="10" d="M172.521,418.171c0,0,142.927,103.04,327.479,103.04
				s338.423-90.04,338.423-90.04"/>
			<path fill="none" stroke="#2E3192" stroke-miterlimit="10" d="M173.521,429.309c0,0,140.301,117.92,326.479,117.92
				s338.423-106.92,338.423-106.92"/>
			<path fill="none" stroke="#2E3192" stroke-miterlimit="10" d="M176.521,441.821c0,0,138.927,129.486,323.479,129.486
				s337.423-119.486,337.423-119.486"/>
			<path fill="none" stroke="#2E3192" stroke-miterlimit="10" d="M178.521,454.521c0,0,136.927,142.805,321.479,142.805
				s336.423-133.805,336.423-133.805"/>
			<path fill="none" stroke="#2E3192" stroke-miterlimit="10" d="M181.521,467.658c0,0,133.793,160,318.479,160
				s334.423-152,334.423-152"/>
			<path fill="none" stroke="#2E3192" stroke-miterlimit="10" d="M182.521,479.983c0,0,132.113,175.316,317.479,175.316
				s333.423-166.316,333.423-166.316"/>
			<path fill="none" stroke="#2E3192" stroke-miterlimit="10" d="M182.521,493.748c0,0,132.113,190.699,317.479,190.699
				s330.423-180.699,330.423-180.699"/>
			<path fill="none" stroke="#2E3192" stroke-miterlimit="10" d="M182.521,509.447c0,0,118.779,204.895,317.479,204.895
				c185.366,0,327.423-196.895,327.423-196.895"/>
			<path fill="none" stroke="#2E3192" stroke-miterlimit="10" d="M184.521,526.771c0,0,114.928,217.65,315.479,217.65
				c184.552,0,322.423-209.649,322.423-209.649"/>
			<path fill="none" stroke="#2E3192" stroke-miterlimit="10" d="M185.521,545.098c0,0,130.313,231.049,314.479,228.162
				c185.344-2.905,319.423-221.162,319.423-221.162"/>
		</g>
	</g>
</g>
</svg>
