<svg width="120" height="120" viewBox="0 0 120 120" fill="none" xmlns="http://www.w3.org/2000/svg">
<rect x="0.5" y="0.5" width="119" height="119" rx="59.5" fill="white" stroke="#1688FA" stroke-dasharray="3 3"/>
<rect x="8" y="9" width="103" height="103" rx="51.5" fill="#F6F9FF"/>
<path d="M50.5216 56.0897C50.5165 56.0621 50.5103 56.0345 50.5024 56.008L49.7899 53.557C49.7296 53.1946 49.4466 52.9093 49.0847 52.8462C48.3485 52.7154 47.6992 52.2859 47.2905 51.6591C46.8818 51.0328 46.751 50.265 46.9286 49.5384C47.083 48.8924 47.5797 48.384 48.2211 48.2143C49.0594 48.628 50.0492 48.5908 50.8542 48.1156C51.6586 47.6404 52.1693 46.7909 52.2116 45.8575L52.4077 41.5502C52.7212 41.5542 53.1124 41.5547 53.5684 41.5474C53.5205 41.5068 53.4714 41.4674 53.4241 41.4257C51.7274 41.548 50.3536 41.5609 49.5222 41.5502L49.326 45.8575C49.2865 46.7926 48.7764 47.6438 47.9709 48.1196C47.1653 48.5954 46.1738 48.6314 45.3356 48.2143C44.6941 48.384 44.1975 48.8924 44.043 49.5384C43.8654 50.265 43.9962 51.0328 44.4049 51.6591C44.8136 52.2859 45.463 52.7154 46.1992 52.8462C46.5611 52.9093 46.844 53.1946 46.9043 53.557L47.6169 56.008C47.6248 56.0345 47.631 56.0621 47.636 56.0897C48.8283 62.4826 54.7753 66.8541 61.233 66.0841C55.8621 65.4505 51.525 61.4037 50.5216 56.0897Z" fill="#D4E1F4"/>
<path d="M61.2353 26.8102C57.4698 26.4003 53.7082 27.6112 50.8886 30.1399C48.069 32.6692 46.4585 36.2781 46.4585 40.0655V46.7668C46.7415 46.7927 47.0228 46.702 47.2375 46.5154C47.4523 46.3288 47.5814 46.0627 47.5955 45.7786L47.8305 40.623C47.8407 40.3931 47.9427 40.1766 48.1135 40.0216C48.2838 39.8666 48.5092 39.786 48.7392 39.7978C48.7477 39.7978 48.9641 39.8085 49.348 39.8147C49.4822 33.1101 54.5696 27.5447 61.2353 26.8102Z" fill="#D4E1F4"/>
<path d="M57.2258 70.64V67.6676C56.2353 67.4844 55.268 67.1952 54.3396 66.8057V70.64C56.48 71.6738 58.8712 72.0774 61.2326 71.8029C59.8408 71.644 58.4862 71.251 57.2258 70.64Z" fill="#D4E1F4"/>
<path d="M41.7659 80.0696C41.785 79.9867 41.8059 79.9044 41.8284 79.8221C42.4029 77.7297 44.0263 76.0662 46.1712 75.3711L54.5951 72.6394C54.1836 72.4788 53.7789 72.2978 53.3809 72.0972L43.285 75.3711C41.1402 76.0662 39.5167 77.7297 38.9423 79.8221C38.9198 79.9044 38.8989 79.9867 38.8797 80.0696C38.7766 80.5284 38.727 80.9969 38.732 81.467V87.7297H41.6182V81.4675C41.6131 80.9974 41.6627 80.5284 41.7659 80.0696Z" fill="#D4E1F4"/>
<path d="M74.8578 46.5887V40.0656C74.8578 31.7454 68.1125 25.0001 59.7923 25.0001C51.4716 25.0001 44.7263 31.7454 44.7263 40.0656V46.587C43.546 46.9585 42.648 47.923 42.3605 49.127C41.8036 51.4038 43.113 53.7217 45.3509 54.4202L45.9417 56.4517C46.7015 60.4213 49.1288 63.874 52.6074 65.9315V70.5279L42.7506 73.7241C40.0499 74.5995 38.002 76.7077 37.2725 79.3639C37.2438 79.467 37.2173 79.5713 37.1931 79.6762C37.06 80.2641 36.9952 80.865 37.0003 81.4676V88.5961C37.0003 89.0747 37.3881 89.462 37.8661 89.462H64.4119V87.7303H38.732V81.4676C38.7269 80.9975 38.7765 80.529 38.8797 80.0707C38.8988 79.9879 38.9197 79.905 38.9422 79.8233C39.5166 77.7308 41.1401 76.0674 43.285 75.3717L53.3808 72.0983C57.4113 74.1237 62.1627 74.1248 66.1937 72.1L75.0686 75.06L75.6165 73.4174L66.9722 70.5341V65.9315C70.4508 63.8734 72.8781 60.4213 73.6379 56.4517L74.2287 54.4196C76.4666 53.7212 77.7755 51.4038 77.2191 49.1265C76.9322 47.9247 76.0359 46.9613 74.8578 46.5887ZM61.05 40.2335C62.2332 41.5069 66.1238 45.0706 73.1261 45.7623V46.4551C70.5212 46.4032 62.3273 45.8531 55.9062 41.1845C56.0201 41.1698 56.1345 41.1552 56.2495 41.1411C57.8662 40.9342 59.4693 40.6309 61.05 40.2335ZM46.4586 40.0656C46.4586 32.7014 52.4282 26.7318 59.7923 26.7318C67.1565 26.7318 73.1261 32.7014 73.1261 40.0656V44.0188C67.8217 43.4461 64.4789 41.0492 62.9705 39.6839C65.6199 38.8322 67.8696 37.7025 69.6948 36.3023C69.9479 36.1168 70.0804 35.8091 70.0415 35.4979C70.0032 35.1867 69.7991 34.9207 69.5088 34.8023C69.218 34.6845 68.8865 34.7324 68.6413 34.9286C64.9524 37.7578 59.7619 38.9325 56.0573 39.4196C53.6322 39.7431 51.1846 39.8694 48.7393 39.7978C48.5093 39.786 48.2838 39.8666 48.113 40.0216C47.9428 40.1766 47.8408 40.3931 47.8301 40.6236L47.5956 45.7792C47.5815 46.0633 47.4524 46.3288 47.2376 46.5154C47.0229 46.702 46.7416 46.7927 46.458 46.7674L46.4586 40.0656ZM65.2394 70.6401C61.7963 72.3018 57.7828 72.3018 54.3397 70.6401V66.8058C57.8256 68.2686 61.7534 68.2686 65.2394 66.8058V70.6401ZM73.3792 52.8463C73.0173 52.9094 72.7349 53.1947 72.6746 53.5571L71.962 56.0081C71.9542 56.0352 71.9474 56.0622 71.9423 56.0898C70.842 61.9348 65.7365 66.1682 59.789 66.1682C53.8414 66.1682 48.7359 61.9348 47.6356 56.0898C47.6305 56.0622 47.6238 56.0346 47.6159 56.0081L46.9033 53.5571C46.843 53.1947 46.5606 52.9094 46.1987 52.8463C45.462 52.7155 44.8126 52.286 44.4039 51.6592C43.9958 51.0329 43.8644 50.2651 44.0426 49.5385C44.1965 48.8925 44.6931 48.3841 45.3351 48.2144C46.1728 48.6282 47.1632 48.5909 47.9676 48.1157C48.772 47.6405 49.2827 46.7911 49.325 45.8576L49.5212 41.5503C50.3526 41.5611 51.7264 41.5481 53.4231 41.4258C57.7253 45.1293 63.0206 46.7713 66.7416 47.4968C70.8437 48.2967 73.8967 48.1902 74.0246 48.1851C74.0489 48.1845 74.072 48.1817 74.0951 48.1789C74.8014 48.308 75.3662 48.8407 75.5353 49.5385C75.7129 50.2651 75.5821 51.0323 75.1734 51.6592C74.7653 52.2854 74.1159 52.7155 73.3792 52.8463Z" fill="#1688FA"/>
<path d="M94.7851 72.4698C93.4643 71.5701 90.9728 69.786 89.1267 67.9393C87.1655 65.9777 85.0009 63.0025 84.1616 61.8142C83.8927 61.4343 83.4801 61.1806 83.0201 61.1124C82.5596 61.0436 82.0911 61.1671 81.7236 61.4529L72.183 68.8734C71.4502 69.4371 71.3042 70.485 71.8549 71.228C73.0652 72.8762 74.3752 74.4878 75.7563 76.0273L60.8887 90.8949C60.6835 91.0995 60.595 91.3932 60.6519 91.6767L61.2562 94.6987C61.3244 95.042 61.5928 95.3103 61.9355 95.3785L64.9575 95.9834C65.2416 96.0398 65.5347 95.9507 65.7399 95.7461L67.2523 94.2337L69.2399 94.4484C69.4964 94.4761 69.7517 94.3881 69.9366 94.2083C70.1215 94.0285 70.2168 93.7759 70.1959 93.5189L70.0759 92.0082L71.7309 92.0392C71.9879 92.0437 72.2337 91.9343 72.4023 91.7399C72.5702 91.5454 72.6435 91.2866 72.6018 91.033L72.2985 89.1874L80.6069 80.8785C82.1464 82.2596 83.758 83.569 85.4068 84.7799C86.1498 85.3306 87.1971 85.1846 87.7614 84.4518L95.1695 74.9247C95.4587 74.5532 95.581 74.0786 95.5083 73.6141C95.4356 73.1491 95.1735 72.7347 94.7845 72.4698H94.7851ZM86.4102 83.3672C84.5838 82.0239 82.833 80.5814 81.165 79.0453C80.8239 78.7308 80.2946 78.7415 79.9665 79.0702L70.7596 88.2765C70.5623 88.4738 70.4722 88.7539 70.5173 89.029L70.7241 90.2883L69.1525 90.259C68.9079 90.2534 68.6723 90.3526 68.506 90.5319C68.3386 90.7094 68.254 90.9501 68.2732 91.1936L68.3865 92.6153L67.0251 92.4682C66.7647 92.4405 66.5054 92.5319 66.3199 92.7167L64.8425 94.1942L62.8408 93.7945L62.4406 91.7928L77.5641 76.6694C77.8921 76.3413 77.9028 75.812 77.5883 75.4704C76.0522 73.8029 74.6097 72.0521 73.2664 70.2257L82.7642 62.8373C83.8437 64.3638 85.931 67.1924 87.9023 69.1637C89.8364 71.0972 92.4079 72.9444 93.7856 73.8841L86.4102 83.3672Z" fill="#282364"/>
<path d="M84.4177 68.4654L82.8218 66.6418C82.5197 66.2963 82.0005 66.2467 81.6386 66.5279L79.4627 68.2202C79.1324 68.4772 79.0332 68.9344 79.2276 69.3053L81.8866 74.382C81.9684 74.5382 82.0958 74.6656 82.2519 74.7473L87.3287 77.4069C87.6996 77.6008 88.1567 77.5022 88.4138 77.1713L90.106 74.9954C90.3879 74.6335 90.3383 74.1143 89.9927 73.8121L88.1691 72.2163C86.8371 71.0506 85.584 69.7974 84.4177 68.4654ZM88.2374 74.5777L87.491 75.5365L83.2953 73.3386L81.0975 69.1435L82.0569 68.3978L83.1144 69.6063C84.3314 70.9964 85.6387 72.3037 87.0288 73.5207L88.2374 74.5777Z" fill="#282364"/>
</svg>
