<svg display="none" width="0" height="0" version="1.1" xmlns="http://www.w3.org/2000/svg" xmlns:xlink="http://www.w3.org/1999/xlink">
    <defs>
        <symbol id="icon-minus" viewBox="0 0 12 2">
            <rect fill="currentColor" width="12" height="2" rx="1" />
        </symbol>
        <symbol id="icon-plus" viewBox="0 0 12 12">
            <rect fill="currentColor" y="5" width="12" height="2" rx="1" />
            <rect fill="currentColor" x="7" width="12" height="2" rx="1" transform="rotate(90 7 0)"/>
        </symbol>
        <symbol id="icon-cart-empty" viewBox="0 0 74 75">
            <path fill-rule="evenodd" clip-rule="evenodd" d="M66.6268 6.14727H47.4565C45.0132 6.14727 43.0326 8.12793 43.0326 10.5712V29.7415C43.0326 32.1847 45.0132 34.1654 47.4565 34.1654H66.6268C69.0701 34.1654 71.0507 32.1847 71.0507 29.7415V10.5712C71.0507 8.12793 69.0701 6.14727 66.6268 6.14727ZM47.4565 3.198C43.3844 3.198 40.0833 6.49909 40.0833 10.5712V29.7415C40.0833 33.8136 43.3844 37.1147 47.4565 37.1147H66.6268C70.6989 37.1147 74 33.8136 74 29.7415V10.5712C74 6.49909 70.6989 3.198 66.6268 3.198H47.4565Z" fill="#F2F2F2"/>
            <path fill-rule="evenodd" clip-rule="evenodd" d="M55.5582 40.5833C56.0763 40.5833 56.5085 40.9789 56.5543 41.4949L58.5614 64.108C58.566 64.16 58.5763 64.2114 58.5806 64.2633C58.5833 64.2975 58.5833 64.3316 58.5833 64.3657C58.5833 69.7419 53.659 74.1147 47.5971 74.1147H10.9862C4.92435 74.1147 0 69.7419 0 64.3657C0 64.3358 0.00374199 64.3058 0.00748399 64.2759C0.011226 64.2459 0.014968 64.216 0.014968 64.186L4.20591 16.969C4.29571 15.9207 5.16384 15.127 6.21157 15.127H13.848C14.3944 15.127 14.836 14.687 14.8811 14.1426C15.4961 6.72645 21.7208 0.885498 29.2917 0.885498C31.9479 0.885498 34.4384 1.60448 36.5791 2.85821C36.8681 3.02746 37.0406 3.33892 37.0471 3.67376L37.0879 5.75589C37.1062 6.68936 35.8612 7.21211 35.086 6.69164C33.4284 5.57861 31.4348 4.92883 29.2917 4.92883C23.9645 4.92883 19.5613 8.94358 18.9454 14.1082C18.8791 14.6649 19.335 15.127 19.8956 15.127H36.2911C36.8358 15.127 37.2802 15.5629 37.2909 16.1074L37.3313 18.1657C37.3423 18.7255 36.8914 19.1853 36.3315 19.1853H19.8592C19.3069 19.1853 18.8592 19.633 18.8592 20.1853V25.3252C18.8592 26.4483 17.9612 27.3468 16.8386 27.3468C15.716 27.3468 14.818 26.4483 14.818 25.3252V20.1853C14.818 19.633 14.3702 19.1853 13.818 19.1853H8.9679C8.44982 19.1853 8.01753 19.581 7.9718 20.097L4.04126 64.4556C4.10113 67.5555 7.18446 70.0713 10.9862 70.0713H47.5971C51.3839 70.0713 54.4822 67.5555 54.5421 64.4556L52.5157 41.6719C52.4637 41.087 52.9245 40.5833 53.5118 40.5833H55.5582Z" fill="#E0E0E0"/>
            <path d="M57.0417 28.6354C61.8175 28.6354 63.9792 24.1838 63.9792 19.758C63.9792 15.3321 61.8175 10.9062 57.0417 10.9062C52.2407 10.9062 50.1042 15.3321 50.1042 19.758C50.1042 24.1838 52.2407 28.6354 57.0417 28.6354ZM57.0417 25.3932C54.6286 25.3932 53.7238 22.923 53.7238 19.758C53.7238 16.593 54.6286 14.1485 57.0417 14.1485C59.4296 14.1485 60.3345 16.593 60.3345 19.758C60.3345 22.923 59.4296 25.3932 57.0417 25.3932Z" fill="#F2F2F2"/>
        </symbol>
        <symbol id="check-solid" viewBox="0 0 512 382">
            <path fill="currentColor" d="M173.898,374.306l-166.4-166.4c-9.997-9.997-9.997-26.206,0-36.204l36.203-36.204c9.997-9.998,26.207-9.998,36.204,0
                L192,247.592L432.095,7.498c9.997-9.997,26.207-9.997,36.204,0l36.203,36.204c9.997,9.997,9.997,26.206,0,36.204l-294.4,294.401
                C200.104,384.304,183.895,384.304,173.898,374.306z"/>
        </symbol>
    </defs>
</svg>