<svg display="none" width="0" height="0" version="1.1" xmlns="http://www.w3.org/2000/svg" xmlns:xlink="http://www.w3.org/1999/xlink">
    <defs>
        <!--Product Icon-->
        <symbol id="check-solid" viewBox="0 0 512 382">
            <path fill="currentColor" d="M173.898,374.306l-166.4-166.4c-9.997-9.997-9.997-26.206,0-36.204l36.203-36.204c9.997-9.998,26.207-9.998,36.204,0
                L192,247.592L432.095,7.498c9.997-9.997,26.207-9.997,36.204,0l36.203,36.204c9.997,9.997,9.997,26.206,0,36.204l-294.4,294.401
                C200.104,384.304,183.895,384.304,173.898,374.306z"/>
        </symbol>
        <symbol id="flash-icon" viewBox="0 0 10 18" >
            <path d="M9.97246 6.17341C9.92424 6.06781 9.82039 6.00002 9.706 6.00002H6.22071L9.6604 0.460513C9.71775 0.368122 9.72127 0.251122 9.66953 0.155426C9.61776 0.0594142 9.51891 0 9.41186 0H4.70599C4.59453 0 4.49275 0.0641954 4.44277 0.165903L0.0310136 9.16592C-0.0145861 9.25863 -0.00958837 9.36902 0.0439386 9.45751C0.0977759 9.546 0.192181 9.6 0.294237 9.6H3.31863L0.0230516 17.5836C-0.0331293 17.7201 0.0168821 17.8785 0.140687 17.9559C0.18832 17.9856 0.241261 18 0.293927 18C0.378336 18 0.461574 17.9631 0.519237 17.8935L9.931 6.49348C10.0048 6.40411 10.0207 6.27931 9.97246 6.17341Z" fill="currentColor"/>
        </symbol>
        <symbol id="icon-minus" viewBox="0 0 12 2">
            <rect fill="currentColor" width="12" height="2" rx="1" />
        </symbol>
        <symbol id="icon-plus" viewBox="0 0 12 12">
            <rect fill="currentColor" y="5" width="12" height="2" rx="1" />
            <rect fill="currentColor" x="7" width="12" height="2" rx="1" transform="rotate(90 7 0)"/>
        </symbol>
        <symbol id="rating-five-star" viewBox="0 0 124 20">
            <path fill-rule="evenodd" clip-rule="evenodd" d="M10.8295 0.627848L13.0573 5.40721C13.2122 5.73962 13.5117 5.96995 13.8583 6.02317L18.84 6.78963C19.7126 6.92399 20.0608 8.05907 19.4296 8.71037L15.8248 12.4306C15.5743 12.6892 15.4598 13.0622 15.5191 13.4274L16.3699 18.6805C16.5191 19.6005 15.6069 20.3019 14.8265 19.8679L10.3709 17.3879C10.0611 17.2156 9.69069 17.2156 9.38086 17.3879L4.9253 19.8679C4.14494 20.3024 3.23273 19.6005 3.38188 18.6805L4.2327 13.4274C4.29203 13.0622 4.17748 12.6892 3.92698 12.4306L0.322237 8.71037C-0.308974 8.05864 0.0391805 6.92356 0.911834 6.78963L5.89354 6.02317C6.24005 5.96995 6.53958 5.73962 6.6945 5.40721L8.92228 0.627848C9.31205 -0.209283 10.4393 -0.209283 10.8295 0.627848ZM36.8295 0.627848L39.0573 5.40721C39.2122 5.73962 39.5117 5.96995 39.8582 6.02317L44.84 6.78963C45.7126 6.92399 46.0608 8.05907 45.4296 8.71037L41.8248 12.4306C41.5743 12.6892 41.4598 13.0622 41.5191 13.4274L42.3699 18.6805C42.5191 19.6005 41.6069 20.3019 40.8265 19.8679L36.3709 17.3879C36.0611 17.2156 35.6907 17.2156 35.3809 17.3879L30.9253 19.8679C30.1449 20.3024 29.2327 19.6005 29.3819 18.6805L30.2327 13.4274C30.292 13.0622 30.1775 12.6892 29.927 12.4306L26.3222 8.71037C25.691 8.05864 26.0392 6.92356 26.9118 6.78963L31.8935 6.02317C32.24 5.96995 32.5396 5.73962 32.6945 5.40721L34.9223 0.627848C35.312 -0.209283 36.4393 -0.209283 36.8295 0.627848ZM65.0573 5.40721L62.8295 0.627848C62.4393 -0.209283 61.312 -0.209283 60.9223 0.627848L58.6945 5.40721C58.5396 5.73962 58.24 5.96995 57.8935 6.02317L52.9118 6.78963C52.0392 6.92356 51.691 8.05863 52.3222 8.71037L55.927 12.4306C56.1775 12.6892 56.292 13.0622 56.2327 13.4274L55.3819 18.6805C55.2327 19.6005 56.1449 20.3024 56.9253 19.8679L61.3808 17.3879C61.6907 17.2156 62.0611 17.2156 62.3709 17.3879L66.8265 19.8679C67.6068 20.3019 68.519 19.6005 68.3699 18.6805L67.5191 13.4274C67.4597 13.0622 67.5743 12.6892 67.8248 12.4306L71.4295 8.71037C72.0607 8.05907 71.7126 6.92399 70.8399 6.78963L65.8582 6.02317C65.5117 5.96995 65.2122 5.73962 65.0573 5.40721ZM88.8295 0.627848L91.0573 5.40721C91.2122 5.73962 91.5117 5.96995 91.8583 6.02317L96.84 6.78963C97.7126 6.92399 98.0608 8.05907 97.4296 8.71037L93.8248 12.4306C93.5743 12.6892 93.4598 13.0622 93.5191 13.4274L94.3699 18.6805C94.5191 19.6005 93.6068 20.3019 92.8265 19.8679L88.3709 17.3879C88.0611 17.2156 87.6907 17.2156 87.3809 17.3879L82.9253 19.8679C82.1449 20.3024 81.2327 19.6005 81.3819 18.6805L82.2327 13.4274C82.292 13.0622 82.1775 12.6892 81.927 12.4306L78.3222 8.71037C77.691 8.05863 78.0392 6.92356 78.9118 6.78963L83.8935 6.02317C84.24 5.96995 84.5396 5.73962 84.6945 5.40721L86.9223 0.627848C87.312 -0.209283 88.4393 -0.209283 88.8295 0.627848ZM117.057 5.40721L114.83 0.627848C114.439 -0.209283 113.312 -0.209283 112.922 0.627848L110.695 5.40721C110.54 5.73962 110.24 5.96995 109.894 6.02317L104.912 6.78963C104.039 6.92356 103.691 8.05863 104.322 8.71037L107.927 12.4306C108.177 12.6892 108.292 13.0622 108.233 13.4274L107.382 18.6805C107.233 19.6005 108.145 20.3024 108.925 19.8679L113.381 17.3879C113.691 17.2156 114.061 17.2156 114.371 17.3879L118.826 19.8679C119.607 20.3019 120.519 19.6005 120.37 18.6805L119.519 13.4274C119.46 13.0622 119.574 12.6892 119.825 12.4306L123.43 8.71037C124.061 8.05907 123.713 6.92399 122.84 6.78963L117.858 6.02317C117.512 5.96995 117.212 5.73962 117.057 5.40721Z" fill="currentColor"/>
        </symbol>
        <symbol viewBox="0 0 13 15" id="purchase-success">
            <path d="M12.9938 5.32847C12.9938 5.93052 13.0043 6.53287 12.9917 7.13463C12.9624 8.51911 12.5727 9.81042 11.886 11.0193C11.4725 11.7468 10.9622 12.4056 10.3487 12.9855C9.33374 13.9448 8.15014 14.6203 6.77291 14.9697C6.46385 15.0482 6.18527 14.9574 5.90206 14.8744C4.83574 14.5617 3.8864 14.0409 3.05126 13.3293C1.47117 11.983 0.509513 10.2954 0.130883 8.29364C0.0357636 7.78984 0.00159452 7.27857 0.00221018 6.76581C0.0034415 5.66115 0.00898242 4.55649 5.53759e-05 3.45213C-0.0039464 2.94653 0.208764 2.61564 0.697288 2.40869C2.49624 1.64627 4.28688 0.865926 6.07937 0.0897667C6.38135 -0.0410366 6.66702 -0.023417 6.96746 0.107088C8.76364 0.887428 10.562 1.66269 12.3628 2.43347C12.8054 2.62281 13.0092 2.93369 12.9997 3.40315C12.9864 4.04462 12.9963 4.6867 12.9963 5.32877C12.9957 5.32847 12.9948 5.32847 12.9938 5.32847ZM10.4706 5.48854C10.4653 5.23947 10.3554 5.01938 10.1255 4.8617C9.78071 4.62518 9.36514 4.67296 9.03977 4.98802C7.91434 6.07805 6.78861 7.16808 5.66842 8.26318C5.5653 8.36412 5.51297 8.35247 5.42093 8.259C5.15127 7.98604 4.87207 7.72175 4.59656 7.45417C4.37185 7.23587 4.15206 7.01249 3.92026 6.80105C3.4656 6.38624 2.74404 6.56961 2.57474 7.14329C2.48147 7.45835 2.57597 7.72922 2.81423 7.95947C3.51916 8.64096 4.22224 9.32424 4.92594 10.0069C5.30457 10.3742 5.78386 10.376 6.16372 10.0099C6.51649 9.66947 6.86772 9.32723 7.21957 8.98588C8.20986 8.02517 9.19922 7.06355 10.191 6.10433C10.3622 5.93888 10.465 5.74835 10.4706 5.48854Z" fill="#70BE54"/>
        </symbol>
        <symbol viewBox="0 0 56 34" id="covid">
            <path fill-rule="evenodd" clip-rule="evenodd" d="M53.4485 15.4247C53.8138 14.4981 54.6058 13.8464 55.0157 13.8464C55.5595 13.8464 56.0002 14.9931 56.0002 16.4076C56.0002 17.822 55.5594 18.9687 55.0155 18.9687C54.6056 18.9687 53.8136 18.3169 53.4483 17.3903H52.6191C52.3877 19.9734 51.3401 22.322 49.7343 24.1762L51.2624 25.7013C52.1771 25.3038 53.1989 25.4019 53.4887 25.6912C53.8733 26.075 53.3726 27.1969 52.3705 28.1971C51.3684 29.1973 50.2443 29.6969 49.8598 29.3132C49.57 29.0239 49.4717 28.0041 49.8699 27.0911L48.3296 25.5537C46.447 27.1224 44.0786 28.1292 41.4822 28.3162V29.1277C42.4107 29.4923 43.0636 30.2828 43.0636 30.6919C43.0636 31.2347 41.9147 31.6746 40.4976 31.6746C39.0804 31.6746 37.9316 31.2347 37.9316 30.6919C37.9316 30.2828 38.5845 29.4923 39.513 29.1277V28.299C36.9249 28.0681 34.5718 27.0224 32.714 25.4197L31.1859 26.9448C31.5842 27.8578 31.4859 28.8776 31.196 29.1669C30.8115 29.5507 29.6874 29.051 28.6853 28.0509C27.6832 27.0507 27.1826 25.9288 27.5671 25.545C27.857 25.2557 28.8787 25.1576 29.7935 25.555L31.3338 24.0177C29.7622 22.1387 28.7534 19.7747 28.566 17.1834H27.754C27.3888 18.1101 26.5967 18.7618 26.1868 18.7618C25.643 18.7618 25.2021 17.6152 25.2021 16.2007C25.2021 14.7862 25.643 13.6396 26.1868 13.6396C26.5967 13.6396 27.3887 14.2913 27.7539 15.218H28.5833C28.8147 12.6348 29.8623 10.2863 31.4681 8.43207L29.9401 6.90697C29.0253 7.30443 28.0035 7.20633 27.7137 6.917C27.3291 6.53324 27.8298 5.4113 28.8319 4.41113C29.834 3.41096 30.9581 2.91131 31.3426 3.29508C31.6324 3.58435 31.7308 4.6041 31.3325 5.51714L32.8728 7.05451C34.7554 5.48585 37.1239 4.47905 39.7202 4.29203V3.48049C38.7917 3.11593 38.1388 2.32546 38.1388 1.91635C38.1388 1.37357 39.2876 0.933594 40.7048 0.933594C42.122 0.933594 43.2709 1.37357 43.2709 1.91635C43.2709 2.32546 42.6179 3.11593 41.6894 3.48049V4.30907C44.2775 4.54002 46.6306 5.58568 48.4884 7.18836L50.0165 5.66326C49.6183 4.75028 49.7166 3.73053 50.0064 3.4412C50.391 3.05737 51.5151 3.55708 52.5171 4.55725C53.5192 5.55742 54.0199 6.67936 53.6354 7.06313C53.3455 7.35246 52.3237 7.45055 51.409 7.05309L49.8687 8.59046C51.4403 10.4694 52.4491 12.8334 52.6365 15.4247H53.4485ZM38.5708 11.626C38.5708 13.1144 37.3609 14.321 35.8685 14.321C34.3761 14.321 33.1663 13.1144 33.1663 11.626C33.1663 10.1376 34.3761 8.93096 35.8685 8.93096C37.3609 8.93096 38.5708 10.1376 38.5708 11.626ZM48.2606 19.9032C49.0068 19.9032 49.6117 19.2999 49.6117 18.5557C49.6117 17.8115 49.0068 17.2082 48.2606 17.2082C47.5143 17.2082 46.9094 17.8115 46.9094 18.5557C46.9094 19.2999 47.5143 19.9032 48.2606 19.9032ZM45.79 23.0241C45.79 24.1271 44.8935 25.0212 43.7876 25.0212C42.6816 25.0212 41.7851 24.1271 41.7851 23.0241C41.7851 21.9212 42.6816 21.0271 43.7876 21.0271C44.8935 21.0271 45.79 21.9212 45.79 23.0241Z" fill="#FF5C00"/>
            <path fill-rule="evenodd" clip-rule="evenodd" d="M18.342 7.48783C18.5308 7.00903 18.94 6.67228 19.1518 6.67228C19.4328 6.67228 19.6605 7.26484 19.6605 7.9957C19.6605 8.72657 19.4327 9.31907 19.1517 9.31907C18.9399 9.31907 18.5307 8.98231 18.3419 8.50348H17.9134C17.7939 9.83824 17.2525 11.0518 16.4228 12.0099L17.2124 12.7979C17.6851 12.5926 18.213 12.6432 18.3628 12.7927C18.5615 12.991 18.3028 13.5708 17.785 14.0876C17.2672 14.6044 16.6864 14.8626 16.4877 14.6643C16.3379 14.5148 16.2871 13.9879 16.4929 13.5161L15.697 12.7217C14.7242 13.5323 13.5004 14.0525 12.1588 14.1491V14.5685C12.6386 14.7568 12.976 15.1653 12.976 15.3767C12.976 15.6571 12.3823 15.8845 11.65 15.8845C10.9178 15.8845 10.3241 15.6571 10.3241 15.3767C10.3241 15.1653 10.6615 14.7568 11.1413 14.5685V14.1403C9.80394 14.0209 8.58807 13.4806 7.6281 12.6525L6.83852 13.4405C7.04431 13.9123 6.99353 14.4392 6.84374 14.5887C6.64505 14.787 6.0642 14.5288 5.54641 14.012C5.02861 13.4952 4.76992 12.9155 4.9686 12.7172C5.11839 12.5677 5.64634 12.517 6.11902 12.7224L6.91495 11.928C6.10285 10.9571 5.5816 9.73559 5.48477 8.3966H5.06517C4.87645 8.87543 4.4672 9.21218 4.25538 9.21218C3.97437 9.21218 3.74658 8.61971 3.74658 7.88882C3.74658 7.15793 3.97437 6.56542 4.25535 6.56546C4.46716 6.56546 4.87642 6.90218 5.06514 7.38101H5.4937C5.61326 6.04625 6.1546 4.83272 6.98434 3.87461L6.19475 3.08656C5.72207 3.29193 5.19412 3.24125 5.04433 3.09174C4.84564 2.89344 5.10434 2.31372 5.62213 1.79691C6.13993 1.2801 6.72078 1.02193 6.91946 1.22023C7.06922 1.3697 7.12004 1.89662 6.91425 2.36841L7.71017 3.1628C8.68291 2.35224 9.90676 1.832 11.2483 1.73537V1.31603C10.7686 1.12766 10.4312 0.719206 10.4312 0.507809C10.4312 0.227344 11.0248 0 11.7571 0C12.4894 0 13.083 0.227344 13.083 0.507809C13.083 0.719206 12.7456 1.12766 12.2659 1.31603V1.74417C13.6032 1.86351 14.8191 2.40382 15.779 3.23196L16.5686 2.44391C16.3629 1.97216 16.4136 1.44523 16.5634 1.29573C16.7621 1.0974 17.343 1.35561 17.8608 1.87241C18.3786 2.38922 18.6373 2.96895 18.4386 3.16725C18.2888 3.31675 17.7608 3.36744 17.2882 3.16206L16.4923 3.95645C17.3044 4.92733 17.8256 6.14884 17.9224 7.48783H18.342ZM10.6548 5.52431C10.6548 6.2934 10.0297 6.91687 9.25852 6.91687C8.48736 6.91687 7.86221 6.2934 7.86221 5.52431C7.86221 4.75522 8.48736 4.13175 9.25852 4.13175C10.0297 4.13175 10.6548 4.75522 10.6548 5.52431ZM15.6615 9.80049C16.0471 9.80049 16.3597 9.48875 16.3597 9.10421C16.3597 8.71966 16.0471 8.40793 15.6615 8.40793C15.2759 8.40793 14.9634 8.71966 14.9634 9.10421C14.9634 9.48875 15.2759 9.80049 15.6615 9.80049ZM14.3854 11.4149C14.3854 11.9848 13.9222 12.4468 13.3507 12.4468C12.7793 12.4468 12.316 11.9848 12.316 11.4149C12.316 10.845 12.7793 10.3829 13.3507 10.3829C13.9222 10.3829 14.3854 10.845 14.3854 11.4149Z" fill="#FF5C00"/>
            <path fill-rule="evenodd" clip-rule="evenodd" d="M9.43913 28.1551C9.56099 27.8459 9.82524 27.6285 9.962 27.6285C10.1434 27.6285 10.2905 28.0111 10.2905 28.483C10.2905 28.9549 10.1434 29.3375 9.96194 29.3375C9.82517 29.3375 9.56093 29.12 9.43907 28.8108H9.1624C9.0852 29.6727 8.73567 30.4562 8.19993 31.0749L8.70975 31.5837C9.01495 31.4511 9.35584 31.4838 9.45255 31.5803C9.58084 31.7084 9.41381 32.0827 9.07948 32.4164C8.74514 32.7501 8.3701 32.9168 8.24181 32.7887C8.14512 32.6922 8.11231 32.352 8.24518 32.0474L7.73127 31.5345C7.10319 32.0578 6.31298 32.3937 5.44674 32.4561V32.7269C5.75651 32.8485 5.97436 33.1122 5.97436 33.2487C5.97436 33.4298 5.59105 33.5766 5.11824 33.5766C4.64543 33.5766 4.26212 33.4298 4.26212 33.2487C4.26212 33.1122 4.47997 32.8485 4.78974 32.7269V32.4504C3.92625 32.3733 3.14119 32.0245 2.52136 31.4898L2.01154 31.9986C2.14442 32.3032 2.11163 32.6434 2.01491 32.74C1.88662 32.868 1.51158 32.7013 1.17725 32.3676C0.842915 32.0339 0.675883 31.6596 0.804171 31.5315C0.900887 31.435 1.24177 31.4023 1.54698 31.5349L2.06089 31.022C1.53653 30.3951 1.19997 29.6064 1.13745 28.7418H0.866526C0.744669 29.051 0.480424 29.2684 0.34366 29.2684C0.162217 29.2684 0.0151367 28.8859 0.0151367 28.414C0.0151367 27.942 0.162217 27.5595 0.343639 27.5595C0.480403 27.5595 0.744648 27.7769 0.866505 28.0861H1.14322C1.22042 27.2243 1.56995 26.4407 2.10569 25.8221L1.59587 25.3132C1.29067 25.4459 0.949783 25.4131 0.853067 25.3166C0.724779 25.1886 0.891811 24.8142 1.22614 24.4805C1.56048 24.1469 1.93552 23.9801 2.0638 24.1082C2.1605 24.2047 2.19331 24.5449 2.06044 24.8495L2.57435 25.3625C3.20243 24.8391 3.99264 24.5032 4.85888 24.4408V24.17C4.5491 24.0484 4.33125 23.7847 4.33125 23.6482C4.33125 23.4671 4.71454 23.3203 5.18738 23.3203C5.66019 23.3203 6.0435 23.4671 6.0435 23.6482C6.0435 23.7847 5.82565 24.0484 5.51588 24.17V24.4465C6.37936 24.5235 7.16443 24.8724 7.78426 25.4071L8.29408 24.8983C8.16122 24.5937 8.19401 24.2535 8.29073 24.1569C8.41902 24.0289 8.79406 24.1956 9.12839 24.5293C9.46272 24.863 9.62976 25.2373 9.50147 25.3653C9.40475 25.4619 9.06387 25.4946 8.75866 25.362L8.24477 25.8749C8.76912 26.5018 9.10569 27.2905 9.16821 28.1551H9.43913ZM4.4759 26.891C4.4759 27.3875 4.07226 27.7901 3.57434 27.7901C3.07642 27.7901 2.67277 27.3875 2.67277 26.891C2.67277 26.3944 3.07642 25.9918 3.57434 25.9918C4.07226 25.9918 4.4759 26.3944 4.4759 26.891ZM7.70856 29.6494C7.95753 29.6494 8.15936 29.4481 8.15936 29.1999C8.15936 28.9516 7.95753 28.7503 7.70856 28.7503C7.4596 28.7503 7.25777 28.9516 7.25777 29.1999C7.25777 29.4481 7.4596 29.6494 7.70856 29.6494ZM6.88448 30.6938C6.88448 31.0618 6.58536 31.3601 6.21639 31.3601C5.84742 31.3601 5.5483 31.0618 5.5483 30.6938C5.5483 30.3258 5.84742 30.0275 6.21639 30.0275C6.58536 30.0275 6.88448 30.3258 6.88448 30.6938Z" fill="#FF5C00"/>
        </symbol>

        <symbol viewBox="0 0 16 13" id="eye-regular" >
            <path fill-rule="evenodd" clip-rule="evenodd" d="M1.77045 5.65298C2.88662 4.05618 5.02366 1.75 7.93281 1.75C10.842 1.75 12.979 4.05618 14.0952 5.65298C14.4558 6.16886 14.4558 6.83114 14.0952 7.34702C12.979 8.94382 10.842 11.25 7.93281 11.25C5.02366 11.25 2.88662 8.94382 1.77045 7.34702C1.40985 6.83114 1.40985 6.16886 1.77045 5.65298ZM7.93281 0.25C4.22622 0.25 1.69638 3.14076 0.541028 4.79361C-0.180343 5.82561 -0.180343 7.17439 0.541028 8.20639C1.69638 9.85924 4.22622 12.75 7.93281 12.75C11.6394 12.75 14.1692 9.85924 15.3246 8.20639C16.046 7.17439 16.046 5.82561 15.3246 4.79361C14.1692 3.14076 11.6394 0.25 7.93281 0.25ZM6.62031 6.5C6.62031 5.77513 7.20793 5.1875 7.93281 5.1875C8.65768 5.1875 9.24531 5.77513 9.24531 6.5C9.24531 7.22487 8.65768 7.8125 7.93281 7.8125C7.20793 7.8125 6.62031 7.22487 6.62031 6.5ZM7.93281 3.6875C6.37951 3.6875 5.12031 4.9467 5.12031 6.5C5.12031 8.0533 6.37951 9.3125 7.93281 9.3125C9.48611 9.3125 10.7453 8.0533 10.7453 6.5C10.7453 4.9467 9.48611 3.6875 7.93281 3.6875Z" fill="currentColor"/>
        </symbol>

        <symbol id="chevron-up-light" viewBox="0 0 943.341 512">
            <path class="path-1" fill="currentColor" d="M7.434,489.615l14.951,14.952c9.909,9.909,25.976,9.909,35.888,0L471.671,91.169l413.4,413.398
				c9.909,9.909,25.977,9.909,35.888,0l14.95-14.952c9.909-9.909,9.909-25.977,0-35.887L489.613,7.432
				c-9.909-9.909-25.976-9.909-35.887,0L7.434,453.729C-2.478,463.639-2.478,479.706,7.434,489.615z" />
        </symbol>
        <symbol viewBox="0 0 17 17" id="magic">
            <path d="M4.25 3.1875L2.125 1.0625H1.0625V2.125L3.1875 4.25L4.25 3.1875ZM5.3125 0H6.375V2.125H5.3125V0ZM9.5625 5.3125H11.6875V6.375H9.5625V5.3125ZM10.625 2.125V1.0625H9.5625L7.4375 3.1875L8.5 4.25L10.625 2.125ZM0 5.3125H2.125V6.375H0V5.3125ZM5.3125 9.5625H6.375V11.6875H5.3125V9.5625ZM1.0625 9.5625V10.625H2.125L4.25 8.5L3.1875 7.4375L1.0625 9.5625ZM16.7673 14.6423L6.20713 4.08213C6.05739 3.93309 5.85473 3.84942 5.64347 3.84942C5.43221 3.84942 5.22955 3.93309 5.07981 4.08213L4.08213 5.07981C3.93309 5.22955 3.84942 5.43221 3.84942 5.64347C3.84942 5.85473 3.93309 6.05739 4.08213 6.20713L14.6423 16.7673C14.792 16.9163 14.9947 17 15.206 17C15.4172 17 15.6199 16.9163 15.7696 16.7673L16.7673 15.7696C16.9163 15.6199 17 15.4172 17 15.206C17 14.9947 16.9163 14.792 16.7673 14.6423ZM7.96875 9.03125L4.78125 5.84375L5.84375 4.78125L9.03125 7.96875L7.96875 9.03125Z" fill="currentColor"/>
        </symbol>
        <!--//Product Icon-->

    </defs>
</svg>