<svg display="none" width="0" height="0" version="1.1" xmlns="http://www.w3.org/2000/svg" xmlns:xlink="http://www.w3.org/1999/xlink">
    <defs>
        <symbol viewBox="0 0 38 44" id="icon-order-confirmed">
            <path id="path1" d="M12.6544 35.5139H6.57146C4.64041 35.5139 3.07475 34.2365 3.04405 32.6634L5.08143 9.68167H8.51749V12.7988C8.51749 13.3686 8.97349 13.8253 9.54404 13.8253C10.1138 13.8253 10.5706 13.3693 10.5706 12.7988V9.68167H21.1603V12.7988C21.1603 13.3686 21.6163 13.8253 22.1869 13.8253C22.7574 13.8253 23.2134 13.3693 23.2134 12.7988V9.68167H26.6495L27.378 17.8709C28.0878 17.9098 28.7834 18.0004 29.4618 18.1389L28.6112 8.55629C28.5656 8.02392 28.117 7.62108 27.5922 7.62108H23.2134C23.1528 3.62195 19.8837 0.391052 15.8696 0.391052C11.8555 0.391052 8.58638 3.62195 8.52573 7.62108H4.14698C3.61461 7.62108 3.17359 8.02392 3.12791 8.55629L0.999187 32.5264C0.999187 32.5571 0.991699 32.587 0.991699 32.6177C0.991699 35.3469 3.49256 37.567 6.57146 37.567H13.3141C13.0452 36.9051 12.8236 36.22 12.6544 35.5139ZM15.8696 2.44415C18.7508 2.44415 21.0997 4.75558 21.1611 7.62108H10.5781C10.6395 4.75483 12.9883 2.44415 15.8696 2.44415Z" fill="currentColor"/>
            <path id="path2" d="M26.5772 20.7513C20.2734 20.7513 15.1631 25.8616 15.1631 32.1654C15.1631 38.4693 20.2734 43.5795 26.5772 43.5795C32.881 43.5795 37.9913 38.4693 37.9913 32.1654C37.9913 25.8616 32.881 20.7513 26.5772 20.7513ZM33.6021 29.2857L25.7296 37.1574C25.1463 37.7407 24.2006 37.7407 23.6173 37.1574L19.5538 33.0932C18.9705 32.5099 18.9705 31.5642 19.5538 30.9809C20.1371 30.3976 21.0828 30.3976 21.6661 30.9809L24.6746 33.9894L31.4906 27.1735C32.0738 26.5902 33.0195 26.5909 33.6028 27.1735C34.1846 27.7567 34.1846 28.7024 33.6021 29.2857Z" fill="currentColor"/>
        </symbol>
        <symbol viewBox="0 0 23 27" id="icon-order-confirmed-pending">
            <path d="M7.25 21.8338H3.4686C2.26818 21.8338 1.29491 21.0397 1.27582 20.0618L2.54234 5.77542H4.67833V7.71313C4.67833 8.06734 4.9618 8.35127 5.31648 8.35127C5.67069 8.35127 5.95462 8.06781 5.95462 7.71313V5.77542H12.5376V7.71313C12.5376 8.06734 12.8211 8.35127 13.1758 8.35127C13.5304 8.35127 13.8139 8.06781 13.8139 7.71313V5.77542H15.9499L16.4028 10.8661C16.844 10.8904 17.2765 10.9467 17.6982 11.0328L17.1694 5.07583C17.141 4.74489 16.8622 4.49448 16.5359 4.49448H13.8139C13.7762 2.00846 11.744 0 9.24868 0C6.75335 0 4.72115 2.00846 4.68345 4.49448H1.96145C1.6305 4.49448 1.35635 4.74489 1.32796 5.07583L0.00465452 19.9766C0.00465452 19.9957 0 20.0143 0 20.0334C0 21.73 1.55463 23.1101 3.4686 23.1101H7.66007C7.49297 22.6986 7.35519 22.2727 7.25 21.8338ZM9.24868 1.27629C11.0398 1.27629 12.4999 2.71316 12.5381 4.49448H5.95928C5.99744 2.7127 7.45759 1.27629 9.24868 1.27629Z" fill="currentColor"/>
            <path d="M15.9045 12.6562C11.9858 12.6562 8.80908 15.833 8.80908 19.7517C8.80908 23.6704 11.9858 26.8472 15.9045 26.8472C19.8233 26.8472 23 23.6704 23 19.7517C23 15.833 19.8233 12.6562 15.9045 12.6562ZM20.2715 17.9616L15.3776 22.8549C15.0151 23.2175 14.4272 23.2175 14.0646 22.8549L11.5385 20.3284C11.1759 19.9658 11.1759 19.3779 11.5385 19.0154C11.9011 18.6528 12.489 18.6528 12.8516 19.0154L14.7218 20.8856L18.9589 16.6485C19.3215 16.2859 19.9094 16.2864 20.272 16.6485C20.6336 17.0111 20.6336 17.599 20.2715 17.9616Z" fill="currentColor"/>
        </symbol>
        <symbol viewBox="0 0 38 44" id="icon-order-confirmed-active">
            <path d="M12.6544 35.5139H6.57146C4.64041 35.5139 3.07475 34.2365 3.04405 32.6634L5.08143 9.68167H8.51749V12.7988C8.51749 13.3686 8.97349 13.8253 9.54404 13.8253C10.1138 13.8253 10.5706 13.3693 10.5706 12.7988V9.68167H21.1603V12.7988C21.1603 13.3686 21.6163 13.8253 22.1869 13.8253C22.7574 13.8253 23.2134 13.3693 23.2134 12.7988V9.68167H26.6495L27.378 17.8709C28.0878 17.9098 28.7834 18.0004 29.4618 18.1389L28.6112 8.55629C28.5656 8.02392 28.117 7.62108 27.5922 7.62108H23.2134C23.1528 3.62195 19.8837 0.391052 15.8696 0.391052C11.8555 0.391052 8.58638 3.62195 8.52573 7.62108H4.14698C3.61461 7.62108 3.17359 8.02392 3.12791 8.55629L0.999187 32.5264C0.999187 32.5571 0.991699 32.587 0.991699 32.6177C0.991699 35.3469 3.49256 37.567 6.57146 37.567H13.3141C13.0452 36.9051 12.8236 36.22 12.6544 35.5139ZM15.8696 2.44415C18.7508 2.44415 21.0997 4.75558 21.1611 7.62108H10.5781C10.6395 4.75483 12.9883 2.44415 15.8696 2.44415Z" fill="#2F80ED"/>
            <path d="M26.5772 20.7513C20.2734 20.7513 15.1631 25.8616 15.1631 32.1654C15.1631 38.4693 20.2734 43.5795 26.5772 43.5795C32.881 43.5795 37.9913 38.4693 37.9913 32.1654C37.9913 25.8616 32.881 20.7513 26.5772 20.7513ZM33.6021 29.2857L25.7296 37.1574C25.1463 37.7407 24.2006 37.7407 23.6173 37.1574L19.5538 33.0932C18.9705 32.5099 18.9705 31.5642 19.5538 30.9809C20.1371 30.3976 21.0828 30.3976 21.6661 30.9809L24.6746 33.9894L31.4906 27.1735C32.0738 26.5902 33.0195 26.5909 33.6028 27.1735C34.1846 27.7567 34.1846 28.7024 33.6021 29.2857Z" fill="#27AE60"/>
        </symbol>
        <symbol viewBox="0 0 42 45" id="icon-order-delivered">
            <path d="M15.4071 34.3412H1.54619V35.147C1.5439 35.1218 1.54085 35.0974 1.54085 35.0715C1.53322 34.7571 1.54085 34.4419 1.54085 34.1275C1.54085 32.2495 1.54085 30.3715 1.54085 28.4936C1.54085 25.7586 1.54085 23.0237 1.54085 20.2888C1.54085 17.711 1.54085 15.1325 1.54085 12.5548C1.54085 11.1057 1.54085 9.65655 1.54085 8.2082C1.54085 7.33521 2.03229 6.51718 2.98844 6.45613C3.3326 6.434 3.68439 6.45384 4.02931 6.45384C6.09272 6.45384 8.15613 6.45384 10.2188 6.45384C11.2146 6.45384 12.2105 6.45384 13.2063 6.45384C13.1987 6.95901 13.2071 7.46494 13.2071 7.97011C13.2071 9.87098 13.2071 11.7719 13.2071 13.6727C13.2071 14.4396 13.2071 15.2073 13.2071 15.9742C13.2071 16.4794 13.1437 17.041 13.4223 17.489C13.9145 18.2803 14.9317 18.3581 15.6276 17.8064C15.884 17.6027 16.1366 17.3936 16.3907 17.1868C16.8722 16.7953 17.3545 16.4046 17.836 16.0131C18.2305 16.323 18.625 16.6328 19.0196 16.9433C19.5988 17.3982 20.1634 17.9262 20.7831 18.3268C21.5523 18.8236 22.4924 18.236 22.5336 17.3676C22.539 17.2463 22.5336 17.1242 22.5336 17.0029C22.5336 16.3199 22.5336 15.6377 22.5336 14.9547C22.5336 12.9287 22.5336 10.9027 22.5336 8.87667C22.5336 8.16012 22.5336 7.44434 22.5336 6.72779C22.5336 6.63393 22.5321 6.54312 22.529 6.45384C23.2502 6.45384 23.9713 6.45384 24.6924 6.45384C24.9984 6.45384 25.3044 6.45384 25.6104 6.45384C26.5902 6.45384 26.5918 4.93146 25.6104 4.93146C24.4894 4.93146 23.3684 4.93146 22.2482 4.93146C21.9903 3.80208 21.7316 2.6727 21.4737 1.54332C21.6461 1.54332 21.8178 1.54332 21.9903 1.54332C24.3437 1.54332 26.6971 1.54332 29.0505 1.54332C29.3297 1.54332 29.59 1.53798 29.8525 1.66999C30.2508 1.87069 30.5293 2.40333 30.7842 2.75359C31.3115 3.47929 31.8396 4.205 32.3669 4.93146C31.397 4.93146 30.4271 4.93146 29.4572 4.93146C28.4774 4.93146 28.4758 6.45384 29.4572 6.45384C30.5141 6.45384 31.571 6.45384 32.6278 6.45384C33.0346 6.45384 33.4344 6.48894 33.7084 6.77663C33.7229 6.79723 33.7382 6.81707 33.7527 6.83768C33.774 6.86667 33.7969 6.89414 33.8206 6.92009C33.8358 6.94451 33.8511 6.96893 33.8656 6.99564C33.9709 7.1948 33.99 7.39321 33.9907 7.60993C33.9961 8.93695 33.9907 10.2647 33.9907 11.5925C33.9907 13.7261 33.9907 15.8598 33.9907 17.9926C34.5112 18.1513 35.0194 18.3391 35.5131 18.5535C35.5131 17.2257 35.5131 15.8979 35.5131 14.5701C35.5131 12.5876 35.5131 10.6051 35.5131 8.62256C35.5131 8.25322 35.52 7.88388 35.5131 7.51454C35.5009 6.88117 35.285 6.26154 34.866 5.79071C34.1464 4.80097 33.4268 3.81048 32.7072 2.82074C32.3455 2.32244 31.9777 1.82795 31.6206 1.32584C31.0505 0.524586 30.3065 0.0400201 29.2992 0.0186534C27.3037 -0.0233168 25.3029 0.0186534 23.3074 0.0186534C19.7415 0.0186534 16.1747 0.0186534 12.6088 0.0186534C10.4012 0.0186534 8.19276 0.00720701 5.98512 0.0186534C5.10375 0.023232 4.27884 0.365862 3.7462 1.08775C3.47683 1.45327 3.25019 1.85466 3.00752 2.2385C2.15285 3.59299 1.29742 4.94673 0.442756 6.30122C0.379419 6.40119 0.316845 6.50115 0.253508 6.60112C0.126835 6.80257 0.107757 6.99945 0.159648 7.17115C0.0650238 7.50538 0.0169488 7.85717 0.0169488 8.21506C0.0169488 8.75228 0.0169488 9.28874 0.0169488 9.82596C0.0169488 12.0328 0.0169488 14.2405 0.0169488 16.4473C0.0169488 19.2876 0.0169488 22.1278 0.0169488 24.9681C0.0169488 27.3962 0.0169488 29.8236 0.0169488 32.2518C0.0169488 32.9706 0.0169488 33.6903 0.0169488 34.4091C0.0169488 34.8967 -0.0158643 35.4072 0.143623 35.8758C0.545011 37.054 1.61411 37.6667 2.81293 37.6667C3.30971 37.6667 3.80648 37.6667 4.3025 37.6667C6.36667 37.6667 8.43084 37.6667 10.495 37.6667C12.46 37.6667 14.4257 37.6667 16.3907 37.6667C15.9382 36.616 15.6039 35.5018 15.4071 34.3412ZM15.8443 1.54179C17.2003 1.54179 18.5571 1.54179 19.9131 1.54179C20.1711 2.67117 20.4298 3.80056 20.6877 4.92994C18.8112 4.92994 16.9348 4.92994 15.0591 4.92994C15.3208 3.80056 15.5826 2.67117 15.8443 1.54179ZM14.7302 15.888C14.7302 15.1493 14.7302 14.4106 14.7302 13.6712C14.7302 11.839 14.7302 10.0076 14.7302 8.17538C14.7302 7.61222 14.7302 7.04905 14.7302 6.48589C14.7302 6.47521 14.731 6.46376 14.731 6.45308C15.9946 6.45308 17.2583 6.45308 18.522 6.45308C19.3507 6.45308 20.1802 6.45308 21.009 6.45308C20.9937 6.93383 21.0105 7.41916 21.0105 7.89991C21.0105 9.79315 21.0105 11.6856 21.0105 13.5789C21.0105 14.4221 21.0105 15.2653 21.0105 16.1085C21.0105 16.2672 21.0105 16.426 21.0105 16.5847C20.7648 16.3916 20.519 16.1986 20.2733 16.0055C19.6583 15.5225 19.0425 15.0387 18.4274 14.5556C18.3847 14.522 18.3404 14.4923 18.2946 14.4663C17.984 14.2092 17.5758 14.2725 17.2744 14.5175C16.7509 14.9425 16.2282 15.3668 15.7047 15.7918C15.3941 16.0437 15.0843 16.2955 14.7737 16.5473C14.7645 16.5542 14.75 16.5649 14.7325 16.5763C14.731 16.5557 14.7287 16.5374 14.7287 16.5275C14.7302 16.3146 14.7302 16.1009 14.7302 15.888ZM14.7073 6.45308C14.7065 6.45537 14.7058 6.45689 14.7043 6.45918C14.705 6.45689 14.7058 6.4546 14.7073 6.45308ZM14.6577 16.6511C14.6692 16.6534 14.6829 16.6557 14.6936 16.6595C14.7004 16.6625 14.7065 16.6671 14.7111 16.6709C14.7142 16.6747 14.7157 16.6786 14.7149 16.6847C14.7058 16.6831 14.6852 16.6747 14.6493 16.6541C14.6516 16.6526 14.6547 16.6511 14.6577 16.6511ZM3.61266 4.1325C3.99039 3.53424 4.36812 2.93673 4.74509 2.33846C5.02515 1.89434 5.30673 1.56392 5.88973 1.54256C7.76161 1.47235 9.64951 1.54256 11.5221 1.54256C12.4417 1.54256 13.362 1.54256 14.2815 1.54256C14.0198 2.67194 13.758 3.80132 13.4955 4.9307C11.0254 4.9307 8.55523 4.9307 6.08585 4.9307C5.29986 4.9307 4.51311 4.9307 3.72712 4.9307C3.51498 4.9307 3.30665 4.93223 3.10138 4.94215C3.27232 4.67201 3.44249 4.40188 3.61266 4.1325Z" fill="currentColor"/>
            <path d="M29.7381 19.6493C22.9741 19.6493 17.4912 25.1329 17.4912 31.8962C17.4912 38.6603 22.9748 44.1431 29.7381 44.1431C36.5022 44.1431 41.9851 38.6595 41.9851 31.8962C41.9851 25.1321 36.5022 19.6493 29.7381 19.6493ZM37.2752 28.8064L28.8278 37.2532C28.202 37.8789 27.1879 37.8789 26.5614 37.2532L22.201 32.8921C21.5753 32.2663 21.5753 31.2514 22.201 30.6257C22.8268 29.9999 23.8417 29.9999 24.4674 30.6257L27.6953 33.8536L35.0088 26.54C35.6346 25.9143 36.6495 25.9143 37.2752 26.54C37.901 27.1658 37.901 28.1799 37.2752 28.8064Z" fill="currentColor"/>
        </symbol>
        <symbol viewBox="0 0 42 45" id="icon-order-delivered-active">
            <path d="M15.4071 34.3412H1.54619V35.147C1.5439 35.1218 1.54085 35.0974 1.54085 35.0715C1.53322 34.7571 1.54085 34.4419 1.54085 34.1275C1.54085 32.2495 1.54085 30.3715 1.54085 28.4936C1.54085 25.7586 1.54085 23.0237 1.54085 20.2888C1.54085 17.711 1.54085 15.1325 1.54085 12.5548C1.54085 11.1057 1.54085 9.65655 1.54085 8.2082C1.54085 7.33521 2.03229 6.51718 2.98844 6.45613C3.3326 6.434 3.68439 6.45384 4.02931 6.45384C6.09272 6.45384 8.15613 6.45384 10.2188 6.45384C11.2146 6.45384 12.2105 6.45384 13.2063 6.45384C13.1987 6.95901 13.2071 7.46494 13.2071 7.97011C13.2071 9.87098 13.2071 11.7719 13.2071 13.6727C13.2071 14.4396 13.2071 15.2073 13.2071 15.9742C13.2071 16.4794 13.1437 17.041 13.4223 17.489C13.9145 18.2803 14.9317 18.3581 15.6276 17.8064C15.884 17.6027 16.1366 17.3936 16.3907 17.1868C16.8722 16.7953 17.3545 16.4046 17.836 16.0131C18.2305 16.323 18.625 16.6328 19.0196 16.9433C19.5988 17.3982 20.1634 17.9262 20.7831 18.3268C21.5523 18.8236 22.4924 18.236 22.5336 17.3676C22.539 17.2463 22.5336 17.1242 22.5336 17.0029C22.5336 16.3199 22.5336 15.6377 22.5336 14.9547C22.5336 12.9287 22.5336 10.9027 22.5336 8.87667C22.5336 8.16012 22.5336 7.44434 22.5336 6.72779C22.5336 6.63393 22.5321 6.54312 22.529 6.45384C23.2502 6.45384 23.9713 6.45384 24.6924 6.45384C24.9984 6.45384 25.3044 6.45384 25.6104 6.45384C26.5902 6.45384 26.5918 4.93146 25.6104 4.93146C24.4894 4.93146 23.3684 4.93146 22.2482 4.93146C21.9903 3.80208 21.7316 2.6727 21.4737 1.54332C21.6461 1.54332 21.8178 1.54332 21.9903 1.54332C24.3437 1.54332 26.6971 1.54332 29.0505 1.54332C29.3297 1.54332 29.59 1.53798 29.8525 1.66999C30.2508 1.87069 30.5293 2.40333 30.7842 2.75359C31.3115 3.47929 31.8396 4.205 32.3669 4.93146C31.397 4.93146 30.4271 4.93146 29.4572 4.93146C28.4774 4.93146 28.4758 6.45384 29.4572 6.45384C30.5141 6.45384 31.571 6.45384 32.6278 6.45384C33.0346 6.45384 33.4344 6.48894 33.7084 6.77663C33.7229 6.79723 33.7382 6.81707 33.7527 6.83768C33.774 6.86667 33.7969 6.89414 33.8206 6.92009C33.8358 6.94451 33.8511 6.96893 33.8656 6.99564C33.9709 7.1948 33.99 7.39321 33.9907 7.60993C33.9961 8.93695 33.9907 10.2647 33.9907 11.5925C33.9907 13.7261 33.9907 15.8598 33.9907 17.9926C34.5112 18.1513 35.0194 18.3391 35.5131 18.5535C35.5131 17.2257 35.5131 15.8979 35.5131 14.5701C35.5131 12.5876 35.5131 10.6051 35.5131 8.62256C35.5131 8.25322 35.52 7.88388 35.5131 7.51454C35.5009 6.88117 35.285 6.26154 34.866 5.79071C34.1464 4.80097 33.4268 3.81048 32.7072 2.82074C32.3455 2.32244 31.9777 1.82795 31.6206 1.32584C31.0505 0.524586 30.3065 0.0400201 29.2992 0.0186534C27.3037 -0.0233168 25.3029 0.0186534 23.3074 0.0186534C19.7415 0.0186534 16.1747 0.0186534 12.6088 0.0186534C10.4012 0.0186534 8.19276 0.00720701 5.98512 0.0186534C5.10375 0.023232 4.27884 0.365862 3.7462 1.08775C3.47683 1.45327 3.25019 1.85466 3.00752 2.2385C2.15285 3.59299 1.29742 4.94673 0.442756 6.30122C0.379419 6.40119 0.316845 6.50115 0.253508 6.60112C0.126835 6.80257 0.107757 6.99945 0.159648 7.17115C0.0650238 7.50538 0.0169488 7.85717 0.0169488 8.21506C0.0169488 8.75228 0.0169488 9.28874 0.0169488 9.82596C0.0169488 12.0328 0.0169488 14.2405 0.0169488 16.4473C0.0169488 19.2876 0.0169488 22.1278 0.0169488 24.9681C0.0169488 27.3962 0.0169488 29.8236 0.0169488 32.2518C0.0169488 32.9706 0.0169488 33.6903 0.0169488 34.4091C0.0169488 34.8967 -0.0158643 35.4072 0.143623 35.8758C0.545011 37.054 1.61411 37.6667 2.81293 37.6667C3.30971 37.6667 3.80648 37.6667 4.3025 37.6667C6.36667 37.6667 8.43084 37.6667 10.495 37.6667C12.46 37.6667 14.4257 37.6667 16.3907 37.6667C15.9382 36.616 15.6039 35.5018 15.4071 34.3412ZM15.8443 1.54179C17.2003 1.54179 18.5571 1.54179 19.9131 1.54179C20.1711 2.67117 20.4298 3.80056 20.6877 4.92994C18.8112 4.92994 16.9348 4.92994 15.0591 4.92994C15.3208 3.80056 15.5826 2.67117 15.8443 1.54179ZM14.7302 15.888C14.7302 15.1493 14.7302 14.4106 14.7302 13.6712C14.7302 11.839 14.7302 10.0076 14.7302 8.17538C14.7302 7.61222 14.7302 7.04905 14.7302 6.48589C14.7302 6.47521 14.731 6.46376 14.731 6.45308C15.9946 6.45308 17.2583 6.45308 18.522 6.45308C19.3507 6.45308 20.1802 6.45308 21.009 6.45308C20.9937 6.93383 21.0105 7.41916 21.0105 7.89991C21.0105 9.79315 21.0105 11.6856 21.0105 13.5789C21.0105 14.4221 21.0105 15.2653 21.0105 16.1085C21.0105 16.2672 21.0105 16.426 21.0105 16.5847C20.7648 16.3916 20.519 16.1986 20.2733 16.0055C19.6583 15.5225 19.0425 15.0387 18.4274 14.5556C18.3847 14.522 18.3404 14.4923 18.2946 14.4663C17.984 14.2092 17.5758 14.2725 17.2744 14.5175C16.7509 14.9425 16.2282 15.3668 15.7047 15.7918C15.3941 16.0437 15.0843 16.2955 14.7737 16.5473C14.7645 16.5542 14.75 16.5649 14.7325 16.5763C14.731 16.5557 14.7287 16.5374 14.7287 16.5275C14.7302 16.3146 14.7302 16.1009 14.7302 15.888ZM14.7073 6.45308C14.7065 6.45537 14.7058 6.45689 14.7043 6.45918C14.705 6.45689 14.7058 6.4546 14.7073 6.45308ZM14.6577 16.6511C14.6692 16.6534 14.6829 16.6557 14.6936 16.6595C14.7004 16.6625 14.7065 16.6671 14.7111 16.6709C14.7142 16.6747 14.7157 16.6786 14.7149 16.6847C14.7058 16.6831 14.6852 16.6747 14.6493 16.6541C14.6516 16.6526 14.6547 16.6511 14.6577 16.6511ZM3.61266 4.1325C3.99039 3.53424 4.36812 2.93673 4.74509 2.33846C5.02515 1.89434 5.30673 1.56392 5.88973 1.54256C7.76161 1.47235 9.64951 1.54256 11.5221 1.54256C12.4417 1.54256 13.362 1.54256 14.2815 1.54256C14.0198 2.67194 13.758 3.80132 13.4955 4.9307C11.0254 4.9307 8.55523 4.9307 6.08585 4.9307C5.29986 4.9307 4.51311 4.9307 3.72712 4.9307C3.51498 4.9307 3.30665 4.93223 3.10138 4.94215C3.27232 4.67201 3.44249 4.40188 3.61266 4.1325Z" fill="#428DFF"/>
            <path d="M29.7381 19.6493C22.9741 19.6493 17.4912 25.1329 17.4912 31.8962C17.4912 38.6603 22.9748 44.1431 29.7381 44.1431C36.5022 44.1431 41.9851 38.6595 41.9851 31.8962C41.9851 25.1321 36.5022 19.6493 29.7381 19.6493ZM37.2752 28.8064L28.8278 37.2532C28.202 37.8789 27.1879 37.8789 26.5614 37.2532L22.201 32.8921C21.5753 32.2663 21.5753 31.2514 22.201 30.6257C22.8268 29.9999 23.8417 29.9999 24.4674 30.6257L27.6953 33.8536L35.0088 26.54C35.6346 25.9143 36.6495 25.9143 37.2752 26.54C37.901 27.1658 37.901 28.1799 37.2752 28.8064Z" fill="#3D9C56"/>
        </symbol>
        <symbol viewBox="0 0 22 35" id="icon-order-process" >
            <path d="M3.02926 7.22412C3.02926 7.22412 5.30414 10.5135 10.7865 10.5135C16.6728 10.5135 19.2119 7.22412 19.2119 7.22412L17.423 11.4317L11.075 14.5479L5.01559 12.0665L1.95703 7.56518L3.02926 7.22412Z" fill="currentColor"/>
            <path d="M12.6989 16.4893C14.1312 15.4159 15.5532 14.3292 16.8562 13.0977C18.2066 11.8218 19.3943 10.4183 20.2536 8.75802C20.9726 7.3684 21.4095 5.89509 21.563 4.33811C21.5872 4.09227 21.6201 3.84759 21.649 3.6029V2.94041C21.649 2.43488 21.2392 2.02515 20.7337 2.02515H1.97432C1.24084 2.02515 0.656255 2.63628 0.686264 3.36918C0.702999 3.77949 0.725506 4.1898 0.767056 4.5978C0.934989 6.26558 1.48149 7.81852 2.31942 9.26817C3.34202 11.0369 4.71202 12.512 6.26266 13.8185C7.36432 14.7465 8.51907 15.6121 9.64958 16.506C9.69921 16.5452 9.74826 16.5851 9.81694 16.6405C9.74768 16.6959 9.68998 16.7443 9.62996 16.7905C8.14627 17.9274 6.69085 19.0965 5.38202 20.4371C3.84985 22.0056 2.57796 23.7507 1.72964 25.7861C1.05733 27.4002 0.696074 29.0836 0.592198 30.8264C0.586427 30.9234 0.581234 31.022 0.552957 31.1155C0.549494 31.1259 0.54834 31.1369 0.54834 31.1484V31.6955C0.54834 32.2593 1.00539 32.7164 1.56921 32.7164C8.04182 32.7164 14.515 32.7164 20.9876 32.7164C21.3523 32.7164 21.6484 32.4203 21.6484 32.0556V31.9113C21.6478 31.9056 21.6478 31.8998 21.6472 31.8946C21.6334 31.8 21.6166 31.7059 21.6161 31.6101C21.5953 28.8003 20.9276 26.1716 19.4901 23.7594C18.4513 22.016 17.1205 20.5156 15.6028 19.1831C14.6858 18.3781 13.7204 17.6284 12.7757 16.854C12.6943 16.7876 12.61 16.7247 12.5073 16.6445C12.5829 16.5827 12.6395 16.5343 12.6989 16.4893ZM16.4252 22.2728C18.0093 24.0831 19.1507 26.1237 19.6667 28.4904C19.677 28.5388 19.6892 28.5873 19.6967 28.6358C19.6996 28.6543 19.6915 28.6745 19.6834 28.7212C19.2569 28.3669 18.8455 29.0605 18.4305 28.72C18.2511 28.5723 18.071 28.7708 17.8915 28.6231L16.3836 28.398C16.3836 28.398 12.4594 29.0328 12.2863 29.1482C12.1132 29.2637 6.28459 29.1482 6.28459 29.1482L3.71828 28.8014C3.36568 29.0905 3.01308 28.2745 2.65932 28.6329L2.50986 28.5319C2.6674 28.0045 2.81052 27.4718 2.99692 26.9547C3.80657 24.7012 5.20485 22.8413 6.90034 21.1844C8.18897 19.9258 9.60457 18.8201 11.0375 17.7346C11.1223 17.6706 11.1823 17.6515 11.2775 17.7236C13.1075 19.1115 14.9051 20.5352 16.4252 22.2728ZM8.0372 11.8587C8.02912 11.8564 8.02162 11.8541 8.01354 11.8518C6.18763 11.3105 4.63354 10.0853 3.68481 8.4337C3.19371 7.57903 2.81514 6.66031 2.58257 5.66137C2.4383 5.04216 2.38405 4.40275 2.28999 3.77199C2.28076 3.70736 2.33096 3.64907 2.39617 3.64907H20.025C19.9771 4.05418 19.9437 4.44603 19.8825 4.83383C19.5028 7.24952 18.3203 9.2497 16.6733 11.0069C16.6219 11.0612 16.5527 11.1102 16.4823 11.1333C15.2162 11.5517 13.9477 11.9603 12.6268 12.1813C11.0686 12.4427 9.54051 12.3025 8.0372 11.8587Z" fill="currentColor"/>
            <path d="M2.53439 28.6866C2.53439 28.6866 7.8436 25.1086 11.0176 25.1086C14.7686 25.1086 20.0201 28.8597 20.0201 28.8597L13.7876 31.7451L5.2467 31.4566L1.78418 30.5333L2.53439 28.6866Z" fill="currentColor"/>
            <path d="M10.5977 19.6263C10.5977 21.0852 10.5977 22.5435 10.5977 24.0024C10.5977 24.7451 11.7518 24.7463 11.7518 24.0024C11.7518 22.5435 11.7518 21.0852 11.7518 19.6263C11.7518 18.8842 10.5977 18.8825 10.5977 19.6263Z" fill="currentColor"/>
            <rect width="22" height="1" rx="0.5" fill="currentColor"/>
            <rect y="34" width="22" height="1" rx="0.5" fill="currentColor"/>
        </symbol>
        <symbol viewBox="0 0 22 35" id="icon-order-process-active">
            <path d="M3.02926 7.22412C3.02926 7.22412 5.30414 10.5135 10.7865 10.5135C16.6728 10.5135 19.2119 7.22412 19.2119 7.22412L17.423 11.4317L11.075 14.5479L5.01559 12.0665L1.95703 7.56518L3.02926 7.22412Z" fill="#2F80ED"/>
            <path d="M12.6989 16.4893C14.1312 15.4159 15.5532 14.3292 16.8562 13.0977C18.2066 11.8218 19.3943 10.4183 20.2536 8.75802C20.9726 7.3684 21.4095 5.89509 21.563 4.33811C21.5872 4.09227 21.6201 3.84759 21.649 3.6029V2.94041C21.649 2.43488 21.2392 2.02515 20.7337 2.02515H1.97432C1.24084 2.02515 0.656255 2.63628 0.686264 3.36918C0.702999 3.77949 0.725506 4.1898 0.767056 4.5978C0.934989 6.26558 1.48149 7.81852 2.31942 9.26817C3.34202 11.0369 4.71202 12.512 6.26266 13.8185C7.36432 14.7465 8.51907 15.6121 9.64958 16.506C9.69921 16.5452 9.74826 16.5851 9.81694 16.6405C9.74768 16.6959 9.68998 16.7443 9.62996 16.7905C8.14627 17.9274 6.69085 19.0965 5.38202 20.4371C3.84985 22.0056 2.57796 23.7507 1.72964 25.7861C1.05733 27.4002 0.696074 29.0836 0.592198 30.8264C0.586427 30.9234 0.581234 31.022 0.552957 31.1155C0.549494 31.1259 0.54834 31.1369 0.54834 31.1484V31.6955C0.54834 32.2593 1.00539 32.7164 1.56921 32.7164C8.04182 32.7164 14.515 32.7164 20.9876 32.7164C21.3523 32.7164 21.6484 32.4203 21.6484 32.0556V31.9113C21.6478 31.9056 21.6478 31.8998 21.6472 31.8946C21.6334 31.8 21.6166 31.7059 21.6161 31.6101C21.5953 28.8003 20.9276 26.1716 19.4901 23.7594C18.4513 22.016 17.1205 20.5156 15.6028 19.1831C14.6858 18.3781 13.7204 17.6284 12.7757 16.854C12.6943 16.7876 12.61 16.7247 12.5073 16.6445C12.5829 16.5827 12.6395 16.5343 12.6989 16.4893ZM16.4252 22.2728C18.0093 24.0831 19.1507 26.1237 19.6667 28.4904C19.677 28.5388 19.6892 28.5873 19.6967 28.6358C19.6996 28.6543 19.6915 28.6745 19.6834 28.7212C19.2569 28.3669 18.8455 29.0605 18.4305 28.72C18.2511 28.5723 18.071 28.7708 17.8915 28.6231L16.3836 28.398C16.3836 28.398 12.4594 29.0328 12.2863 29.1482C12.1132 29.2637 6.28459 29.1482 6.28459 29.1482L3.71828 28.8014C3.36568 29.0905 3.01308 28.2745 2.65932 28.6329L2.50986 28.5319C2.6674 28.0045 2.81052 27.4718 2.99692 26.9547C3.80657 24.7012 5.20485 22.8413 6.90034 21.1844C8.18897 19.9258 9.60457 18.8201 11.0375 17.7346C11.1223 17.6706 11.1823 17.6515 11.2775 17.7236C13.1075 19.1115 14.9051 20.5352 16.4252 22.2728ZM8.0372 11.8587C8.02912 11.8564 8.02162 11.8541 8.01354 11.8518C6.18763 11.3105 4.63354 10.0853 3.68481 8.4337C3.19371 7.57903 2.81514 6.66031 2.58257 5.66137C2.4383 5.04216 2.38405 4.40275 2.28999 3.77199C2.28076 3.70736 2.33096 3.64907 2.39617 3.64907H20.025C19.9771 4.05418 19.9437 4.44603 19.8825 4.83383C19.5028 7.24952 18.3203 9.2497 16.6733 11.0069C16.6219 11.0612 16.5527 11.1102 16.4823 11.1333C15.2162 11.5517 13.9477 11.9603 12.6268 12.1813C11.0686 12.4427 9.54051 12.3025 8.0372 11.8587Z" fill="#2F80ED"/>
            <path d="M2.53439 28.6866C2.53439 28.6866 7.8436 25.1086 11.0176 25.1086C14.7686 25.1086 20.0201 28.8597 20.0201 28.8597L13.7876 31.7451L5.2467 31.4566L1.78418 30.5333L2.53439 28.6866Z" fill="#2F80ED"/>
            <path d="M10.5977 19.6263C10.5977 21.0852 10.5977 22.5435 10.5977 24.0024C10.5977 24.7451 11.7518 24.7463 11.7518 24.0024C11.7518 22.5435 11.7518 21.0852 11.7518 19.6263C11.7518 18.8842 10.5977 18.8825 10.5977 19.6263Z" fill="#2F80ED"/>
            <rect width="22" height="1" rx="0.5" fill="#2F80ED"/>
            <rect y="34" width="22" height="1" rx="0.5" fill="#2F80ED"/>
        </symbol>
        <symbol viewBox="0 0 49 34" id="icon-order-shipping">
            <path d="M38.563 14.4078C35.4683 14.4078 32.9365 16.9396 32.9365 20.0343C32.9365 23.129 35.4683 25.6607 38.563 25.6607C41.6577 25.6607 44.1894 23.129 44.1894 20.0343C44.1894 16.9396 41.6577 14.4078 38.563 14.4078ZM41.5173 22.9878L37.8605 20.7376V16.5177H38.9154V20.1746L42.0803 22.0732L41.5173 22.9878Z" fill="currentColor"/>
            <path d="M38.5628 10.4109C33.2476 10.4109 28.9395 14.7199 28.9395 20.0343C28.9395 25.3487 33.2484 29.6576 38.5628 29.6576C43.878 29.6576 48.1862 25.3487 48.1862 20.0343C48.1862 14.7199 43.878 10.4109 38.5628 10.4109ZM38.5628 27.0673C34.6946 27.0673 31.5298 23.9024 31.5298 20.0343C31.5298 16.1661 34.6946 13.0012 38.5628 13.0012C42.431 13.0012 45.5958 16.1661 45.5958 20.0343C45.5958 23.9024 42.431 27.0673 38.5628 27.0673Z" fill="currentColor"/>
            <path d="M27.2635 23.8867L25.7901 26.6422V26.6413L22.0688 27.3628L20.4765 17.5628L9.69252 21.615L2.92611 14.1709L4.84534 13.272L11.2073 17.4208L11.658 17.1517C11.88 17.0196 33.8715 3.91687 41.1125 2.51356L41.3626 2.46899C45.8978 1.73844 46.469 2.4921 46.474 2.49953C46.4748 2.50283 46.5606 3.06663 45.0343 4.5401C43.8836 5.65119 41.6928 6.99258 39.6035 8.14495C40.4876 8.22171 41.3436 8.39341 42.1617 8.65261C43.7648 7.69754 45.2721 6.68386 46.209 5.77914C47.9318 4.11663 48.5137 2.79588 47.9912 1.73844C47.3341 0.410257 45.206 0.113912 41.0877 0.776767C34.3139 1.86639 14.5793 13.4305 11.2403 15.4083L4.97329 11.3214L0.105469 13.5988L9.2187 23.625L19.1343 19.898L20.6746 29.3786L26.902 28.1718L28.1418 25.8538C27.7927 25.2306 27.4972 24.5735 27.2635 23.8867Z" fill="currentColor"/>
            <path d="M17.8112 9.18925L16.256 7.07769L20.4725 5.2633L29.9275 4.67391L29.8177 2.96436L20.0705 3.57108L13.6104 6.35127L16.4508 10.2079L17.8112 9.18925Z" fill="currentColor"/>
            <path d="M6.52832 31.4381L7.02113 33.0808L17.6111 29.8796L17.1183 28.2369L6.52832 31.4381Z" fill="currentColor"/>
            <path d="M16.6784 24.7328L9.59912 26.8732L10.0919 28.5151L17.1704 26.3747L16.6784 24.7328Z" fill="currentColor"/>
        </symbol>
        <symbol viewBox="0 0 49 34" id="icon-order-shipping-active">
            <path d="M38.563 14.4078C35.4683 14.4078 32.9365 16.9396 32.9365 20.0343C32.9365 23.129 35.4683 25.6607 38.563 25.6607C41.6577 25.6607 44.1894 23.129 44.1894 20.0343C44.1894 16.9396 41.6577 14.4078 38.563 14.4078ZM41.5173 22.9878L37.8605 20.7376V16.5177H38.9154V20.1746L42.0803 22.0732L41.5173 22.9878Z" fill="#2F80ED"/>
            <path d="M38.5628 10.4109C33.2476 10.4109 28.9395 14.7199 28.9395 20.0343C28.9395 25.3487 33.2484 29.6576 38.5628 29.6576C43.878 29.6576 48.1862 25.3487 48.1862 20.0343C48.1862 14.7199 43.878 10.4109 38.5628 10.4109ZM38.5628 27.0673C34.6946 27.0673 31.5298 23.9024 31.5298 20.0343C31.5298 16.1661 34.6946 13.0012 38.5628 13.0012C42.431 13.0012 45.5958 16.1661 45.5958 20.0343C45.5958 23.9024 42.431 27.0673 38.5628 27.0673Z" fill="#2F80ED"/>
            <path d="M27.2635 23.8867L25.7901 26.6422V26.6413L22.0688 27.3628L20.4765 17.5628L9.69252 21.615L2.92611 14.1709L4.84534 13.272L11.2073 17.4208L11.658 17.1517C11.88 17.0196 33.8715 3.91687 41.1125 2.51356L41.3626 2.46899C45.8978 1.73844 46.469 2.4921 46.474 2.49953C46.4748 2.50283 46.5606 3.06663 45.0343 4.5401C43.8836 5.65119 41.6928 6.99258 39.6035 8.14495C40.4876 8.22171 41.3436 8.39341 42.1617 8.65261C43.7648 7.69754 45.2721 6.68386 46.209 5.77914C47.9318 4.11663 48.5137 2.79588 47.9912 1.73844C47.3341 0.410257 45.206 0.113912 41.0877 0.776767C34.3139 1.86639 14.5793 13.4305 11.2403 15.4083L4.97329 11.3214L0.105469 13.5988L9.2187 23.625L19.1343 19.898L20.6746 29.3786L26.902 28.1718L28.1418 25.8538C27.7927 25.2306 27.4972 24.5735 27.2635 23.8867Z" fill="#2F80ED"/>
            <path d="M17.8112 9.18925L16.256 7.07769L20.4725 5.2633L29.9275 4.67391L29.8177 2.96436L20.0705 3.57108L13.6104 6.35127L16.4508 10.2079L17.8112 9.18925Z" fill="#2F80ED"/>
            <path d="M6.52832 31.4381L7.02113 33.0808L17.6111 29.8796L17.1183 28.2369L6.52832 31.4381Z" fill="#2F80ED"/>
            <path d="M16.6784 24.7328L9.59912 26.8732L10.0919 28.5151L17.1704 26.3747L16.6784 24.7328Z" fill="#2F80ED"/>
        </symbol>
        <symbol viewBox="0 0 39 44" id="icon-order-refund">
            <path d="M6.47734 35.7357C4.54481 35.7357 2.97796 34.4574 2.94724 32.883L4.98617 9.88387H8.42485V13.0033C8.42485 13.5736 8.88119 14.0307 9.45218 14.0307C10.0232 14.0307 10.4795 13.5743 10.4795 13.0033V9.88387H21.0773V13.0033C21.0773 13.5736 21.5336 14.0307 22.1046 14.0307C22.6749 14.0307 23.132 13.5743 23.132 13.0033V9.88387H26.5706L27.2997 18.0793C28.0101 18.1183 28.7062 18.2089 29.3851 18.3475L28.5331 8.75762C28.4874 8.22485 28.0386 7.82171 27.5133 7.82171H23.1312C23.0705 3.81954 19.7989 0.586182 15.7818 0.586182C11.7646 0.586182 8.49304 3.81954 8.43234 7.82171H4.05026C3.51748 7.82171 3.07613 8.22485 3.03042 8.75762L0.900071 32.7459C0.900071 32.7766 0.892578 32.8066 0.892578 32.8373C0.892578 35.5686 3.39534 37.7904 6.47659 37.7904H13.2243C12.9545 37.1287 12.7327 36.4431 12.5634 35.7365L6.47734 35.7357ZM15.7818 2.64084C18.6652 2.64084 21.0158 4.95403 21.0773 7.82171H10.4863C10.5477 4.95328 12.8983 2.64084 15.7818 2.64084Z" fill="currentColor"/>
            <path d="M26.8823 20.9462C20.5737 20.9462 15.4595 26.0603 15.4595 32.3689C15.4595 38.6776 20.5737 43.7917 26.8823 43.7917C33.1909 43.7917 38.3051 38.6776 38.3051 32.3689C38.3051 26.0603 33.1909 20.9462 26.8823 20.9462ZM33.6884 38.5839C33.1347 39.1901 32.195 39.2328 31.5888 38.6791L26.9774 34.4686L22.7669 39.0799C22.2132 39.6861 21.2735 39.7289 20.6673 39.1751C20.0611 38.6214 20.0184 37.6817 20.5722 37.0755L24.7826 32.4641L20.1713 28.2536C19.5651 27.6999 19.5223 26.7602 20.0761 26.154C20.6299 25.5478 21.5695 25.5051 22.1757 26.0588L26.7871 30.2693L30.9976 25.658C31.5513 25.0517 32.491 25.009 33.0972 25.5628C33.7034 26.1165 33.7461 27.0562 33.1924 27.6624L28.9819 32.2738L33.5933 36.4843C34.1987 37.038 34.2414 37.9777 33.6884 38.5839Z" fill="currentColor"/>
        </symbol>
        <symbol viewBox="0 0 39 44" id="icon-order-refund-active">
            <path d="M6.47734 35.7357C4.54481 35.7357 2.97796 34.4574 2.94724 32.883L4.98617 9.88387H8.42485V13.0033C8.42485 13.5736 8.88119 14.0307 9.45218 14.0307C10.0232 14.0307 10.4795 13.5743 10.4795 13.0033V9.88387H21.0773V13.0033C21.0773 13.5736 21.5336 14.0307 22.1046 14.0307C22.6749 14.0307 23.132 13.5743 23.132 13.0033V9.88387H26.5706L27.2997 18.0793C28.0101 18.1183 28.7062 18.2089 29.3851 18.3475L28.5331 8.75762C28.4874 8.22485 28.0386 7.82171 27.5133 7.82171H23.1312C23.0705 3.81954 19.7989 0.586182 15.7818 0.586182C11.7646 0.586182 8.49304 3.81954 8.43234 7.82171H4.05026C3.51748 7.82171 3.07613 8.22485 3.03042 8.75762L0.900071 32.7459C0.900071 32.7766 0.892578 32.8066 0.892578 32.8373C0.892578 35.5686 3.39534 37.7904 6.47659 37.7904H13.2243C12.9545 37.1287 12.7327 36.4431 12.5634 35.7365L6.47734 35.7357ZM15.7818 2.64084C18.6652 2.64084 21.0158 4.95403 21.0773 7.82171H10.4863C10.5477 4.95328 12.8983 2.64084 15.7818 2.64084Z" fill="#2F80ED"/>
            <path d="M26.8823 20.9462C20.5737 20.9462 15.4595 26.0603 15.4595 32.3689C15.4595 38.6776 20.5737 43.7917 26.8823 43.7917C33.1909 43.7917 38.3051 38.6776 38.3051 32.3689C38.3051 26.0603 33.1909 20.9462 26.8823 20.9462ZM33.6884 38.5839C33.1347 39.1901 32.195 39.2328 31.5888 38.6791L26.9774 34.4686L22.7669 39.0799C22.2132 39.6861 21.2735 39.7289 20.6673 39.1751C20.0611 38.6214 20.0184 37.6817 20.5722 37.0755L24.7826 32.4641L20.1713 28.2536C19.5651 27.6999 19.5223 26.7602 20.0761 26.154C20.6299 25.5478 21.5695 25.5051 22.1757 26.0588L26.7871 30.2693L30.9976 25.658C31.5513 25.0517 32.491 25.009 33.0972 25.5628C33.7034 26.1165 33.7461 27.0562 33.1924 27.6624L28.9819 32.2738L33.5933 36.4843C34.1987 37.038 34.2414 37.9777 33.6884 38.5839Z" fill="#EB5757"/>
        </symbol>
        <symbol viewBox="0 0 20 21" id="icon-order-cancel">
            <path d="M0.366383 0.365758C0.854059 -0.121919 1.63618 -0.121919 2.12386 0.365758L10.0003 8.2422L17.8768 0.365758C18.3644 -0.121919 19.1466 -0.121919 19.6342 0.365758C20.1219 0.853434 20.1219 1.63556 19.6342 2.12323L11.7578 9.99968L19.6342 17.8761C20.1219 18.3638 20.1219 19.1459 19.6342 19.6336C19.395 19.8728 19.073 20.0016 18.7601 20.0016C18.4473 20.0016 18.1252 19.882 17.886 19.6336L10.0095 11.7572L2.13306 19.6336C1.89382 19.8728 1.57177 20.0016 1.25892 20.0016C0.936871 20.0016 0.624022 19.882 0.384783 19.6336C-0.102894 19.1459 -0.102894 18.3638 0.384783 17.8761L8.24283 9.99968L0.366383 2.12323C-0.121296 1.63556 -0.121296 0.853434 0.366383 0.365758Z" fill="#EB5757"/>
        </symbol>
        <symbol viewBox="0 0 50 50" id="customer-continue-shopping">
            <path d="M6.66651 25.6081C7.00343 25.6067 7.30675 25.4034 7.43595 25.0923C7.56515 24.7811 7.49513 24.4228 7.25821 24.1831L7.13331 24.083C7.08683 24.0514 7.03634 24.0261 6.98312 24.0077C6.93585 23.9838 6.88517 23.967 6.83292 23.9581C6.77794 23.9487 6.72228 23.9432 6.66651 23.9414C6.44591 23.9444 6.23458 24.0308 6.07482 24.1831C5.87267 24.3778 5.7839 24.6624 5.83956 24.9376C5.89523 25.2128 6.08751 25.4404 6.34952 25.5414C6.44972 25.5842 6.55743 25.6068 6.66651 25.6081Z" fill="#428DFF"/>
            <path d="M49.9362 45.5172C49.9304 45.5031 49.9205 45.4921 49.914 45.4785C49.8899 45.4232 49.8598 45.3706 49.8241 45.3219L44.1666 38.0479V19.1667H45.8333C47.2134 19.1652 48.3318 18.0468 48.3333 16.6667V12.5C48.3287 12.4656 48.3219 12.4316 48.3128 12.3981C48.3053 12.2829 48.2667 12.1719 48.2014 12.0768C48.188 12.0452 48.1726 12.0147 48.1552 11.9853L39.4865 0.949325C39.0135 0.348153 38.2901 -0.001945 37.5252 8.12889e-06H12.4748C11.7089 -0.00184734 10.9849 0.349227 10.5119 0.951766L1.84492 11.9853C1.82754 12.0148 1.81211 12.0454 1.79873 12.077C1.7334 12.172 1.69492 12.2829 1.6873 12.398C1.67822 12.4315 1.67129 12.4655 1.6667 12.5V16.6667C1.66816 18.0468 2.78662 19.1652 4.1667 19.1667H5.8334V21.4417C5.8334 21.902 6.20654 22.275 6.6667 22.275C7.12695 22.275 7.5 21.9019 7.5 21.4417V18.5165C7.95537 18.933 8.54961 19.1649 9.1667 19.1667H10.8334C11.4505 19.1648 12.0447 18.9329 12.5001 18.5165C12.9555 18.933 13.5497 19.1649 14.1668 19.1667H15.8335C16.4506 19.1648 17.0448 18.9329 17.5002 18.5165C17.9556 18.933 18.5498 19.1649 19.1669 19.1667H20.8336C21.4507 19.1648 22.0449 18.9329 22.5003 18.5165C22.9557 18.933 23.5499 19.1649 24.167 19.1667H25.8337C26.4508 19.1648 27.045 18.9329 27.5004 18.5165C27.9558 18.933 28.55 19.1649 29.1671 19.1667H30.8338C31.4509 19.1648 32.0451 18.9329 32.5005 18.5165C32.9559 18.933 33.5501 19.1649 34.1672 19.1667H35.8339C36.451 19.1648 37.0452 18.9329 37.5006 18.5165C37.956 18.933 38.5502 19.1649 39.1673 19.1667H40.834C41.4511 19.1648 42.0453 18.9329 42.5007 18.5165V37.5H39.1674V22.5C39.1675 22.279 39.0797 22.067 38.9233 21.9107C38.7671 21.7544 38.5551 21.6666 38.334 21.6666H26.6667C26.4457 21.6665 26.2337 21.7543 26.0773 21.9107C25.9211 22.0669 25.8333 22.2789 25.8333 22.5V37.5H7.5V28.1083C7.5 27.6481 7.12695 27.275 6.6667 27.275C6.20645 27.275 5.8334 27.6481 5.8334 28.1083V38.0479L0.175781 45.3219C0.140039 45.3708 0.109863 45.4235 0.0857422 45.479C0.0792969 45.4925 0.0695313 45.5032 0.0638672 45.5171C0.0280273 45.6079 0.00859375 45.7043 0.00634766 45.802C0.00585938 45.8129 0 45.8222 0 45.8333V47.5C0.00146484 48.8801 1.11992 49.9985 2.5 50H47.5C48.8801 49.9985 49.9985 48.8801 50 47.5V45.8333C50 45.8222 49.9941 45.8129 49.9937 45.8019C49.9915 45.7044 49.9721 45.608 49.9362 45.5172ZM40.8333 17.5H39.1666C38.7066 17.4995 38.3337 17.1268 38.3333 16.6667V12.5C38.3333 12.0398 37.9603 11.6667 37.5 11.6667C37.0398 11.6667 36.6667 12.0399 36.6667 12.5V16.6667C36.6662 17.1268 36.2935 17.4996 35.8334 17.5H34.1667C33.7066 17.4995 33.3338 17.1268 33.3334 16.6667V14.1667C33.3334 13.7065 32.9604 13.3334 32.5001 13.3334C32.0398 13.3334 31.6668 13.7066 31.6668 14.1667V16.6667C31.6663 17.1268 31.2936 17.4996 30.8335 17.5H29.1668C28.7067 17.4995 28.3339 17.1268 28.3335 16.6667V12.5C28.3335 12.0398 27.9604 11.6667 27.5002 11.6667C27.04 11.6667 26.6669 12.0399 26.6669 12.5V16.6667C26.6664 17.1268 26.2937 17.4996 25.8336 17.5H24.1669C23.7068 17.4995 23.334 17.1268 23.3336 16.6667V14.1667C23.3336 13.7065 22.9605 13.3334 22.5003 13.3334C22.0401 13.3334 21.667 13.7066 21.667 14.1667V16.6667C21.6665 17.1268 21.2938 17.4996 20.8337 17.5H19.167C18.7069 17.4995 18.3341 17.1268 18.3337 16.6667V12.5C18.3337 12.0398 17.9606 11.6667 17.5004 11.6667C17.0401 11.6667 16.6671 12.0399 16.6671 12.5V16.6667C16.6666 17.1268 16.2938 17.4996 15.8338 17.5H14.1671C13.707 17.4995 13.3342 17.1268 13.3338 16.6667V14.1667C13.3338 13.7065 12.9606 13.3334 12.5005 13.3334C12.0402 13.3334 11.6672 13.7066 11.6672 14.1667V16.6667C11.6667 17.1268 11.2939 17.4996 10.8339 17.5H9.1667C8.70664 17.4995 8.33379 17.1268 8.3334 16.6667V12.5C8.3334 12.0398 7.96035 11.6667 7.5001 11.6667C7.03984 11.6667 6.6668 12.0399 6.6668 12.5V16.6667C6.66436 17.126 6.29268 17.4977 5.8335 17.5H4.1667C3.70664 17.4995 3.33379 17.1268 3.3334 16.6667V12.7879L11.8205 1.9837C11.9793 1.78438 12.2199 1.66778 12.4748 1.66671H37.5253C37.7792 1.66768 38.019 1.78321 38.1779 1.98126L46.6667 12.7879V16.6667C46.6662 17.1268 46.2935 17.4996 45.8334 17.5H44.1667C43.7074 17.4978 43.3357 17.126 43.3334 16.6667V14.1667C43.3334 13.7065 42.9603 13.3334 42.5001 13.3334C42.0399 13.3334 41.6668 13.7066 41.6668 14.1667V16.6667C41.6662 17.1268 41.2934 17.4995 40.8333 17.5ZM27.5 23.3333H37.5V37.5H27.5V23.3333ZM7.07442 39.1667H42.9257L47.4626 45H2.5374L7.07442 39.1667ZM48.3333 47.5C48.3328 47.9601 47.9601 48.3329 47.5 48.3333H2.5C2.03994 48.3328 1.66709 47.9601 1.6667 47.5V46.6667H48.3334V47.5H48.3333Z" fill="#428DFF"/>
            <path d="M38.3329 41.666H11.6663C11.2061 41.666 10.833 42.0391 10.833 42.4993C10.833 42.9596 11.2062 43.3326 11.6663 43.3326H38.333C38.7933 43.3326 39.1663 42.9595 39.1663 42.4993C39.1663 42.0392 38.7932 41.666 38.3329 41.666Z" fill="#428DFF"/>
            <path d="M8.33359 41.666H7.50029C7.04004 41.666 6.66699 42.0391 6.66699 42.4993C6.66699 42.9596 7.04014 43.3326 7.50029 43.3326H8.33359C8.79385 43.3326 9.1669 42.9595 9.1669 42.4993C9.1669 42.0392 8.79385 41.666 8.33359 41.666Z" fill="#428DFF"/>
            <path d="M42.5006 41.666H41.6673C41.207 41.666 40.834 42.0391 40.834 42.4993C40.834 42.9596 41.207 43.3326 41.6673 43.3326H42.5006C42.9608 43.3326 43.3339 42.9595 43.3339 42.4993C43.3339 42.0392 42.9608 41.666 42.5006 41.666Z" fill="#428DFF"/>
            <path d="M11.6664 30.8328H23.3331C23.5541 30.8329 23.7661 30.7451 23.9225 30.5888C24.0787 30.4325 24.1665 30.2205 24.1665 29.9994V22.4994C24.1666 22.2784 24.0788 22.0664 23.9225 21.9101C23.7662 21.7538 23.5542 21.666 23.3331 21.666H11.6664C11.4454 21.6659 11.2334 21.7537 11.0771 21.9101C10.9208 22.0663 10.833 22.2783 10.833 22.4994V29.9994C10.8329 30.2204 10.9207 30.4324 11.0771 30.5888C11.2333 30.7451 11.4453 30.8329 11.6664 30.8328ZM12.4997 23.3328H22.4997V29.1661H12.4997V23.3328Z" fill="#428DFF"/>
            <path d="M35.7698 28.8543C35.7627 28.8365 35.7511 28.8223 35.7427 28.8052C35.7217 28.7563 35.6959 28.7097 35.6658 28.6658L33.1658 25.3325C33.002 25.1331 32.7574 25.0176 32.4993 25.0176C32.2412 25.0176 31.9967 25.1331 31.8328 25.3325L29.3328 28.6658C29.3027 28.7097 29.2771 28.7563 29.256 28.8052C29.2477 28.8224 29.236 28.8365 29.2289 28.8543C29.1933 28.9447 29.1738 29.0407 29.1717 29.1379C29.1713 29.1479 29.166 29.1561 29.166 29.166V32.4993C29.1659 32.7203 29.2537 32.9323 29.4101 33.0887C29.5663 33.2449 29.7783 33.3327 29.9994 33.3327H34.9994C35.2204 33.3328 35.4324 33.245 35.5888 33.0887C35.745 32.9324 35.8328 32.7204 35.8328 32.4993V29.166C35.8328 29.1561 35.8275 29.1479 35.8272 29.138C35.8248 29.0408 35.8054 28.9447 35.7698 28.8543ZM32.4993 27.2214L33.3326 28.3326H31.6659L32.4993 27.2214ZM34.166 31.666H30.8327V29.9993H34.166V31.666Z" fill="#428DFF"/>
            <path d="M11.6663 34.1666H23.333C23.7933 34.1666 24.1663 33.7935 24.1663 33.3333C24.1663 32.8731 23.7932 32.5 23.333 32.5H11.6663C11.2061 32.5 10.833 32.873 10.833 33.3333C10.833 33.7936 11.2061 34.1666 11.6663 34.1666Z" fill="#428DFF"/>
        </symbol>
        <symbol viewBox="0 0 50 50" id="customer-need-help">
            <path d="M0.859674 38.3385C1.3199 38.3385 1.69298 37.9654 1.69298 37.5052C1.69298 37.045 1.3199 36.6719 0.859674 36.6719C0.399451 36.6719 0.0263672 37.045 0.0263672 37.5052C0.0263672 37.9654 0.399451 38.3385 0.859674 38.3385Z" fill="#428DFF"/>
            <path d="M2.52617 43.3362H34.3251L43.2248 49.691C43.7326 50.0526 44.3997 50.1005 44.954 49.8153C45.5083 49.5301 45.8571 48.9594 45.8581 48.3361V43.3362H47.5247C48.9054 43.3362 50.0246 42.217 50.0246 40.8363C50.0246 15.6471 50.0313 17.5796 50.0113 17.4062C49.9945 17.183 49.8794 16.9787 49.6971 16.8488C49.4971 16.6929 48.4813 15.983 42.5249 11.7873V5.83745C42.5249 4.45678 41.4056 3.33753 40.025 3.33753H30.5394L26.4512 0.454288C25.5954 -0.151429 24.4505 -0.151429 23.5947 0.454288L19.5106 3.33753H10.0259C8.64526 3.33753 7.52601 4.45678 7.52601 5.83745V11.7889C1.66536 15.9205 0.298739 16.8496 0.173743 17.0313C-0.0920816 17.4204 0.0262479 18.0104 0.0262479 34.1699C0.0262479 34.6301 0.399332 35.0032 0.859554 35.0032C1.31978 35.0032 1.69286 34.6301 1.69286 34.1699V19.087L23.6088 34.2049C24.4644 34.7891 25.5907 34.7891 26.4462 34.2049L48.358 19.087V40.8363C48.358 41.2965 47.9849 41.6696 47.5247 41.6696H42.5249C42.0647 41.6696 41.6916 42.0427 41.6916 42.5029C41.6916 42.9632 42.0647 43.3362 42.5249 43.3362H44.1915V48.3361L37.1917 43.3362H39.1916C39.6519 43.3362 40.025 42.9632 40.025 42.5029C40.025 42.0427 39.6519 41.6696 39.1916 41.6696C31.5252 41.6696 43.2082 41.6696 2.52617 41.6696C2.06594 41.6696 1.69286 41.2965 1.69286 40.8363C1.69286 40.3761 1.31978 40.003 0.859554 40.003C-0.731228 40.003 0.0470806 43.3362 2.52617 43.3362ZM47.7339 17.4962L42.5249 21.087V13.8264L47.7339 17.4962ZM24.5513 1.82174C24.8345 1.62351 25.2114 1.62351 25.4946 1.82174L27.6479 3.33753H22.403L24.5513 1.82174ZM7.52601 21.087L2.31701 17.4962L7.52601 13.8264V21.087ZM25.4988 32.8366C25.2132 33.0302 24.8385 33.0302 24.553 32.8366L9.19262 22.2386V5.83745C9.19262 5.37722 9.5657 5.00414 10.0259 5.00414H40.025C40.4852 5.00414 40.8583 5.37722 40.8583 5.83745V22.2386L25.4988 32.8366Z" fill="#428DFF"/>
            <path d="M15.5162 33.1756C15.8886 32.905 15.971 32.3838 15.7004 32.0114C15.4298 31.6391 14.9086 31.5567 14.5363 31.8273L5.36991 38.4937C5.07783 38.706 4.95563 39.0821 5.06724 39.4255C5.17884 39.7688 5.49885 40.0013 5.85989 40.0012C6.24738 40.0012 5.51907 40.4462 15.5162 33.1756Z" fill="#428DFF"/>
            <path d="M44.1914 40.0012C44.5526 40.0016 44.8729 39.7693 44.9847 39.4259C45.0966 39.0824 44.9744 38.706 44.6822 38.4937L35.5158 31.8273C35.1435 31.5567 34.6223 31.6391 34.3517 32.0114C34.0811 32.3838 34.1635 32.905 34.5359 33.1756C44.433 40.3745 43.7972 40.0012 44.1914 40.0012Z" fill="#428DFF"/>
            <path d="M35.8586 19.1699H14.1927C13.7325 19.1699 13.3594 19.543 13.3594 20.0032C13.3594 20.4635 13.7325 20.8365 14.1927 20.8365H35.8586C36.3189 20.8365 36.692 20.4635 36.692 20.0032C36.692 19.543 36.3189 19.1699 35.8586 19.1699Z" fill="#428DFF"/>
            <path d="M34.1914 22.5039H15.8587C15.3985 22.5039 15.0254 22.877 15.0254 23.3372C15.0254 23.7974 15.3985 24.1705 15.8587 24.1705H34.1914C34.6517 24.1705 35.0247 23.7974 35.0247 23.3372C35.0247 22.877 34.6517 22.5039 34.1914 22.5039Z" fill="#428DFF"/>
            <path d="M30.0254 25.8359H20.0257C19.5655 25.8359 19.1924 26.209 19.1924 26.6692C19.1924 27.1295 19.5655 27.5026 20.0257 27.5026H30.0254C30.4856 27.5026 30.8587 27.1295 30.8587 26.6692C30.8587 26.209 30.4856 25.8359 30.0254 25.8359Z" fill="#428DFF"/>
            <path d="M25.8583 29.1719H24.1917C23.7315 29.1719 23.3584 29.545 23.3584 30.0052C23.3584 30.4654 23.7315 30.8385 24.1917 30.8385H25.8583C26.3185 30.8385 26.6916 30.4654 26.6916 30.0052C26.6916 29.545 26.3185 29.1719 25.8583 29.1719Z" fill="#428DFF"/>
        </symbol>
        <symbol viewBox="0 0 11 14" id="location">
            <path d="M5.82711 0C3.03135 0 0.756836 2.27451 0.756836 5.07025C0.756836 8.53985 5.29424 13.6334 5.48742 13.8486C5.66887 14.0507 5.98568 14.0503 6.1668 13.8486C6.35999 13.6334 10.8974 8.53985 10.8974 5.07025C10.8973 2.27451 8.62285 0 5.82711 0ZM5.82711 7.62123C4.42049 7.62123 3.27616 6.47687 3.27616 5.07025C3.27616 3.66363 4.42052 2.51929 5.82711 2.51929C7.2337 2.51929 8.37804 3.66366 8.37804 5.07028C8.37804 6.47689 7.2337 7.62123 5.82711 7.62123Z" fill="currentColor"/>
        </symbol>
        <symbol id="check-solid" viewBox="0 0 512 382">
            <path fill="currentColor" d="M173.898,374.306l-166.4-166.4c-9.997-9.997-9.997-26.206,0-36.204l36.203-36.204c9.997-9.998,26.207-9.998,36.204,0
                L192,247.592L432.095,7.498c9.997-9.997,26.207-9.997,36.204,0l36.203,36.204c9.997,9.997,9.997,26.206,0,36.204l-294.4,294.401
                C200.104,384.304,183.895,384.304,173.898,374.306z"/>
        </symbol>

    </defs>
</svg>