<svg display="none" width="0" height="0" version="1.1" xmlns="http://www.w3.org/2000/svg" xmlns:xlink="http://www.w3.org/1999/xlink">
    <defs>
        <!--Product Icon-->
        <symbol id="check-solid" viewBox="0 0 512 382">
            <path fill="currentColor" d="M173.898,374.306l-166.4-166.4c-9.997-9.997-9.997-26.206,0-36.204l36.203-36.204c9.997-9.998,26.207-9.998,36.204,0
                L192,247.592L432.095,7.498c9.997-9.997,26.207-9.997,36.204,0l36.203,36.204c9.997,9.997,9.997,26.206,0,36.204l-294.4,294.401
                C200.104,384.304,183.895,384.304,173.898,374.306z"/>
        </symbol>
        <symbol id="flash-icon" viewBox="0 0 10 18" >
            <path d="M9.97246 6.17341C9.92424 6.06781 9.82039 6.00002 9.706 6.00002H6.22071L9.6604 0.460513C9.71775 0.368122 9.72127 0.251122 9.66953 0.155426C9.61776 0.0594142 9.51891 0 9.41186 0H4.70599C4.59453 0 4.49275 0.0641954 4.44277 0.165903L0.0310136 9.16592C-0.0145861 9.25863 -0.00958837 9.36902 0.0439386 9.45751C0.0977759 9.546 0.192181 9.6 0.294237 9.6H3.31863L0.0230516 17.5836C-0.0331293 17.7201 0.0168821 17.8785 0.140687 17.9559C0.18832 17.9856 0.241261 18 0.293927 18C0.378336 18 0.461574 17.9631 0.519237 17.8935L9.931 6.49348C10.0048 6.40411 10.0207 6.27931 9.97246 6.17341Z" fill="currentColor"/>
        </symbol>
        <symbol id="icon-minus" viewBox="0 0 12 2">
            <rect fill="currentColor" width="12" height="2" rx="1" />
        </symbol>
        <symbol id="icon-plus" viewBox="0 0 12 12">
            <rect fill="currentColor" y="5" width="12" height="2" rx="1" />
            <rect fill="currentColor" x="7" width="12" height="2" rx="1" transform="rotate(90 7 0)"/>
        </symbol>
        <symbol id="rating-five-star" viewBox="0 0 124 20">
            <path fill-rule="evenodd" clip-rule="evenodd" d="M10.8295 0.627848L13.0573 5.40721C13.2122 5.73962 13.5117 5.96995 13.8583 6.02317L18.84 6.78963C19.7126 6.92399 20.0608 8.05907 19.4296 8.71037L15.8248 12.4306C15.5743 12.6892 15.4598 13.0622 15.5191 13.4274L16.3699 18.6805C16.5191 19.6005 15.6069 20.3019 14.8265 19.8679L10.3709 17.3879C10.0611 17.2156 9.69069 17.2156 9.38086 17.3879L4.9253 19.8679C4.14494 20.3024 3.23273 19.6005 3.38188 18.6805L4.2327 13.4274C4.29203 13.0622 4.17748 12.6892 3.92698 12.4306L0.322237 8.71037C-0.308974 8.05864 0.0391805 6.92356 0.911834 6.78963L5.89354 6.02317C6.24005 5.96995 6.53958 5.73962 6.6945 5.40721L8.92228 0.627848C9.31205 -0.209283 10.4393 -0.209283 10.8295 0.627848ZM36.8295 0.627848L39.0573 5.40721C39.2122 5.73962 39.5117 5.96995 39.8582 6.02317L44.84 6.78963C45.7126 6.92399 46.0608 8.05907 45.4296 8.71037L41.8248 12.4306C41.5743 12.6892 41.4598 13.0622 41.5191 13.4274L42.3699 18.6805C42.5191 19.6005 41.6069 20.3019 40.8265 19.8679L36.3709 17.3879C36.0611 17.2156 35.6907 17.2156 35.3809 17.3879L30.9253 19.8679C30.1449 20.3024 29.2327 19.6005 29.3819 18.6805L30.2327 13.4274C30.292 13.0622 30.1775 12.6892 29.927 12.4306L26.3222 8.71037C25.691 8.05864 26.0392 6.92356 26.9118 6.78963L31.8935 6.02317C32.24 5.96995 32.5396 5.73962 32.6945 5.40721L34.9223 0.627848C35.312 -0.209283 36.4393 -0.209283 36.8295 0.627848ZM65.0573 5.40721L62.8295 0.627848C62.4393 -0.209283 61.312 -0.209283 60.9223 0.627848L58.6945 5.40721C58.5396 5.73962 58.24 5.96995 57.8935 6.02317L52.9118 6.78963C52.0392 6.92356 51.691 8.05863 52.3222 8.71037L55.927 12.4306C56.1775 12.6892 56.292 13.0622 56.2327 13.4274L55.3819 18.6805C55.2327 19.6005 56.1449 20.3024 56.9253 19.8679L61.3808 17.3879C61.6907 17.2156 62.0611 17.2156 62.3709 17.3879L66.8265 19.8679C67.6068 20.3019 68.519 19.6005 68.3699 18.6805L67.5191 13.4274C67.4597 13.0622 67.5743 12.6892 67.8248 12.4306L71.4295 8.71037C72.0607 8.05907 71.7126 6.92399 70.8399 6.78963L65.8582 6.02317C65.5117 5.96995 65.2122 5.73962 65.0573 5.40721ZM88.8295 0.627848L91.0573 5.40721C91.2122 5.73962 91.5117 5.96995 91.8583 6.02317L96.84 6.78963C97.7126 6.92399 98.0608 8.05907 97.4296 8.71037L93.8248 12.4306C93.5743 12.6892 93.4598 13.0622 93.5191 13.4274L94.3699 18.6805C94.5191 19.6005 93.6068 20.3019 92.8265 19.8679L88.3709 17.3879C88.0611 17.2156 87.6907 17.2156 87.3809 17.3879L82.9253 19.8679C82.1449 20.3024 81.2327 19.6005 81.3819 18.6805L82.2327 13.4274C82.292 13.0622 82.1775 12.6892 81.927 12.4306L78.3222 8.71037C77.691 8.05863 78.0392 6.92356 78.9118 6.78963L83.8935 6.02317C84.24 5.96995 84.5396 5.73962 84.6945 5.40721L86.9223 0.627848C87.312 -0.209283 88.4393 -0.209283 88.8295 0.627848ZM117.057 5.40721L114.83 0.627848C114.439 -0.209283 113.312 -0.209283 112.922 0.627848L110.695 5.40721C110.54 5.73962 110.24 5.96995 109.894 6.02317L104.912 6.78963C104.039 6.92356 103.691 8.05863 104.322 8.71037L107.927 12.4306C108.177 12.6892 108.292 13.0622 108.233 13.4274L107.382 18.6805C107.233 19.6005 108.145 20.3024 108.925 19.8679L113.381 17.3879C113.691 17.2156 114.061 17.2156 114.371 17.3879L118.826 19.8679C119.607 20.3019 120.519 19.6005 120.37 18.6805L119.519 13.4274C119.46 13.0622 119.574 12.6892 119.825 12.4306L123.43 8.71037C124.061 8.05907 123.713 6.92399 122.84 6.78963L117.858 6.02317C117.512 5.96995 117.212 5.73962 117.057 5.40721Z" fill="currentColor"/>
        </symbol>
        <symbol viewBox="0 0 13 15" id="purchase-success">
            <path d="M12.9938 5.32847C12.9938 5.93052 13.0043 6.53287 12.9917 7.13463C12.9624 8.51911 12.5727 9.81042 11.886 11.0193C11.4725 11.7468 10.9622 12.4056 10.3487 12.9855C9.33374 13.9448 8.15014 14.6203 6.77291 14.9697C6.46385 15.0482 6.18527 14.9574 5.90206 14.8744C4.83574 14.5617 3.8864 14.0409 3.05126 13.3293C1.47117 11.983 0.509513 10.2954 0.130883 8.29364C0.0357636 7.78984 0.00159452 7.27857 0.00221018 6.76581C0.0034415 5.66115 0.00898242 4.55649 5.53759e-05 3.45213C-0.0039464 2.94653 0.208764 2.61564 0.697288 2.40869C2.49624 1.64627 4.28688 0.865926 6.07937 0.0897667C6.38135 -0.0410366 6.66702 -0.023417 6.96746 0.107088C8.76364 0.887428 10.562 1.66269 12.3628 2.43347C12.8054 2.62281 13.0092 2.93369 12.9997 3.40315C12.9864 4.04462 12.9963 4.6867 12.9963 5.32877C12.9957 5.32847 12.9948 5.32847 12.9938 5.32847ZM10.4706 5.48854C10.4653 5.23947 10.3554 5.01938 10.1255 4.8617C9.78071 4.62518 9.36514 4.67296 9.03977 4.98802C7.91434 6.07805 6.78861 7.16808 5.66842 8.26318C5.5653 8.36412 5.51297 8.35247 5.42093 8.259C5.15127 7.98604 4.87207 7.72175 4.59656 7.45417C4.37185 7.23587 4.15206 7.01249 3.92026 6.80105C3.4656 6.38624 2.74404 6.56961 2.57474 7.14329C2.48147 7.45835 2.57597 7.72922 2.81423 7.95947C3.51916 8.64096 4.22224 9.32424 4.92594 10.0069C5.30457 10.3742 5.78386 10.376 6.16372 10.0099C6.51649 9.66947 6.86772 9.32723 7.21957 8.98588C8.20986 8.02517 9.19922 7.06355 10.191 6.10433C10.3622 5.93888 10.465 5.74835 10.4706 5.48854Z" fill="#11A44A"/>
        </symbol>
        <symbol viewBox="0 0 39 35" id="covid" fill="none">
            <path d="M38.2502 20.891C38.7262 20.9847 39.0361 21.446 38.9429 21.9213L38.5957 23.6895C38.4998 24.1789 38.0143 24.4928 37.5242 24.3726C37.0653 24.2602 36.7869 23.7911 36.8778 23.3276L36.8874 23.2802L34.5988 23.3846C34.5299 23.3874 34.47 23.4332 34.4486 23.4992C34.225 24.1744 33.9309 24.818 33.5747 25.4198C33.5385 25.4808 33.5442 25.5581 33.5899 25.6123L34.6021 26.8148C34.8031 26.6234 35.0656 26.524 35.331 26.524C35.5545 26.524 35.7804 26.5946 35.9717 26.7414C36.4352 27.0959 36.5233 27.7593 36.1688 28.2233L35.8752 28.6067C35.5308 29.0572 34.8889 29.178 34.4215 28.8556C34.019 28.5784 33.8733 28.0799 34.019 27.6469L32.5607 27.0062C32.4947 26.9774 32.4185 26.9943 32.3705 27.0474C31.6953 27.7886 30.9095 28.4266 30.0389 28.9358C29.9791 28.9708 29.9469 29.0385 29.9582 29.1068L30.3314 31.3831L30.6543 31.2538C31.1178 31.0686 31.6451 31.3058 31.8105 31.7828C31.9652 32.2293 31.7224 32.7177 31.2837 32.8927L29.6336 33.5532C29.1706 33.7384 28.6434 33.5013 28.4779 33.0242C28.3233 32.5777 28.566 32.0893 29.0047 31.9138L29.0493 31.8963L27.7181 30.031C27.678 29.9746 27.6074 29.9497 27.5402 29.9672C26.7448 30.1733 25.9104 30.2839 25.05 30.2839C24.3692 30.2839 23.7053 30.2145 23.0634 30.0835C22.9956 30.07 22.9262 30.0988 22.8889 30.1569L21.5572 32.2463L21.604 32.2632C22.0376 32.4213 22.3063 32.8306 22.3063 33.2664C22.3063 33.3884 22.2854 33.512 22.2414 33.6328C22.2414 34.2578 21.761 34.5942 21.1739 34.3797L19.5372 33.783C18.9896 33.5837 18.704 32.9825 18.8931 32.4331C19.0873 31.8669 19.7326 31.5812 20.2949 31.7862L20.3327 31.7997L20.6037 29.3513C20.6116 29.2824 20.5754 29.2169 20.5139 29.1847C19.4774 28.6496 18.5476 27.9365 17.7646 27.0858C17.7171 27.0344 17.6432 27.0175 17.5788 27.044L15.5815 27.8631C15.8073 28.2854 15.6803 28.8206 15.2681 29.0916C14.8379 29.3744 14.257 29.2429 13.9635 28.8206L13.452 28.0839C13.1658 27.6723 13.2324 27.0988 13.6264 26.7883C14.0465 26.4574 14.6454 26.5432 14.9599 26.9593L16.3667 25.3695C16.4136 25.3165 16.4215 25.2397 16.3871 25.1782C15.8095 24.1371 15.4144 22.981 15.2444 21.7531C15.2348 21.6842 15.1846 21.6283 15.1174 21.6131L12.8694 21.0937L12.8671 21.3573C12.8649 21.621 12.7565 21.8598 12.582 22.032C12.4081 22.2047 12.1688 22.3108 11.9046 22.3108C11.3795 22.3108 10.9544 21.8823 10.9595 21.3573L10.9742 19.7241C10.9787 19.19 11.4202 18.7401 11.9537 18.7542C12.4714 18.7677 12.8846 19.1934 12.8818 19.7128L15.1134 19.1895C15.1812 19.1737 15.2314 19.1178 15.2405 19.0489C15.4155 17.7504 15.8428 16.5316 16.4712 15.4431C16.5062 15.3822 16.5 15.3059 16.4542 15.2518L15.3901 14.0018L15.2975 14.1238C15.0107 14.5032 14.4631 14.5692 14.0933 14.2615C13.7467 13.9725 13.7043 13.4542 13.9765 13.0946L14.6855 12.1575C14.8504 11.9401 15.1005 11.8255 15.3539 11.8255C15.5295 11.8255 15.7068 11.8808 15.8581 11.9949C16.2087 12.2597 16.2911 12.7463 16.0596 13.111L17.5478 13.7546C17.6133 13.7828 17.6889 13.7659 17.7375 13.7134C18.4398 12.9433 19.2623 12.2851 20.1757 11.7674C20.2356 11.7329 20.2689 11.6658 20.2587 11.5974L19.916 9.31611L19.5909 9.44144C19.1257 9.6204 18.6012 9.37595 18.4426 8.89722C18.2935 8.4484 18.5431 7.96346 18.984 7.79409L20.6426 7.15616C21.1084 6.9772 21.6323 7.22108 21.7909 7.70038C21.9399 8.14863 21.691 8.63357 21.2495 8.8035L21.2049 8.82044L22.5101 10.7026C22.5497 10.7597 22.6197 10.7856 22.6868 10.7693C23.4445 10.5835 24.2354 10.4853 25.05 10.4853H25.0512C25.1223 10.4853 25.1861 10.4418 25.2098 10.3746L25.6422 9.16538C25.1415 9.00843 24.8078 8.51446 24.8716 7.97588C24.9445 7.3656 25.5288 6.93203 26.139 7.00881L26.7329 7.08333C27.3381 7.15954 27.792 7.70151 27.726 8.3084C27.674 8.78092 27.3342 9.14901 26.9029 9.26191L27.053 10.5728C27.0609 10.6434 27.1134 10.7009 27.1834 10.7162C28.1872 10.9369 29.134 11.3101 29.9977 11.8097C30.0581 11.8441 30.1326 11.8391 30.1863 11.795L31.9776 10.3413L31.7055 10.1251C31.3142 9.81461 31.2589 9.23933 31.5909 8.85939C31.9014 8.50316 32.4461 8.47155 32.8159 8.76568L34.2075 9.8705C34.5988 10.1804 34.6541 10.7563 34.3221 11.1362C34.0116 11.4919 33.4668 11.5235 33.0971 11.2299L33.0592 11.2L32.1001 13.2826C32.0707 13.3453 32.0843 13.4192 32.1328 13.4689C32.808 14.1605 33.3827 14.9508 33.8332 15.8157C33.866 15.8784 33.9343 15.914 34.0043 15.9044L35.3643 15.7141C35.1644 15.1563 35.4608 14.5382 36.031 14.3513C36.5747 14.1729 37.1607 14.4749 37.3605 15.0113L37.6738 15.8513C37.8714 16.3825 37.6343 16.9906 37.1149 17.2164C36.617 17.4326 36.0553 17.2373 35.7877 16.7958L34.6592 17.5613C34.5999 17.6014 34.5734 17.6748 34.5925 17.7437C34.8246 18.5848 34.9488 19.47 34.9488 20.3846C34.9488 20.5376 34.9454 20.6895 34.9381 20.8402C34.9352 20.9096 34.9742 20.9734 35.0374 21.0011L37.1533 21.9253L37.2199 21.5837C37.3137 21.1078 37.7749 20.7979 38.2502 20.891Z" fill="#F79595"/>
            <path d="M29.3492 16.6795C30.1211 16.6795 30.7468 16.1563 30.7468 15.511C30.7468 14.8656 30.1211 14.3424 29.3492 14.3424C28.5774 14.3424 27.9517 14.8656 27.9517 15.511C27.9517 16.1563 28.5774 16.6795 29.3492 16.6795Z" fill="#EE6161"/>
            <path d="M24.3054 24.3155C25.1491 24.3155 25.833 23.6315 25.833 22.7879C25.833 21.9442 25.1491 21.2603 24.3054 21.2603C23.4618 21.2603 22.7778 21.9442 22.7778 22.7879C22.7778 23.6315 23.4618 24.3155 24.3054 24.3155Z" fill="#EE6161"/>
            <path d="M30.2583 23.0858C30.8624 23.0858 31.3521 22.5961 31.3521 21.9921C31.3521 21.388 30.8624 20.8983 30.2583 20.8983C29.6542 20.8983 29.1646 21.388 29.1646 21.9921C29.1646 22.5961 29.6542 23.0858 30.2583 23.0858Z" fill="#F9B1B1"/>
            <path d="M26.2196 28.3931C26.8069 28.3931 27.283 27.917 27.283 27.3297C27.283 26.7424 26.8069 26.2664 26.2196 26.2664C25.6323 26.2664 25.1562 26.7424 25.1562 27.3297C25.1562 27.917 25.6323 28.3931 26.2196 28.3931Z" fill="#F9B1B1"/>
            <path d="M19.0299 19.9105C19.0299 16.105 20.8453 12.7227 23.6562 10.5826C23.328 10.6289 23.004 10.6914 22.6868 10.7692C22.6197 10.7856 22.5497 10.7596 22.5101 10.7026L21.2049 8.82041L21.2495 8.80348C21.691 8.63355 21.9399 8.1486 21.7909 7.70036C21.6323 7.22106 21.1084 6.97717 20.6426 7.15613L18.984 7.79407C18.5431 7.96343 18.2935 8.44838 18.4426 8.89719C18.6012 9.37593 19.1257 9.62038 19.5909 9.44142L19.916 9.31609L20.2587 11.5974C20.2689 11.6657 20.2356 11.7329 20.1757 11.7673C19.2623 12.285 18.4398 12.9433 17.7375 13.7133C17.6889 13.7658 17.6133 13.7828 17.5478 13.7545L16.0596 13.111C16.2911 12.7463 16.2087 12.2596 15.8581 11.9949C15.7068 11.8808 15.5295 11.8255 15.3539 11.8255C15.1005 11.8255 14.8504 11.9401 14.6855 12.1574L13.9765 13.0946C13.7043 13.4542 13.7467 13.9725 14.0933 14.2615C14.4631 14.5692 15.0107 14.5031 15.2975 14.1238L15.3901 14.0018L16.4542 15.2517C16.5 15.3059 16.5062 15.3821 16.4712 15.4431C15.8428 16.5316 15.4155 17.7504 15.2405 19.0489C15.2314 19.1177 15.1812 19.1736 15.1134 19.1894L12.8818 19.7128C12.8846 19.1934 12.4714 18.7677 11.9537 18.7542C11.4202 18.7401 10.9787 19.19 10.9742 19.7241L10.9595 21.3573C10.9544 21.8823 11.3795 22.3108 11.9046 22.3108C12.1688 22.3108 12.4081 22.2047 12.582 22.0319C12.7565 21.8597 12.8649 21.6209 12.8671 21.3573L12.8694 21.0936L15.1174 21.613C15.1846 21.6283 15.2348 21.6842 15.2444 21.753C15.4144 22.9809 15.8095 24.1371 16.3871 25.1781C16.4215 25.2397 16.4136 25.3165 16.3667 25.3695L14.9599 26.9593C14.6454 26.5432 14.0465 26.4574 13.6264 26.7882C13.2324 27.0987 13.1658 27.6723 13.452 28.0839L13.9635 28.8206C14.257 29.2429 14.838 29.3744 15.2681 29.0916C15.6803 28.8206 15.8073 28.2854 15.5815 27.8631L17.5788 27.044C17.6432 27.0174 17.7171 27.0344 17.7646 27.0857C18.5476 27.9365 19.4774 28.6495 20.5139 29.1847C20.5754 29.2169 20.6116 29.2824 20.6037 29.3513L20.3327 31.7997L20.2949 31.7862C19.7326 31.5812 19.0873 31.8669 18.8931 32.4331C18.704 32.9824 18.9896 33.5837 19.5372 33.783L21.1739 34.3797C21.761 34.5942 22.2414 34.2577 22.2414 33.6328C22.2854 33.512 22.3063 33.3883 22.3063 33.2664C22.3063 32.8306 22.0376 32.4213 21.604 32.2632L21.5572 32.2463L22.8889 30.1569C22.9262 30.0987 22.9956 30.0699 23.0634 30.0835C23.7053 30.2145 24.3692 30.2839 25.05 30.2839C25.1301 30.2839 25.2115 30.2829 25.2912 30.281C21.5693 28.3184 19.0299 24.4106 19.0299 19.9105Z" fill="#F37C7C"/>
            <path d="M19.5653 25.8938C20.1771 25.8938 20.673 25.3979 20.673 24.7861C20.673 24.1743 20.1771 23.6783 19.5653 23.6783C18.9535 23.6783 18.4575 24.1743 18.4575 24.7861C18.4575 25.3979 18.9535 25.8938 19.5653 25.8938Z" fill="#EE6161"/>
            <path d="M27.7635 19.9105H27.3892C27.1553 19.9105 26.9658 19.721 26.9658 19.4871C26.9658 19.2533 27.1553 19.0637 27.3892 19.0637H27.7635C27.9974 19.0637 28.1869 19.2533 28.1869 19.4871C28.1869 19.721 27.9974 19.9105 27.7635 19.9105Z" fill="#F9B1B1"/>
            <path d="M22.7772 27.3118H22.3926C22.1588 27.3118 21.9692 27.1222 21.9692 26.8884C21.9692 26.6545 22.1588 26.465 22.3926 26.465H22.7772C23.0111 26.465 23.2006 26.6545 23.2006 26.8884C23.2006 27.1222 23.0111 27.3118 22.7772 27.3118Z" fill="#F9B1B1"/>
            <path d="M18.8276 21.1456H18.4571C18.2232 21.1456 18.0337 20.9561 18.0337 20.7222C18.0337 20.4884 18.2232 20.2988 18.4571 20.2988H18.8276C19.0614 20.2988 19.251 20.4884 19.251 20.7222C19.251 20.9561 19.0614 21.1456 18.8276 21.1456Z" fill="#EE6161"/>
            <path d="M26.3486 13.7378H25.8331C25.5992 13.7378 25.4097 13.5482 25.4097 13.3144C25.4097 13.0806 25.5992 12.891 25.8331 12.891H26.3486C26.5825 12.891 26.772 13.0806 26.772 13.3144C26.772 13.5482 26.5825 13.7378 26.3486 13.7378Z" fill="#F9B1B1"/>
            <path d="M29.7339 25.9332H29.1646C28.9307 25.9332 28.7412 25.7437 28.7412 25.5098C28.7412 25.276 28.9307 25.0864 29.1646 25.0864H29.7339C29.9678 25.0864 30.1573 25.276 30.1573 25.5098C30.1573 25.7437 29.9677 25.9332 29.7339 25.9332Z" fill="#EE6161"/>
            <path d="M23.2758 18.5886C24.5401 17.5917 24.8901 15.9276 24.0575 14.8717C23.2249 13.8159 21.5251 13.7681 20.2608 14.765C18.9966 15.7619 18.6466 17.426 19.4792 18.4819C20.3118 19.5377 22.0116 19.5855 23.2758 18.5886Z" fill="#EE6161"/>
            <path d="M14.6545 5.97337C14.8591 6.01367 14.9924 6.21201 14.9523 6.41642L14.803 7.17676C14.7618 7.38723 14.553 7.52221 14.3423 7.4705C14.1449 7.42219 14.0252 7.22045 14.0643 7.02114L14.0684 7.00075L13.0842 7.04566C13.0546 7.04688 13.0289 7.06654 13.0197 7.09495C12.9235 7.38529 12.7971 7.66204 12.6439 7.92083C12.6283 7.94705 12.6308 7.98031 12.6504 8.00361L13.0857 8.5207C13.1721 8.43841 13.285 8.39568 13.3991 8.39568C13.4952 8.39568 13.5924 8.42602 13.6747 8.48914C13.874 8.6416 13.9118 8.92685 13.7594 9.1264L13.6331 9.29124C13.4851 9.48496 13.209 9.53692 13.008 9.3983C12.8349 9.2791 12.7723 9.06474 12.8349 8.87854L12.2079 8.603C12.1795 8.59062 12.1467 8.5979 12.1261 8.62072C11.8357 8.93947 11.4978 9.2138 11.1234 9.43277C11.0977 9.44782 11.0839 9.47695 11.0887 9.50633L11.2492 10.4852L11.3881 10.4296C11.5874 10.3499 11.8141 10.4519 11.8852 10.657C11.9518 10.8491 11.8474 11.059 11.6587 11.1343L10.9491 11.4183C10.7501 11.498 10.5233 11.396 10.4522 11.1909C10.3857 10.9988 10.4901 10.7889 10.6787 10.7134L10.6979 10.7058L10.1254 9.90373C10.1082 9.87946 10.0779 9.86878 10.049 9.8763C9.70691 9.96491 9.3481 10.0125 8.97813 10.0125C8.68535 10.0125 8.39986 9.98263 8.12384 9.92631C8.09471 9.92048 8.06485 9.93286 8.04882 9.95787L7.47614 10.8563L7.49629 10.8636C7.68274 10.9316 7.79829 11.1076 7.79829 11.295C7.79829 11.3475 7.78931 11.4006 7.77037 11.4526C7.77037 11.7213 7.56378 11.866 7.31131 11.7737L6.60753 11.5171C6.37205 11.4315 6.24921 11.1729 6.33054 10.9367C6.41405 10.6932 6.69153 10.5704 6.93332 10.6585L6.94959 10.6643L7.06611 9.61144C7.06951 9.58183 7.05398 9.55367 7.02751 9.53983C6.5818 9.30969 6.18196 9.00308 5.84525 8.63723C5.82486 8.61514 5.79306 8.60785 5.76538 8.61927L4.90648 8.97152C5.00358 9.1531 4.94896 9.38325 4.77174 9.49977C4.58676 9.6214 4.33695 9.56483 4.21072 9.38325L3.99077 9.06644C3.86769 8.88946 3.89634 8.64281 4.06578 8.50929C4.2464 8.36703 4.50398 8.40393 4.6392 8.58285L5.24416 7.89923C5.26431 7.87641 5.26771 7.84339 5.2529 7.81693C5.00456 7.36927 4.83462 6.87209 4.76155 6.34407C4.75742 6.31446 4.73582 6.29042 4.70693 6.28387L3.74024 6.06052L3.73927 6.1739C3.7383 6.28727 3.69168 6.38996 3.61667 6.464C3.5419 6.53829 3.43897 6.58393 3.32535 6.58393C3.09958 6.58393 2.91678 6.39967 2.91896 6.1739L2.92528 5.47158C2.92722 5.24192 3.11706 5.04844 3.34647 5.05451C3.56909 5.06033 3.74679 5.24338 3.74558 5.46672L4.70523 5.24168C4.73436 5.23488 4.75596 5.21085 4.75985 5.18123C4.83511 4.62287 5.01888 4.09874 5.28908 3.63069C5.30413 3.60447 5.30146 3.5717 5.28179 3.5484L4.82418 3.01092L4.78437 3.06335C4.66104 3.22649 4.42556 3.25489 4.26655 3.12259C4.11749 2.99829 4.09929 2.77543 4.2163 2.62079L4.52121 2.2178C4.5921 2.12434 4.69964 2.07506 4.80864 2.07506C4.88414 2.07506 4.96037 2.09885 5.02543 2.14789C5.17619 2.26174 5.21163 2.47101 5.1121 2.62783L5.75203 2.90458C5.78019 2.91672 5.81272 2.90944 5.8336 2.88686C6.1356 2.55573 6.4893 2.27267 6.8821 2.05005C6.90783 2.03524 6.92215 2.00635 6.91778 1.97698L6.77043 0.995968L6.63059 1.04986C6.43056 1.12682 6.20503 1.0217 6.13681 0.815837C6.07272 0.622839 6.18002 0.414304 6.36962 0.341474L7.08286 0.0671503C7.28314 -0.00980614 7.50843 0.0950682 7.57665 0.301175C7.64074 0.493931 7.53368 0.702465 7.34384 0.775538L7.32466 0.782821L7.88593 1.5922C7.90292 1.61672 7.93303 1.62788 7.96192 1.62084C8.2877 1.54097 8.62782 1.49873 8.97813 1.49873H8.97861C9.0092 1.49873 9.03663 1.48004 9.04683 1.45115L9.23279 0.93115C9.01746 0.863661 8.87398 0.651242 8.90141 0.419645C8.93273 0.157216 9.18399 -0.0292273 9.44642 0.00378869L9.70181 0.0358336C9.96205 0.0686069 10.1572 0.301661 10.1288 0.562633C10.1065 0.765827 9.96035 0.92411 9.77488 0.972663L9.83946 1.53636C9.84286 1.56671 9.86543 1.59147 9.89554 1.59802C10.3272 1.69295 10.7343 1.85341 11.1057 2.06826C11.1317 2.08307 11.1637 2.08088 11.1868 2.06195L11.9571 1.43683L11.8401 1.34385C11.6718 1.21033 11.6481 0.962952 11.7908 0.799571C11.9243 0.646387 12.1586 0.632792 12.3176 0.759272L12.916 1.23436C13.0842 1.36764 13.108 1.61526 12.9653 1.77864C12.8318 1.93158 12.5975 1.94518 12.4385 1.81894L12.4222 1.80607L12.0098 2.70163C11.9971 2.72858 12.003 2.76038 12.0239 2.78175C12.3142 3.07913 12.5613 3.419 12.7551 3.79092C12.7691 3.81786 12.7985 3.83316 12.8286 3.82903L13.4134 3.74722C13.3275 3.50737 13.455 3.24154 13.7001 3.16119C13.9339 3.08447 14.1859 3.21435 14.2719 3.44498L14.4066 3.80621C14.4916 4.03465 14.3896 4.29611 14.1663 4.39322C13.9521 4.4862 13.7106 4.4022 13.5955 4.21236L13.1102 4.54155C13.0847 4.55878 13.0733 4.59034 13.0816 4.61996C13.1814 4.98168 13.2348 5.36233 13.2348 5.75561C13.2348 5.8214 13.2333 5.88671 13.2302 5.95152C13.2289 5.98138 13.2457 6.00882 13.2729 6.02071L14.1828 6.41812L14.2114 6.27125C14.2517 6.06659 14.45 5.93332 14.6545 5.97337Z" fill="#F79595"/>
            <path d="M10.8271 4.16235C11.159 4.16235 11.4281 3.93737 11.4281 3.65985C11.4281 3.38233 11.159 3.15735 10.8271 3.15735C10.4951 3.15735 10.2261 3.38233 10.2261 3.65985C10.2261 3.93737 10.4951 4.16235 10.8271 4.16235Z" fill="#EE6161"/>
            <path d="M8.65787 7.44587C9.02067 7.44587 9.31477 7.15177 9.31477 6.78898C9.31477 6.42618 9.02067 6.13208 8.65787 6.13208C8.29508 6.13208 8.00098 6.42618 8.00098 6.78898C8.00098 7.15177 8.29508 7.44587 8.65787 7.44587Z" fill="#EE6161"/>
            <path d="M11.2179 6.91711C11.4776 6.91711 11.6882 6.70653 11.6882 6.44677C11.6882 6.18702 11.4776 5.97644 11.2179 5.97644C10.9581 5.97644 10.7476 6.18702 10.7476 6.44677C10.7476 6.70653 10.9581 6.91711 11.2179 6.91711Z" fill="#F9B1B1"/>
            <path d="M9.4812 9.19946C9.73374 9.19946 9.93847 8.99473 9.93847 8.74218C9.93847 8.48964 9.73374 8.28491 9.4812 8.28491C9.22865 8.28491 9.02393 8.48964 9.02393 8.74218C9.02393 8.99473 9.22865 9.19946 9.4812 9.19946Z" fill="#F9B1B1"/>
            <path d="M6.38938 5.55171C6.38938 3.91528 7.17004 2.46085 8.37874 1.54056C8.23762 1.56046 8.0983 1.58736 7.96192 1.62081C7.93303 1.62785 7.90292 1.61669 7.88593 1.59217L7.32466 0.782791L7.34384 0.775508C7.53368 0.702436 7.64074 0.493901 7.57665 0.301146C7.50843 0.095039 7.28315 -0.00983535 7.08286 0.067121L6.36962 0.341445C6.18002 0.414274 6.07272 0.622809 6.13681 0.815807C6.20503 1.02167 6.43056 1.12679 6.63059 1.04983L6.77043 0.995939L6.91778 1.97695C6.92215 2.00633 6.90783 2.03521 6.8821 2.05002C6.48931 2.27264 6.1356 2.5557 5.8336 2.88683C5.81272 2.90941 5.78019 2.91669 5.75203 2.90455L5.1121 2.6278C5.21163 2.47098 5.17619 2.26171 5.02543 2.14786C4.96037 2.09882 4.88415 2.07503 4.80865 2.07503C4.69964 2.07503 4.5921 2.12431 4.52121 2.21777L4.2163 2.62076C4.09929 2.7754 4.11749 2.99826 4.26655 3.12256C4.42556 3.25486 4.66104 3.22646 4.78437 3.06332L4.82418 3.01089L5.28179 3.54837C5.30146 3.57167 5.30413 3.60444 5.28908 3.63066C5.01888 4.09871 4.83511 4.62284 4.75985 5.1812C4.75597 5.21082 4.73436 5.23485 4.70523 5.24165L3.74558 5.46669C3.74679 5.24335 3.56909 5.0603 3.34647 5.05448C3.11706 5.04841 2.92722 5.24189 2.92528 5.47155L2.91896 6.17387C2.91678 6.39964 3.09958 6.5839 3.32535 6.5839C3.43897 6.5839 3.5419 6.53826 3.61667 6.46397C3.69168 6.38993 3.7383 6.28724 3.73927 6.17387L3.74024 6.06049L4.70693 6.28384C4.73582 6.29039 4.75742 6.31443 4.76155 6.34404C4.83462 6.87206 5.00456 7.36924 5.2529 7.8169C5.26771 7.84336 5.26431 7.87637 5.24416 7.89919L4.6392 8.58282C4.50398 8.4039 4.2464 8.367 4.06579 8.50926C3.89634 8.64278 3.86769 8.88943 3.99077 9.06641L4.21072 9.38321C4.33695 9.5648 4.58676 9.62137 4.77174 9.49974C4.94896 9.38321 5.00359 9.15307 4.90648 8.97149L5.76538 8.61924C5.79306 8.60782 5.82486 8.61511 5.84525 8.6372C6.18196 9.00305 6.5818 9.30966 7.02751 9.5398C7.05398 9.55364 7.06951 9.5818 7.06611 9.61141L6.94959 10.6643L6.93332 10.6585C6.69153 10.5703 6.41405 10.6932 6.33054 10.9367C6.24921 11.1729 6.37205 11.4314 6.60753 11.5171L7.31131 11.7737C7.56378 11.866 7.77037 11.7213 7.77037 11.4525C7.78931 11.4006 7.79829 11.3474 7.79829 11.295C7.79829 11.1076 7.68274 10.9316 7.49629 10.8636L7.47614 10.8563L8.04883 9.95784C8.06485 9.93283 8.09471 9.92045 8.12384 9.92628C8.39986 9.9826 8.68535 10.0125 8.97813 10.0125C9.01258 10.0125 9.04758 10.012 9.08184 10.0112C7.48136 9.16725 6.38938 7.48683 6.38938 5.55171Z" fill="#F37C7C"/>
            <path d="M6.61942 8.1247C6.8825 8.1247 7.09577 7.91143 7.09577 7.64835C7.09577 7.38527 6.8825 7.172 6.61942 7.172C6.35634 7.172 6.14307 7.38527 6.14307 7.64835C6.14307 7.91143 6.35634 8.1247 6.61942 8.1247Z" fill="#EE6161"/>
            <path d="M10.1453 5.55177H9.98432C9.88374 5.55177 9.80225 5.47025 9.80225 5.3697C9.80225 5.26914 9.88374 5.18762 9.98432 5.18762H10.1453C10.2459 5.18762 10.3273 5.26914 10.3273 5.3697C10.3273 5.47025 10.2459 5.55177 10.1453 5.55177Z" fill="#F9B1B1"/>
            <path d="M8.00077 8.73439H7.83539C7.73482 8.73439 7.65332 8.65287 7.65332 8.55231C7.65332 8.45176 7.73482 8.37024 7.83539 8.37024H8.00077C8.10134 8.37024 8.18284 8.45176 8.18284 8.55231C8.18284 8.65287 8.10134 8.73439 8.00077 8.73439Z" fill="#F9B1B1"/>
            <path d="M6.30231 6.0829H6.14301C6.04243 6.0829 5.96094 6.00138 5.96094 5.90082C5.96094 5.80027 6.04243 5.71875 6.14301 5.71875H6.30231C6.40289 5.71875 6.48439 5.80027 6.48439 5.90082C6.48439 6.00138 6.40289 6.0829 6.30231 6.0829Z" fill="#EE6161"/>
            <path d="M9.53658 2.89735H9.31489C9.21431 2.89735 9.13281 2.81583 9.13281 2.71528C9.13281 2.61472 9.21431 2.5332 9.31489 2.5332H9.53658C9.63716 2.5332 9.71865 2.61472 9.71865 2.71528C9.71865 2.81583 9.63716 2.89735 9.53658 2.89735Z" fill="#F9B1B1"/>
            <path d="M10.9923 8.14161H10.7475C10.6469 8.14161 10.5654 8.06009 10.5654 7.95954C10.5654 7.85899 10.6469 7.77747 10.7475 7.77747H10.9923C11.0929 7.77747 11.1744 7.85899 11.1744 7.95954C11.1744 8.06009 11.0929 8.14161 10.9923 8.14161Z" fill="#EE6161"/>
            <path d="M8.21545 4.98322C8.75911 4.55454 8.90959 3.83895 8.55157 3.38491C8.19355 2.93088 7.4626 2.91033 6.91894 3.33902C6.37529 3.76771 6.2248 4.4833 6.58283 4.93734C6.94085 5.39137 7.6718 5.41191 8.21545 4.98322Z" fill="#EE6161"/>
            <path d="M7.7579 25.9488C7.89319 25.9754 7.98129 26.1065 7.95481 26.2417L7.85612 26.7443C7.82884 26.8834 7.69082 26.9727 7.55152 26.9385C7.42105 26.9065 7.34193 26.7732 7.36777 26.6414L7.3705 26.6279L6.7199 26.6576C6.70032 26.6584 6.68331 26.6714 6.67721 26.6902C6.61366 26.8821 6.53005 27.0651 6.42879 27.2362C6.41851 27.2535 6.42012 27.2755 6.43312 27.2909L6.72086 27.6327C6.778 27.5783 6.85262 27.5501 6.92805 27.5501C6.9916 27.5501 7.05579 27.5701 7.11019 27.6119C7.24195 27.7126 7.26699 27.9012 7.1662 28.0331L7.08275 28.1421C6.98486 28.2702 6.80239 28.3045 6.66951 28.2129C6.55509 28.1341 6.51368 27.9924 6.55508 27.8693L6.14056 27.6871C6.12178 27.6789 6.10012 27.6838 6.08648 27.6988C5.89454 27.9095 5.67115 28.0909 5.42368 28.2356C5.40667 28.2456 5.39752 28.2649 5.40073 28.2843L5.50681 28.9313L5.59861 28.8946C5.73036 28.842 5.88026 28.9094 5.92728 29.045C5.97125 29.1719 5.90224 29.3107 5.77755 29.3605L5.30846 29.5482C5.17686 29.6009 5.02697 29.5335 4.97995 29.3979C4.93598 29.2709 5.00498 29.1321 5.12968 29.0822L5.14236 29.0772L4.76394 28.547C4.75254 28.5309 4.73248 28.5239 4.71339 28.5289C4.48727 28.5874 4.25007 28.6189 4.0055 28.6189C3.81196 28.6189 3.62323 28.5991 3.44076 28.5619C3.4215 28.5581 3.40176 28.5662 3.39117 28.5828L3.01259 29.1767L3.02591 29.1815C3.14916 29.2265 3.22555 29.3428 3.22555 29.4667C3.22555 29.5014 3.21961 29.5365 3.2071 29.5709C3.2071 29.7485 3.07053 29.8442 2.90362 29.7832L2.43839 29.6136C2.28272 29.5569 2.20151 29.386 2.25528 29.2298C2.31048 29.0689 2.49391 28.9877 2.65375 29.0459L2.66451 29.0498L2.74154 28.3538C2.74378 28.3342 2.73351 28.3156 2.71602 28.3064C2.42137 28.1543 2.15706 27.9516 1.93447 27.7097C1.92099 27.6951 1.89997 27.6903 1.88167 27.6979L1.31388 27.9307C1.37808 28.0508 1.34197 28.2029 1.22482 28.2799C1.10253 28.3603 0.937392 28.323 0.853941 28.2029L0.708543 27.9935C0.627179 27.8765 0.646116 27.7134 0.758133 27.6252C0.877532 27.5311 1.0478 27.5555 1.13719 27.6738L1.53712 27.2219C1.55044 27.2068 1.55268 27.185 1.54289 27.1675C1.37872 26.8715 1.26638 26.5429 1.21808 26.1938C1.21535 26.1743 1.20106 26.1584 1.18197 26.154L0.542925 26.0064L0.542284 26.0813C0.541642 26.1563 0.510829 26.2242 0.46124 26.2731C0.411811 26.3222 0.343767 26.3524 0.268661 26.3524C0.119412 26.3524 -0.00143153 26.2306 1.28138e-05 26.0813L0.00418536 25.6171C0.00546922 25.4652 0.130967 25.3373 0.282623 25.3413C0.429785 25.3452 0.547258 25.4662 0.546456 25.6138L1.18084 25.4651C1.2001 25.4606 1.21438 25.4447 1.21695 25.4251C1.2667 25.056 1.38819 24.7095 1.5668 24.4001C1.57675 24.3828 1.57499 24.3611 1.56199 24.3457L1.25948 23.9904L1.23316 24.0251C1.15164 24.1329 0.995968 24.1517 0.890852 24.0642C0.792315 23.9821 0.780279 23.8347 0.857632 23.7325L1.0592 23.4661C1.10606 23.4043 1.17715 23.3717 1.24921 23.3717C1.29912 23.3717 1.34951 23.3875 1.39252 23.4199C1.49218 23.4952 1.51561 23.6335 1.44981 23.7372L1.87284 23.9201C1.89146 23.9281 1.91297 23.9233 1.92677 23.9084C2.12641 23.6895 2.36023 23.5024 2.61989 23.3552C2.6369 23.3454 2.64637 23.3263 2.64348 23.3069L2.54607 22.6584L2.45363 22.694C2.32139 22.7449 2.17231 22.6754 2.12721 22.5393C2.08484 22.4117 2.15578 22.2739 2.28111 22.2257L2.75261 22.0444C2.88501 21.9935 3.03394 22.0628 3.07903 22.1991C3.1214 22.3265 3.05063 22.4644 2.92513 22.5127L2.91245 22.5175L3.28349 23.0525C3.29472 23.0688 3.31462 23.0761 3.33372 23.0715C3.54909 23.0187 3.77392 22.9908 4.0055 22.9908H4.00582C4.02604 22.9908 4.04417 22.9784 4.05091 22.9593L4.17384 22.6155C4.0315 22.5709 3.93665 22.4305 3.95479 22.2774C3.97549 22.1039 4.14159 21.9807 4.31507 22.0025L4.4839 22.0237C4.65593 22.0454 4.78496 22.1994 4.76619 22.3719C4.75142 22.5063 4.65481 22.6109 4.5322 22.643L4.57489 23.0156C4.57714 23.0357 4.59206 23.0521 4.61196 23.0564C4.8973 23.1191 5.16643 23.2252 5.41197 23.3672C5.42914 23.377 5.45032 23.3756 5.46557 23.3631L5.97478 22.9498L5.89743 22.8884C5.78621 22.8001 5.77049 22.6366 5.86485 22.5286C5.95311 22.4273 6.10798 22.4183 6.2131 22.5019L6.60869 22.816C6.7199 22.9041 6.73563 23.0678 6.64126 23.1758C6.553 23.2769 6.39813 23.2859 6.29302 23.2024L6.28226 23.1939L6.0096 23.7859C6.00126 23.8038 6.00511 23.8248 6.01891 23.8389C6.21085 24.0355 6.37422 24.2602 6.50229 24.506C6.51159 24.5238 6.53101 24.534 6.55091 24.5312L6.93751 24.4771C6.8807 24.3186 6.96496 24.1429 7.12705 24.0897C7.28159 24.039 7.44817 24.1249 7.50498 24.2773L7.59405 24.5161C7.65022 24.6672 7.58282 24.84 7.43517 24.9042C7.29363 24.9657 7.13395 24.9101 7.05788 24.7846L6.73707 25.0022C6.72022 25.0136 6.71268 25.0345 6.71814 25.0541C6.78409 25.2932 6.8194 25.5448 6.8194 25.8048C6.8194 25.8483 6.81844 25.8915 6.81635 25.9343C6.81555 25.9541 6.82662 25.9722 6.8446 25.9801L7.44608 26.2428L7.46502 26.1457C7.49166 26.0104 7.62278 25.9223 7.7579 25.9488Z" fill="#F79595"/>
            <path d="M5.22786 24.7516C5.44727 24.7516 5.62515 24.6029 5.62515 24.4195C5.62515 24.236 5.44727 24.0873 5.22786 24.0873C5.00844 24.0873 4.83057 24.236 4.83057 24.4195C4.83057 24.6029 5.00844 24.7516 5.22786 24.7516Z" fill="#EE6161"/>
            <path d="M3.79362 26.9222C4.03345 26.9222 4.22787 26.7278 4.22787 26.488C4.22787 26.2481 4.03345 26.0537 3.79362 26.0537C3.5538 26.0537 3.35938 26.2481 3.35938 26.488C3.35938 26.7278 3.5538 26.9222 3.79362 26.9222Z" fill="#EE6161"/>
            <path d="M5.48621 26.5726C5.65793 26.5726 5.79713 26.4334 5.79713 26.2617C5.79713 26.09 5.65793 25.9508 5.48621 25.9508C5.3145 25.9508 5.17529 26.09 5.17529 26.2617C5.17529 26.4334 5.3145 26.5726 5.48621 26.5726Z" fill="#F9B1B1"/>
            <path d="M4.33793 28.0814C4.50488 28.0814 4.64021 27.946 4.64021 27.7791C4.64021 27.6121 4.50488 27.4768 4.33793 27.4768C4.17098 27.4768 4.03564 27.6121 4.03564 27.7791C4.03564 27.946 4.17098 28.0814 4.33793 28.0814Z" fill="#F9B1B1"/>
            <path d="M2.29418 25.6702C2.29418 24.5884 2.81024 23.6269 3.60927 23.0186C3.51598 23.0317 3.42388 23.0495 3.33372 23.0716C3.31462 23.0763 3.29472 23.0689 3.28349 23.0527L2.91245 22.5176L2.92513 22.5128C3.05063 22.4645 3.1214 22.3267 3.07903 22.1992C3.03394 22.063 2.88501 21.9937 2.75261 22.0445L2.28111 22.2259C2.15578 22.274 2.08484 22.4119 2.12721 22.5395C2.17231 22.6755 2.32139 22.745 2.45363 22.6942L2.54607 22.6585L2.64348 23.307C2.64637 23.3265 2.6369 23.3456 2.61989 23.3553C2.36023 23.5025 2.12641 23.6896 1.92677 23.9085C1.91297 23.9235 1.89146 23.9283 1.87284 23.9202L1.44981 23.7373C1.51561 23.6336 1.49218 23.4953 1.39252 23.42C1.34951 23.3876 1.29912 23.3719 1.24921 23.3719C1.17715 23.3719 1.10606 23.4045 1.0592 23.4662L0.857632 23.7326C0.780279 23.8349 0.792316 23.9822 0.890852 24.0644C0.995968 24.1518 1.15164 24.133 1.23316 24.0252L1.25948 23.9905L1.56199 24.3458C1.57499 24.3613 1.57675 24.3829 1.5668 24.4002C1.38819 24.7097 1.2667 25.0561 1.21695 25.4253C1.21438 25.4448 1.2001 25.4607 1.18084 25.4652L0.546456 25.614C0.547258 25.4663 0.429785 25.3453 0.282623 25.3415C0.130967 25.3375 0.00546922 25.4654 0.00418536 25.6172L1.28138e-05 26.0815C-0.00143153 26.2307 0.119412 26.3525 0.268661 26.3525C0.343767 26.3525 0.411811 26.3223 0.46124 26.2732C0.510829 26.2243 0.541642 26.1564 0.542284 26.0815L0.542926 26.0065L1.18197 26.1542C1.20106 26.1585 1.21535 26.1744 1.21808 26.194C1.26638 26.543 1.37872 26.8717 1.54289 27.1676C1.55268 27.1851 1.55044 27.2069 1.53712 27.222L1.13719 27.6739C1.0478 27.5557 0.877532 27.5313 0.758133 27.6253C0.646116 27.7136 0.627179 27.8766 0.708544 27.9936L0.853941 28.203C0.937392 28.3231 1.10253 28.3605 1.22482 28.2801C1.34197 28.203 1.37808 28.0509 1.31388 27.9309L1.88167 27.698C1.89997 27.6905 1.92099 27.6953 1.93447 27.7099C2.15706 27.9517 2.42137 28.1544 2.71602 28.3066C2.73351 28.3157 2.74378 28.3343 2.74154 28.3539L2.66451 29.0499L2.65375 29.0461C2.49391 28.9878 2.31048 29.069 2.25528 29.23C2.20151 29.3861 2.28272 29.557 2.43839 29.6137L2.90362 29.7833C3.07053 29.8443 3.2071 29.7487 3.2071 29.571C3.21962 29.5367 3.22555 29.5015 3.22555 29.4668C3.22555 29.343 3.14916 29.2266 3.02591 29.1817L3.01259 29.1769L3.39117 28.5829C3.40176 28.5664 3.4215 28.5582 3.44076 28.562C3.62323 28.5993 3.81196 28.619 4.0055 28.619C4.02827 28.619 4.05141 28.6187 4.07406 28.6182C3.01604 28.0603 2.29418 26.9494 2.29418 25.6702Z" fill="#F37C7C"/>
            <path d="M2.44625 27.3709C2.62016 27.3709 2.76115 27.2299 2.76115 27.056C2.76115 26.8821 2.62016 26.7411 2.44625 26.7411C2.27233 26.7411 2.13135 26.8821 2.13135 27.056C2.13135 27.2299 2.27233 27.3709 2.44625 27.3709Z" fill="#EE6161"/>
            <path d="M4.77705 25.67H4.67065C4.60417 25.67 4.55029 25.6162 4.55029 25.5497C4.55029 25.4832 4.60417 25.4293 4.67065 25.4293H4.77705C4.84354 25.4293 4.89742 25.4832 4.89742 25.5497C4.89742 25.6162 4.84354 25.67 4.77705 25.67Z" fill="#F9B1B1"/>
            <path d="M3.35957 27.774H3.25024C3.18376 27.774 3.12988 27.7202 3.12988 27.6537C3.12988 27.5872 3.18376 27.5333 3.25024 27.5333H3.35957C3.42605 27.5333 3.47993 27.5872 3.47993 27.6537C3.47993 27.7202 3.42605 27.774 3.35957 27.774Z" fill="#F9B1B1"/>
            <path d="M2.23641 26.0212H2.1311C2.06462 26.0212 2.01074 25.9674 2.01074 25.9009C2.01074 25.8344 2.06462 25.7805 2.1311 25.7805H2.23641C2.3029 25.7805 2.35677 25.8344 2.35677 25.9009C2.35677 25.9674 2.3029 26.0212 2.23641 26.0212Z" fill="#EE6161"/>
            <path d="M4.37434 23.9153H4.22778C4.1613 23.9153 4.10742 23.8614 4.10742 23.7949C4.10742 23.7285 4.1613 23.6746 4.22778 23.6746H4.37434C4.44082 23.6746 4.4947 23.7285 4.4947 23.7949C4.4947 23.8614 4.44082 23.9153 4.37434 23.9153Z" fill="#F9B1B1"/>
            <path d="M5.33688 27.3822H5.17505C5.10856 27.3822 5.05469 27.3283 5.05469 27.2618C5.05469 27.1954 5.10856 27.1415 5.17505 27.1415H5.33688C5.40337 27.1415 5.45724 27.1954 5.45724 27.2618C5.45724 27.3283 5.40335 27.3822 5.33688 27.3822Z" fill="#EE6161"/>
            <path d="M3.50097 25.2943C3.86036 25.0109 3.95984 24.5378 3.72316 24.2377C3.48649 23.9375 3.00328 23.9239 2.6439 24.2073C2.28451 24.4907 2.18503 24.9638 2.4217 25.2639C2.65838 25.5641 3.14158 25.5776 3.50097 25.2943Z" fill="#EE6161"/>
        </symbol>

        <symbol viewBox="0 0 16 13" id="eye-regular" >
            <path fill-rule="evenodd" clip-rule="evenodd" d="M1.77045 5.65298C2.88662 4.05618 5.02366 1.75 7.93281 1.75C10.842 1.75 12.979 4.05618 14.0952 5.65298C14.4558 6.16886 14.4558 6.83114 14.0952 7.34702C12.979 8.94382 10.842 11.25 7.93281 11.25C5.02366 11.25 2.88662 8.94382 1.77045 7.34702C1.40985 6.83114 1.40985 6.16886 1.77045 5.65298ZM7.93281 0.25C4.22622 0.25 1.69638 3.14076 0.541028 4.79361C-0.180343 5.82561 -0.180343 7.17439 0.541028 8.20639C1.69638 9.85924 4.22622 12.75 7.93281 12.75C11.6394 12.75 14.1692 9.85924 15.3246 8.20639C16.046 7.17439 16.046 5.82561 15.3246 4.79361C14.1692 3.14076 11.6394 0.25 7.93281 0.25ZM6.62031 6.5C6.62031 5.77513 7.20793 5.1875 7.93281 5.1875C8.65768 5.1875 9.24531 5.77513 9.24531 6.5C9.24531 7.22487 8.65768 7.8125 7.93281 7.8125C7.20793 7.8125 6.62031 7.22487 6.62031 6.5ZM7.93281 3.6875C6.37951 3.6875 5.12031 4.9467 5.12031 6.5C5.12031 8.0533 6.37951 9.3125 7.93281 9.3125C9.48611 9.3125 10.7453 8.0533 10.7453 6.5C10.7453 4.9467 9.48611 3.6875 7.93281 3.6875Z" fill="currentColor"/>
        </symbol>

        <symbol id="chevron-up-light" viewBox="0 0 943.341 512">
            <path class="path-1" fill="currentColor" d="M7.434,489.615l14.951,14.952c9.909,9.909,25.976,9.909,35.888,0L471.671,91.169l413.4,413.398
				c9.909,9.909,25.977,9.909,35.888,0l14.95-14.952c9.909-9.909,9.909-25.977,0-35.887L489.613,7.432
				c-9.909-9.909-25.976-9.909-35.887,0L7.434,453.729C-2.478,463.639-2.478,479.706,7.434,489.615z" />
        </symbol>
        <symbol viewBox="0 0 17 17" id="magic">
            <path d="M4.25 3.1875L2.125 1.0625H1.0625V2.125L3.1875 4.25L4.25 3.1875ZM5.3125 0H6.375V2.125H5.3125V0ZM9.5625 5.3125H11.6875V6.375H9.5625V5.3125ZM10.625 2.125V1.0625H9.5625L7.4375 3.1875L8.5 4.25L10.625 2.125ZM0 5.3125H2.125V6.375H0V5.3125ZM5.3125 9.5625H6.375V11.6875H5.3125V9.5625ZM1.0625 9.5625V10.625H2.125L4.25 8.5L3.1875 7.4375L1.0625 9.5625ZM16.7673 14.6423L6.20713 4.08213C6.05739 3.93309 5.85473 3.84942 5.64347 3.84942C5.43221 3.84942 5.22955 3.93309 5.07981 4.08213L4.08213 5.07981C3.93309 5.22955 3.84942 5.43221 3.84942 5.64347C3.84942 5.85473 3.93309 6.05739 4.08213 6.20713L14.6423 16.7673C14.792 16.9163 14.9947 17 15.206 17C15.4172 17 15.6199 16.9163 15.7696 16.7673L16.7673 15.7696C16.9163 15.6199 17 15.4172 17 15.206C17 14.9947 16.9163 14.792 16.7673 14.6423ZM7.96875 9.03125L4.78125 5.84375L5.84375 4.78125L9.03125 7.96875L7.96875 9.03125Z" fill="currentColor"/>
        </symbol>
        <!--//Product Icon-->

    </defs>
</svg>