<?xml version="1.0" encoding="UTF-8"?>
<!DOCTYPE svg  PUBLIC '-//W3C//DTD SVG 1.1//EN'  'http://www.w3.org/Graphics/SVG/1.1/DTD/svg11.dtd'>
<svg display="none" width="0" height="0" version="1.1" xmlns="http://www.w3.org/2000/svg" xmlns:xlink="http://www.w3.org/1999/xlink">
    <defs>
		<symbol id="bold" viewBox="0 0 420 512">
			<title>bold</title>
			<path class="path-1" fill="currentColor" d="M338.731,242.161c38.392-21.185,61.239-61.897,61.239-109.363c0-55.127-29.959-100.144-78.323-119.062
				C293.473,2.297,265.752,0,230.157,0H18.261C8.175,0,0,8.187,0,18.286v37.77c0,10.1,8.175,18.286,18.261,18.286h37.792v364.035
				H18.261C8.175,438.376,0,446.563,0,456.662v37.052C0,503.813,8.175,512,18.261,512h223.342c27.624,0,51.169-1.474,76.314-8.667
				C376.082,485.936,420,432.74,420,363.445C420,303.824,389.672,258.663,338.731,242.161z M153.182,78.639h76.975
				c18.596,0,31.426,2.307,42.828,7.676c18.064,9.69,28.425,30.288,28.425,56.51c0,40.033-23.191,64.902-60.522,64.902h-87.705V78.639
				L153.182,78.639z M281.741,427.753c-11.573,4.636-25.881,5.608-35.847,5.608h-92.712V285.649h96.289
				c45.247,0,71.968,29.006,71.968,72.065C321.439,390.2,305.848,417.695,281.741,427.753z" />
		</symbol>
		<symbol id="italic" viewBox="0 0 292 512">
			<title>italic</title>
			<path class="path-1" fill="currentColor" d="M101.995,54.857h46.177L70.725,457.143H19.12c-6.533,0-12.156,4.626-13.426,11.048l-5.429,27.429
				C-1.412,504.099,5.063,512,13.692,512h170.884c6.533,0,12.156-4.626,13.426-11.047l5.428-27.429
				c1.677-8.479-4.797-16.383-13.426-16.383h-46.9l77.448-402.286h52.328c6.533,0,12.155-4.626,13.426-11.047l5.428-27.428
				C293.412,7.902,286.936,0,278.308,0H107.423c-6.534,0-12.156,4.626-13.427,11.047l-5.428,27.429
				C86.891,46.956,93.367,54.857,101.995,54.857z" />
		</symbol>
		<symbol id="underline" viewBox="0 0 448 512">
			<title>underline</title>
			<path class="path-1" fill="currentColor" d="M0,500v-24c0-6.627,5.373-12,12-12h424c6.627,0,12,5.373,12,12v24c0,6.627-5.373,12-12,12H12C5.373,512,0,506.627,0,500z
				M278.066,12v24c0,6.627,5.373,12,12,12h40.44v210.742c0,74.424-39.957,112.144-106.502,112.144
				c-66.896,0-106.501-35.297-106.501-111.005V48h40.44c6.627,0,12-5.373,12-12V12c0-6.627-5.373-12-12-12H22.162
				c-6.627,0-12,5.373-12,12v24c0,6.627,5.373,12,12,12h40.441v212.45c0,106.712,66.034,161.89,161.401,161.89
				c93.574,0,161.402-56.006,161.402-161.89V48h40.439c6.627,0,12-5.373,12-12V12c0-6.627-5.373-12-12-12h-135.78
				C283.439,0,278.066,5.373,278.066,12z" />
		</symbol>
		<symbol id="strikethrough" viewBox="0 0 565 512">
			<title>strikethrough</title>
			<path class="path-1" fill="currentColor" d="M551.758,282.678H13.242C5.929,282.678,0,276.743,0,269.424v-26.509c0-7.32,5.929-13.254,13.242-13.254h538.516
                c7.313,0,13.242,5.935,13.242,13.254v26.509C565,276.743,559.071,282.678,551.758,282.678z M322.697,300.351
                c32.163,16.46,55.102,37.363,55.102,73.479c0,49.096-41.342,75.75-98.102,75.75c-44.157,0-98.801-16.669-98.801-60.866
                c0-9.761-7.905-17.672-17.657-17.672h-29.155c-9.75,0-17.656,7.912-17.656,17.672v18.082c0,70.838,86.189,105.205,163.269,105.205
                c91.796,0,168.875-49.096,168.875-143.782c0-27.939-6.695-49.959-18.034-67.868H322.697L322.697,300.351z M280.2,211.988
                c-45.271-17.844-81.787-37.171-81.787-82.236c0-45.588,38.539-68.032,86.889-68.032c40.119,0,84.972,15.201,84.787,44.412
                c-0.06,9.691,7.975,17.493,17.656,17.493h29.855c9.751,0,17.656-7.912,17.656-17.672V82.06C435.257,28.054,359.578,0,285.301,0
                c-83.386,0-158.363,39.979-158.363,133.261c0,34.211,10.144,59.338,26.378,78.728H280.2L280.2,211.988z" />
		</symbol>
        <symbol id="subscript" viewBox="0 0 585 512">
            <title>subscript</title>
            <path class="path-1" fill="currentColor" d="M571.363,455.647H438.307c3.532-20.963,27.438-38.883,54.824-57.188c39.322-26.279,86.994-57.875,86.994-117.967
                c0-57.487-43.967-97.636-106.919-97.636c-42.993,0-82.398,22.238-103.739,57.502c-3.795,6.27-1.949,14.426,4.148,18.492
                l27.902,18.601c6.078,4.052,14.345,2.701,18.633-3.214c11.704-16.148,28.365-28.206,48.181-28.206
                c29.924,0,43.317,19.758,43.317,39.339c0,24.25-25.674,42.119-55.402,62.806c-40.87,28.441-91.73,63.837-91.73,131.35
                c0,6.357,0.638,12.601,1.638,20.475c0.869,6.854,6.696,11.999,13.604,11.999h191.532c7.572,0,13.711-6.141,13.711-13.714v-29
                C585,461.753,578.896,455.647,571.363,455.647z M280.983,274.286h34.369c7.571,0,13.711,6.141,13.711,13.714v27.429
                c0,7.574-6.14,13.714-13.711,13.714h-68.183c-4.739,0-9.141-2.447-11.644-6.471l-61.932-99.603
                c-3.728-5.591-7.006-11.575-9.129-15.673c-2.026,4.068-5.227,10.083-9.288,16.362l-60.624,98.843
                c-2.494,4.064-6.92,6.541-11.688,6.542H13.711C6.139,329.143,0,323.002,0,315.429V288c0-7.574,6.139-13.714,13.711-13.714h36.252
                l74.816-114.799L55.706,54.857H13.711C6.139,54.857,0,48.716,0,41.143V13.714C0,6.141,6.139,0,13.711,0h76.283
                c4.772,0,9.201,2.482,11.693,6.553l54.301,88.713c3.411,5.687,6.561,11.943,8.615,16.222c2.121-4.155,5.391-10.275,9.122-16.248
                l55.563-88.801C231.796,2.433,236.188,0,240.913,0h74.438c7.571,0,13.711,6.141,13.711,13.714v27.429
                c0,7.573-6.14,13.714-13.711,13.714H273.34l-69.668,103.982L280.983,274.286z" />
        </symbol>
        <symbol id="superscript" viewBox="0 0 585 512">
            <title>superscript</title>
            <path class="path-1" fill="currentColor" d="M571.363,272.79H438.307c3.532-20.962,27.438-38.882,54.824-57.187c39.322-26.279,86.994-57.876,86.994-117.967
                C580.125,40.148,536.158,0,473.206,0c-42.993,0-82.398,22.238-103.739,57.501c-3.795,6.27-1.949,14.427,4.148,18.492l27.902,18.601
                c6.078,4.053,14.345,2.702,18.633-3.214c11.704-16.148,28.365-28.206,48.181-28.206c29.924,0,43.317,19.758,43.317,39.338
                c0,24.25-25.674,42.119-55.402,62.807c-40.87,28.441-91.73,63.836-91.73,131.349c0,6.357,0.638,12.6,1.638,20.475
                c0.869,6.854,6.696,11.999,13.604,11.999h191.532c7.572,0,13.711-6.141,13.711-13.714v-29
                C585,278.896,578.896,272.79,571.363,272.79L571.363,272.79z M280.983,457.143h34.369c7.571,0,13.711,6.141,13.711,13.715v27.429
                c0,7.573-6.14,13.714-13.711,13.714h-68.183c-4.739,0-9.141-2.446-11.644-6.471l-61.932-99.604
                c-3.728-5.591-7.006-11.575-9.129-15.673c-2.026,4.066-5.227,10.083-9.288,16.362l-60.624,98.844
                c-2.494,4.063-6.92,6.541-11.688,6.541H13.711C6.139,512,0,505.859,0,498.286v-27.429c0-7.574,6.139-13.715,13.711-13.715h36.252
                l74.816-114.799L55.706,237.714H13.711C6.139,237.714,0,231.574,0,224v-27.429c0-7.574,6.139-13.714,13.711-13.714h76.283
                c4.772,0,9.201,2.482,11.693,6.553l54.301,88.713c3.411,5.687,6.561,11.943,8.615,16.221c2.121-4.155,5.391-10.275,9.122-16.248
                l55.563-88.801c2.506-4.006,6.898-6.439,11.623-6.439h74.44c7.571,0,13.711,6.141,13.711,13.714V224
                c0,7.574-6.14,13.714-13.711,13.714H273.34l-69.668,103.981L280.983,457.143z" />
        </symbol>
        <symbol id="quote" viewBox="0 0 585 512">
            <title>quote</title>
            <path class="path-1" fill="currentColor" d="M530.157,256H438.75v-73.143c0-40.342,32.792-73.143,73.125-73.143h9.141c15.196,0,27.422-12.229,27.422-27.429V27.429
                c0-15.2-12.226-27.429-27.422-27.429h-9.141C410.87,0,329.063,81.829,329.063,182.857v274.286c0,30.286,24.565,54.857,54.844,54.857
                h146.251C560.435,512,585,487.429,585,457.143V310.857C585,280.571,560.435,256,530.157,256z M201.094,256h-91.407v-73.143
                c0-40.342,32.792-73.143,73.125-73.143h9.141c15.196,0,27.422-12.229,27.422-27.429V27.429c0-15.2-12.226-27.429-27.422-27.429
                h-9.141C81.809,0,0,81.829,0,182.857v274.286C0,487.429,24.565,512,54.844,512h146.25c30.278,0,54.843-24.571,54.843-54.857V310.857
                C255.938,280.571,231.372,256,201.094,256z" />
        </symbol>
        <symbol id="code" viewBox="0 0 576 512">
            <title>code</title>
            <path class="path-1" fill="currentColor" d="M234.85,511.691l-38.8-11.3c-4.2-1.2-6.7-5.7-5.5-9.9l140.8-484.69c1.201-4.2,5.7-6.7,9.9-5.5l38.8,11.3
                c4.2,1.2,6.7,5.699,5.501,9.899L244.75,506.191C243.55,510.491,239.15,512.892,234.85,511.691z M151.65,390.594l27.2-29
                c3.1-3.3,2.8-8.5-0.5-11.5l-106.1-94.098l106.1-94.098c3.4-3,3.6-8.2,0.5-11.5l-27.2-29c-3-3.2-8.1-3.4-11.3-0.4L2.55,250.196
                c-3.4,3.2-3.4,8.5,0,11.7l137.8,129.098C143.55,393.994,148.55,393.793,151.65,390.594z M435.75,390.994l137.7-129.098
                c3.399-3.2,3.399-8.5,0-11.7l-137.7-129.198c-3.2-3-8.3-2.9-11.3,0.4l-27.2,29c-3.101,3.3-2.8,8.5,0.5,11.5l106.1,94.098
                l-106.1,94.098c-3.4,3-3.601,8.2-0.5,11.5l27.2,29C427.55,393.793,432.55,393.994,435.75,390.994L435.75,390.994z" />
        </symbol>
        <symbol id="table" viewBox="0 0 585 512">
            <title>table</title>
            <path class="path-1" fill="currentColor" d="M530.157,0H54.844C24.554,0,0,24.56,0,54.857v402.286C0,487.439,24.554,512,54.844,512h475.313
                C560.446,512,585,487.439,585,457.143V54.857C585,24.56,560.446,0,530.157,0z M182.813,475.429H54.844
                c-10.097,0-18.281-8.187-18.281-18.286v-91.429h146.25V475.429z M182.813,329.143H36.563V219.429h146.25V329.143z M182.813,182.857
                H36.563V73.143h146.25V182.857z M365.625,475.429h-146.25V365.714h146.25V475.429z M365.625,329.143h-146.25V219.429h146.25V329.143
                z M365.625,182.857h-146.25V73.143h146.25V182.857z M548.438,365.714v91.429c0,10.1-8.185,18.286-18.28,18.286H402.188V365.714
                H548.438z M548.438,329.143H402.188V219.429h146.249V329.143z M548.438,182.857H402.188V73.143h146.249V182.857z" />
        </symbol>
        <symbol id="image" viewBox="0 0 682 512">
            <title>image</title>
            <path class="path-1" fill="currentColor" d="M618.063,512H63.938C28.626,512,0,483.347,0,448V64C0,28.654,28.626,0,63.938,0h554.125C653.374,0,682,28.654,682,64v384
                C682,483.347,653.374,512,618.063,512z M149.188,74.667c-41.197,0-74.594,33.43-74.594,74.667c0,41.237,33.396,74.667,74.594,74.667
                s74.594-33.43,74.594-74.667C223.781,108.096,190.385,74.667,149.188,74.667z M85.25,426.667h511.499V277.333L480.178,160.646
                c-6.243-6.248-16.363-6.248-22.606,0L277.063,341.333l-73.948-74.02c-6.242-6.248-16.362-6.248-22.605,0L85.25,362.667V426.667z" />
        </symbol>
        <symbol id="video" viewBox="0 0 768 512">
            <title>video</title>
            <path class="path-1" fill="currentColor" d="M448.267,0H63.733C28.533,0,0,28.533,0,63.733v384.534C0,483.466,28.533,512,63.733,512h384.534
                C483.466,512,512,483.466,512,448.267V63.733C512,28.533,483.466,0,448.267,0L448.267,0z M700.8,50.267L554.667,151.066v209.867
                L700.8,461.601c28.267,19.466,67.2-0.4,67.2-34.4V84.667C768,50.8,729.2,30.8,700.8,50.267z" />
        </symbol>
		<symbol id="font" viewBox="0 0 512 512">
			<title>font</title>
			<path class="path-1" fill="currentColor" d="M173.714,438.857h-27.444l30.385-92.323h157.973l30.385,92.323h-26.727c-10.1,0-18.286,8.187-18.286,18.285v36.571
				c0,10.1,8.187,18.286,18.286,18.286h155.428c10.1,0,18.286-8.187,18.286-18.286v-36.571c0-10.099-8.187-18.285-18.286-18.285
				h-30.559L314.852,12.281C312.295,4.929,305.364,0,297.579,0h-83.161c-7.785,0-14.716,4.929-17.272,12.281L48.844,438.857H18.286
				C8.187,438.857,0,447.044,0,457.143v36.571C0,503.813,8.187,512,18.286,512h155.429c10.099,0,18.286-8.187,18.286-18.286v-36.571
				C192,447.044,183.813,438.857,173.714,438.857z M247.261,128.254c4.969-17.39,7.554-32.179,8.669-39.593
				c0.959,7.453,3.359,22.258,8.831,39.664l47.24,141.721H199.293L247.261,128.254z" />
		</symbol>
		<symbol id="pen" viewBox="0 0 512 512">
			<title>pen</title>
			<path class="path-1" fill="currentColor" d="M290.743,93.234L418.76,221.256L140.777,499.251l-114.137,12.6c-15.28,1.69-28.189-11.229-26.489-26.51L12.85,371.119
				L290.743,93.234z M497.938,74.174l-60.109-60.111c-18.749-18.75-49.159-18.75-67.908,0l-56.548,56.551l128.016,128.022l56.55-56.551
				C516.688,123.325,516.688,92.924,497.938,74.174z" />
		</symbol>
        <symbol id="link" viewBox="0 0 512 512">
            <title>link</title>
            <path class="path-1" fill="currentColor" d="M314.222,197.78c51.091,51.091,54.377,132.287,9.75,187.16c-6.241,7.73-2.784,3.865-84.939,86.02
                c-54.696,54.696-143.266,54.745-197.99,0c-54.711-54.69-54.734-143.255,0-197.99c32.773-32.773,51.835-51.899,63.409-63.457
                c7.463-7.452,20.331-2.354,20.486,8.192c0.186,12.746,1.778,25.432,4.746,37.828c0.966,4.029-0.272,8.269-3.202,11.198
                L80.632,312.57c-32.755,32.775-32.887,85.892,0,118.8c32.775,32.755,85.892,32.887,118.8,0l75.19-75.2
                c32.718-32.725,32.777-86.013,0-118.79c-6.64-6.652-14.353-12.138-22.814-16.229c-4.623-2.233-7.182-7.25-6.561-12.346
                c1.356-11.122,6.296-21.885,14.815-30.405l4.375-4.375c3.625-3.626,9.177-4.594,13.76-2.294
                C291.196,178.255,303.384,186.942,314.222,197.78L314.222,197.78z M470.958,41.04c-54.724-54.745-143.294-54.696-197.99,0
                c-82.156,82.156-78.698,78.29-84.94,86.02c-44.627,54.873-41.341,136.069,9.75,187.16c10.838,10.838,23.026,19.525,36.025,26.049
                c4.582,2.3,10.134,1.331,13.76-2.294l4.375-4.375c8.52-8.519,13.459-19.283,14.815-30.405c0.621-5.096-1.938-10.113-6.561-12.346
                c-8.462-4.091-16.174-9.577-22.814-16.229c-32.777-32.777-32.718-86.065,0-118.79l75.19-75.2c32.907-32.887,86.024-32.755,118.8,0
                c32.887,32.908,32.755,86.025,0,118.8l-45.849,45.84c-2.93,2.929-4.168,7.169-3.201,11.198c2.968,12.396,4.56,25.083,4.746,37.828
                c0.154,10.546,13.022,15.644,20.485,8.192c11.574-11.558,30.636-30.684,63.409-63.457C525.692,184.296,525.669,95.731,470.958,41.04
                L470.958,41.04z" />
        </symbol>
        <symbol id="unlink" viewBox="0 0 512 512">
            <title>unlink</title>
            <path class="path-1" fill="currentColor" d="M304.083,388.936c4.686,4.686,4.686,12.284,0,16.971l-65.057,65.056c-54.709,54.711-143.27,54.721-197.989,0
                c-54.713-54.713-54.719-143.27,0-197.989l65.056-65.057c4.686-4.686,12.284-4.686,16.971,0l22.627,22.627
                c4.686,4.686,4.686,12.284,0,16.971L81.386,311.82c-34.341,34.341-33.451,88.269,0.597,120.866
                c32.577,31.188,84.788,31.338,117.445-1.319l65.057-65.056c4.686-4.686,12.284-4.686,16.971,0L304.083,388.936L304.083,388.936z
                M247.515,145.691l64.304-64.304c34.346-34.346,88.286-33.453,120.882,0.612c31.18,32.586,31.309,84.785-1.335,117.43
                l-65.056,65.057c-4.687,4.686-4.687,12.284,0,16.971l22.627,22.627c4.686,4.686,12.283,4.686,16.971,0l65.056-65.057
                c54.711-54.709,54.722-143.271,0-197.99c-54.71-54.711-143.27-54.72-197.989,0l-65.057,65.057c-4.686,4.686-4.686,12.284,0,16.971
                l22.627,22.627C235.23,150.377,242.828,150.377,247.515,145.691L247.515,145.691z M485.858,508.485l22.627-22.627
                c4.686-4.687,4.686-12.284,0-16.972L43.112,3.515c-4.686-4.686-12.284-4.686-16.971,0L3.515,26.142
                c-4.686,4.686-4.686,12.284,0,16.971l465.373,465.374C473.574,513.172,481.172,513.172,485.858,508.485L485.858,508.485z" />
        </symbol>
        <symbol id="bookmark" viewBox="0 0 384 512">
            <title>bookmark</title>
            <path class="path-1" fill="currentColor" d="M336,0H48C21.49,0,0,21.49,0,48v464l192-112l192,112V48C384,21.49,362.51,0,336,0z M336,428.43l-144-84l-144,84V54
                c0-3.313,2.687-6,6-6h276c3.314,0,6,2.683,6,5.996V428.43z" />
        </symbol>
        <symbol id="anchor" viewBox="0 0 574 512">
            <title>anchor</title>
            <path class="path-1" fill="currentColor" d="M12.022,352H44.41C66.213,454.735,180.963,512,287,512c106.209,0,220.812-57.38,242.59-160h32.389
                c10.688,0,16.042-12.926,8.483-20.485l-67.017-67.029c-4.686-4.686-12.281-4.686-16.968,0l-67.017,67.029
                c-7.559,7.56-2.205,20.485,8.483,20.485h35.14c-20.286,54.317-84.947,86.588-144.091,94.015V256h51.99
                c6.626,0,11.998-5.373,11.998-12v-40c0-6.627-5.372-12-11.998-12h-51.99v-5.47c37.274-13.178,63.983-48.725,63.988-90.518
                c0.006-52.24-42.386-95.274-94.612-96.002C234.733-0.739,191.018,42.525,191.018,96c0,41.798,26.711,77.35,63.988,90.53V192h-51.99
                c-6.626,0-11.998,5.373-11.998,12v40c0,6.627,5.372,12,11.998,12h51.99v190.015c-58.925-7.398-123.797-39.679-144.09-94.015h35.14
                c10.689,0,16.042-12.926,8.483-20.485l-67.017-67.029c-4.686-4.686-12.282-4.686-16.968,0L3.538,331.515
                C-4.02,339.074,1.333,352,12.022,352z M287,64c17.642,0,31.994,14.355,31.994,32S304.642,128,287,128s-31.994-14.355-31.994-32
                S269.358,64,287,64z" />
        </symbol>
        <symbol id="list-ol" viewBox="0 0 583 512">
            <title>list-ol</title>
			<path class="path-1" fill="currentColor" d="M1.204,122.888c0-8.545,4.477-13.225,13.226-13.225h17.292V64.089c0-5.9,0.61-12.003,0.61-12.003h-0.407
                c0,0-2.033,3.051-3.255,4.272c-5.086,4.883-12.004,5.087-17.904-1.221L4.46,48.016c-6.105-6.104-5.696-12.818,0.61-18.719
                L29.894,6.511C34.977,1.831,39.454,0,46.372,0h13.834c8.75,0,13.427,4.476,13.427,13.226v96.438h17.701
                c8.749,0,13.226,4.679,13.226,13.225v10.173c0,8.545-4.477,13.225-13.226,13.225H14.43c-8.75,0-13.226-4.68-13.226-13.225V122.888z
                M0.001,311.533c0-54.032,58.235-64.438,58.235-79.046c0-8.206-6.805-10.006-10.606-10.006c-3.604,0-7.404,1.202-10.806,4.402
                c-5.805,5.604-12.008,8.004-18.413,2.801l-9.804-7.805c-6.604-5.204-8.206-11.206-3.204-17.61
                c7.604-10.006,21.814-21.413,46.228-21.413c22.214,0,50.829,12.007,50.829,45.227c0,43.825-53.432,53.031-55.633,65.039h44.627
                c8.605,0,13.208,4.602,13.208,13.008v10.006c0,8.405-4.603,13.008-13.208,13.008H13.809C5.804,329.145,0,324.542,0,316.137
                L0.001,311.533L0.001,311.533z M3.936,482.984l6.403-10.606c4.403-7.604,10.406-8.004,17.81-3.603
                c5.604,2.402,11.006,3.603,16.411,3.603c11.605,0,16.409-4.002,16.409-9.406c0-7.604-6.404-10.406-18.21-10.406h-5.403
                c-6.805,0-10.605-2.401-14.009-9.005l-1.2-2.202c-2.801-5.403-1.401-11.207,3.201-17.011l6.405-8.004
                c7.804-9.605,14.008-15.409,14.008-15.409v-0.4c0,0-4.804,1.201-14.409,1.201H16.543c-8.606,0-13.009-4.603-13.009-13.008v-10.006
                c0-8.605,4.403-13.008,13.009-13.008h66.839c8.605,0,13.008,4.603,13.008,13.008v3.803c0,6.604-1.601,11.207-5.804,16.209
                l-20.011,23.015c22.413,5.803,32.819,23.412,32.819,39.822c0,24.415-16.41,50.43-55.433,50.43c-19.012,0-32.219-5.403-41.024-10.806
                C0.333,496.392-0.267,489.988,3.936,482.984L3.936,482.984z M162.428,114.286h402.287C574.813,114.286,583,106.1,583,96V50.286
                C583,40.187,574.813,32,564.715,32H162.428c-10.099,0-18.286,8.187-18.286,18.286V96C144.142,106.1,152.329,114.286,162.428,114.286
                z M162.428,297.144h402.287c10.099,0,18.285-8.187,18.285-18.286v-45.714c0-10.1-8.187-18.286-18.285-18.286H162.428
                c-10.099,0-18.286,8.187-18.286,18.286v45.714C144.142,288.957,152.329,297.144,162.428,297.144z M162.428,480.001h402.287
                c10.099,0,18.285-8.187,18.285-18.286v-45.714c0-10.1-8.187-18.286-18.285-18.286H162.428c-10.099,0-18.286,8.187-18.286,18.286
                v45.714C144.142,471.814,152.329,480.001,162.428,480.001z" />
        </symbol>
        <symbol id="list-ul" viewBox="0 0 630 512">
            <title>list-ul</title>
			<path class="path-1" fill="currentColor" d="M118.154,59.077c0,32.627-26.45,59.077-59.077,59.077C26.45,118.154,0,91.704,0,59.077C0,26.45,26.45,0,59.077,0
                C91.704,0,118.154,26.45,118.154,59.077z M59.077,196.923C26.45,196.923,0,223.373,0,256s26.45,59.077,59.077,59.077
                c32.627,0,59.077-26.45,59.077-59.077S91.704,196.923,59.077,196.923z M59.077,393.846C26.45,393.846,0,420.296,0,452.923
                C0,485.551,26.45,512,59.077,512c32.627,0,59.077-26.449,59.077-59.077C118.154,420.296,91.704,393.846,59.077,393.846z
                M177.231,103.385h433.077c10.876,0,19.692-8.816,19.692-19.692V34.461c0-10.876-8.816-19.692-19.692-19.692H177.231
                c-10.876,0-19.692,8.816-19.692,19.692v49.231C157.539,94.568,166.354,103.385,177.231,103.385z M177.231,300.308h433.077
                c10.876,0,19.692-8.816,19.692-19.692v-49.23c0-10.876-8.816-19.692-19.692-19.692H177.231c-10.876,0-19.692,8.816-19.692,19.692
                v49.23C157.539,291.492,166.354,300.308,177.231,300.308z M177.231,497.23h433.077c10.876,0,19.692-8.815,19.692-19.692v-49.23
                c0-10.876-8.816-19.692-19.692-19.692H177.231c-10.876,0-19.692,8.816-19.692,19.692v49.23
                C157.539,488.415,166.354,497.23,177.231,497.23z" />
        </symbol>
        <symbol id="eraser" viewBox="0 0 585 512">
            <title>eraser</title>
			<path class="path-1" fill="currentColor" d="M568.937,276.504c21.417-21.423,21.417-56.156,0-77.579L386.124,16.067c-21.418-21.423-56.142-21.424-77.563,0
                L16.063,308.639c-21.417,21.424-21.417,56.156,0,77.579L125.75,495.933C136.036,506.22,149.986,512,164.531,512h406.757
                c7.572,0,13.711-6.141,13.711-13.715v-45.714c0-7.573-6.139-13.714-13.711-13.714H406.624L568.937,276.504L568.937,276.504z
                M223.161,204.931L380.12,361.928l-76.911,76.93H172.104l-91.407-91.429L223.161,204.931L223.161,204.931z" />
        </symbol>
        <symbol id="heading" viewBox="0 0 549 512">
            <title>heading</title>
			<path class="path-1" fill="currentColor" d="M549.999,54.857V18.286C549.999,8.187,541.807,0,531.7,0H348.699c-10.107,0-18.3,8.187-18.3,18.286v36.571
				c0,10.1,8.192,18.286,18.301,18.286h43.028v146.286H159.271V73.143H202.3c10.106,0,18.3-8.187,18.3-18.286V18.286
				C220.6,8.187,212.407,0,202.3,0h-183C9.193,0,1,8.187,1,18.286v36.571c0,10.1,8.193,18.286,18.3,18.286h42.634v365.714H19.3
				c-10.107,0-18.3,8.187-18.3,18.285v36.57C1,503.813,9.193,512,19.3,512h183c10.106,0,18.3-8.188,18.3-18.287v-36.57
				c0-10.099-8.193-18.284-18.3-18.284h-43.029V292.571h232.457v146.287H348.7c-10.108,0-18.301,8.187-18.301,18.284v36.57
				c0,10.102,8.192,18.287,18.301,18.287h183.001c10.106,0,18.299-8.188,18.299-18.287v-36.57c0-10.099-8.192-18.284-18.299-18.284
				h-42.636V73.143h42.636C541.807,73.143,549.999,64.957,549.999,54.857z" />
        </symbol>
        <symbol id="H1" viewBox="0 0 918 512">
            <title>H1</title>
            <path class="path-1" fill="currentColor" d="M232.497,444.854V486.4c0,14.138-11.461,25.6-25.6,25.6H25.6C11.461,512,0,500.538,0,486.4v-41.546
                c0-14.139,11.461-25.601,25.6-25.601H58.23V93.43H25.6C11.461,93.43,0,81.969,0,67.83V25.6C0,11.461,11.461,0,25.6,0h181.297
                c14.14,0,25.6,11.461,25.6,25.6v42.23c0,14.141-11.461,25.6-25.6,25.6h-33.315v114.827h195.663V93.43h-33.315
                c-14.139,0-25.6-11.461-25.6-25.6V25.6c0-14.138,11.461-25.6,25.6-25.6h181.297c14.139,0,25.6,11.461,25.6,25.6v42.23
                c0,14.141-11.461,25.6-25.6,25.6h-32.629v325.824h32.629c14.139,0,25.6,11.462,25.6,25.601V486.4c0,14.138-11.461,25.6-25.6,25.6
                H335.929c-14.139,0-25.6-11.462-25.6-25.6v-41.546c0-14.139,11.461-25.601,25.6-25.601h33.315V305.798H173.582v113.456h33.315
                C221.035,419.254,232.497,430.718,232.497,444.854z"/>
            <path class="path-2" fill="currentColor" d="M787,0h-59.467c-6.613,0-12.969,2.558-17.738,7.14L600.746,111.902c-10.156,9.757-10.525,25.883-0.826,36.093l34.5,36.317
                c9.729,10.239,25.912,10.667,36.168,0.952l29.773-28.205l0.246-0.242l0.061-0.064v253.595H620.77
                c-14.139,0-25.6,11.462-25.6,25.602V486.4c0,14.138,11.461,25.6,25.6,25.6H892.5c14.139,0,25.6-11.462,25.6-25.6v-50.451
                c0-14.14-11.461-25.602-25.6-25.602h-79.9V25.6C812.6,11.461,801.139,0,787,0z"/>
        </symbol>
        <symbol id="H2" viewBox="0 0 925 512">
            <title>H2</title>
            <path class="path-1" fill="currentColor" d="M681.169,434.157h224.646c10.596,0,19.185,8.609,19.185,19.228v39.389c0,10.617-8.589,19.227-19.185,19.227H607.332
                c-9.607,0-17.735-7.123-19.015-16.672c-1.238-9.199-2.257-19.43-2.257-29.953c0-181.303,241.713-200.602,241.713-309.517
                c0-43.73-32.119-73.112-79.929-73.112c-35.846,0-65.803,21.324-86.863,50.963c-6.046,8.504-17.702,10.703-26.354,4.885
                L600.143,115.4c-8.482-5.707-11.02-17.077-5.77-25.866c8.204-13.735,18.561-26.904,32.815-40.248
                C651.212,26.803,692.496,0,752.737,0c96.902,0,164.579,62.076,164.579,150.954C917.316,313.6,694.989,336.012,681.169,434.157
                L681.169,434.157z"/>
            <path class="path-2" fill="currentColor" d="M211.413,458.951v33.847c0,10.604-8.591,19.2-19.183,19.2H19.183C8.59,511.997,0,503.399,0,492.797v-33.848
                c0-10.604,8.59-19.201,19.183-19.201h42.383V71.545H19.183C8.59,71.545,0,62.949,0,52.346V19.2C0,8.597,8.59,0,19.183,0h173.045
                c10.594,0,19.183,8.597,19.183,19.2v33.146c0,10.603-8.59,19.199-19.183,19.199h-43.085v146.93H387.6V71.545h-43.085
                c-10.595,0-19.183-8.597-19.183-19.199V19.2c0-10.603,8.59-19.2,19.183-19.2h173.046c10.593,0,19.185,8.597,19.185,19.2v33.146
                c0,10.603-8.592,19.199-19.185,19.199h-42.386v368.206h42.386c10.593,0,19.185,8.598,19.185,19.202V492.8
                c0,10.604-8.592,19.2-19.185,19.2H344.517c-10.595,0-19.183-8.597-19.183-19.2v-33.847c0-10.604,8.588-19.202,19.183-19.202h43.085
                v-146.23H149.144v146.23h43.085C202.825,439.75,211.413,448.347,211.413,458.951L211.413,458.951z"/>
        </symbol>
        <symbol id="H3" viewBox="0 0 855 512">
            <title>H3</title>
            <path class="path-1" fill="currentColor" d="M855,353.252C855,442.271,780.936,512,686.388,512c-58.779,0-115.646-26.262-151.225-58.318
                c-7.442-6.709-8.334-17.971-2.076-25.773l10.123-12.617c6.854-8.541,19.592-9.664,27.803-2.383
                c30.055,26.654,72.702,46.115,114.657,46.115c59.469,0,112.105-43.42,112.105-104.356c0-66.359-57.046-102.941-123.564-102.941
                h-23.68c-7.764,0-14.764-4.618-17.737-11.699l-4.318-10.287c-2.766-6.591-1.553-14.155,3.138-19.581L751.275,71.834
                c8.441-9.655,16.678-18.024,21.728-22.996c-6.831,0.606-18.142,1.314-33.625,1.314H566.335c-10.604,0-19.2-8.491-19.2-18.963V18.963
                c0-10.472,8.597-18.963,19.2-18.963h262.304c10.604,0,19.2,8.492,19.2,18.963v10.818c-0.001,4.566-1.67,8.979-4.701,12.428
                L700.854,204.153C784.416,211.302,855,261.387,855,353.252z"/>
            <path class="path-2" fill="currentColor" d="M312.256,48.12h46.967v182.742H122.917V48.12h46.966c10.604,0,19.2-8.597,19.2-19.2V19.2c0-10.604-8.596-19.2-19.2-19.2
                H19.2C8.597,0,0,8.597,0,19.2v9.72c0,10.603,8.597,19.2,19.2,19.2h46.966v415.76H19.2c-10.604,0-19.2,8.597-19.2,19.2v9.72
                C0,503.403,8.597,512,19.2,512h150.683c10.604,0,19.2-8.597,19.2-19.2v-9.72c0-10.604-8.596-19.2-19.2-19.2h-46.966v-183.46h236.306
                v183.46h-46.967c-10.603,0-19.199,8.597-19.199,19.2v9.72c0,10.604,8.597,19.2,19.199,19.2h150.682c10.604,0,19.2-8.597,19.2-19.2
                v-9.72c0-10.604-8.597-19.2-19.2-19.2h-46.967V48.12h46.967c10.604,0,19.2-8.597,19.2-19.2V19.2c0-10.604-8.597-19.2-19.2-19.2
                H312.256c-10.603,0-19.199,8.597-19.199,19.2v9.72C293.057,39.523,301.653,48.12,312.256,48.12L312.256,48.12z"/>
        </symbol>
		<symbol id="trash" viewBox="0 0 448 512">
			<title>trash</title>
			<path class="path-1" fill="currentColor" d="M192,188v216c0,6.627-5.373,12-12,12h-24c-6.627,0-12-5.373-12-12V188c0-6.627,5.373-12,12-12h24
                C186.627,176,192,181.373,192,188z M292,176h-24c-6.627,0-12,5.373-12,12v216c0,6.627,5.373,12,12,12h24c6.627,0,12-5.373,12-12V188
                C304,181.373,298.627,176,292,176z M424,80c13.255,0,24,10.745,24,24v12c0,6.627-5.373,12-12,12h-20v336c0,26.51-21.49,48-48,48H80
                c-26.51,0-48-21.49-48-48V128H12c-6.627,0-12-5.373-12-12v-12c0-13.255,10.745-24,24-24h74.411l34.018-56.696
                C141.104,8.846,156.729,0,173.589,0h100.823c16.86,0,32.485,8.846,41.16,23.304L349.589,80H424z M154.389,80h139.223L276.16,50.913
                c-1.084-1.807-3.038-2.913-5.145-2.913h-94.028c-2.107,0-4.061,1.106-5.145,2.913L154.389,80z M368,128H80v330c0,3.313,2.687,6,6,6
                h276c3.313,0,6-2.687,6-6V128z"/>
		</symbol>
		<symbol id="textbox" viewBox="0 0 512 512">
			<title>textbox</title>
			<path class="path-1" fill="currentColor" d="M96,0H0v96h96V0z M512,0h-96v96h96V0z M512,416h-96v96h96V416z M96,416H0v96h96V416z M387,181h10l-2-70H112l-2,70h10
                c3-19,7-33,13-42c6-8,12-14,19-15c6-2,18-3,34-3h47v206c0,23-1,38-2,45c-1.001,7-4,12-9,16c-5,3-13,5-27,5h-14v10h146v-10h-15
                c-13,0-21.001-2-26-5c-5-3-8.001-8.001-9.001-15.001c-2-6-2-22-2-45.999V121h43c19,0,31,1,38,2c6,2,12,8,18,17
                C380,149,384,162,387,181 M296,32h-80v32h80V32z M400,32h-80v32h80V32z M192,32h-80v32h80V32z M296,448h-80v32h80V448z M400,448h-80
                v32h80V448z M192,448h-80v32h80V448z M480,216h-32v80h32V216z M480,320h-32v80h32V320z M480,112h-32v80h32V112z M64,216H32v80h32
                V216z M64,320H32v80h32V320z M64,112H32v80h32V112z"/>
		</symbol>
		<symbol id="line" viewBox="0 0 512 512">
			<title>line</title>
			<path class="path-1" fill="currentColor" d="M416 174l0-126-320 0 0 127-48 0 0-175 416 0 0 174z m-320 290l320 0 0-128 48 0 0 176-416 0 0-176 48 0z m-96-184l512 0 0-48-512 0z"/>
		</symbol>
		<symbol id="paragraph" viewBox="0 0 439 512">
			<title>paragraph</title>
			<path class="path-1" fill="currentColor" d="M425.281,0H189.305C85.668,0,0.29,83.293,0.001,186.897C-0.288,290.488,83.93,374.857,187.49,374.857v123.429
				c0,7.573,6.143,13.714,13.718,13.714h36.583c7.577,0,13.719-6.141,13.719-13.714V64h45.729v434.286
				c0,7.573,6.143,13.714,13.72,13.714h36.583c7.575,0,13.718-6.141,13.718-13.714V64h64.021C432.857,64,439,57.859,439,50.286V13.714
				C439,6.141,432.857,0,425.281,0z M187.49,310.856c-68.082,0-123.469-55.37-123.469-123.428C64.021,119.371,119.408,64,187.49,64 V310.856z"/>
		</symbol>
		<symbol id="align-justify" viewBox="0 0 520 512">
			<title>align-justify</title>
			<path class="path-1" fill="currentColor" d="M520,13.964V51.2c0,7.711-6.254,13.963-13.966,13.963H13.967C6.254,65.164,0,58.911,0,51.2V13.964C0,6.252,6.254,0,13.967,0
                h492.067C513.746,0,520,6.252,520,13.964z M13.929,214.109h492.144c7.691,0,13.928-6.252,13.928-13.963v-37.236
                c0-7.711-6.236-13.964-13.928-13.964H13.929C6.237,148.945,0,155.198,0,162.909v37.236C0,207.857,6.237,214.109,13.929,214.109z
                M13.929,512h492.144c7.691,0,13.928-6.252,13.928-13.964V460.8c0-7.711-6.236-13.964-13.928-13.964H13.929
                C6.237,446.836,0,453.089,0,460.8v37.236C0,505.748,6.237,512,13.929,512z M506.034,297.891H13.967
                C6.254,297.891,0,304.143,0,311.854v37.236c0,7.711,6.254,13.964,13.967,13.964h492.067c7.712,0,13.966-6.252,13.966-13.964v-37.236
                C520,304.143,513.746,297.891,506.034,297.891z"/>
		</symbol>
		<symbol id="align-center" viewBox="0 0 520 512">
			<title>align-center</title>
			<path class="path-1" fill="currentColor" d="M408.571,13.964V51.2c0,7.711-6.236,13.963-13.928,13.963H125.357c-7.692,0-13.929-6.252-13.929-13.963V13.964
                C111.429,6.252,117.666,0,125.357,0h269.286C402.335,0,408.571,6.252,408.571,13.964z M13.929,214.109h492.144
                c7.691,0,13.928-6.252,13.928-13.963v-37.236c0-7.711-6.236-13.964-13.928-13.964H13.929C6.237,148.945,0,155.198,0,162.909v37.236
                C0,207.857,6.237,214.109,13.929,214.109z M13.929,512h492.144c7.691,0,13.928-6.252,13.928-13.964V460.8
                c0-7.711-6.236-13.964-13.928-13.964H13.929C6.237,446.836,0,453.089,0,460.8v37.236C0,505.748,6.237,512,13.929,512z
                M394.644,297.891H125.357c-7.692,0-13.929,6.252-13.929,13.963v37.236c0,7.711,6.237,13.964,13.929,13.964h269.286
                c7.691,0,13.928-6.252,13.928-13.964v-37.236C408.571,304.143,402.335,297.891,394.644,297.891z"/>
		</symbol>
		<symbol id="align-left" viewBox="0 0 520 512">
			<title>align-left</title>
			<path class="path-1" fill="currentColor" d="M297.143,13.964V51.2c0,7.711-6.236,13.963-13.928,13.963H13.929C6.236,65.164,0,58.911,0,51.2V13.964
                C0,6.252,6.236,0,13.929,0h269.286C290.906,0,297.143,6.252,297.143,13.964z M13.929,214.109h492.144
                c7.691,0,13.928-6.252,13.928-13.963v-37.236c0-7.711-6.236-13.964-13.928-13.964H13.929C6.237,148.945,0,155.198,0,162.909v37.236
                C0,207.857,6.237,214.109,13.929,214.109z M13.929,512h492.144c7.691,0,13.928-6.252,13.928-13.964V460.8
                c0-7.711-6.236-13.964-13.928-13.964H13.929C6.237,446.836,0,453.089,0,460.8v37.236C0,505.748,6.237,512,13.929,512z
                M283.215,297.891H13.929C6.236,297.891,0,304.143,0,311.854v37.236c0,7.711,6.236,13.964,13.929,13.964h269.286
                c7.691,0,13.928-6.252,13.928-13.964v-37.236C297.143,304.143,290.906,297.891,283.215,297.891z"/>
		</symbol>
		<symbol id="align-right" viewBox="0 0 520 512">
			<title>align-right</title>
			<path class="path-1" fill="currentColor" d="M520,13.964V51.2c0,7.711-6.236,13.963-13.928,13.963H236.786c-7.692,0-13.929-6.252-13.929-13.963V13.964
                C222.857,6.252,229.094,0,236.786,0h269.286C513.764,0,520,6.252,520,13.964z M13.929,214.109h492.144
                c7.691,0,13.928-6.252,13.928-13.963v-37.236c0-7.711-6.236-13.964-13.928-13.964H13.929C6.237,148.945,0,155.198,0,162.909v37.236
                C0,207.857,6.237,214.109,13.929,214.109z M13.929,512h492.144c7.691,0,13.928-6.252,13.928-13.964V460.8
                c0-7.711-6.236-13.964-13.928-13.964H13.929C6.237,446.836,0,453.089,0,460.8v37.236C0,505.748,6.237,512,13.929,512z
                M506.072,297.891H236.786c-7.692,0-13.929,6.252-13.929,13.963v37.236c0,7.711,6.236,13.964,13.929,13.964h269.286
                c7.691,0,13.928-6.252,13.928-13.964v-37.236C520,304.143,513.764,297.891,506.072,297.891z"/>
		</symbol>
		<symbol id="indent" viewBox="0 0 522 512">
			<title>indent</title>
			<path class="path-1" fill="currentColor" d="M0,51.2V13.964C0,6.252,6.261,0,13.982,0h494.036C515.74,0,522,6.252,522,13.964V51.2c0,7.711-6.26,13.963-13.981,13.963
                H13.982C6.261,65.164,0,58.911,0,51.2z M200.411,214.109h307.607c7.722,0,13.981-6.252,13.981-13.963V162.91
                c0-7.711-6.26-13.964-13.981-13.964H200.411c-7.722,0-13.982,6.252-13.982,13.964v37.236
                C186.429,207.857,192.689,214.109,200.411,214.109z M13.982,512h494.036c7.722,0,13.981-6.252,13.981-13.964v-37.235
                c0-7.712-6.26-13.965-13.981-13.965H13.982C6.261,446.836,0,453.089,0,460.801v37.235C0,505.748,6.261,512,13.982,512z
                M200.411,363.055h307.607c7.722,0,13.981-6.252,13.981-13.964v-37.236c0-7.711-6.26-13.963-13.981-13.963H200.411
                c-7.722,0-13.982,6.252-13.982,13.963v37.236C186.429,356.802,192.689,363.055,200.411,363.055z M143.682,242.836L31.824,131.146
                C20.118,119.449,0,127.739,0,144.31v223.39c0,16.673,20.187,24.789,31.824,13.164l111.858-111.7
                C150.963,261.894,150.963,250.106,143.682,242.836z"/>
		</symbol>
		<symbol id="outdent" viewBox="0 0 522 512">
			<title>outdent</title>
			<path class="path-1" fill="currentColor" d="M0,51.2V13.964C0,6.252,6.261,0,13.982,0h494.036C515.74,0,522,6.252,522,13.964V51.2c0,7.711-6.26,13.963-13.981,13.963
                H13.982C6.261,65.164,0,58.911,0,51.2z M237.697,214.109h270.322c7.722,0,13.981-6.252,13.981-13.963v-37.236
                c0-7.711-6.26-13.964-13.981-13.964H237.697c-7.722,0-13.982,6.252-13.982,13.964v37.236
                C223.714,207.857,229.975,214.109,237.697,214.109z M13.982,512h494.036c7.722,0,13.981-6.252,13.981-13.964V460.8
                c0-7.711-6.26-13.964-13.981-13.964H13.982C6.261,446.836,0,453.089,0,460.8v37.236C0,505.748,6.261,512,13.982,512z
                M237.697,363.055h270.322c7.722,0,13.981-6.252,13.981-13.964v-37.236c0-7.711-6.26-13.963-13.981-13.963H237.697
                c-7.722,0-13.982,6.252-13.982,13.963v37.236C223.714,356.802,229.975,363.055,237.697,363.055z M5.461,269.164l111.857,111.69
                c11.707,11.696,31.825,3.406,31.825-13.164V144.3c0-16.673-20.187-24.79-31.825-13.164L5.461,242.836
                C-1.82,250.106-1.82,261.894,5.461,269.164z"/>
		</symbol>
		<symbol id="undo" viewBox="0 0 512 512">
			<title>undo</title>
			<path class="path-1" fill="currentColor" d="M215.562,227.894H12.183C5.455,227.894,0,222.436,0,215.704V12.19C0,5.458,5.455,0,12.183,0h48.729
                c6.728,0,12.183,5.458,12.183,12.19v79.352C119.564,39.902,187.061,7.588,262.1,8.134c138.988,1.01,250.195,113.395,249.899,252.478
                C511.705,399.5,399.098,512,260.23,512c-65.063,0-124.358-24.698-169.042-65.234c-5.177-4.695-5.415-12.753-0.474-17.696
                l34.483-34.506c4.542-4.545,11.839-4.792,16.65-0.533c31.507,27.899,72.948,44.828,118.382,44.828
                c98.746,0,178.676-79.965,178.676-178.794c0-98.811-79.912-178.793-178.676-178.793c-59.386,0-111.957,28.928-144.437,73.481h99.768
                c6.728,0,12.183,5.458,12.183,12.19v48.762C227.744,222.436,222.289,227.894,215.562,227.894L215.562,227.894z"/>
		</symbol>
		<symbol id="redo" viewBox="0 0 512 512">
			<title>redo</title>
			<path class="path-1" fill="currentColor" d="M507.817,0h-48.131c-6.958,0-12.501,5.82-12.169,12.774l4.026,84.072C405.366,42.564,336.593,8.127,259.771,8.127
                C121.032,8.127,7.897,121.423,8,260.253C8.103,399.307,120.786,512,259.771,512c64.897,0,124.06-24.571,168.704-64.923
                c5.19-4.691,5.436-12.76,0.489-17.709l-34.486-34.511c-4.535-4.537-11.817-4.792-16.631-0.551
                c-31.472,27.737-72.792,44.551-118.076,44.551c-98.746,0-178.676-79.965-178.676-178.794c0-98.811,79.912-178.793,178.676-178.793
                c61.817,0,116.246,31.348,148.32,79.035l-103.068-4.942c-6.949-0.333-12.766,5.214-12.766,12.176v48.164
                c0,6.732,5.455,12.191,12.182,12.191h203.378c6.729,0,12.183-5.458,12.183-12.191V12.19C520,5.458,514.546,0,507.817,0z"/>
		</symbol>
		<symbol id="cut" viewBox="0 0 512 512">
			<title>cut</title>
			<path class="path-1" fill="currentColor" d="M301.017,256L509.326,47.28c3.565-3.566,3.565-9.36,0-12.926c-21.418-21.417-56.161-21.417-77.577,0L255.794,210.686
                l-49.256-49.349c8.228-15.383,12.891-32.959,12.891-51.623C219.429,49.12,170.309,0,109.714,0S0,49.12,0,109.714
                s49.12,109.714,109.714,109.714c18.64,0,36.183-4.651,51.554-12.846L210.583,256l-49.314,49.417
                c-15.371-8.195-32.914-12.846-51.554-12.846C49.12,292.571,0,341.691,0,402.286C0,462.88,49.12,512,109.714,512
                s109.714-49.12,109.714-109.714c0-18.663-4.663-36.24-12.891-51.623l49.256-49.349l175.942,176.333
                c21.418,21.416,56.161,21.416,77.578,0c3.565-3.566,3.565-9.36,0-12.927L301.017,256z M109.714,164.571
                c-30.252,0-54.857-24.605-54.857-54.857c0-30.251,24.605-54.857,54.857-54.857c30.251,0,54.857,24.606,54.857,54.857
                C164.571,139.966,139.966,164.571,109.714,164.571z M109.714,457.143c-30.252,0-54.857-24.605-54.857-54.856
                c0-30.252,24.605-54.857,54.857-54.857c30.251,0,54.857,24.605,54.857,54.857C164.571,432.537,139.966,457.143,109.714,457.143z"/>
		</symbol>
		<symbol id="clone" viewBox="0 0 512 512">
			<title>clone</title>
			<path class="path-1" fill="currentColor" d="M464,0H144c-26.51,0-48,21.49-48,48v48H48c-26.51,0-48,21.49-48,48v320c0,26.51,21.49,48,48,48h320c26.51,0,48-21.49,48-48
                v-48h48c26.51,0,48-21.49,48-48V48C512,21.49,490.51,0,464,0z M362,464H54c-3.313,0-6-2.687-6-6V150c0-3.313,2.687-6,6-6h42v224
                c0,26.51,21.49,48,48,48h224v42C368,461.313,365.313,464,362,464z M458,368H150c-3.313,0-6-2.687-6-6V54c0-3.313,2.687-6,6-6h308
                c3.313,0,6,2.687,6,6v308C464,365.313,461.313,368,458,368z"/>
		</symbol>
		<symbol id="paste" viewBox="0 0 448 512">
			<title>paste</title>
			<path class="path-1" fill="currentColor" d="M433.941,193.941l-51.883-51.882c-9.001-9.002-21.21-14.059-33.94-14.059H320V80c0-26.51-21.49-48-48-48h-66.752
                C198.643,13.377,180.858,0,160,0s-38.643,13.377-45.248,32H48C21.49,32,0,53.49,0,80v288c0,26.51,21.49,48,48,48h80v48
                c0,26.51,21.49,48,48,48h224c26.51,0,48-21.49,48-48V227.882C448,215.152,442.942,202.943,433.941,193.941L433.941,193.941z
                M411.314,216.568c2.05,2.048,3.5,4.619,4.194,7.432H352v-63.509c2.813,0.694,5.383,2.145,7.431,4.195L411.314,216.568z M160,30
                c9.941,0,18,8.059,18,18s-8.059,18-18,18s-18-8.059-18-18S150.059,30,160,30z M48,384c-8.822,0-16-7.178-16-16V80
                c0-8.822,7.178-16,16-16h66.752c6.605,18.623,24.389,32,45.248,32s38.643-13.377,45.248-32H272c8.822,0,16,7.178,16,16v48H176
                c-26.51,0-48,21.49-48,48v208H48z M400,480H176c-8.822,0-16-7.178-16-16V176c0-8.822,7.178-16,16-16h144v72c0,13.2,10.8,24,24,24h72
                v208C416,472.822,408.822,480,400,480z"/>
		</symbol>
		<symbol id="block-align-fit" viewBox="0 0 512 512">
			<title>block-align-fit</title>
			<path class="path-1" fill="currentColor" d="M0 512l512 0 0-80-512 0z m0-432l512 0 0-80-512 0z m0 288l512 0 0-224-512 0z"/>
		</symbol>
		<symbol id="block-align-wide" viewBox="0 0 512 512">
			<title>block-align-wide</title>
			<path class="path-1" fill="currentColor" d="M80 512l352 0 0-80-352 0z m0-432l352 0 0-80-352 0z m-80 288l512 0 0-224-512 0z"/>
		</symbol>
		<symbol id="block-align-wide-full" viewBox="0 0 512 512">
			<title>block-align-wide-full</title>
			<path class="path-1" fill="currentColor" d="M0 512l32 0 0-512-32 0z m480 0l32 0 0-512-32 0z m-368 0l288 0 0-80-288 0z m0-432l288 0 0-80-288 0z m-112 288l512 0 0-224-512 0z"/>
		</symbol>
		<symbol id="block-align-left" viewBox="0 0 512 512">
			<title>block-align-left</title>
			<path class="path-1" fill="currentColor" d="M0 512l512 0 0-80-512 0z m0-432l512 0 0-80-512 0z m368 144l144 0 0-80-144 0z m0 144l144 0 0-80-144 0z m-368 0l304 0 0-224-304 0z"/>
		</symbol>
		<symbol id="block-align-left-more" viewBox="0 0 512 512">
			<title>block-align-left-more</title>
			<path class="path-1" fill="currentColor" d="M176 512l336 0 0-80-336 0z m0-432l336 0 0-80-336 0z m192 144l144 0 0-80-144 0z m0 144l144 0 0-80-144 0z m-368 0l304 0 0-224-304 0z"/>
		</symbol>
		<symbol id="block-align-right" viewBox="0 0 512 512">
			<title>block-align-right</title>
			<path class="path-1" fill="currentColor" d="M0 512l512 0 0-80-512 0z m0-432l512 0 0-80-512 0z m0 144l144 0 0-80-144 0z m0 144l144 0 0-80-144 0z m208 0l304 0 0-224-304 0z"/>
		</symbol>
		<symbol id="block-align-right-more" viewBox="0 0 512 512">
			<title>block-align-right-more</title>
			<path class="path-1" fill="currentColor" d="M0 512l336 0 0-80-336 0z m0-432l336 0 0-80-336 0z m0 144l144 0 0-80-144 0z m0 144l144 0 0-80-144 0z m208 0l304 0 0-224-304 0z"/>
		</symbol>
        <symbol id="bars" viewBox="0 0 585 512">
            <title>bars</title>
            <path class="path-1" fill="currentColor" d="M20.893,94.041h543.214c11.539,0,20.893-9.356,20.893-20.898V20.898C585,9.356,575.646,0,564.107,0H20.893
                C9.354,0,0,9.356,0,20.898v52.245C0,84.685,9.354,94.041,20.893,94.041z M20.893,303.021h543.214
                c11.539,0,20.893-9.356,20.893-20.898v-52.245c0-11.542-9.354-20.898-20.893-20.898H20.893C9.354,208.979,0,218.335,0,229.877
                v52.245C0,293.664,9.354,303.021,20.893,303.021z M20.893,512h543.214c11.539,0,20.893-9.355,20.893-20.898v-52.244
                c0-11.542-9.354-20.898-20.893-20.898H20.893C9.354,417.959,0,427.315,0,438.857v52.244C0,502.645,9.354,512,20.893,512z" />
        </symbol>
        <symbol id="plus" viewBox="0 0 512 512">
            <title>plus</title>
            <path class="path-1" fill="currentColor" d="M475.429,201.143H310.857V36.571C310.857,16.377,294.479,0,274.286,0h-36.572c-20.194,0-36.571,16.377-36.571,36.571
                v164.572H36.571C16.377,201.143,0,217.52,0,237.714v36.572c0,20.193,16.377,36.571,36.571,36.571h164.572v164.571
                c0,20.194,16.377,36.571,36.571,36.571h36.572c20.193,0,36.571-16.377,36.571-36.571V310.857h164.571
                c20.194,0,36.571-16.378,36.571-36.571v-36.572C512,217.52,495.623,201.143,475.429,201.143z" />
        </symbol>
        <symbol id="pencil" viewBox="0 0 512 512">
            <title>pencil</title>
            <path class="path-1" fill="currentColor" d="M497.899,142.03l-46.103,46.103c-4.7,4.699-12.3,4.699-17.001,0L323.791,77.128c-4.7-4.7-4.7-12.301,0-17l46.103-46.103
                c18.7-18.7,49.103-18.7,67.903,0l60.103,60.103C516.7,92.828,516.7,123.229,497.899,142.03z M284.189,99.729L21.578,362.34
                L0.376,483.844c-2.9,16.4,11.4,30.602,27.801,27.802l121.506-21.301l262.612-262.611c4.7-4.699,4.7-12.3,0-17L301.29,99.729
                C296.49,95.029,288.891,95.029,284.189,99.729L284.189,99.729z M87.98,423.941h48.002v36.302l-64.503,11.3l-31.102-31.101
                l11.301-64.503H87.98V423.941z" />
        </symbol>
        <symbol id="cc" viewBox="0 0 682 512">
            <title>cc</title>
            <path class="path-1" fill="currentColor" d="M618.063,0H63.938C28.639,0,0,28.667,0,64v384c0,35.333,28.639,64,63.938,64h554.125C653.361,512,682,483.333,682,448V64
                C682,28.667,653.361,0,618.063,0z M290.516,298.267c3.729-3.333,9.458-2.801,12.255,1.199l25.975,36.934
                c2.265,3.201,1.998,7.468-0.667,10.268c-71.396,75.732-230.174,42.799-230.174-90.533c0-129.734,162.108-159.333,229.775-93.467
                c2.797,2.667,3.33,4.267,1.332,7.601l-23.311,40.667c-2.531,4.133-8.259,5.333-12.122,2.267
                c-54.346-42.667-126.01-19.867-126.01,41.6C167.703,318.8,235.636,348.8,290.516,298.267z M544.135,298.267
                c3.729-3.333,9.457-2.801,12.255,1.199l25.975,36.934c2.265,3.201,1.998,7.468-0.667,10.268
                c-71.263,75.867-230.041,42.799-230.041-90.533c0-129.734,162.107-159.333,229.775-93.467c2.797,2.667,3.329,4.267,1.331,7.601
                l-23.31,40.667c-2.532,4.133-8.259,5.333-12.121,2.267c-54.349-42.667-126.011-19.867-126.011,41.6
                C421.321,318.8,489.255,348.8,544.135,298.267L544.135,298.267z" />
        </symbol>
        <symbol id="search-plus" viewBox="0 0 512 512">
            <title>search-plus</title>
            <path class="path-1" fill="currentColor" d="M311.984,195.99v23.999c0,6.6-5.4,11.999-11.999,11.999h-67.997v67.997c0,6.599-5.399,11.999-11.999,11.999H195.99
                c-6.6,0-12-5.4-12-11.999v-67.997h-67.997c-6.6,0-12-5.399-12-11.999V195.99c0-6.6,5.4-12,12-12h67.997v-67.997c0-6.6,5.4-12,12-12
                h23.999c6.6,0,11.999,5.4,11.999,12v67.997h67.997C306.584,183.991,311.984,189.391,311.984,195.99z M508.475,485.876
                l-22.599,22.599c-4.699,4.7-12.3,4.7-16.999,0L347.482,387.08c-2.3-2.3-3.499-5.299-3.499-8.499v-13.199
                c-36.499,31.499-83.996,50.598-135.994,50.598C93.096,415.979,0,322.885,0,207.99C0,93.096,93.096,0,207.99,0
                c114.895,0,207.99,93.096,207.99,207.99c0,51.998-19.099,99.495-50.598,135.994h13.199c3.2,0,6.199,1.299,8.499,3.499
                l121.395,121.395C513.175,473.576,513.175,481.177,508.475,485.876z M367.981,207.99c0-88.396-71.596-159.992-159.992-159.992
                c-88.396,0-159.992,71.597-159.992,159.992c0,88.396,71.597,159.992,159.992,159.992
                C296.386,367.981,367.981,296.386,367.981,207.99z" />
        </symbol>
        <symbol id="search-minus" viewBox="0 0 512 512">
            <title>search-minus</title>
            <path class="path-1" fill="currentColor" d="M311.984,195.99v23.999c0,6.6-5.4,11.999-11.999,11.999H115.994c-6.6,0-12-5.399-12-11.999V195.99c0-6.6,5.4-12,12-12
                h183.991C306.584,183.991,311.984,189.391,311.984,195.99z M508.475,485.876l-22.599,22.599c-4.699,4.7-12.3,4.7-16.999,0
                L347.482,387.08c-2.3-2.3-3.499-5.299-3.499-8.499v-13.199c-36.499,31.499-83.996,50.598-135.994,50.598
                C93.096,415.979,0,322.885,0,207.99C0,93.096,93.096,0,207.99,0c114.895,0,207.99,93.096,207.99,207.99
                c0,51.998-19.099,99.495-50.598,135.994h13.199c3.2,0,6.199,1.299,8.499,3.499l121.395,121.395
                C513.175,473.576,513.175,481.177,508.475,485.876z M367.981,207.99c0-88.396-71.596-159.992-159.992-159.992
                c-88.396,0-159.992,71.597-159.992,159.992c0,88.396,71.597,159.992,159.992,159.992
                C296.386,367.981,367.981,296.386,367.981,207.99z" />
        </symbol>
        <symbol id="caret-up" viewBox="0 0 902 512">
            <title>caret-up</title>
            <path class="path-1" fill="currentColor" d="M841.22,511.999H60.778c-54.04,0-81.102-65.396-42.891-103.645l390.22-390.573c23.688-23.708,62.096-23.708,85.783,0
                l390.222,390.573C922.325,446.603,895.261,511.999,841.22,511.999L841.22,511.999z" />
        </symbol>
        <symbol id="caret-down" viewBox="0 0 902 512">
            <title>caret-down</title>
            <path class="path-1" fill="currentColor" d="M60.691,0h780.615c54.006,0,81.005,65.271,42.779,103.523L493.93,494.24c-23.665,23.68-62.194,23.68-85.859,0
                L17.915,103.523C-20.313,65.271,6.689,0,60.691,0z" />
        </symbol>
        <symbol id="caret-left" viewBox="0 0 290 512">
            <title>caret-left</title>
            <path class="path-1" fill="currentColor" d="M290,34.5v443c0,30.675-37.042,46.036-58.705,24.346L10.071,280.348c-13.428-13.446-13.428-35.249,0-48.694l221.224-221.5
                C252.958-11.537,290,3.826,290,34.5z" />
        </symbol>
        <symbol id="caret-right" viewBox="0 0 290 512">
            <title>caret-right</title>
            <path class="path-1" fill="currentColor" d="M0,477.5v-443C0,3.825,37.041-11.536,58.705,10.153l221.224,221.5c13.429,13.445,13.429,35.248,0,48.694L58.705,501.846
                C37.041,523.538,0,508.175,0,477.5z" />
        </symbol>
        <symbol id="mobile" viewBox="0 0 320 512">
            <title>mobile</title>
            <path class="path-1" fill="currentColor" d="M272 0H48C21.5 0 0 21.5 0 48v416c0 26.5 21.5 48 48 48h224c26.5 0 48-21.5 48-48V48c0-26.5-21.5-48-48-48zM160 480
                c-17.7 0-32-14.3-32-32s14.3-32 32-32 32 14.3 32 32-14.3 32-32 32zm112-108c0 6.6-5.4 12-12 12H60c-6.6 0-12-5.4-12-12V60c0-6.6 5.4-12 12-12h200c6.6 0 12 5.4 12 12v312z" />
        </symbol>
        <symbol id="tablet" viewBox="0 0 448 512">
            <title>tablet</title>
            <path class="path-1" fill="currentColor" d="M256 416c0 17.7-14.3 32-32 32s-32-14.3-32-32c0-21.3 14.3-32 32-32s32 14.3 32 32zM448 48v416c0 26.5-21.5 48-48 48H48c-26.5 0-48-21.5-48-48
                V48C0 21.5 21.5 0 48 0h352c26.5 0 48 21.5 48 48zm-32 0c0-8.8-7.2-16-16-16H48c-8.8 0-16 7.2-16 16v416c0 8.8 7.2 16 16 16h352c8.8 0 16-7.2 16-16V48z" />
        </symbol>
        <symbol id="television" viewBox="0 0 640 512">
            <title>television</title>
            <path class="path-1" fill="currentColor" d="M592 0H48C21.5 0 0 21.5 0 48v320c0 26.5 21.5 48 48 48h248v48H152c-13.3 0-24 10.7-24 24s10.7 24 24 24h336c13.3 0 24-10.7 24-24s-10.7-24-24-24
                H344v-48h248c26.5 0 48-21.5 48-48V48c0-26.5-21.5-48-48-48zm-6 368H54c-3.3 0-6-2.7-6-6V54c0-3.3 2.7-6 6-6h532c3.3 0 6 2.7 6 6v308c0 3.3-2.7 6-6 6z" />
        </symbol>
        <symbol id="cog" viewBox="0 0 490 512">
            <title>cog</title>
            <path class="path-1" fill="currentColor" d="M439.824,292.232l43.979,25.393c5.023,2.899,7.354,8.896,5.633,14.436c-11.423,36.793-30.929,70.031-56.438,97.637
                c-3.932,4.259-10.287,5.225-15.307,2.328l-43.946-25.389c-18.488,15.847-39.746,28.141-62.7,36.263v50.769
                c0,5.8-4.021,10.825-9.677,12.096c-36.074,8.104-74.818,8.522-112.712,0.008c-5.666-1.272-9.704-6.293-9.704-12.102v-50.771
                c-22.955-8.122-44.212-20.415-62.701-36.263l-43.946,25.389c-5.02,2.896-11.375,1.931-15.307-2.328
                c-25.508-27.605-45.014-60.844-56.438-97.637c-1.72-5.538,0.611-11.535,5.634-14.436l43.979-25.393
                c-4.417-23.952-4.417-48.511,0-72.464L6.197,194.376c-5.023-2.899-7.354-8.896-5.634-14.436C11.986,143.148,31.491,109.91,57,82.303
                c3.932-4.257,10.287-5.224,15.307-2.327l43.946,25.389C134.742,89.519,156,77.224,178.955,69.102v-50.77
                c0-5.799,4.02-10.824,9.676-12.096c36.074-8.103,74.817-8.522,112.712-0.007c5.665,1.272,9.704,6.292,9.704,12.101v50.771
                c22.955,8.122,44.213,20.416,62.701,36.263l43.945-25.388c5.02-2.897,11.375-1.931,15.307,2.327
                c25.508,27.607,45.015,60.845,56.438,97.637c1.721,5.54-0.609,11.536-5.633,14.436l-43.98,25.393
                C444.242,243.721,444.242,268.279,439.824,292.232L439.824,292.232z M327.558,256c0-45.535-37.035-82.581-82.558-82.581
                S162.441,210.465,162.441,256c0,45.534,37.036,82.581,82.559,82.581S327.558,301.534,327.558,256z" />
        </symbol>
        <symbol id="expand" viewBox="0 0 512 512">
            <title>expand</title>
            <path class="path-1" fill="currentColor" d="M0,169.143V27.429C0,12.229,12.229,0,27.429,0h141.714c7.543,0,13.714,6.171,13.714,13.714v27.429
                c0,7.543-6.171,13.714-13.714,13.714H54.857v114.286c0,7.543-6.171,13.714-13.714,13.714H13.714C6.171,182.857,0,176.686,0,169.143z
                M329.143,13.714v27.429c0,7.543,6.172,13.714,13.715,13.714h114.285v114.286c0,7.543,6.172,13.714,13.715,13.714h27.429
                c7.542,0,13.714-6.171,13.714-13.714V27.429C512,12.229,499.771,0,484.571,0H342.857C335.314,0,329.143,6.171,329.143,13.714z
                M498.286,329.143h-27.429c-7.543,0-13.715,6.172-13.715,13.715v114.285H342.857c-7.543,0-13.715,6.172-13.715,13.715v27.429
                c0,7.542,6.172,13.714,13.715,13.714h141.714c15.2,0,27.429-12.229,27.429-27.429V342.857
                C512,335.314,505.828,329.143,498.286,329.143z M182.857,498.286v-27.429c0-7.543-6.171-13.715-13.714-13.715H54.857V342.857
                c0-7.543-6.171-13.715-13.714-13.715H13.714C6.171,329.143,0,335.314,0,342.857v141.714C0,499.771,12.229,512,27.429,512h141.714
                C176.686,512,182.857,505.828,182.857,498.286z" />
        </symbol>      
    </defs>
</svg>