<?xml version="1.0" encoding="utf-8"?>
<!-- Generator: Adobe Illustrator 16.0.0, SVG Export Plug-In . SVG Version: 6.00 Build 0)  -->
<!DOCTYPE svg PUBLIC "-//W3C//DTD SVG 1.1//EN" "http://www.w3.org/Graphics/SVG/1.1/DTD/svg11.dtd">
<svg version="1.1" id="Layer_2" xmlns="http://www.w3.org/2000/svg" xmlns:xlink="http://www.w3.org/1999/xlink" x="0px" y="0px"
	 width="1000px" height="1000px" viewBox="0 0 1000 1000" enable-background="new 0 0 1000 1000" xml:space="preserve">
<g id="default" display="none">
	<g id="default_doc" display="inline">
		<line fill="none" stroke="#2E3192" stroke-miterlimit="10" x1="372.989" y1="268.75" x2="372.989" y2="752.736"/>
		<line fill="none" stroke="#2E3192" stroke-miterlimit="10" x1="71.665" y1="347.414" x2="71.665" y2="664.932"/>
		<line fill="none" stroke="#2E3192" stroke-miterlimit="10" x1="681.646" y1="342.081" x2="681.646" y2="678.072"/>
		<line fill="none" stroke="#2E3192" stroke-miterlimit="10" x1="90.331" y1="342.081" x2="90.331" y2="672.739"/>
		<line fill="none" stroke="#2E3192" stroke-miterlimit="10" x1="108.996" y1="334.082" x2="108.996" y2="678.072"/>
		<line fill="none" stroke="#2E3192" stroke-miterlimit="10" x1="127.662" y1="328.082" x2="127.662" y2="693.405"/>
		<line fill="none" stroke="#2E3192" stroke-miterlimit="10" x1="146.329" y1="320.749" x2="146.329" y2="693.405"/>
		<line fill="none" stroke="#2E3192" stroke-miterlimit="10" x1="165.302" y1="316.749" x2="165.302" y2="707.403"/>
		<line fill="none" stroke="#2E3192" stroke-miterlimit="10" x1="184.688" y1="311.416" x2="184.688" y2="715.403"/>
		<line fill="none" stroke="#2E3192" stroke-miterlimit="10" x1="204.327" y1="311.416" x2="204.327" y2="720.736"/>
		<line fill="none" stroke="#2E3192" stroke-miterlimit="10" x1="223.659" y1="304.749" x2="223.659" y2="730.736"/>
		<line fill="none" stroke="#2E3192" stroke-miterlimit="10" x1="243.353" y1="302.236" x2="243.353" y2="725.557"/>
		<line fill="none" stroke="#2E3192" stroke-miterlimit="10" x1="263.352" y1="296.083" x2="263.352" y2="737.403"/>
		<line fill="none" stroke="#2E3192" stroke-miterlimit="10" x1="284.991" y1="296.083" x2="284.991" y2="733.402"/>
		<line fill="none" stroke="#2E3192" stroke-miterlimit="10" x1="306.837" y1="291.056" x2="306.837" y2="739.043"/>
		<line fill="none" stroke="#2E3192" stroke-miterlimit="10" x1="329.657" y1="288.082" x2="329.657" y2="733.402"/>
		<line fill="none" stroke="#2E3192" stroke-miterlimit="10" x1="351.296" y1="288.082" x2="351.296" y2="739.043"/>
		<line fill="none" stroke="#2E3192" stroke-miterlimit="10" x1="663.494" y1="341.261" x2="663.494" y2="671.919"/>
		<line fill="none" stroke="#2E3192" stroke-miterlimit="10" x1="643.621" y1="333.261" x2="643.621" y2="677.252"/>
		<line fill="none" stroke="#2E3192" stroke-miterlimit="10" x1="623.748" y1="327.262" x2="623.748" y2="692.585"/>
		<line fill="none" stroke="#2E3192" stroke-miterlimit="10" x1="603.875" y1="319.928" x2="603.875" y2="692.585"/>
		<line fill="none" stroke="#2E3192" stroke-miterlimit="10" x1="582.67" y1="315.929" x2="582.67" y2="706.584"/>
		<line fill="none" stroke="#2E3192" stroke-miterlimit="10" x1="539.737" y1="310.596" x2="539.737" y2="714.583"/>
		<line fill="none" stroke="#2E3192" stroke-miterlimit="10" x1="561.836" y1="310.596" x2="561.836" y2="719.916"/>
		<line fill="none" stroke="#2E3192" stroke-miterlimit="10" x1="518.852" y1="303.929" x2="518.852" y2="729.916"/>
		<line fill="none" stroke="#2E3192" stroke-miterlimit="10" x1="497.545" y1="301.416" x2="497.545" y2="724.737"/>
		<line fill="none" stroke="#2E3192" stroke-miterlimit="10" x1="477.366" y1="295.263" x2="477.366" y2="736.583"/>
		<line fill="none" stroke="#2E3192" stroke-miterlimit="10" x1="457.187" y1="295.263" x2="457.187" y2="732.583"/>
		<line fill="none" stroke="#2E3192" stroke-miterlimit="10" x1="437.213" y1="290.235" x2="437.213" y2="738.224"/>
		<line fill="none" stroke="#2E3192" stroke-miterlimit="10" x1="416.574" y1="287.262" x2="416.574" y2="732.583"/>
		<line fill="none" stroke="#2E3192" stroke-miterlimit="10" x1="394.755" y1="287.262" x2="394.755" y2="738.224"/>
	</g>
	<g id="default_ngang" display="inline">
		<path fill="none" stroke="#2E3192" stroke-miterlimit="10" d="M69.205,366.747c0,0,152.456-65.332,303.784-65.332
			c151.328,0,311.118,65.331,311.118,65.331"/>
		<path fill="none" stroke="#2E3192" stroke-miterlimit="10" d="M69.205,649.406c0,0,152.456,65.995,303.784,65.995
			c151.328,0,311.118-65.995,311.118-65.995"/>
		<path fill="none" stroke="#2E3192" stroke-miterlimit="10" d="M69.205,380.081c0,0,151.999-54.666,303.784-54.666
			s311.118,54.666,311.118,54.666"/>
		<path fill="none" stroke="#2E3192" stroke-miterlimit="10" d="M69.205,396.08c0,0,151.123-48.666,303.784-48.666
			s311.118,48.666,311.118,48.666"/>
		<path fill="none" stroke="#2E3192" stroke-miterlimit="10" d="M69.205,412.079c0,0,152.456-44.511,303.784-44.511
			c151.328,0,311.118,44.511,311.118,44.511"/>
		<path fill="none" stroke="#2E3192" stroke-miterlimit="10" d="M69.205,428.079c0,0,152.456-38.053,303.784-38.053
			c151.328,0,311.118,38.053,311.118,38.053"/>
		<path fill="none" stroke="#2E3192" stroke-miterlimit="10" d="M69.205,445.411c0,0,152.822-33.898,303.784-33.898
			s311.118,33.898,311.118,33.898"/>
		<path fill="none" stroke="#2E3192" stroke-miterlimit="10" d="M69.205,463.411c0,0,152.456-26.313,303.784-26.313
			c151.328,0,311.118,26.313,311.118,26.313"/>
		<path fill="none" stroke="#2E3192" stroke-miterlimit="10" d="M69.205,479.41c0,0,152.456-15.546,303.784-15.546
			c151.328,0,311.118,15.546,311.118,15.546"/>
		<path fill="none" stroke="#2E3192" stroke-miterlimit="10" d="M69.205,496.743c0,0,151.123-6.626,303.784-6.626
			s311.118,6.626,311.118,6.626"/>
		<path fill="none" stroke="#2E3192" stroke-miterlimit="10" d="M69.205,512.742c0,0,152.456,1.219,303.784,1.219
			c151.328,0,311.118-1.219,311.118-1.219"/>
		<path fill="none" stroke="#2E3192" stroke-miterlimit="10" d="M69.205,528.077c0,0,152.456,8.04,303.784,8.04
			c151.328,0,311.118-8.04,311.118-8.04"/>
		<path fill="none" stroke="#2E3192" stroke-miterlimit="10" d="M69.205,545.409c0,0,152.346,13.939,303.784,13.939
			s311.118-13.939,311.118-13.939"/>
		<path fill="none" stroke="#2E3192" stroke-miterlimit="10" d="M69.205,562.074c0,0,151.788,22.398,303.784,22.398
			c151.996,0,311.118-22.398,311.118-22.398"/>
		<path fill="none" stroke="#2E3192" stroke-miterlimit="10" d="M69.205,580.741c0,0,151.788,30.913,303.784,30.913
			c151.996,0,311.118-30.913,311.118-30.913"/>
		<path fill="none" stroke="#2E3192" stroke-miterlimit="10" d="M69.205,596.074c0,0,151.788,42.553,303.784,42.553
			c151.996,0,311.118-42.553,311.118-42.553"/>
		<path fill="none" stroke="#2E3192" stroke-miterlimit="10" d="M69.205,612.739c0,0,152.456,52.19,303.784,52.19
			c151.328,0,311.118-52.19,311.118-52.19"/>
		<path fill="none" stroke="#2E3192" stroke-miterlimit="10" d="M69.205,629.406c0,0,151.788,59.991,303.784,59.991
			c151.996,0,311.118-59.991,311.118-59.991"/>
	</g>
</g>
<g id="moved">
	<g id="moved_doc">
		<line fill="none" stroke="#2E3192" stroke-miterlimit="10" x1="362.347" y1="218.835" x2="458.659" y2="709.025"/>
		<line fill="none" stroke="#2E3192" stroke-miterlimit="10" x1="72.814" y1="358.47" x2="135.999" y2="680.058"/>
		<line fill="none" stroke="#2E3192" stroke-miterlimit="10" x1="689.553" y1="231.684" x2="756.414" y2="571.981"/>
		<line fill="none" stroke="#2E3192" stroke-miterlimit="10" x1="90.657" y1="349.354" x2="156.458" y2="684.251"/>
		<line fill="none" stroke="#2E3192" stroke-miterlimit="10" x1="107.971" y1="337.538" x2="176.424" y2="685.938"/>
		<line fill="none" stroke="#2E3192" stroke-miterlimit="10" x1="125.682" y1="327.747" x2="198.381" y2="697.754"/>
		<line fill="none" stroke="#2E3192" stroke-miterlimit="10" x1="143.129" y1="316.605" x2="217.286" y2="694.038"/>
		<line fill="none" stroke="#2E3192" stroke-miterlimit="10" x1="161.549" y1="308.778" x2="239.288" y2="704.441"/>
		<line fill="none" stroke="#2E3192" stroke-miterlimit="10" x1="180.122" y1="299.519" x2="260.515" y2="708.686"/>
		<line fill="none" stroke="#2E3192" stroke-miterlimit="10" x1="200.013" y1="295.61" x2="281.467" y2="710.179"/>
		<line fill="none" stroke="#2E3192" stroke-miterlimit="10" x1="218.266" y1="285.012" x2="303.037" y2="716.459"/>
		<line fill="none" stroke="#2E3192" stroke-miterlimit="10" x1="237.712" y1="278.548" x2="321.952" y2="707.295"/>
		<line fill="none" stroke="#2E3192" stroke-miterlimit="10" x1="256.744" y1="268.335" x2="344.565" y2="715.313"/>
		<line fill="none" stroke="#2E3192" stroke-miterlimit="10" x1="278.659" y1="264.03" x2="365.685" y2="706.955"/>
		<line fill="none" stroke="#2E3192" stroke-miterlimit="10" x1="299.786" y1="254.59" x2="388.935" y2="708.32"/>
		<line fill="none" stroke="#2E3192" stroke-miterlimit="10" x1="322.307" y1="247.037" x2="410.924" y2="698.066"/>
		<line fill="none" stroke="#2E3192" stroke-miterlimit="10" x1="344.223" y1="242.732" x2="433.963" y2="699.474"/>
		<line fill="none" stroke="#2E3192" stroke-miterlimit="10" x1="671.006" y1="234.466" x2="736.806" y2="569.362"/>
		<line fill="none" stroke="#2E3192" stroke-miterlimit="10" x1="649.286" y1="230.318" x2="717.737" y2="578.717"/>
		<line fill="none" stroke="#2E3192" stroke-miterlimit="10" x1="627.965" y1="228.196" x2="700.661" y2="598.203"/>
		<line fill="none" stroke="#2E3192" stroke-miterlimit="10" x1="606.376" y1="224.724" x2="680.534" y2="602.158"/>
		<line fill="none" stroke="#2E3192" stroke-miterlimit="10" x1="584.104" y1="224.893" x2="661.844" y2="620.556"/>
		<line fill="none" stroke="#2E3192" stroke-miterlimit="10" x1="539.56" y1="228.035" x2="619.953" y2="637.2"/>
		<line fill="none" stroke="#2E3192" stroke-miterlimit="10" x1="561.94" y1="223.636" x2="643.396" y2="638.205"/>
		<line fill="none" stroke="#2E3192" stroke-miterlimit="10" x1="517.079" y1="225.438" x2="601.85" y2="656.886"/>
		<line fill="none" stroke="#2E3192" stroke-miterlimit="10" x1="495" y1="227.134" x2="579.239" y2="655.881"/>
		<line fill="none" stroke="#2E3192" stroke-miterlimit="10" x1="473.337" y1="224.917" x2="561.16" y2="671.894"/>
		<line fill="none" stroke="#2E3192" stroke-miterlimit="10" x1="452.899" y1="228.933" x2="539.925" y2="671.858"/>
		<line fill="none" stroke="#2E3192" stroke-miterlimit="10" x1="431.67" y1="227.815" x2="520.818" y2="681.547"/>
		<line fill="none" stroke="#2E3192" stroke-miterlimit="10" x1="410.174" y1="228.911" x2="498.792" y2="679.939"/>
		<line fill="none" stroke="#2E3192" stroke-miterlimit="10" x1="388.076" y1="233.253" x2="477.815" y2="689.995"/>
	</g>
	<g id="moved_ngang">
		<path fill="none" stroke="#2E3192" stroke-miterlimit="10" d="M74.169,378.541c0,0,141.41-96.508,294.678-126.623
			c153.268-30.114,328.106,4.257,328.106,4.257"/>
		<path fill="none" stroke="#2E3192" stroke-miterlimit="10" d="M130.417,664.823c0,0,167.543,36.503,320.811,6.389
			s301.973-128.753,301.973-128.753"/>
		<path fill="none" stroke="#2E3192" stroke-miterlimit="10" d="M76.823,392.045c0,0,143.067-85.614,296.8-115.819
			c153.73-30.205,325.983-6.545,325.983-6.545"/>
		<path fill="none" stroke="#2E3192" stroke-miterlimit="10" d="M80.006,408.25c0,0,143.375-79.363,297.994-109.742
			c154.619-30.379,324.79-12.622,324.79-12.622"/>
		<path fill="none" stroke="#2E3192" stroke-miterlimit="10" d="M83.19,424.454c0,0,145.553-75.421,298.82-105.534
			c153.269-30.114,323.964-16.83,323.964-16.83"/>
		<path fill="none" stroke="#2E3192" stroke-miterlimit="10" d="M86.374,440.659c0,0,146.838-68.879,300.106-98.993
			c153.266-30.114,322.678-23.371,322.678-23.371"/>
		<path fill="none" stroke="#2E3192" stroke-miterlimit="10" d="M89.823,458.212c0,0,148.036-64.744,300.933-94.784
			c152.898-30.042,321.851-27.579,321.851-27.579"/>
		<path fill="none" stroke="#2E3192" stroke-miterlimit="10" d="M93.406,476.443c0,0,149.173-56.988,302.441-87.102
			c153.268-30.114,320.343-35.262,320.343-35.262"/>
		<path fill="none" stroke="#2E3192" stroke-miterlimit="10" d="M96.589,492.647c0,0,151.316-46.083,304.584-76.197
			c153.269-30.114,318.199-46.167,318.199-46.167"/>
		<path fill="none" stroke="#2E3192" stroke-miterlimit="10" d="M100.038,510.203c0,0,151.742-36.784,306.36-67.164
			c154.617-30.379,316.424-55.201,316.424-55.201"/>
		<path fill="none" stroke="#2E3192" stroke-miterlimit="10" d="M103.222,526.407c0,0,154.653-29.104,307.921-59.218
			c153.267-30.114,314.862-63.146,314.862-63.146"/>
		<path fill="none" stroke="#2E3192" stroke-miterlimit="10" d="M106.274,541.938c0,0,156.01-22.195,309.278-52.309
			c153.269-30.114,313.507-70.054,313.507-70.054"/>
		<path fill="none" stroke="#2E3192" stroke-miterlimit="10" d="M109.723,559.493c0,0,157.072-16.198,310.451-46.336
			c153.379-30.134,312.333-76.028,312.333-76.028"/>
		<path fill="none" stroke="#2E3192" stroke-miterlimit="10" d="M113.039,576.372c0,0,158.192-7.521,312.136-37.768
			c153.944-30.246,310.648-84.597,310.648-84.597"/>
		<path fill="none" stroke="#2E3192" stroke-miterlimit="10" d="M116.754,595.278c0,0,159.885,1.103,313.83-29.144
			c153.944-30.248,308.955-93.22,308.955-93.22"/>
		<path fill="none" stroke="#2E3192" stroke-miterlimit="10" d="M119.805,610.808c0,0,162.202,12.892,316.146-17.354
			c153.942-30.247,306.64-105.01,306.64-105.01"/>
		<path fill="none" stroke="#2E3192" stroke-miterlimit="10" d="M123.121,627.687c0,0,164.796,22.521,318.064-7.593
			c153.267-30.114,304.721-114.771,304.721-114.771"/>
		<path fill="none" stroke="#2E3192" stroke-miterlimit="10" d="M126.438,644.566c0,0,165.672,30.555,319.616,0.309
			c153.944-30.247,303.167-122.673,303.167-122.673"/>
	</g>
</g>
</svg>
