<svg width="468" height="200" fill="none" xmlns="http://www.w3.org/2000/svg"><path d="M234 199.639c129.235 0 234-3.97 234-8.867 0-4.898-104.765-8.868-234-8.868s-234 3.97-234 8.868c0 4.897 104.765 8.867 234 8.867Z" fill="#F2F2F6"/><path d="M426.496 120.202V83.624h-41.381l.247 36.455h-32.268l48.032-101.236h-42.859l-40.889 83.871-10.345 21.306v30.297h78.082v37.44h41.381v-37.44h22.169v-34.115h-22.169Z" fill="#A5D394"/><path opacity=".32" d="M330.556 154.44c.862-9.36-1.97-16.134-2.586-17.488a53.683 53.683 0 0 1-3.325 17.488h-17.612v-30.297l10.345-21.306c2.956 3.695 6.035 8.744 7.267 13.301.246.862.616 1.601.862 2.463v.123c.493 1.478.862 3.079 1.231 4.557v.123c0 .123 0 .247.124.493.123.492.246.862.246 1.355.123.492.123.862.246 1.354v.37c.123.492.123 1.108.247 1.601v.123s8.744 8.621 8.867 25.863h-5.912v-.123Z" fill="#A5D394"/><path d="M101.852 18.843 53.821 120.08h32.267l-.246-36.332h41.381v36.455h22.168v34.238h-22.168v37.44H85.842v-37.44H7.76v-30.297L58.993 18.966h42.859v-.123ZM229.813 0c-48.278 0-74.633 34.238-74.633 96.433 0 20.074 2.709 37.193 8.128 51.233 11.207 29.558 33.869 45.446 66.629 45.446 18.473 0 33.745-5.173 45.568-15.026 2.094-1.724 3.941-3.571 5.788-5.542a63.542 63.542 0 0 0 5.173-6.281l2.217-3.325c9.852-15.641 15.271-36.947 15.641-63.55v-2.832C304.201 34.238 277.599 0 229.813 0Zm-26.725 111.458c-.246-4.68-.369-9.73-.369-15.148 0-43.722 7.882-61.703 27.218-61.703 17.118 0 25.124 14.41 26.602 49.017.123 3.941.246 8.129.246 12.562 0 43.475-7.882 61.579-26.848 61.579-16.996.247-25.125-13.67-26.849-46.307Z" fill="#A5D394"/><path d="M286.341 166.14a63.542 63.542 0 0 1-5.173 6.281c-14.655 2.217-35.223 8.744-36.701-4.187a6.706 6.706 0 0 1 0-2.217c1.109-5.665 27.465.862 41.874.123Z" fill="#A5D394"/><path d="M304.198 99.265c-.369 26.602-5.665 48.032-15.641 63.55-7.882.369-25.247-4.064-33.006-.123-.123.123-.246.123-.37.123-.369.123-.615.246-.985.369h-.246c-.123 0-.246 0-.37.123-.123 0-.246 0-.369.124-.123 0-.246 0-.246.123-.124 0-.247 0-.247.123-.123 0-.369.123-.492.123s-.37.123-.616.123c-1.109.123-2.217.246-3.202.37h-.862c-11.823.739-27.957 1.108-38.795-4.065h-4.68c-9.114 0-18.72-1.354-27.464-4.187-.862-.246-1.601-.616-2.34-.862-.247-.123-.616-.246-.862-.37-.124 0-.123 0-.247-.123-.739-.246-1.354-.615-2.093-.862-1.109-.492-2.217-1.108-3.326-1.724 0 0-.123 0-.123-.123-.492-.37-.985-.616-1.478-.985-.123-.124-.246-.247-.369-.247l-.123-.123c-.123-.123-.37-.246-.493-.493-.123-.123-.246-.246-.369-.246-.37-.246-.616-.616-.862-.985l-.124-.123c-2.709-3.079 1.109-11.947 2.587-14.533 0-.123.123-.246.123-.246-2.833-8.868-1.232-14.163-1.232-14.163 4.188.985 7.513 5.172 7.513 5.172 2.956-3.571 9.237-5.172 13.67-5.419-.123-6.773 1.478-8.128 1.478-8.128 11.454 3.695 2.71 9.729 15.149 0 1.108 19.459 6.404 53.82 34.238 45.445 24.508-7.389 19.951-55.175 19.212-73.156 17.242-3.694 37.317-.123 47.662 15.518-.369 26.602-4.187-6.28 0 0Z" fill="#A5D394"/><path d="M304.447 136.828c-.492 1.109-1.108 2.217-1.724 3.079-.493.862-1.108 1.601-1.724 2.34-1.355 1.478-2.71 2.833-4.311 3.818-11.946 8.252-30.543 5.419-37.809 6.158-.985.123-2.587.246-4.557.246h-1.232c-1.97.124-4.31.124-6.897.247-12.685.492-30.666.862-40.518 1.108-4.188.123-6.897.123-6.897.123h-.739c-10.961-.246-20.321-1.97-27.341-4.31-4.434-1.478-7.882-3.079-10.099-4.803-.739-.616-1.478-1.109-1.848-1.725-.246-.246-.369-.492-.492-.738-.123-.124-.123-.247-.123-.247-2.71-4.926 2.709-13.793 2.955-14.286-2.832-8.991-1.231-14.286-1.231-14.286 4.187.985 7.512 5.172 7.512 5.172.616-.739 1.355-1.355 2.217-1.97.739-.493 1.478-.862 2.217-1.232.862-.369 1.724-.739 2.586-.985 1.478-.493 2.956-.739 4.065-.985 1.478-.247 2.463-.37 2.463-.37-.123-6.774 2.094-9.606 2.094-9.606 2.955.985 5.542 7.882 6.65 7.882.862 0 2.217-2.463 12.562-9.976.739-.493 1.478-1.108 2.34-1.601a582.985 582.985 0 0 1 6.897-4.68l1.108-.739c.616-.37 1.109-.739 1.725-1.108 2.216-1.478 4.556-2.833 6.896-4.188 1.109-.615 2.094-1.231 3.203-1.724 1.724-.985 3.571-1.847 5.419-2.71.862-.369 1.724-.861 2.586-1.23 1.601-.74 3.202-1.356 4.803-1.971 2.217-.863 4.31-1.602 6.527-2.34a69.713 69.713 0 0 1 7.267-1.848c.123 0 .369-.123.492-.123 3.695-.739 7.39-1.108 11.085-1.232h.615c2.587 0 5.173.124 7.759.493 3.572.493 7.143 1.232 10.715 2.586 7.513 2.71 13.547 8.129 17.735 14.78 1.354 2.216 2.586 4.556 3.571 6.896l1.109 2.956a55.098 55.098 0 0 1 2.956 13.917c.615 7.389-.247 14.04-2.587 19.212Z" fill="#FFEDCA"/><path d="M302.723 140.031c-.493.862-1.109 1.601-1.724 2.34-11.085 12.931-33.992 9.236-42.12 9.975-.986.123-2.587.247-4.557.247h-1.232c-1.97.123-4.31.123-6.897.246-12.685.493-30.666.862-40.519 1.108-4.187.124-6.896.124-6.896.124h-.739c-10.961-.247-20.321-1.971-27.341-4.311-4.434-1.478-7.883-3.079-10.099-4.803-.739-.616-1.478-1.109-1.848-1.724-.246-.247-.369-.493-.492-.739-1.478-5.05 2.955-14.902 2.955-14.902-2.832-8.991-.739-12.439-.739-12.439 4.188.985 7.513 5.172 7.513 5.172.616-.739 1.355-1.354 2.217-1.97.739-.493 1.478-.862 2.217-1.232.862-.369 1.724-.739 2.586-.985 1.478-.493 2.956-.739 4.064-.985 1.478-.247 2.463-.37 2.463-.37-.123-6.774 1.848-9.483 1.848-9.483 2.956.985 5.788 7.882 6.897 7.882.862 0 2.217-2.463 12.562-9.976.739-.492 1.478-1.108 2.34-1.601 1.97-1.354 4.31-2.956 6.897-4.68l1.108-.739c.616-.37 1.108-.739 1.724-1.108 2.217-1.478 4.557-2.833 6.897-4.188 1.109-.615 2.094-1.231 3.202-1.724 2.587-1.354 5.296-2.71 8.005-3.94 1.602-.74 3.203-1.355 4.804-1.971 2.216-.862 4.31-1.601 6.527-2.34 2.586-.74 5.173-1.478 7.759-1.97 3.941-.74 7.759-1.232 11.7-1.232 2.586 0 5.173.123 7.759.492 3.571.493 7.143 1.232 10.715 2.587 7.512 2.71 13.547 8.128 17.734 14.778a39.431 39.431 0 0 1 2.956 5.543c5.789 13.67 5.789 29.804-.246 38.918Z" fill="#FFD67B"/><path d="M315.779 142.247c0 17.366-16.626 24.509-38.918 28.696-19.459 3.695-28.572.985-29.681-3.941a6.706 6.706 0 0 1 0-2.217c1.232-6.404 24.632-3.202 39.411-4.926 14.779-1.724 22.291-7.02 23.277-17.612.985-10.591-2.71-17.734-2.71-17.734l-.123-7.267v-.739c-.123-.246 8.744 8.498 8.744 25.74Z" fill="#F3BE65"/><path d="M312.454 138.429c0 17.366-16.873 25.494-39.164 29.682-13.055 2.463-25.124 2.463-26.11-1.109a6.706 6.706 0 0 1 0-2.217c1.232-6.404 24.632-3.202 39.411-4.926 14.779-1.724 22.291-7.02 23.277-17.612.985-10.591-2.71-17.734-2.71-17.734l-.123-7.267c.246.37.493.862.739 1.355 2.217 4.064 4.68 10.715 4.68 19.828Z" fill="#FFD67B"/><path d="M313.684 142.371c0 17.365-16.503 21.552-38.794 25.74-13.055 2.463-22.784 1.108-27.218-.863 0-.492 0-.985.123-1.477 1.232-6.405 24.632-3.203 39.411-4.927 14.778-1.724 22.291-7.02 23.276-17.611.986-10.592-3.202-19.213-3.202-19.213l-.246-7.636c5.419 5.665 6.65 16.75 6.65 25.987Z" fill="#FFD67B"/><path d="M210.599 113.675c-2.463-6.158-5.788-9.73-8.374-11.7.739-.493 1.478-1.109 2.34-1.601 4.803 5.665 6.034 13.301 6.034 13.301ZM221.067 109.364c-2.832-7.143-6.527-11.33-9.606-13.794l1.108-.738c.616-.37 1.109-.74 1.725-1.109 5.419 6.774 6.773 15.641 6.773 15.641ZM231.906 104.315c-3.202-8.005-7.512-12.316-10.715-14.533 1.109-.616 2.094-1.231 3.203-1.724 5.911 6.65 7.512 16.257 7.512 16.257ZM247.177 103.083c-4.433-11.207-10.714-16.626-14.779-19.09 1.601-.738 3.203-1.354 4.804-1.97 7.759 8.252 9.852 20.568 9.975 21.06ZM264.912 105.669c-6.528-16.503-16.011-23.276-21.183-25.986 2.586-.739 5.172-1.478 7.758-1.97 10.469 10.96 13.302 27.341 13.425 27.956ZM277.474 104.807c-2.956-15.64-9.606-24.139-14.41-28.326 2.587 0 5.173.123 7.759.493 7.144 12.562 6.651 27.833 6.651 27.833ZM198.039 154.194c-20.198-.493-35.223-6.035-39.287-10.838l2.217-2.094s0 1.109 2.956 1.724c2.832.616 0-5.788 1.724-8.005 1.601-2.34 5.296-3.941 8.744-.739 3.448 3.202 4.064 16.011 23.031 14.779l.615 5.173Z" fill="#F3BE65"/><path d="M302.723 140.031c-.493.862-1.109 1.601-1.725 2.34-11.084 12.931-33.991 9.236-42.12 9.975-.985.123-2.586.247-4.557.247h-1.231c-1.971.123-4.311.123-6.897.246-12.685.493-30.666.862-40.519 1.108-4.187.124-6.897.124-6.897.124h-.739c-10.961-.247-20.321-1.971-27.341-4.311 2.34.246 15.518 1.355 25.124.739 10.592-.739 36.209-23.893 55.422-19.952 19.212 3.941 60.347-9.852 48.524-35.346-.123-.37-.37-.739-.493-1.108 9.237 14.655 10.592 35.1 3.449 45.938Z" fill="#F3BE65"/><path d="M247.672 152.962c-18.104.616-47.293 1.232-47.293 1.232h-.369c-4.68-3.572-4.557-11.085.862-14.41 3.325-1.97 7.759-3.695 13.178-3.202 12.315.985 14.409 11.207 25.124 13.424 4.557.986 7.143 1.971 8.498 2.956Z" fill="#F3BE65"/><path d="M253.091 152.716c-1.971.123-4.311.123-6.897.246-12.685.493-30.666.862-40.519 1.109-5.789-3.203-5.912-11.577-.123-15.026 3.325-1.97 7.759-3.694 13.178-3.202 12.315.985 14.409 11.208 25.124 13.424 5.419 1.109 8.005 2.217 9.237 3.449Z" fill="#F3BE65"/><path d="M250.997 155.672c0 .369-.247.739-.862 1.108-1.478.739-4.68 1.355-8.868 1.478a82.924 82.924 0 0 1-9.483-.123c-7.389-.37-20.444-.123-28.573-4.064-4.68-2.217-6.034-7.513-4.064-11.7.739-1.478 1.848-2.71 3.326-3.695 3.325-1.971 7.758-3.695 13.177-3.202 12.316.985 14.41 11.207 25.125 13.424.369.123.615.123.985.246 9.606 2.217 9.114 4.557 9.237 6.528Z" fill="#FFEDCA"/><path d="M250.135 156.78c-.123 0-.247.123-.247.123-.123 0-.246.123-.369.123-.123.123-.37.123-.616.247-.123 0-.246.123-.492.123-.37.123-.616.123-1.109.246-.123 0-.246 0-.369.123-.862.123-1.848.247-2.956.37-.37 0-.862.123-1.232.123h-1.601a82.922 82.922 0 0 1-9.483-.123c-7.389-.37-20.444-.123-28.573-4.064-4.68-2.217-6.034-7.513-4.064-11.7.616-.863 1.478-1.602 2.463-2.217 3.326-1.971 7.759-3.695 13.178-3.202 12.316.985 14.41 11.207 25.124 13.424.37.123.616.123.986.246.492.123 1.108.246 1.478.37 7.759 1.847 7.759 3.941 7.882 5.788Z" fill="#FFD67B"/><path d="M303.339 122.912c0 7.882-.862 14.409-2.34 19.459-11.084 12.931-33.991 9.236-42.12 9.975-.985.123-2.586.247-4.557.247 0-.986.37-2.094.862-2.833 1.355-2.586 15.641-3.079 14.779-5.049-.862-1.971-7.266-2.956-7.266-15.765v-.739c.369-9.729 8.005-17.734 17.735-18.72 9.237-.862 22.907 0 22.907 13.425Z" fill="#F3BE65"/><path d="M307.28 122.912v3.202c-.738 15.394-6.896 25.001-12.069 28.449-.493.37-.985.616-1.478.862-.123 0-.246.123-.369.123-.247.124-.37.124-.616.247-.246 0-.37.123-.616.123h-.123c-1.601.369-3.449.616-5.296.739h-.123c-6.035.616-13.055.492-20.198.492-1.97 0-3.448-.246-4.557-.492-4.557-1.355-4.433-4.064-2.586-6.774 1.847-2.709 15.641-3.079 14.779-5.049-.862-1.971-7.266-2.956-7.266-15.765v-.738c.246-9.73 8.005-17.735 17.734-18.72 4.68-.493 10.469-.493 15.026 1.354a14.477 14.477 0 0 1 3.325 1.848c.246.246.492.492.739.615l.616.616.615.616c.123.246.37.369.493.616 0 0 0 .123.123.123.123.123.246.369.37.493.246.369.369.739.615 1.108.124.246.247.493.247.739v.123c.123.246.246.616.246.862.123.37.123.616.246.985 0 .247.123.37.123.616 0 .247 0 .37.124.616-.124.616-.124 1.355-.124 1.971Z" fill="#FFEDCA"/><path d="M307.281 122.912v3.202c-.739 15.394-6.897 25.001-12.07 28.449-.492.37-.985.616-1.478.862-.123 0-.246.123-.369.123-.246.124-.37.124-.616.247-.246 0-.369.123-.616.123h-.123c-.369.123 1.232 0 .493.123-1.724.246-3.695.493-5.789.616h-.123c-6.281.492-13.793.492-20.198.492-1.97 0-3.448-.246-4.557-.492-3.202-1.478-2.463-4.557-1.477-6.404 1.354-2.464 15.641-3.079 14.778-5.05-.862-1.97-7.266-2.956-7.266-15.764v-.739c.246-9.729 8.005-17.735 17.735-18.72 4.31-.369 9.483-.493 13.917.985a14.477 14.477 0 0 1 3.325 1.848c.246.246.493.492.739.615l.616.616.616.616c.123.246.369.369.492.616 0 0 0 .123.123.123.123.123.247.369.37.493.246.369.369.739.616 1.108.123.246.246.493.246.739v.123c.123.246.246.616.246.862.123.37.123.616.247.985 0 .247.123.37.123.616 0 .247 0 .37.123.616-.123.616-.123 1.355-.123 1.971Z" fill="#FFD67B"/><path d="M160.599 145.08c-.739-.616-1.478-1.108-1.848-1.724-.246-.37-.492-.616-.615-.985-2.71-4.927 2.709-13.794 2.955-14.287-.123.493-3.448 8.868-.123 13.178.985 1.355.616 2.586-.369 3.818ZM161.829 125.867s-1.354-6.404-.862-9.729c0 0 2.833.493 4.803 3.941 0 0-3.448 4.064-3.941 5.788ZM183.506 105.916s-1.478 5.049-1.109 7.882c0 0 4.064-.862 6.035-.739 0 .123-2.463-4.926-4.926-7.143Z" fill="#F3BE65"/><path d="M160.967 135.351s0-.493.246-1.109c.123-.123.123-.369.246-.493.124-.123.247-.369.37-.492s.246-.37.493-.493c.123-.123.369-.246.492-.369.246-.123.37-.247.616-.37s.493-.123.616-.123h1.108c.123 0 .37.123.493.123s.246.123.369.123a.38.38 0 0 0 .247.124h-.986c-.123 0-.246 0-.492.123-.123 0-.37.123-.493.123s-.123 0-.246.123c-.123 0-.123.123-.247.123-.123.123-.369.123-.492.247a1.705 1.705 0 0 1-.493.369l-.369.369-.37.37-.369.369c-.493.616-.739.863-.739.863ZM171.436 130.917l.246-.246c.123-.124.123-.247.369-.247.123-.123.247-.246.493-.369a.94.94 0 0 1 .616-.247c.246-.123.492-.123.739-.246.246-.123.492-.123.862-.123.246 0 .616 0 .862.123s.616.123.862.246c.246.124.493.124.739.37.246.123.493.246.616.369.246.124.369.247.492.37l.37.369c.123.123.246.247.246.37l.246.246s-.123 0-.369-.123a6.12 6.12 0 0 0-.862-.37c-.123-.123-.37-.123-.616-.246s-.369-.123-.616-.246c-.246-.123-.492-.123-.739-.246-.246-.124-.492-.124-.739-.124-.246 0-.492 0-.739-.123h-.738c-.247 0-.493 0-.616.123-.247 0-.37.124-.616.124-.616 0-1.108.246-1.108.246ZM167.494 135.227c-.369.247-.369.739-.123 1.109.493.739 1.601 1.724 2.34 1.601.739-.246.985-2.463.739-3.079-.37-.493-1.848-.616-2.956.369Z" fill="#894D16"/><path d="m169.705 137.226-.453.194 1.214 2.83.453-.194-1.214-2.83Z" fill="#894D16"/><path d="M167.248 139.168s.37.37.985.739c.37.124.739.37 1.232.493.246 0 .493.123.739 0h.369c.123-.123.247-.123.37-.246.246-.123.369-.37.492-.493.124-.246.247-.369.37-.616.246-.369.493-.739.616-1.108.246-.616.369-1.109.369-1.109s-.123.124-.123.247c-.123.123-.246.369-.493.739-.246.246-.369.615-.739.985-.123.123-.246.369-.369.493-.123.123-.246.369-.493.492-.123.123-.123.123-.246.123h-.862c-.37 0-.862-.123-1.109-.246-.369-.123-.615-.246-.738-.369a.538.538 0 0 1-.37-.124Z" fill="#894D16"/><path opacity=".58" d="m263.065 81.284-2.216 63.303s-12.193 6.897-14.164 6.035c-1.97-.862-7.635-1.97-7.635-1.97s29.065-61.826-9.484-63.427c.863-.37 1.725-.862 2.587-1.231 1.601-.74 3.202-1.355 4.803-1.97 2.217-.863 4.31-1.602 6.527-2.34a69.624 69.624 0 0 1 7.267-1.848c6.034-.862 10.714-1.355 11.576-1.355l.739 4.803Z" fill="#F3BE65"/><path d="M302.722 71.924c-15.641-.123-31.405-.739-47.046.246.739 7.02 1.108 15.026 1.108 24.14 0 26.478-3.448 44.829-9.975 54.189 0 0 .985.369 2.586 1.355.246.123.985.862.985.862s.862 1.478.739 2.956c1.109.492 1.971 5.419 1.971 5.419s4.187-.616 4.803-.493c5.665-.37 11.823-.246 16.872-.37 5.912-.246 10.715-.369 16.134-1.108 7.882-15.395 13.424-38.425 13.424-62.81-.123-8.622-.615-16.75-1.601-24.386Z" fill="#A5D394"/><path d="m159.242 100.127.616 1.478-1.724 5.542 3.694-1.601.863 1.848-6.651 2.955-.616-1.477 1.724-5.543-3.448 1.478-.862-1.847 6.404-2.833ZM169.338 81.9l.124 1.601-3.326 4.803 3.941-.37.247 1.971-7.267.74-.123-1.602 3.325-4.803-3.694.37-.247-1.971 7.02-.739Z" fill="#894D16"/><path opacity=".58" d="m156.901 65.15.123 1.232-2.586 3.572 3.079-.37.123 1.478-5.542.616-.123-1.232 2.586-3.571-2.832.246-.124-1.478 5.296-.492Z" fill="#894D16"/><path opacity=".39" d="m171.188 48.77-.246.863-2.71 1.847 2.217.493-.246 1.108-4.064-.985.246-.862 2.709-1.848-2.093-.492.246-1.109 3.941.986Z" fill="#894D16"/><path opacity=".15" d="m155.794 40.396.247.862-1.232 3.079 2.094-.74.369 1.11-3.941 1.354-.246-.862 1.232-3.079-1.971.616-.369-1.109 3.817-1.231Z" fill="#894D16"/></svg>