<?xml version="1.0" encoding="utf-8"?>
<!-- Generator: Adobe Illustrator 16.0.0, SVG Export Plug-In . SVG Version: 6.00 Build 0)  -->
<!DOCTYPE svg PUBLIC "-//W3C//DTD SVG 1.1//EN" "http://www.w3.org/Graphics/SVG/1.1/DTD/svg11.dtd">
<svg version="1.1" id="Layer_2" xmlns="http://www.w3.org/2000/svg" xmlns:xlink="http://www.w3.org/1999/xlink" x="0px" y="0px"
	 width="1000px" height="1000px" viewBox="0 0 1000 1000" enable-background="new 0 0 1000 1000" xml:space="preserve">
<g id="Layer_3" display="none">
	<g id="Layer_4" display="inline">
		<line fill="none" stroke="#EC008C" stroke-miterlimit="10" x1="180" y1="20" x2="828" y2="20"/>
		<line fill="none" stroke="#EC008C" stroke-miterlimit="10" x1="180" y1="832" x2="828" y2="832"/>
		<line fill="none" stroke="#EC008C" stroke-miterlimit="10" x1="180" y1="431.5" x2="828" y2="431.5"/>
		<line fill="none" stroke="#EC008C" stroke-miterlimit="10" x1="180" y1="627" x2="828" y2="627"/>
		<line fill="none" stroke="#EC008C" stroke-miterlimit="10" x1="180" y1="525" x2="828" y2="525"/>
		<line fill="none" stroke="#EC008C" stroke-miterlimit="10" x1="180" y1="476" x2="828" y2="476"/>
		<line fill="none" stroke="#EC008C" stroke-miterlimit="10" x1="828" y1="573" x2="180" y2="573"/>
		<line fill="none" stroke="#EC008C" stroke-miterlimit="10" x1="180" y1="725" x2="828" y2="725"/>
		<line fill="none" stroke="#EC008C" stroke-miterlimit="10" x1="828" y1="677" x2="180" y2="677"/>
		<line fill="none" stroke="#EC008C" stroke-miterlimit="10" x1="180" y1="779" x2="828" y2="779"/>
		<line fill="none" stroke="#EC008C" stroke-miterlimit="10" x1="180" y1="223" x2="828" y2="223"/>
		<line fill="none" stroke="#EC008C" stroke-miterlimit="10" x1="828" y1="327" x2="180" y2="327"/>
		<line fill="none" stroke="#EC008C" stroke-miterlimit="10" x1="180" y1="272" x2="828" y2="272"/>
		<line fill="none" stroke="#EC008C" stroke-miterlimit="10" x1="828" y1="378" x2="180" y2="378"/>
		<line fill="none" stroke="#EC008C" stroke-miterlimit="10" x1="180" y1="118" x2="828" y2="118"/>
		<line fill="none" stroke="#EC008C" stroke-miterlimit="10" x1="180" y1="63" x2="828" y2="63"/>
		<line fill="none" stroke="#EC008C" stroke-miterlimit="10" x1="828" y1="169" x2="180" y2="169"/>
	</g>
	<g id="Layer_5" display="inline">
		<line fill="none" stroke="#EC008C" stroke-miterlimit="10" x1="197" y1="9" x2="197" y2="854"/>
		<line fill="none" stroke="#EC008C" stroke-miterlimit="10" x1="808" y1="9" x2="808" y2="854"/>
		<line fill="none" stroke="#EC008C" stroke-miterlimit="10" x1="500" y1="9" x2="500" y2="854"/>
		<line fill="none" stroke="#EC008C" stroke-miterlimit="10" x1="345" y1="9" x2="345" y2="854"/>
		<line fill="none" stroke="#EC008C" stroke-miterlimit="10" x1="636" y1="9" x2="636" y2="854"/>
		<line fill="none" stroke="#EC008C" stroke-miterlimit="10" x1="270" y1="9" x2="270" y2="854"/>
		<line fill="none" stroke="#EC008C" stroke-miterlimit="10" x1="421" y1="9" x2="421" y2="854"/>
		<line fill="none" stroke="#EC008C" stroke-miterlimit="10" x1="579" y1="9" x2="579" y2="854"/>
		<line fill="none" stroke="#EC008C" stroke-miterlimit="10" x1="664" y1="9" x2="664" y2="854"/>
		<line fill="none" stroke="#EC008C" stroke-miterlimit="10" x1="219" y1="9" x2="219" y2="854"/>
		<line fill="none" stroke="#EC008C" stroke-miterlimit="10" x1="244" y1="9" x2="244" y2="854"/>
		<line fill="none" stroke="#EC008C" stroke-miterlimit="10" x1="294" y1="9" x2="294" y2="854"/>
		<line fill="none" stroke="#EC008C" stroke-miterlimit="10" x1="319" y1="9" x2="319" y2="854"/>
		<line fill="none" stroke="#EC008C" stroke-miterlimit="10" x1="370" y1="9" x2="370" y2="854"/>
		<line fill="none" stroke="#EC008C" stroke-miterlimit="10" x1="395" y1="9" x2="395" y2="854"/>
		<line fill="none" stroke="#EC008C" stroke-miterlimit="10" x1="446" y1="9" x2="446" y2="854"/>
		<line fill="none" stroke="#EC008C" stroke-miterlimit="10" x1="472" y1="854" x2="472" y2="9"/>
		<line fill="none" stroke="#EC008C" stroke-miterlimit="10" x1="526" y1="9" x2="526" y2="854"/>
		<line fill="none" stroke="#EC008C" stroke-miterlimit="10" x1="552" y1="854" x2="552" y2="9"/>
		<line fill="none" stroke="#EC008C" stroke-miterlimit="10" x1="607" y1="9" x2="607" y2="854"/>
		<line fill="none" stroke="#EC008C" stroke-miterlimit="10" x1="693" y1="9" x2="693" y2="854"/>
		<line fill="none" stroke="#EC008C" stroke-miterlimit="10" x1="721" y1="854" x2="721" y2="9"/>
		<line fill="none" stroke="#EC008C" stroke-miterlimit="10" x1="751" y1="9" x2="751" y2="854"/>
		<line fill="none" stroke="#EC008C" stroke-miterlimit="10" x1="780" y1="854" x2="780" y2="9"/>
	</g>
</g>
<g id="Layer_3_copy">
	<g id="Layer_4_copy">
		<path fill="none" stroke="#EC008C" stroke-miterlimit="10" d="M180,24c0,0,139,72.004,320,73c174.998,3.671,328-73,328-73"/>
		<path fill="none" stroke="#EC008C" stroke-miterlimit="10" d="M180,835c0,0,376.666,3.663,416.333,0s70.012-3.947,90.667-4
			c46.667-1.663,102,12.33,141-8"/>
		<line fill="none" stroke="#EC008C" stroke-miterlimit="10" x1="180" y1="431.5" x2="828" y2="431.5"/>
		<line fill="none" stroke="#EC008C" stroke-miterlimit="10" x1="180" y1="627" x2="828" y2="627"/>
		<line fill="none" stroke="#EC008C" stroke-miterlimit="10" x1="180" y1="525" x2="828" y2="525"/>
		<line fill="none" stroke="#EC008C" stroke-miterlimit="10" x1="180" y1="476" x2="828" y2="476"/>
		<line fill="none" stroke="#EC008C" stroke-miterlimit="10" x1="828" y1="573" x2="180" y2="573"/>
		<line fill="none" stroke="#EC008C" stroke-miterlimit="10" x1="180" y1="728" x2="828" y2="728"/>
		<line fill="none" stroke="#EC008C" stroke-miterlimit="10" x1="828" y1="679" x2="180" y2="679"/>
		<line fill="none" stroke="#EC008C" stroke-miterlimit="10" x1="180" y1="782" x2="828" y2="782"/>
		<path fill="none" stroke="#EC008C" stroke-miterlimit="10" d="M180,217c0,0,220.336,23.494,320,23.494S828,217,828,217"/>
		<line fill="none" stroke="#EC008C" stroke-miterlimit="10" x1="828" y1="327" x2="180" y2="327"/>
		<path fill="none" stroke="#EC008C" stroke-miterlimit="10" d="M180,274c0,0,245.064,9,320,9s328-9,328-9"/>
		<line fill="none" stroke="#EC008C" stroke-miterlimit="10" x1="828" y1="378" x2="180" y2="378"/>
		<path fill="none" stroke="#EC008C" stroke-miterlimit="10" d="M180,114c0,0,171.002,55.145,320,51.074S828,114,828,114"/>
		<path fill="none" stroke="#EC008C" stroke-miterlimit="10" d="M180,70c0,0,195.669,55.05,320,55.05S828,62,828,62"/>
		<path fill="none" stroke="#EC008C" stroke-miterlimit="10" d="M828,162c0,0-208.331,41.145-328,41.074S180,162,180,162"/>
	</g>
	<g id="Layer_5_copy">
		<path fill="none" stroke="#EC008C" stroke-miterlimit="10" d="M191,13l7.03,581.33c0,0-1.601,97.98-1.482,149.327S203,854,203,854
			"/>
		<path fill="none" stroke="#EC008C" stroke-miterlimit="10" d="M812,13c0,0-8.064,131.367-8.244,172.684
			s-0.503,111.323-0.503,111.323s1.08,200.659-0.253,257.995s7.418,250.679,5,298.998"/>
		<line fill="none" stroke="#EC008C" stroke-miterlimit="10" x1="500" y1="13" x2="500" y2="854"/>
		<line fill="none" stroke="#EC008C" stroke-miterlimit="10" x1="345" y1="13" x2="345" y2="854"/>
		<line fill="none" stroke="#EC008C" stroke-miterlimit="10" x1="636" y1="13" x2="636" y2="854"/>
		<path fill="none" stroke="#EC008C" stroke-miterlimit="10" d="M270,13c0,0-2,697.339-2,727.338S270,854,270,854"/>
		<line fill="none" stroke="#EC008C" stroke-miterlimit="10" x1="421" y1="13" x2="421" y2="854"/>
		<line fill="none" stroke="#EC008C" stroke-miterlimit="10" x1="579" y1="13" x2="579" y2="854"/>
		<line fill="none" stroke="#EC008C" stroke-miterlimit="10" x1="664" y1="13" x2="664" y2="854"/>
		<path fill="none" stroke="#EC008C" stroke-miterlimit="10" d="M219,13c0,0,1.936,703.359,1.936,728.682S225,854,225,854"/>
		<path fill="none" stroke="#EC008C" stroke-miterlimit="10" d="M244,13c0,0-1.227,720.036-1.227,745.331S246,854,246,854"/>
		<line fill="none" stroke="#EC008C" stroke-miterlimit="10" x1="294" y1="13" x2="294" y2="854"/>
		<line fill="none" stroke="#EC008C" stroke-miterlimit="10" x1="319" y1="13" x2="319" y2="854"/>
		<line fill="none" stroke="#EC008C" stroke-miterlimit="10" x1="370" y1="13" x2="370" y2="854"/>
		<line fill="none" stroke="#EC008C" stroke-miterlimit="10" x1="395" y1="13" x2="395" y2="854"/>
		<line fill="none" stroke="#EC008C" stroke-miterlimit="10" x1="446" y1="13" x2="446" y2="854"/>
		<line fill="none" stroke="#EC008C" stroke-miterlimit="10" x1="472" y1="854" x2="472" y2="13"/>
		<line fill="none" stroke="#EC008C" stroke-miterlimit="10" x1="526" y1="13" x2="526" y2="854"/>
		<line fill="none" stroke="#EC008C" stroke-miterlimit="10" x1="552" y1="854" x2="552" y2="13"/>
		<line fill="none" stroke="#EC008C" stroke-miterlimit="10" x1="607" y1="13" x2="607" y2="854"/>
		<line fill="none" stroke="#EC008C" stroke-miterlimit="10" x1="693" y1="13" x2="693" y2="854"/>
		<line fill="none" stroke="#EC008C" stroke-miterlimit="10" x1="721" y1="854" x2="721" y2="13"/>
		<polyline fill="none" stroke="#EC008C" stroke-miterlimit="10" points="751,13 748.773,203.673 750,854 		"/>
		<path fill="none" stroke="#EC008C" stroke-miterlimit="10" d="M779,854c0,0-3.629-602.266-2.448-652.324S781,13,781,13"/>
	</g>
</g>
</svg>
