<?xml version="1.0" encoding="utf-8"?>
<!-- Generator: Adobe Illustrator 16.0.0, SVG Export Plug-In . SVG Version: 6.00 Build 0)  -->
<!DOCTYPE svg PUBLIC "-//W3C//DTD SVG 1.1//EN" "http://www.w3.org/Graphics/SVG/1.1/DTD/svg11.dtd">
<svg version="1.1" id="Layer_2" xmlns="http://www.w3.org/2000/svg" xmlns:xlink="http://www.w3.org/1999/xlink" x="0px" y="0px"
	 width="1000px" height="1000px" viewBox="0 0 1000 1000" enable-background="new 0 0 1000 1000" xml:space="preserve">
<g id="default">
	<g id="default_x5F_ngang">
		<line fill="none" stroke="#EC008C" stroke-miterlimit="10" x1="174" y1="72.586" x2="856.509" y2="72.586"/>
		<line fill="none" stroke="#EC008C" stroke-miterlimit="10" x1="174" y1="506" x2="856.509" y2="506"/>
		<line fill="none" stroke="#EC008C" stroke-miterlimit="10" x1="174" y1="706.911" x2="856.509" y2="706.911"/>
		<line fill="none" stroke="#EC008C" stroke-miterlimit="10" x1="174" y1="604.479" x2="856.509" y2="604.479"/>
		<line fill="none" stroke="#EC008C" stroke-miterlimit="10" x1="174" y1="552.87" x2="856.509" y2="552.87"/>
		<line fill="none" stroke="#EC008C" stroke-miterlimit="10" x1="856.509" y1="655.035" x2="174" y2="655.035"/>
		<line fill="none" stroke="#EC008C" stroke-miterlimit="10" x1="174" y1="803.13" x2="856.509" y2="803.13"/>
		<line fill="none" stroke="#EC008C" stroke-miterlimit="10" x1="856.509" y1="757.574" x2="174" y2="757.574"/>
		<line fill="none" stroke="#EC008C" stroke-miterlimit="10" x1="174" y1="848.006" x2="856.509" y2="848.006"/>
		<line fill="none" stroke="#EC008C" stroke-miterlimit="10" x1="174" y1="286.396" x2="856.509" y2="286.396"/>
		<line fill="none" stroke="#EC008C" stroke-miterlimit="10" x1="856.509" y1="395.935" x2="174" y2="395.935"/>
		<line fill="none" stroke="#EC008C" stroke-miterlimit="10" x1="174" y1="338.006" x2="856.509" y2="338.006"/>
		<line fill="none" stroke="#EC008C" stroke-miterlimit="10" x1="856.509" y1="449.651" x2="174" y2="449.651"/>
		<line fill="none" stroke="#EC008C" stroke-miterlimit="10" x1="174" y1="175.805" x2="856.509" y2="175.805"/>
		<line fill="none" stroke="#EC008C" stroke-miterlimit="10" x1="174" y1="117.876" x2="856.509" y2="117.876"/>
		<line fill="none" stroke="#EC008C" stroke-miterlimit="10" x1="856.509" y1="229.521" x2="174" y2="229.521"/>
	</g>
	<g id="default_x5F_doc">
		<line fill="none" stroke="#EC008C" stroke-miterlimit="10" x1="191.905" y1="61" x2="191.905" y2="865"/>
		<line fill="none" stroke="#EC008C" stroke-miterlimit="10" x1="835.443" y1="61" x2="835.443" y2="865"/>
		<line fill="none" stroke="#EC008C" stroke-miterlimit="10" x1="511.041" y1="61" x2="511.041" y2="865"/>
		<line fill="none" stroke="#EC008C" stroke-miterlimit="10" x1="347.787" y1="61" x2="347.787" y2="865"/>
		<line fill="none" stroke="#EC008C" stroke-miterlimit="10" x1="654.284" y1="61" x2="654.284" y2="865"/>
		<line fill="none" stroke="#EC008C" stroke-miterlimit="10" x1="268.793" y1="61" x2="268.793" y2="865"/>
		<line fill="none" stroke="#EC008C" stroke-miterlimit="10" x1="427.834" y1="61" x2="427.834" y2="865"/>
		<line fill="none" stroke="#EC008C" stroke-miterlimit="10" x1="594.248" y1="61" x2="594.248" y2="865"/>
		<line fill="none" stroke="#EC008C" stroke-miterlimit="10" x1="683.775" y1="61" x2="683.775" y2="865"/>
		<line fill="none" stroke="#EC008C" stroke-miterlimit="10" x1="215.077" y1="61" x2="215.077" y2="865"/>
		<line fill="none" stroke="#EC008C" stroke-miterlimit="10" x1="241.408" y1="61" x2="241.408" y2="865"/>
		<line fill="none" stroke="#EC008C" stroke-miterlimit="10" x1="294.071" y1="61" x2="294.071" y2="865"/>
		<line fill="none" stroke="#EC008C" stroke-miterlimit="10" x1="320.402" y1="61" x2="320.402" y2="865"/>
		<line fill="none" stroke="#EC008C" stroke-miterlimit="10" x1="374.118" y1="61" x2="374.118" y2="865"/>
		<line fill="none" stroke="#EC008C" stroke-miterlimit="10" x1="400.45" y1="61" x2="400.45" y2="865"/>
		<line fill="none" stroke="#EC008C" stroke-miterlimit="10" x1="454.166" y1="61" x2="454.166" y2="865"/>
		<line fill="none" stroke="#EC008C" stroke-miterlimit="10" x1="481.55" y1="865" x2="481.55" y2="61"/>
		<line fill="none" stroke="#EC008C" stroke-miterlimit="10" x1="538.426" y1="61" x2="538.426" y2="865"/>
		<line fill="none" stroke="#EC008C" stroke-miterlimit="10" x1="565.811" y1="865" x2="565.811" y2="61"/>
		<line fill="none" stroke="#EC008C" stroke-miterlimit="10" x1="623.739" y1="61" x2="623.739" y2="865"/>
		<line fill="none" stroke="#EC008C" stroke-miterlimit="10" x1="714.319" y1="61" x2="714.319" y2="865"/>
		<line fill="none" stroke="#EC008C" stroke-miterlimit="10" x1="743.811" y1="865" x2="743.811" y2="61"/>
		<line fill="none" stroke="#EC008C" stroke-miterlimit="10" x1="775.408" y1="61" x2="775.408" y2="865"/>
		<line fill="none" stroke="#EC008C" stroke-miterlimit="10" x1="805.953" y1="865" x2="805.953" y2="61"/>
	</g>
</g>
<g id="moved" display="none">
	<g id="moved_x5F_ngang" display="inline">
		<path fill="none" stroke="#EC008C" stroke-miterlimit="10" d="M177.015,33.147c0,0,174.792,42.376,350.055,57.448
			c175.263,15.072,344.897,1.063,344.897,1.063"/>
		<path fill="none" stroke="#EC008C" stroke-miterlimit="10" d="M172.544,489.209C351,508.342,790.663,521.1,854.498,501.721"/>
		<path fill="none" stroke="#EC008C" stroke-miterlimit="10" d="M164.445,697.957c0,0,195.247,17.729,331.9,25.39
			c136.654,7.661,350.055,10.122,350.055,10.122"/>
		<path fill="none" stroke="#EC008C" stroke-miterlimit="10" d="M168.574,595.608c35.759-9.268,646.148,36.29,681.954,27.512"/>
		<path fill="none" stroke="#EC008C" stroke-miterlimit="10" d="M170.655,544.041c94.917,0.886,609.562,32.057,681.955,19.512"/>
		<path fill="none" stroke="#EC008C" stroke-miterlimit="10" d="M848.49,673.635c-78.823,6.707-649.75-31.063-681.954-27.512"/>
		<path fill="none" stroke="#EC008C" stroke-miterlimit="10" d="M160.567,794.098c0,0,203.561,14.601,315.299,21.397
			c151.132,7.688,366.653,3.114,366.653,3.114"/>
		<path fill="none" stroke="#EC008C" stroke-miterlimit="10" d="M844.357,779.091c0,0-259.879-3.227-336.265-8.734
			c-76.386-5.51-345.69-21.776-345.69-21.776"/>
		<path fill="none" stroke="#EC008C" stroke-miterlimit="10" d="M158.758,834.938c0,0,139.604,15.816,326.923,22.271
			c187.319,6.455,355.031,1.24,355.031,1.24"/>
		<path fill="none" stroke="#EC008C" stroke-miterlimit="10" d="M181.396,260.784c138.938,28.224,508.663,54.853,681.955,13.512"/>
		<path fill="none" stroke="#EC008C" stroke-miterlimit="10" d="M858.935,378.746c-187.268,37.596-587.306,10.713-679.954-3.512"/>
		<path fill="none" stroke="#EC008C" stroke-miterlimit="10" d="M179.316,313.352c172.895,41.625,522.223,40.7,681.954,11.512"/>
		<path fill="none" stroke="#EC008C" stroke-miterlimit="10" d="M856.77,443.417c-197.103,24.924-584.139,4.719-681.954-9.512"/>
		<path fill="none" stroke="#EC008C" stroke-miterlimit="10" d="M175.854,145.282c200.479,43.061,505.43,72.629,691.955,35.512"/>
		<path fill="none" stroke="#EC008C" stroke-miterlimit="10" d="M178.189,89.4C323,129.011,732.62,169.482,870.144,130.913"/>
		<path fill="none" stroke="#EC008C" stroke-miterlimit="10" d="M865.643,226.466C599,274.343,291.711,230.899,180.689,204.954"/>
	</g>
	<g id="moved_x5F_doc" display="inline">
		<path fill="none" stroke="#EC008C" stroke-miterlimit="10" d="M187.373,23.292c0,0,12.512,247.667,13.403,432.354
			c0.891,184.687-1.946,345.356-31.812,396.991"/>
		<path fill="none" stroke="#EC008C" stroke-miterlimit="10" d="M868.388,79.233c-44.055,79.77-41.494,215.864-50.144,379.05
			c-8.65,163.186-29.896,362.501-9.266,424.297"/>
		<line fill="none" stroke="#EC008C" stroke-miterlimit="10" x1="527.249" y1="66.157" x2="494.84" y2="869.504"/>
		<line fill="none" stroke="#EC008C" stroke-miterlimit="10" x1="364.128" y1="59.576" x2="331.719" y2="862.923"/>
		<line fill="none" stroke="#EC008C" stroke-miterlimit="10" x1="670.376" y1="71.931" x2="637.967" y2="875.277"/>
		<path fill="none" stroke="#EC008C" stroke-miterlimit="10" d="M281.198,41.392c0,0-15.817,455.055-17.007,576.334
			c-1.19,121.28-11.402,242.012-11.402,242.012"/>
		<line fill="none" stroke="#EC008C" stroke-miterlimit="10" x1="444.11" y1="62.803" x2="411.701" y2="866.149"/>
		<line fill="none" stroke="#EC008C" stroke-miterlimit="10" x1="610.389" y1="69.511" x2="577.979" y2="872.857"/>
		<line fill="none" stroke="#EC008C" stroke-miterlimit="10" x1="699.843" y1="73.12" x2="667.434" y2="876.467"/>
		<path fill="none" stroke="#EC008C" stroke-miterlimit="10" d="M221.526,24.227c0,0-0.416,382.094,0.529,549.436
			C221.667,784.336,198,859.738,198,859.738"/>
		<path fill="none" stroke="#EC008C" stroke-miterlimit="10" d="M253.835,34.288c0,0-12.368,426.677-10.887,548.049
			c1.481,121.372-17.522,276.298-17.522,276.298"/>
		<line fill="none" stroke="#EC008C" stroke-miterlimit="10" x1="310.455" y1="49.411" x2="278.046" y2="860.758"/>
		<line fill="none" stroke="#EC008C" stroke-miterlimit="10" x1="336.765" y1="51.472" x2="304.356" y2="861.818"/>
		<line fill="none" stroke="#EC008C" stroke-miterlimit="10" x1="390.438" y1="60.638" x2="358.028" y2="863.984"/>
		<line fill="none" stroke="#EC008C" stroke-miterlimit="10" x1="416.748" y1="61.699" x2="384.338" y2="865.046"/>
		<line fill="none" stroke="#EC008C" stroke-miterlimit="10" x1="470.42" y1="63.864" x2="438.011" y2="867.211"/>
		<line fill="none" stroke="#EC008C" stroke-miterlimit="10" x1="465.373" y1="868.314" x2="497.782" y2="64.968"/>
		<line fill="none" stroke="#EC008C" stroke-miterlimit="10" x1="554.611" y1="67.261" x2="522.202" y2="870.607"/>
		<line fill="none" stroke="#EC008C" stroke-miterlimit="10" x1="549.564" y1="871.711" x2="581.974" y2="68.365"/>
		<line fill="none" stroke="#EC008C" stroke-miterlimit="10" x1="639.855" y1="70.7" x2="607.446" y2="874.046"/>
		<path fill="none" stroke="#EC008C" stroke-miterlimit="10" d="M730.362,74.351c0,0-9.783,397.308-16.906,468.651
			s-15.503,334.695-15.503,334.695"/>
		<path fill="none" stroke="#EC008C" stroke-miterlimit="10" d="M728.42,881.392c-4.087-125.05,28.905-758.656,36.409-805.852"/>
		<path fill="none" stroke="#EC008C" stroke-miterlimit="10" d="M797.401,76.813c-12.323,86.667-23.309,283.952-32.091,475.512
			c-6.707,146.308-13.797,301.774-9.318,327.835"/>
		<path fill="none" stroke="#EC008C" stroke-miterlimit="10" d="M783.513,881.392c-5.846-74.386-3.849-183.666,4.319-287.023
			c8.168-103.358,8.447-367.133,44.09-518.322"/>
	</g>
</g>
</svg>
