<?xml version="1.0" encoding="utf-8"?>
<!-- Generator: Adobe Illustrator 23.0.0, SVG Export Plug-In . SVG Version: 6.00 Build 0)  -->
<svg version="1.1" id="faceKids" xmlns="http://www.w3.org/2000/svg" xmlns:xlink="http://www.w3.org/1999/xlink" x="0px" y="0px"
	 viewBox="0 0 1000 1000" style="enable-background:new 0 0 1000 1000;" xml:space="preserve">
<style type="text/css">
	.st0{display:none;}
	.st1{display:inline;}
	.st2{fill:none;stroke:#000000;stroke-miterlimit:10;}
</style>
<g id="default" class="st0">
	<g id="default_ngang" class="st1">
		<g>
			<path class="st2" d="M142.7,693.5c62.3,30.9,131.2,54.6,201,65.8c66.8,10.8,112.9,13.8,170.3,13.7c55.9,0,111.5-4.3,166.3-13.2
				c71.7-11.6,133.4-35.1,205-67.7"/>
		</g>
		<g>
			<path class="st2" d="M142.7,684.2c62.8,28.1,131.5,47.6,201.1,58.5c56.2,8.8,113,15.1,170.2,15c55.8,0,111.5-6.4,166.3-14.8
				c71.7-11,134.9-30.6,205-59.2"/>
		</g>
		<g>
			<path class="st2" d="M142.7,679.4c66.2,19.8,131.8,39.7,201.2,49.9c56.2,8.3,113.1,13.4,170.1,13.3c55.8-0.1,111.4-6,166.4-13.7
				c71.4-10,135.9-29.1,204.9-53.4"/>
		</g>
		<g>
			<path class="st2" d="M142.7,669.5c66.6,17.7,132.3,37.7,201.3,46.9c56.3,7.6,113,11.1,170,11c55.8-0.1,111.4-5.3,166.6-12.1
				c71.1-8.8,135.8-24.7,204.8-50.3"/>
		</g>
		<g>
			<path class="st2" d="M142.7,662c66.8,15.5,132.8,33.5,201.4,41.8c56.4,6.8,113,8.7,169.9,8.5c55.8-0.2,111.3-4.5,166.7-10.5
				c70.8-7.6,136.6-24.7,204.6-42.9"/>
		</g>
		<g>
			<path class="st2" d="M142.7,653.6c67,13.6,133.2,29.8,201.6,37.2c56.5,6.2,112.9,6.6,169.8,6.3c55.8-0.2,111.3-3.9,166.8-9
				c70.6-6.5,136.3-21,204.5-38.1"/>
		</g>
		<g>
			<path class="st2" d="M142.7,641c68.1,19.8,133.5,28.2,201.6,35.1c56.5,5.7,112.9,7,169.7,6.7c55.8-0.3,111.3-4.5,166.9-9
				c70.6-5.7,136.1-19.2,204.4-35.8"/>
		</g>
		<g>
			<path class="st2" d="M142.7,629.8c66.9,11.9,133.6,25.7,201.6,32.2c56.4,5.4,113.1,4.7,169.7,4.5c55.8-0.2,111.4-3.8,166.9-7.8
				c70.5-5.2,136.1-16.5,204.4-32.9"/>
		</g>
		<g>
			<path class="st2" d="M142.7,617.7c65.9,10.7,131.8,23.1,198.6,29c57.4,5.1,115.1,4.6,172.8,4.4c125.3-0.5,249.9-9.2,371.3-36.2"
				/>
		</g>
		<g>
			<path class="st2" d="M142.7,607.7c65.9,8.8,131.8,19.5,198.3,24.4c57.5,4.2,115.3,3.7,173,3.6c124.4-0.4,249.7-6.1,371.3-29.2"/>
		</g>
		<g>
			<path class="st2" d="M142.7,600.3c66.8,6.5,133.6,13.9,200.7,17.6c56.8,3.1,113.7,2.5,170.6,2.4c123.7-0.3,249.3-3.2,371.3-21.5"
				/>
		</g>
		<g>
			<path class="st2" d="M142.7,593.1c124,7.3,247.1,11.8,371.3,11.7c123.4-0.1,248.7-0.9,371.3-13.6"/>
		</g>
		<g>
			<path class="st2" d="M142.7,584.5c123.8,3.2,247.5,4.8,371.3,4.8c123.5,0,248,0,371.3-7"/>
		</g>
		<g>
			<path class="st2" d="M142.7,573.3c247.4,1,495.3,3.9,742.7,0"/>
		</g>
		<g>
			<path class="st2" d="M142.7,558.9c247.5-0.9,495.1,1.2,742.7,3.1"/>
		</g>
		<g>
			<path class="st2" d="M142.7,546.6c247.5-5.7,495.2-6.6,742.7,3.8"/>
		</g>
		<g>
			<path class="st2" d="M142.7,536.4c248.3-13.2,495-18.4,742.7,4.7"/>
		</g>
		<g>
			<path class="st2" d="M142.7,527.1c123.6-10.9,247-21,371.3-21c125.5,0.1,247.8,8.2,371.3,27"/>
		</g>
		<g>
			<path class="st2" d="M142.7,517.8c123.4-15,246.4-29.5,371.3-29.4c56.5,0,113,3.1,169.3,7.1c68.9,4.8,135,16.6,202,30.7"/>
		</g>
		<g>
			<path class="st2" d="M142.7,507.2C265.9,488.8,388.5,470.9,514,471c56.5,0,113.1,3.9,169.4,8.7c69.9,6,135,21,202,38.3"/>
		</g>
		<g>
			<path class="st2" d="M142.7,498c123.2-20.1,245.5-43.5,371.3-43.4c56.6,0,113.1,4.1,169.4,9.5c70.8,6.9,134.8,25,202,44.2"/>
		</g>
		<g>
			<path class="st2" d="M142.7,487c125.7-25.2,245.3-47.7,371.3-47.6c56.6,0,113,4,169.2,9.8c70.9,7.3,135,27.6,202.1,47.8"/>
		</g>
		<g>
			<path class="st2" d="M142.7,475.4c125.7-27.7,244.7-50,371.3-49.9c56.6,0,112.8,4.5,168.9,10.7c71.1,7.9,135.5,30,202.5,51.5"/>
		</g>
		<g>
			<path class="st2" d="M142.7,467.5c131.1-31,244-55.4,371.3-55.3c55.6,0,110.9,5.1,166,11.8c72.1,8.8,137.9,28.2,205.4,51.6"/>
		</g>
		<g>
			<path class="st2" d="M142.7,458.8c122.4-30.1,243-59.7,371.3-59.6c128.3,0,253.8,22.3,371.3,66"/>
		</g>
		<g>
			<path class="st2" d="M142.7,451.4c65.3-18,129.8-38.7,197.5-49.3c57.3-9,115.5-16.1,173.9-16.1c127.7,0,255.6,22.5,371.3,68.4"/>
		</g>
		<g>
			<path class="st2" d="M142.7,444.8c53.2-22,129.7-47.7,197.6-60.1c67.4-12.4,115.3-16.3,173.8-16.3c127.1,0,257.2,31,371.3,78.5"
				/>
		</g>
		<g>
			<path class="st2" d="M142.7,434.9c80.8-38.7,120.4-51.8,197.7-65.5c57.2-10.1,115.1-14.9,173.7-14.9
				c126.5,0,249.7,17.8,371.3,82.7"/>
		</g>
	</g>
	<g id="default_doc" class="st1">
		<g>
			<path class="st2" d="M165.6,339.9c0,151,0,302,0,453"/>
		</g>
		<g>
			<path class="st2" d="M195.8,339.9c0,151,0,302,0,453"/>
		</g>
		<g>
			<path class="st2" d="M226.1,339.9c0,151,0,302,0,453"/>
		</g>
		<g>
			<path class="st2" d="M256.4,339.9c0,151,0,302,0,453"/>
		</g>
		<g>
			<path class="st2" d="M286.6,339.9c0,151,0,302,0,453"/>
		</g>
		<g>
			<path class="st2" d="M316.9,339.9c0,151,0,302,0,453"/>
		</g>
		<g>
			<path class="st2" d="M347.1,339.9c0,151,0,302,0,453"/>
		</g>
		<g>
			<path class="st2" d="M377.4,339.9c0,151,0,302,0,453"/>
		</g>
		<g>
			<path class="st2" d="M407.7,339.9c0,151,0,302,0,453"/>
		</g>
		<g>
			<path class="st2" d="M437.9,339.9c0,151,0,302,0,453"/>
		</g>
		<g>
			<path class="st2" d="M468.2,339.9c0,151,0,302,0,453"/>
		</g>
		<g>
			<path class="st2" d="M498.4,339.9c0,151,0,302,0,453"/>
		</g>
		<g>
			<path class="st2" d="M528.7,339.9c0,151,0,302,0,453"/>
		</g>
		<g>
			<path class="st2" d="M559,339.9c0,151,0,302,0,453"/>
		</g>
		<g>
			<path class="st2" d="M589.2,339.9c0,151,0,302,0,453"/>
		</g>
		<g>
			<path class="st2" d="M619.5,339.9c0,151,0,302,0,453"/>
		</g>
		<g>
			<path class="st2" d="M649.8,339.9c0,151,0,302,0,453"/>
		</g>
		<g>
			<path class="st2" d="M680,339.9c0,151,0,302,0,453"/>
		</g>
		<g>
			<path class="st2" d="M710.3,339.9c0,151,0,302,0,453"/>
		</g>
		<g>
			<path class="st2" d="M740.5,339.9c0,151,0,302,0,453"/>
		</g>
		<g>
			<path class="st2" d="M770.8,339.9c0,151,0,302,0,453"/>
		</g>
		<g>
			<path class="st2" d="M801.1,339.9c0,151,0,302,0,453"/>
		</g>
		<g>
			<path class="st2" d="M831.3,339.9c0,151,0,302,0,453"/>
		</g>
		<g>
			<path class="st2" d="M861.6,339.9c0,151,0,302,0,453"/>
		</g>
	</g>
</g>
<g id="moved">
	<g id="moved_ngang">
		<g>
			<g>
				<path class="st2" d="M198.7,568.6c20.1,27.7,44.6,67,65.7,91.4c27.1,31.4,34,37.6,58.3,57.6c54,44.5,106.5,76.1,176.3,77.4
					c63.3,1.2,111.6-18.3,160.5-58.6c29.2-24.1,60.8-49.8,86.1-78.7c23.4-26.7,43.1-60.9,68.2-89.7"/>
			</g>
			<g>
				<path class="st2" d="M196.5,560.1c22,26.5,39.9,55.7,60.8,83c18.4,24,40.8,42.4,64.5,61.1c24.7,19.4,50.3,39.1,78.9,52.6
					c30.7,14.5,65.3,19.7,98.1,20.2c26.9,0.4,55.8-2.3,82.1-11.3c29.1-10,55.1-28.6,79-46.9c29.5-22.6,59.8-47.3,84.8-75.5
					c24.4-27.5,47.1-56.9,72.2-84.9"/>
			</g>
			<g>
				<path class="st2" d="M194.9,553.1c23.6,26.7,42.3,56.2,63.5,84.6c21.8,29.1,50.7,50.9,80,71.2c49.8,34.5,100.3,50.5,160.4,50.9
					c26.9,0.2,55.7-1.9,82.2-9.4c29.1-8.3,55.3-25.4,79.4-42.6c29.9-21.3,59.7-45.4,84.7-73.2c24.5-27.3,47.8-57.4,73.8-83.3"/>
			</g>
			<g>
				<path class="st2" d="M193.6,546.5c21.9,27.3,43.4,56,64.7,83.3c22.4,28.7,50.3,51,80,70.7c23.9,15.9,49.9,30.4,78.7,36.7
					c26.6,5.8,55.1,6.8,81.8,6.8c26.9,0,55.7-1.2,82.3-7.4c29.2-6.7,55.6-22.3,79.7-38.7c60.5-40.8,107-102.4,159.6-153.7"/>
			</g>
			<g>
				<path class="st2" d="M192.4,541.7c22.8,25.7,44,53.3,65.8,78.9c23.1,27.2,51.1,49.9,80.3,69c23.7,15.4,49.7,29,78.6,33.6
					c26.6,4.2,55,3.6,81.6,3.5c27-0.2,55.6-0.3,82.4-5.2c29.2-5.4,55.6-20.1,79.8-35.9c60.2-39.3,108.6-97.6,160.9-147.9"/>
			</g>
			<g>
				<path class="st2" d="M191,535.4c21.7,23.8,44.1,50.7,68.1,76.3c23.9,25.5,51,46.7,79.7,65.2c23.4,15.1,49.8,29.2,78.5,32.6
					c26.6,3.2,54.7,1.4,81.4,1.2c28.5-0.2,59.1,1.5,87.3-4.4c32.4-6.7,62-24.5,89.3-42.5c55.5-36.7,100.1-87.7,148-133.4"/>
			</g>
			<g>
				<path class="st2" d="M189.1,529.9c22.5,21.9,44.4,46.2,69,69.9c24.6,23.8,53.1,43.7,81.5,61.5c23.6,14.8,50,31.6,78.7,34.8
					c26.5,2.9,54.3,0.8,80.9,0.6c28.4-0.2,58.5,1.3,86.6-3.8c32-5.9,62-21.5,89.6-38.2c57.3-34.6,101.8-84.6,149.8-130.5"/>
			</g>
			<g>
				<path class="st2" d="M186.5,520.2c49.3,48.6,95.6,92.8,154.1,128.3c23.9,14.5,50.4,28.4,79.1,31.5c26.3,2.9,53.8,0.7,80.2,0.5
					c28.3-0.2,57.7,1,85.8-3.4c31.8-5,62-18.5,90-33.9c59.4-32.9,104-80.9,152.4-127.4"/>
			</g>
			<g>
				<path class="st2" d="M184.1,509.9c23.8,24.3,47.3,46.3,73.7,67.9c25.8,21.1,55.4,38.4,83.7,54.8c24.3,14.2,51,28,79.9,31.2
					c26,2.8,53.4,0.8,79.5,0.6c62.2-0.5,118.3-3.5,175-32.1c60.9-30.8,106.3-79.4,155.2-125.6"/>
			</g>
			<g>
				<path class="st2" d="M182.3,499.5c24.9,23.9,48.5,46.6,76.2,67.4c26.8,20.2,57.8,36.1,86.8,52c24.3,13.3,50.7,26.3,79.1,29
					c25.4,2.4,51.8,0.5,77.3,0.4c60.4-0.3,118-1,174-26.8c62.1-28.6,109.1-78.6,158.1-124.6"/>
			</g>
			<g>
				<path class="st2" d="M181.1,490c23.7,20.9,46.8,42.9,72.7,61c23.1,16.2,49.2,27.3,74.1,40.5c27.1,14.4,54.8,30.5,85.1,37
					c28.5,6.1,60.2,3.5,89.1,3.5c59-0.1,117.7,1.2,173.3-22.3c62.1-26.3,110.9-75.9,160.4-119.9"/>
			</g>
			<g>
				<path class="st2" d="M180.1,484.6c23.2,19,46.1,38.7,71.3,55.1c24.2,15.7,51,26.3,76.9,39c26.3,12.9,52.9,27,81.7,33.6
					c29.5,6.7,62.2,3.8,92.2,3.7c58.6,0,117,2.2,172.7-19.4c61.7-24,112.7-70.4,162.6-112.5"/>
			</g>
			<g>
				<path class="st2" d="M178.9,478.9c23.6,18,47.1,36.6,72.6,51.9c24.5,14.7,51.2,24.8,77.2,36.4c26.3,11.7,53,24,81.4,29.6
					c29.7,5.8,62,3,92.1,3c58.2,0,116.5,2.8,172.4-16.6c61.7-21.4,114.6-65,164.7-105.4"/>
			</g>
			<g>
				<path class="st2" d="M177.5,472.2c48,34.1,94.2,61,148.7,83.3c29.7,12.1,60.3,24.4,92.4,28.1c27.5,3.2,56,1.2,83.7,1.3
					c56.7,0.2,114,2.9,169-13.9c62.9-19.1,118.6-60.8,170.1-100.4"/>
			</g>
			<g>
				<path class="st2" d="M175.5,462.7c47.1,31.2,94.7,61,151.5,81.3c29.5,10.6,60.2,20.1,91.6,22.5c27.7,2,55.9,0.5,83.6,0.4
					c56.3,0,113.7,3.2,168.7-11.3c63-16.6,120.3-55,172.1-93.3"/>
			</g>
			<g>
				<path class="st2" d="M173.7,450.4c50.7,31.3,99.8,65.7,157.2,83.2c57,17.3,112.5,16.2,171.3,16.2c57.1-0.1,115.7,4.2,171.7-8.8
					c61.6-14.3,118.9-48.9,169.9-85"/>
			</g>
			<g>
				<path class="st2" d="M171.9,442c51.5,29.2,101.9,63.9,159.6,78.9c56.5,14.6,113.1,11.6,170.8,11.6c56.9,0,115.1,4.9,171.4-5.6
					c61.2-11.3,119.2-42.9,170.5-76.9"/>
			</g>
			<g>
				<path class="st2" d="M170.1,433.8c52.1,26.5,103.7,59.2,161.3,71.7c56.5,12.3,113.6,7.3,170.7,7.3c57.1,0,115,5.4,172-2
					c60.4-7.8,118.6-34.7,170.2-66"/>
			</g>
			<g>
				<path class="st2" d="M168.2,425.2c52.8,26.1,104.5,58.4,163.4,68c56.5,9.2,113.9,0.8,170.6,0.8c51.8,0,104.1,4.3,155.7-0.4
					c65.3-6,128-22.9,186.7-54.1"/>
			</g>
			<g>
				<path class="st2" d="M166.5,415.4c46.2,23.6,111.6,62.3,165.2,67.1c56.8,5.1,114-6.6,170.5-6.6c51.8,0,103.6,4.2,155.5,0.1
					c66.9-5.3,125.4-15.4,186.9-44.2"/>
			</g>
			<g>
				<path class="st2" d="M164.8,404.7c52.4,28.9,105.4,64.7,166.9,65.7c57.1,0.9,113.6-11.7,170.4-11.7
					c52.7,0.1,105.2,3.4,158.1-0.5c31.5-2.3,63.4-1.8,94.9-5.6c32.3-3.9,60.9-15,89.8-29.5"/>
			</g>
			<g>
				<path class="st2" d="M163.5,397.1c53,31.5,105.1,57.4,168.5,55c57.1-2.1,113.4-9.3,170.2-9.2c52.7,0.1,105,2.7,157.8-1.4
					c31.8-2.5,63.9-0.5,95.8-2.1c32.9-1.7,61.3-11.2,90.3-26.5"/>
			</g>
			<g>
				<path class="st2" d="M162.8,388.9c55,33.1,104.3,51.3,169.2,46.5c56.6-4.2,113.7-7.2,170.1-7.1c52.6,0.1,104.8,2.7,157.4-1.1
					c65.5-4.8,126.4,10.2,188-20.9"/>
			</g>
			<g>
				<path class="st2" d="M162.5,380.7c26.3,15.4,53,30.1,83.2,35.9c29.2,5.5,45.5,5.2,86.2,3.6c70.8-2.8,113.9-5.8,170.3-5.7
					c57.7,0.1,115.5,1.1,173.6,0.1c61.1-1,115,13.8,172.9-13.3"/>
			</g>
			<g>
				<path class="st2" d="M162.2,373.1c26.7,14.9,50.6,24.9,85.9,28.7c27.5,3,55.1,2.4,83,2.8c57.2,0.8,114.5-3.8,171.1-3.6
					c57.7,0.2,115.8,3.7,174.1,2.8c59.8-0.9,116.2,16.9,173.6-7.1"/>
			</g>
			<g>
				<path class="st2" d="M162,366.9c61.6,22.2,109,25.1,168.3,26.1c57.5,1,115-6,171.8-5.7c57.7,0.3,116.1,6.7,174.5,7.1
					c57.6,0.3,118.9,16.7,174.2-3"/>
			</g>
			<g>
				<path class="st2" d="M161.9,357.3c69.4,20.1,112.1,22.1,167.9,22.1c57.7,0,115.3-6.8,172.4-6.4c58,0.4,116.4,8.7,174.8,11.3
					c55.8,2.5,123.5,14.8,174.9-5.2"/>
			</g>
			<g>
				<path class="st2" d="M161.8,350.8c123.1,32,227.3,5.9,340.4,6.8c117.1,0.9,242.6,37.5,350.4,8.9"/>
			</g>
		</g>
	</g>
	<g id="moved_doc">
		<g>
			<g>
				<path class="st2" d="M177,319c2.9,57.3,9.8,113,17.8,169.8c9.2,64.8,23.8,128.2,34.2,192.6"/>
			</g>
			<g>
				<path class="st2" d="M203.6,329.7c3.9,58.8,12.7,117.1,15.9,175.8c3.6,64.8,16.2,127.6,24.2,191.7"/>
			</g>
			<g>
				<path class="st2" d="M232.6,337.8c1.5,32.7,1.7,65.7,4,98.4c2,28.2,6.5,55.3,6.1,83.8c-0.9,65,8.3,128.8,12.5,193.3"/>
			</g>
			<g>
				<path class="st2" d="M262.5,343.1c0.4,34.1-0.7,68.1,0.6,102.2c1.1,29.4,4.2,57.6,2.7,87.1c-3.6,66.3,2.1,131.6,3.5,197.6"/>
			</g>
			<g>
				<path class="st2" d="M291.5,345.3c-0.4,38.3-2.8,76.3-1.6,114.6c0.9,27.9,2.4,55.2,0,83.2c-2.9,35.1-3.7,70.7-4.9,105.9
					c-1.2,33.4,5.3,65.7,6.3,99"/>
			</g>
			<g>
				<path class="st2" d="M319.3,345.3c1.6,69.3,2.3,139.1-2.2,208.3c-2.1,32.9-2.9,65.8-4.7,98.7c-2.1,37.7,3.1,74.2,3.6,111.8"/>
			</g>
			<g>
				<path class="st2" d="M347,345.3c2.4,73,1.4,145.8-1.9,218.8c-1.7,37-3.3,73.8-5.3,110.8c-1.9,35.5,1.4,70.6,0.8,106.1"/>
			</g>
			<g>
				<path class="st2" d="M374.8,345.3c3.7,150.8-3.5,301.8-8.1,452.4"/>
			</g>
			<g>
				<path class="st2" d="M402.5,345.3c1.5,156.1-4,311.5-8.2,467.3"/>
			</g>
			<g>
				<path class="st2" d="M430.2,345.3c0,79,0,158.1,0,237.1c0,41.2-3.4,80.9-6.1,121.9c-2.7,39.8-0.1,80-0.1,119.9"/>
			</g>
			<g>
				<path class="st2" d="M458,345.4c0,79,0,158,0,237c0,41.1-3,81-5.5,121.9c-2.6,42-0.5,84.3-0.5,126.3"/>
			</g>
			<g>
				<path class="st2" d="M485.7,345.7c0,163-4.1,325.7-4.4,488.6"/>
			</g>
			<g>
				<path class="st2" d="M513.5,346c0,163-2.3,326-2.2,489"/>
			</g>
			<g>
				<path class="st2" d="M541.2,346.2c0,162.3-0.7,324.5-0.4,486.8"/>
			</g>
			<g>
				<path class="st2" d="M568.9,346.3c0,160.7,0,321.3,0,482"/>
			</g>
			<g>
				<path class="st2" d="M596.7,347c0.1,157.2,0,314.5-0.1,471.7"/>
			</g>
			<g>
				<path class="st2" d="M624.4,348.6c0.2,151.7,0.2,303.4,0.3,455.2"/>
			</g>
			<g>
				<path class="st2" d="M652.2,350.4c0.3,145.1,0.1,290.1,0,435.1"/>
			</g>
			<g>
				<path class="st2" d="M679.9,351.8c0.2,71.4,0.7,142.8,1.6,214.2c0.9,66.9-3,133.5-3.5,200.3"/>
			</g>
			<g>
				<path class="st2" d="M707.7,352.3c0.5,67.6,0.1,135.1,0.7,202.6c0.6,64.1-4.5,127.9-5.7,191.9"/>
			</g>
			<g>
				<path class="st2" d="M736,352c2.6,62.6,0.8,125,3.1,187.6c1.1,30.1-1.9,59.3-5.1,89.1c-3.2,31.1-2.5,62.5-4.1,93.7"/>
			</g>
			<g>
				<path class="st2" d="M765.2,351c2,58,1.5,115.6,0.6,173.6c-0.5,31.1-6.2,61.8-10.4,92.5c-3.8,28.3-3.5,56.7-7.9,84.9"/>
			</g>
			<g>
				<path class="st2" d="M795.1,349.3c0.7,52.9,1.2,106.9-4.5,159.5c-3.5,32.3-10.9,64.6-16.3,96.7c-4.3,25.7-5.4,52.1-12.9,77.1"/>
			</g>
			<g>
				<path class="st2" d="M825.8,346.9c-0.1,20.5,0.8,41.6-1.2,62c-2.6,26.7-2.7,55.3-7.6,81.5c-6,31.7-14.6,63-20.8,94.7
					c-4.9,25.3-7.3,52.6-18,76.1"/>
			</g>
		</g>
	</g>
</g>
</svg>
