<?xml version="1.0" encoding="utf-8"?>
<!-- Generator: Adobe Illustrator 16.0.0, SVG Export Plug-In . SVG Version: 6.00 Build 0)  -->
<!DOCTYPE svg PUBLIC "-//W3C//DTD SVG 1.1//EN" "http://www.w3.org/Graphics/SVG/1.1/DTD/svg11.dtd">
<svg version="1.1" xmlns="http://www.w3.org/2000/svg" xmlns:xlink="http://www.w3.org/1999/xlink" x="0px" y="0px" width="1000px"
	 height="1000px" viewBox="0 0 1000 1000" enable-background="new 0 0 1000 1000" xml:space="preserve">
<g id="Layer_4" display="none">
	<g id="Layer_3" display="inline">
		<line fill="none" stroke="#2E3192" stroke-miterlimit="10" x1="500" y1="289.26" x2="500" y2="879.504"/>
		<line fill="none" stroke="#2E3192" stroke-miterlimit="10" x1="132.521" y1="385.195" x2="132.521" y2="772.423"/>
		<line fill="none" stroke="#2E3192" stroke-miterlimit="10" x1="876.423" y1="378.691" x2="876.423" y2="788.447"/>
		<line fill="none" stroke="#2E3192" stroke-miterlimit="10" x1="155.285" y1="378.691" x2="155.285" y2="781.943"/>
		<line fill="none" stroke="#2E3192" stroke-miterlimit="10" x1="178.049" y1="368.935" x2="178.049" y2="788.447"/>
		<line fill="none" stroke="#2E3192" stroke-miterlimit="10" x1="200.813" y1="361.618" x2="200.813" y2="807.146"/>
		<line fill="none" stroke="#2E3192" stroke-miterlimit="10" x1="223.577" y1="352.675" x2="223.577" y2="807.146"/>
		<line fill="none" stroke="#2E3192" stroke-miterlimit="10" x1="246.716" y1="347.797" x2="246.716" y2="824.22"/>
		<line fill="none" stroke="#2E3192" stroke-miterlimit="10" x1="270.358" y1="341.293" x2="270.358" y2="833.976"/>
		<line fill="none" stroke="#2E3192" stroke-miterlimit="10" x1="294.309" y1="341.293" x2="294.309" y2="840.479"/>
		<line fill="none" stroke="#2E3192" stroke-miterlimit="10" x1="317.886" y1="333.163" x2="317.886" y2="852.675"/>
		<line fill="none" stroke="#2E3192" stroke-miterlimit="10" x1="341.902" y1="330.098" x2="341.902" y2="846.357"/>
		<line fill="none" stroke="#2E3192" stroke-miterlimit="10" x1="366.293" y1="322.594" x2="366.293" y2="860.805"/>
		<line fill="none" stroke="#2E3192" stroke-miterlimit="10" x1="392.683" y1="322.594" x2="392.683" y2="855.927"/>
		<line fill="none" stroke="#2E3192" stroke-miterlimit="10" x1="419.325" y1="316.463" x2="419.325" y2="862.805"/>
		<line fill="none" stroke="#2E3192" stroke-miterlimit="10" x1="447.155" y1="312.837" x2="447.155" y2="855.927"/>
		<line fill="none" stroke="#2E3192" stroke-miterlimit="10" x1="473.545" y1="312.837" x2="473.545" y2="862.805"/>
		<line fill="none" stroke="#2E3192" stroke-miterlimit="10" x1="854.285" y1="377.691" x2="854.285" y2="780.943"/>
		<line fill="none" stroke="#2E3192" stroke-miterlimit="10" x1="830.049" y1="367.935" x2="830.049" y2="787.447"/>
		<line fill="none" stroke="#2E3192" stroke-miterlimit="10" x1="805.813" y1="360.618" x2="805.813" y2="806.146"/>
		<line fill="none" stroke="#2E3192" stroke-miterlimit="10" x1="781.577" y1="351.675" x2="781.577" y2="806.146"/>
		<line fill="none" stroke="#2E3192" stroke-miterlimit="10" x1="755.716" y1="346.797" x2="755.716" y2="823.22"/>
		<line fill="none" stroke="#2E3192" stroke-miterlimit="10" x1="703.357" y1="340.293" x2="703.357" y2="832.976"/>
		<line fill="none" stroke="#2E3192" stroke-miterlimit="10" x1="730.309" y1="340.293" x2="730.309" y2="839.479"/>
		<line fill="none" stroke="#2E3192" stroke-miterlimit="10" x1="677.887" y1="332.163" x2="677.887" y2="851.675"/>
		<line fill="none" stroke="#2E3192" stroke-miterlimit="10" x1="651.902" y1="329.098" x2="651.902" y2="845.357"/>
		<line fill="none" stroke="#2E3192" stroke-miterlimit="10" x1="627.293" y1="321.594" x2="627.293" y2="859.805"/>
		<line fill="none" stroke="#2E3192" stroke-miterlimit="10" x1="602.684" y1="321.594" x2="602.684" y2="854.927"/>
		<line fill="none" stroke="#2E3192" stroke-miterlimit="10" x1="578.325" y1="315.463" x2="578.325" y2="861.805"/>
		<line fill="none" stroke="#2E3192" stroke-miterlimit="10" x1="553.154" y1="311.837" x2="553.154" y2="854.927"/>
		<line fill="none" stroke="#2E3192" stroke-miterlimit="10" x1="526.545" y1="311.837" x2="526.545" y2="861.805"/>
	</g>
	<g id="Layer_2" display="inline">
		<path fill="none" stroke="#2E3192" stroke-miterlimit="10" d="M129.521,408.772c0,0,185.927-79.675,370.479-79.675
			s379.423,79.675,379.423,79.675"/>
		<path fill="none" stroke="#2E3192" stroke-miterlimit="10" d="M129.521,753.488c0,0,185.927,80.487,370.479,80.487
			s379.423-80.487,379.423-80.487"/>
		<path fill="none" stroke="#2E3192" stroke-miterlimit="10" d="M129.521,425.033c0,0,185.37-66.667,370.479-66.667
			s379.423,66.667,379.423,66.667"/>
		<path fill="none" stroke="#2E3192" stroke-miterlimit="10" d="M129.521,444.545c0,0,184.301-59.35,370.479-59.35
			s379.423,59.35,379.423,59.35"/>
		<path fill="none" stroke="#2E3192" stroke-miterlimit="10" d="M129.521,464.057c0,0,185.927-54.285,370.479-54.285
			s379.423,54.285,379.423,54.285"/>
		<path fill="none" stroke="#2E3192" stroke-miterlimit="10" d="M129.521,483.569c0,0,185.927-46.407,370.479-46.407
			s379.423,46.407,379.423,46.407"/>
		<path fill="none" stroke="#2E3192" stroke-miterlimit="10" d="M129.521,504.707c0,0,186.374-41.341,370.479-41.341
			s379.423,41.341,379.423,41.341"/>
		<path fill="none" stroke="#2E3192" stroke-miterlimit="10" d="M129.521,526.658c0,0,185.927-32.089,370.479-32.089
			s379.423,32.089,379.423,32.089"/>
		<path fill="none" stroke="#2E3192" stroke-miterlimit="10" d="M129.521,546.171c0,0,185.927-18.96,370.479-18.96
			s379.423,18.96,379.423,18.96"/>
		<path fill="none" stroke="#2E3192" stroke-miterlimit="10" d="M129.521,567.309c0,0,184.301-8.081,370.479-8.081
			s379.423,8.081,379.423,8.081"/>
		<path fill="none" stroke="#2E3192" stroke-miterlimit="10" d="M129.521,586.821c0,0,185.927,1.487,370.479,1.487
			s379.423-1.487,379.423-1.487"/>
		<path fill="none" stroke="#2E3192" stroke-miterlimit="10" d="M129.521,605.521c0,0,185.927,9.805,370.479,9.805
			s379.423-9.805,379.423-9.805"/>
		<path fill="none" stroke="#2E3192" stroke-miterlimit="10" d="M129.521,626.658c0,0,185.793,17,370.479,17s379.423-17,379.423-17"
			/>
		<path fill="none" stroke="#2E3192" stroke-miterlimit="10" d="M129.521,646.983c0,0,185.113,27.317,370.479,27.317
			s379.423-27.317,379.423-27.317"/>
		<path fill="none" stroke="#2E3192" stroke-miterlimit="10" d="M129.521,669.748c0,0,185.113,37.699,370.479,37.699
			s379.423-37.699,379.423-37.699"/>
		<path fill="none" stroke="#2E3192" stroke-miterlimit="10" d="M129.521,688.447c0,0,185.113,51.895,370.479,51.895
			s379.423-51.895,379.423-51.895"/>
		<path fill="none" stroke="#2E3192" stroke-miterlimit="10" d="M129.521,708.772c0,0,185.927,63.65,370.479,63.65
			s379.423-63.65,379.423-63.65"/>
		<path fill="none" stroke="#2E3192" stroke-miterlimit="10" d="M129.521,729.098c0,0,185.113,73.162,370.479,73.162
			s379.423-73.162,379.423-73.162"/>
	</g>
</g>
<g id="Layer_4_copy">
	<g id="Layer_3_copy">
		<line fill="none" stroke="#2E3192" stroke-miterlimit="10" x1="500" y1="289.26" x2="500" y2="879.504"/>
		<line fill="none" stroke="#2E3192" stroke-miterlimit="10" x1="153.521" y1="296.195" x2="153.521" y2="683.423"/>
		<line fill="none" stroke="#2E3192" stroke-miterlimit="10" x1="857.423" y1="302.691" x2="857.423" y2="712.447"/>
		<line fill="none" stroke="#2E3192" stroke-miterlimit="10" x1="170.285" y1="289.691" x2="175.285" y2="692.943"/>
		<line fill="none" stroke="#2E3192" stroke-miterlimit="10" x1="191.049" y1="297.935" x2="191.049" y2="717.447"/>
		<line fill="none" stroke="#2E3192" stroke-miterlimit="10" x1="211.813" y1="294.618" x2="211.813" y2="740.146"/>
		<line fill="none" stroke="#2E3192" stroke-miterlimit="10" x1="233.577" y1="292.675" x2="233.577" y2="747.146"/>
		<line fill="none" stroke="#2E3192" stroke-miterlimit="10" x1="255.716" y1="297.797" x2="255.716" y2="774.22"/>
		<line fill="none" stroke="#2E3192" stroke-miterlimit="10" x1="278.358" y1="295.293" x2="278.358" y2="787.976"/>
		<line fill="none" stroke="#2E3192" stroke-miterlimit="10" x1="300.309" y1="296.293" x2="300.309" y2="795.479"/>
		<line fill="none" stroke="#2E3192" stroke-miterlimit="10" x1="322.886" y1="290.163" x2="322.886" y2="809.675"/>
		<line fill="none" stroke="#2E3192" stroke-miterlimit="10" x1="346.902" y1="292.098" x2="346.902" y2="808.357"/>
		<line fill="none" stroke="#2E3192" stroke-miterlimit="10" x1="371.293" y1="295.594" x2="371.293" y2="843.805"/>
		<line fill="none" stroke="#2E3192" stroke-miterlimit="10" x1="397.683" y1="295.594" x2="397.683" y2="828.927"/>
		<line fill="none" stroke="#2E3192" stroke-miterlimit="10" x1="423.325" y1="289.463" x2="423.325" y2="845.805"/>
		<line fill="none" stroke="#2E3192" stroke-miterlimit="10" x1="449.155" y1="295.837" x2="449.155" y2="838.927"/>
		<line fill="none" stroke="#2E3192" stroke-miterlimit="10" x1="474.545" y1="295.837" x2="474.545" y2="845.805"/>
		<line fill="none" stroke="#2E3192" stroke-miterlimit="10" x1="835.285" y1="301.691" x2="835.285" y2="704.943"/>
		<line fill="none" stroke="#2E3192" stroke-miterlimit="10" x1="812.049" y1="295.935" x2="812.049" y2="715.447"/>
		<line fill="none" stroke="#2E3192" stroke-miterlimit="10" x1="788.813" y1="298.618" x2="788.813" y2="744.146"/>
		<line fill="none" stroke="#2E3192" stroke-miterlimit="10" x1="766.577" y1="298.675" x2="766.577" y2="753.146"/>
		<line fill="none" stroke="#2E3192" stroke-miterlimit="10" x1="742.716" y1="297.797" x2="742.716" y2="774.22"/>
		<line fill="none" stroke="#2E3192" stroke-miterlimit="10" x1="695.357" y1="296.293" x2="695.357" y2="788.976"/>
		<line fill="none" stroke="#2E3192" stroke-miterlimit="10" x1="719.309" y1="296.293" x2="719.309" y2="795.479"/>
		<line fill="none" stroke="#2E3192" stroke-miterlimit="10" x1="671.887" y1="290.163" x2="671.887" y2="809.675"/>
		<line fill="none" stroke="#2E3192" stroke-miterlimit="10" x1="647.902" y1="287.098" x2="647.902" y2="803.357"/>
		<line fill="none" stroke="#2E3192" stroke-miterlimit="10" x1="623.293" y1="290.594" x2="623.293" y2="828.805"/>
		<line fill="none" stroke="#2E3192" stroke-miterlimit="10" x1="598.684" y1="294.594" x2="598.684" y2="827.927"/>
		<line fill="none" stroke="#2E3192" stroke-miterlimit="10" x1="574.325" y1="295.463" x2="574.325" y2="841.805"/>
		<line fill="none" stroke="#2E3192" stroke-miterlimit="10" x1="550.154" y1="291.837" x2="550.154" y2="834.927"/>
		<line fill="none" stroke="#2E3192" stroke-miterlimit="10" x1="525.545" y1="291.837" x2="525.545" y2="841.805"/>
	</g>
	<g id="Layer_2_copy">
		<path fill="none" stroke="#2E3192" stroke-miterlimit="10" d="M148.521,317.772c0,0,166.927-15.675,351.479-15.675
			s360.423,14.675,360.423,14.675"/>
		<path fill="none" stroke="#2E3192" stroke-miterlimit="10" d="M150.521,537.488c0,0,164.927,296.487,349.479,296.487
			s359.423-292.487,359.423-292.487"/>
		<path fill="none" stroke="#2E3192" stroke-miterlimit="10" d="M149.521,330.033c0,0,165.37,0.333,350.479,0.333
			s360.423-4.333,360.423-4.333"/>
		<path fill="none" stroke="#2E3192" stroke-miterlimit="10" d="M148.521,342.545c0,0,165.301,16.65,351.479,16.65
			s360.423-22.65,360.423-22.65"/>
		<path fill="none" stroke="#2E3192" stroke-miterlimit="10" d="M150.521,355.057c-4.333-1.083,159.25,32.715,349.479,32.715
			c184.553,0,360.423-41.715,360.423-41.715"/>
		<path fill="none" stroke="#2E3192" stroke-miterlimit="10" d="M149.521,366.569c0,0,165.927,51.593,350.479,51.593
			s360.423-62.593,360.423-62.593"/>
		<path fill="none" stroke="#2E3192" stroke-miterlimit="10" d="M149.521,377.707c0,0,166.374,71.659,350.479,71.659
			s360.423-81.659,360.423-81.659"/>
		<path fill="none" stroke="#2E3192" stroke-miterlimit="10" d="M149.521,389.658c0,0,165.927,90.911,350.479,90.911
			s360.423-100.911,360.423-100.911"/>
		<path fill="none" stroke="#2E3192" stroke-miterlimit="10" d="M149.521,402.171c0,0,165.927,110.04,350.479,110.04
			s359.423-120.04,359.423-120.04"/>
		<path fill="none" stroke="#2E3192" stroke-miterlimit="10" d="M149.521,415.309c0,0,164.301,128.919,350.479,128.919
			s360.423-139.919,360.423-139.919"/>
		<path fill="none" stroke="#2E3192" stroke-miterlimit="10" d="M150.521,428.821c0,0,164.927,147.487,349.479,147.487
			s360.423-157.487,360.423-157.487"/>
		<path fill="none" stroke="#2E3192" stroke-miterlimit="10" d="M150.521,441.521c0,0,164.927,166.805,349.479,166.805
			s359.423-174.805,359.423-174.805"/>
		<path fill="none" stroke="#2E3192" stroke-miterlimit="10" d="M150.521,455.658c0,0,164.793,184,349.479,184
			s360.423-192,360.423-192"/>
		<path fill="none" stroke="#2E3192" stroke-miterlimit="10" d="M150.521,469.983c0,0,164.113,205.317,349.479,205.317
			s359.423-211.317,359.423-211.317"/>
		<path fill="none" stroke="#2E3192" stroke-miterlimit="10" d="M150.521,484.748c0,0,164.113,224.699,349.479,224.699
			s359.423-229.699,359.423-229.699"/>
		<path fill="none" stroke="#2E3192" stroke-miterlimit="10" d="M151.521,498.447c0,0,163.113,243.895,348.479,243.895
			s360.423-248.895,360.423-248.895"/>
		<path fill="none" stroke="#2E3192" stroke-miterlimit="10" d="M151.521,512.772c0,0,163.927,261.65,348.479,261.65
			s359.423-264.65,359.423-264.65"/>
		<path fill="none" stroke="#2E3192" stroke-miterlimit="10" d="M150.521,525.098c0,0,164.113,279.162,349.479,279.162
			s359.423-279.162,359.423-279.162"/>
	</g>
</g>
</svg>
