<?xml version="1.0" encoding="UTF-8"?>
<!DOCTYPE svg  PUBLIC '-//W3C//DTD SVG 1.1//EN'  'http://www.w3.org/Graphics/SVG/1.1/DTD/svg11.dtd'>
<svg display="none" width="0" height="0" version="1.1" xmlns="http://www.w3.org/2000/svg" xmlns:xlink="http://www.w3.org/1999/xlink">
    <defs>
        <symbol viewBox="0 0 512 512" id="customize">
            <path fill="currentColor" stroke="none" d="M497.943,76.28l-62.221-62.22C426.343,4.69,414.063,0,401.783,0c-12.29,0-24.57,4.69-33.94,14.06L14.063,367.84
                c-18.75,18.75-18.75,49.141,0,67.88l62.22,62.221c9.37,9.369,21.66,14.06,33.94,14.06c12.28,0,24.57-4.69,33.94-14.06l353.77-353.78
                C516.693,125.42,516.693,95.03,497.943,76.28z M110.232,464l-62.23-62.22l223.901-223.93l62.239,62.24L110.232,464z M368.083,206.14
                l-62.24-62.24L401.733,48h0.05l62.22,62.22L368.083,206.14z M432.003,288l-26.66,53.33L352.003,368l53.34,26.67l26.66,53.33
                l26.66-53.33l53.34-26.67l-53.34-26.67L432.003,288z M224.002,96l16-32l32-16l-32-16l-16-32l-16,32l-32,16l32,16L224.002,96z
                M80.002,160l26.66-53.33L160.002,80l-53.34-26.67L80.002,0l-26.66,53.33L0.002,80l53.34,26.67L80.002,160z"/>
        </symbol>
        <symbol viewBox="0 0 21 21" id="rect">
            <path stroke="currentColor" fill="none" stroke-width="2" stroke-miterlimit="10" d="M20,16.199C20,18.298,18.297,20,16.199,20H4.801
                C2.701,20,1,18.298,1,16.199V4.801C1,2.701,2.701,1,4.801,1h11.398C18.297,1,20,2.701,20,4.801V16.199z"/>
        </symbol>
        <symbol viewBox="0 0 448 512.002" id="hand-paper-regular">
            <path fill="currentColor" d="M372.57,112.641v-10.825c0-43.612-40.52-76.691-83.039-65.546c-25.629-49.5-94.09-47.45-117.982,0.747
                C130.269,26.456,89.144,57.945,89.144,102v126.13c-19.953-7.427-43.309-5.068-62.083,8.871
                c-29.355,21.796-35.794,63.333-14.55,93.153L132.48,498.57c6.004,8.428,15.714,13.432,26.062,13.432h222.897
                c14.904,0,27.835-10.289,31.182-24.814l30.185-130.957c3.449-14.977,5.192-30.297,5.195-45.666V179
                C448.001,138.38,412.477,107.008,372.57,112.641z M399.997,310.563c0,11.731-1.334,23.469-3.965,34.886L368.707,464h-201.92
                L51.591,302.303c-14.438-20.27,15.023-42.776,29.395-22.604l27.128,38.079c8.995,12.626,29.031,6.287,29.031-9.283V102
                c0-25.645,36.57-24.81,36.57,0.691V256c0,8.837,7.163,16,16,16h6.856c8.837,0,16-7.163,16-16V67c0-25.663,36.571-24.81,36.571,0.691
                V256c0,8.837,7.163,16,16,16h6.855c8.837,0,16-7.163,16-16V101.125c0-25.672,36.57-24.81,36.57,0.691V256c0,8.837,7.163,16,16,16
                h6.857c8.837,0,16-7.163,16-16v-76.309c0-26.242,36.569-25.64,36.569-0.691v131.563H399.997z"/>
        </symbol>
        <symbol viewBox="0 0 21 21" id="circle">
            <circle fill="none" stroke="currentColor" stroke-width="2" stroke-miterlimit="10" cx="10.5" cy="10.5" r="9.5"/>
        </symbol>
        <symbol viewBox="0 0 21 15" id="mask">
            <path fill="currentColor" d="M19.88,0H1.12C0.5,0,0,0.53,0,1.19v12.62C0,14.47,0.5,15,1.12,15h18.76C20.5,15,21,14.47,21,13.81V1.19
                C21,0.53,20.5,0,19.88,0z M10.6,11.31c-2.21,0-4-1.79-4-4s1.79-4,4-4c2.209,0,4,1.79,4,4S12.81,11.31,10.6,11.31z"/>
        </symbol>
        <symbol viewBox="0 0 511.975 512.05" id="search-plus-solid">
            <path fill="currentColor" d="M304,192v32c0,6.6-5.4,12-12,12h-56v56c0,6.6-5.4,12-12,12h-32c-6.6,0-12-5.4-12-12v-56h-56c-6.6,0-12-5.4-12-12v-32
                c0-6.6,5.4-12,12-12h56v-56c0-6.6,5.4-12,12-12h32c6.6,0,12,5.4,12,12v56h56C298.6,180,304,185.4,304,192z M505,476.701L476.7,505
                c-9.4,9.4-24.601,9.4-33.9,0L343,405.3c-4.5-4.5-7-10.6-7-17V372c-35.3,27.6-79.7,44-128,44C93.1,416,0,322.9,0,208S93.1,0,208,0
                c114.9,0,208,93.1,208,208c0,48.3-16.4,92.7-44,128h16.3c6.4,0,12.5,2.5,17,7l99.7,99.701C514.3,452.099,514.3,467.3,505,476.701z
                M344,208c0-75.2-60.8-136-136-136S72,132.8,72,208s60.8,136,136,136S344,283.2,344,208z"/>
        </symbol>
        <symbol viewBox="0 0 511.975 512.05" id="search-minus-solid">
            <path fill="currentColor" d="M304,192v32c0,6.6-5.4,12-12,12H124c-6.6,0-12-5.4-12-12v-32c0-6.6,5.4-12,12-12h168C298.6,180,304,185.4,304,192z
                M505,476.701L476.7,505c-9.4,9.4-24.601,9.4-33.9,0L343,405.3c-4.5-4.5-7-10.6-7-17V372c-35.3,27.6-79.7,44-128,44
                C93.1,416,0,322.9,0,208S93.1,0,208,0c114.9,0,208,93.1,208,208c0,48.3-16.4,92.7-44,128h16.3c6.4,0,12.5,2.5,17,7l99.7,99.701
                C514.3,452.099,514.3,467.3,505,476.701z M344,208c0-75.2-60.8-136-136-136S72,132.8,72,208s60.8,136,136,136S344,283.2,344,208z"/>
        </symbol>
        <symbol viewBox="0 0 512 512" id="compress-arrows-alt-solid">
            <path fill="currentColor" d="M199.95,287.95h-112c-21.4,0-32.101,25.8-17,41l32.899,31L4.65,459.25c-6.2,6.199-6.2,16.4,0,22.6l25.399,25.4
                c6.2,6.199,16.4,6.199,22.601,0l99.3-99.301l31.1,33c15.101,15.1,40.9,4.4,40.9-17v-112C223.95,298.65,213.25,287.95,199.95,287.95z
                M311.95,223.95h112c21.4,0,32.1-25.9,17-41l-33-31l99.3-99.3c6.2-6.2,6.2-16.4,0-22.6l-25.399-25.4c-6.2-6.2-16.4-6.2-22.601,0
                l-99.3,99.3l-31.1-33c-15.101-15.1-40.9-4.4-40.9,17v112C287.95,213.25,298.65,223.95,311.95,223.95z M407.95,359.95l33-31.1
                c15.1-15.1,4.4-40.9-17-40.9h-112c-13.3,0-24,10.7-24,24v112c0,21.4,25.9,32.1,41,17l31-32.9l99.3,99.3
                c6.2,6.199,16.4,6.199,22.601,0l25.399-25.4c6.2-6.199,6.2-16.4,0-22.6L407.95,359.95z M182.95,71.05l-31,32.9l-99.3-99.3
                c-6.2-6.2-16.4-6.2-22.601,0L4.65,30.05c-6.2,6.2-6.2,16.4,0,22.6l99.3,99.3l-33,31.1c-15.101,15.1-4.4,40.9,17,40.9h112
                c13.3,0,24-10.7,24-24v-112C223.95,66.65,198.05,55.95,182.95,71.05z"/>
        </symbol>
        <symbol viewBox="0 0 512 512" id="expand-arrows-alt-solid">
            <path fill="currentColor" d="M512,356.492v127.972c0,15.196-12.225,27.422-27.423,27.422H356.606c-24.452,0-36.678-29.594-19.424-46.847l41.362-41.362
                L255.943,301.189L133.456,423.792l41.362,41.247c17.253,17.253,5.027,46.847-19.424,46.847H27.422
                C12.226,511.886,0,499.66,0,484.464V356.492c0-24.452,29.593-36.677,46.847-19.424l41.362,41.362L210.81,255.943L88.209,133.342
                l-41.362,41.477C29.593,192.072,0,179.846,0,155.394V27.422C0,12.226,12.226,0,27.422,0h127.972
                c24.452,0,36.678,29.593,19.424,46.847l-41.362,41.362l122.487,122.487L378.544,88.095l-41.362-41.248
                C319.929,29.593,332.155,0,356.606,0h127.971C499.775,0,512,12.226,512,27.422v127.972c0,24.452-29.593,36.678-46.847,19.424
                l-41.362-41.362L301.19,255.943l122.601,122.601l41.362-41.362C482.407,319.815,512,332.04,512,356.492L512,356.492z"/>
        </symbol>
        <symbol viewBox="0 0 250 242.506" id="text">
            <path fill="currentColor" d="M8.929,0h232.143C246.003,0,250,3.997,250,8.929V62.5c0,4.932-3.997,8.929-8.929,8.929h-19.808
		c-4.931,0-8.928-3.997-8.928-8.929V35.714h-66.273v171.078h19.116c4.932,0,8.929,3.998,8.929,8.929v17.857
		c0,4.932-3.997,8.929-8.929,8.929H84.822c-4.932,0-8.929-3.997-8.929-8.929v-17.857c0-4.931,3.997-8.929,8.929-8.929h19.116V35.714
		H37.666V62.5c0,4.932-3.998,8.929-8.929,8.929H8.929C3.997,71.429,0,67.432,0,62.5V8.929C0,3.997,3.997,0,8.929,0z"/>
        </symbol>
        <symbol viewBox="0 0 640 448" id="bezier-curve">
            <path fill="currentColor" d="M576,144c35.35,0,64-28.65,64-64s-28.65-64-64-64c-29.79,0-54.6,20.44-61.74,48H400V32c0-17.67-14.33-32-32-32h-96
		c-17.67,0-32,14.33-32,32v32H125.74C118.6,36.44,93.79,16,64,16C28.65,16,0,44.65,0,80s28.65,64,64,64c29.79,0,54.6-20.44,61.74-48
		h112.81c-80.61,31.51-135.13,105.79-141.27,192H64c-17.67,0-32,14.33-32,32v96c0,17.67,14.33,32,32,32h96c17.67,0,32-14.33,32-32
		v-96c0-17.67-14.33-32-32-32h-30.73c5.76-69.41,48.06-129.54,111.08-158.25C241.31,146.56,254.95,160,272,160h96
		c17.05,0,30.69-13.44,31.65-30.25C462.67,158.47,504.97,218.59,510.73,288H480c-17.67,0-32,14.33-32,32v96c0,17.67,14.33,32,32,32
		h96c17.67,0,32-14.33,32-32v-96c0-17.67-14.33-32-32-32h-33.27C536.6,201.79,482.07,127.51,401.46,96h112.81
		C521.4,123.56,546.21,144,576,144L576,144z M160,416H64v-96h96V416z M64,112c-17.64,0-32-14.36-32-32s14.36-32,32-32
		s32,14.36,32,32S81.64,112,64,112z M368,128h-96V32h96V128z M576,416h-96v-96h96V416z M576,48c17.64,0,32,14.36,32,32
		s-14.36,32-32,32s-32-14.36-32-32S558.36,48,576,48z"/>
        </symbol>
        <symbol viewBox="0 0 576 368" id="eye">
            <path fill="currentColor" d="M569.354,159.631C512.97,63.949,407.81,0,288,0C168.14,0,63.004,63.994,6.646,159.631c-8.862,15.038-8.862,33.701,0,48.739
		C63.031,304.051,168.19,368,288,368c119.86,0,224.996-63.994,281.354-159.631C578.216,193.332,578.216,174.668,569.354,159.631
		L569.354,159.631z M288,320c-102.556,0-192.091-54.701-240-136C92.157,109.067,171.677,56.73,264.162,48.993
		C273.958,59.078,280,72.83,280,88c0,30.928-25.072,56-56,56s-56-25.072-56-56l0.001-0.042C157.794,107.043,152,128.844,152,152
		c0,75.111,60.889,136,136,136s136-60.889,136-136c0-31.031-10.4-59.629-27.895-82.515C451.704,92.638,498.009,133.106,528,184
		C480.092,265.299,390.556,320,288,320z"/>
        </symbol>
        <symbol viewBox="0 0 448 512" id="lock">
            <path fill="currentColor" d="M400,224h-24v-72C376,68.2,307.8,0,224,0S72,68.2,72,152v72H48c-26.5,0-48,21.5-48,48v192c0,26.5,21.5,48,48,48h352
		c26.5,0,48-21.5,48-48V272C448,245.5,426.5,224,400,224z M264,392c0,22.1-17.9,40-40,40s-40-17.9-40-40v-48c0-22.1,17.9-40,40-40
		s40,17.9,40,40V392z M296,224H152v-72c0-39.7,32.3-72,72-72s72,32.3,72,72V224z"/>
        </symbol>
        <symbol viewBox="0 0 448 512" id="trash">
            <path fill="currentColor" d="M192,188v216c0,6.627-5.373,12-12,12h-24c-6.627,0-12-5.373-12-12V188c0-6.627,5.373-12,12-12h24
		C186.627,176,192,181.373,192,188z M292,176h-24c-6.627,0-12,5.373-12,12v216c0,6.627,5.373,12,12,12h24c6.627,0,12-5.373,12-12
		V188C304,181.373,298.627,176,292,176z M424,80c13.255,0,24,10.745,24,24v12c0,6.627-5.373,12-12,12h-20v336
		c0,26.51-21.49,48-48,48H80c-26.51,0-48-21.49-48-48V128H12c-6.627,0-12-5.373-12-12v-12c0-13.255,10.745-24,24-24h74.411
		l34.018-56.696C141.104,8.846,156.729,0,173.589,0h100.823c16.86,0,32.485,8.846,41.16,23.304L349.589,80H424z M154.389,80h139.223
		L276.16,50.913c-1.084-1.807-3.038-2.913-5.145-2.913h-94.028c-2.107,0-4.061,1.106-5.145,2.913L154.389,80z M368,128H80v330
		c0,3.313,2.687,6,6,6h276c3.313,0,6-2.687,6-6V128z"/>
        </symbol>
        <symbol viewBox="0 0 81.184 100" id="vector-edit">
            <path fill="currentColor" d="M21.294,92.818c-1.898-22.651-3.795-45.302-5.691-67.953l55.546,36.172c3.14,2.014,7.608,0.244,9.24-2.84
		c1.852-3.501,0.291-7.23-2.84-9.239C58.402,36.672,6.993,3.813,3.919,1.84c0,0-3.126-2.064-3.631-1.82
		c-0.505,0.246-0.195,4.066-0.195,4.066l7.548,89.426c0.311,3.709,3.361,6.671,7.174,6.479C18.44,99.809,21.604,96.53,21.294,92.818
		L21.294,92.818z"/>
        </symbol>
        <symbol viewBox="0 0 384 48" id="minus">
            <path fill="currentColor" d="M376,0H8C3.58,0,0,3.58,0,8v32c0,4.42,3.58,8,8,8h368c4.42,0,8-3.58,8-8V8C384,3.58,380.42,0,376,0z"/>
        </symbol>
        <symbol viewBox="0 0 512 384" id="image">
            <path fill="currentColor" d="M464,0H48C21.49,0,0,21.49,0,48v288c0,26.51,21.49,48,48,48h416c26.51,0,48-21.49,48-48V48C512,21.49,490.51,0,464,0z
                M458,336H54c-3.313,0-6-2.687-6-6V54c0-3.313,2.687-6,6-6h404c3.313,0,6,2.687,6,6v276C464,333.313,461.313,336,458,336z M128,88
                c-22.091,0-40,17.909-40,40s17.909,40,40,40s40-17.909,40-40S150.091,88,128,88z M96,288h320v-80l-87.516-87.515
                c-4.686-4.686-12.283-4.686-16.971,0L192,240l-39.515-39.516c-4.686-4.686-12.284-4.686-16.971,0L96,240V288z"/>
        </symbol>
        <symbol viewBox="0 0 100 95.664" id="letter-spacing">
            <path fill="currentColor" d="M23.864,47.867L40.444,0h8.37L27.292,58.031h-6.776L-0.966,0h8.33L23.864,47.867z"/>
            <path fill="currentColor" d="M85.642,42.846H61.33l-5.46,15.185h-7.892L70.138,0h6.696l22.2,58.031h-7.852L85.642,42.846z M63.641,36.588H83.37 L73.486,9.446L63.641,36.588z"/>
            <rect fill="currentColor" x="17" y="79" width="64" height="8"/>
            <polygon fill="currentColor" points="17,70.524 17,95.664 -0.814,83.094 "/>
            <polygon fill="currentColor" points="81,95.663 81,70.523 98.813,83.093 "/>
        </symbol>
        <symbol viewBox="0 0 100 95.664" id="word-spacing">
            <path fill="currentColor" d="M24.831,55.867L41.411,8h8.37L28.258,66.031h-6.776L0,8h8.33L24.831,55.867z"/>
            <path fill="currentColor" d="M86.608,50.846H62.296l-5.46,15.185h-7.892L71.104,8H77.8L100,66.031h-7.852L86.608,50.846z M64.607,44.588h19.729	l-9.884-27.142L64.607,44.588z"/>
            <rect fill="currentColor" x="18" y="79" width="64" height="8"/>
            <polygon fill="currentColor" points="18,70.524 18,95.664 0.186,83.094 "/>
            <polygon fill="currentColor" points="82,95.663 82,70.523 99.813,83.093 "/>
            <polygon fill="currentColor" points="65.966,0 37.966,73 32.966,73 60.966,0 "/>
        </symbol>
        <symbol viewBox="0 0 120.97 100" id="font-size">
            <path fill="currentColor" d="M120.97,0.704c-0.563,3.472-0.868,7.062-0.915,10.767l-0.141,11.752l-0.704,0.704h-4.434l-0.774-0.633
		c-0.235-6.005-0.493-9.523-0.774-10.556c-0.563-1.876-2.064-2.979-4.504-3.307c-0.938-0.141-5.348-0.211-13.23-0.211h-9.43
		c-0.095,1.643-0.141,8.164-0.141,19.564v39.972c0,11.166,0.305,18.438,0.915,21.815c0.234,1.361,1.032,2.229,2.393,2.604
		c0.704,0.188,3.448,0.422,8.234,0.704l0.704,0.704v4.715L97.465,100c-4.645-0.281-11.87-0.422-21.675-0.422
		c-10.04,0-17.265,0.141-21.675,0.422l-0.633-0.633v-4.786l0.704-0.704c4.786-0.281,7.53-0.516,8.234-0.704
		c1.36-0.375,2.158-1.243,2.393-2.604c0.609-3.378,0.915-10.649,0.915-21.815V28.783c0-11.588-0.07-18.109-0.211-19.564H55.453
		c-8.398,0-13.301,0.258-14.708,0.774c-0.751,0.281-1.267,0.633-1.548,1.055c-0.422,0.751-0.774,2.252-1.056,4.504
		c-0.329,2.487-0.54,5.044-0.633,7.671l-0.704,0.704H32.37l-0.774-0.704l-0.141-12.034c-0.047-3.378-0.329-6.873-0.844-10.486
		L31.244,0c2.768,0.469,12.854,0.704,30.26,0.704h28.501c16.045,0,26.131-0.234,30.26-0.704L120.97,0.704z"/>
            <path fill="currentColor" fill-opacity=".5" d="M57.579,36.725c-0.357,2.213-0.553,4.5-0.583,6.861l-0.089,7.49l-0.448,0.448h-2.825L53.14,51.12
		c-0.15-3.826-0.313-6.068-0.493-6.727c-0.359-1.195-1.316-1.898-2.871-2.107c-0.598-0.089-3.408-0.135-8.43-0.135h-6.009
		c-0.06,1.047-0.089,5.202-0.089,12.468v25.471c0,7.115,0.194,11.749,0.583,13.901c0.149,0.868,0.658,1.42,1.524,1.659
		c0.449,0.121,2.198,0.271,5.248,0.45l0.448,0.448v3.004L42.603,100c-2.96-0.18-7.565-0.269-13.812-0.269
		c-6.398,0-11.003,0.089-13.813,0.269l-0.404-0.403v-3.049l0.448-0.448c3.049-0.179,4.799-0.329,5.247-0.45
		c0.866-0.238,1.375-0.791,1.525-1.659c0.388-2.152,0.583-6.787,0.583-13.901V54.619c0-7.385-0.045-11.541-0.135-12.468H15.83
		c-5.351,0-8.475,0.165-9.372,0.494c-0.478,0.18-0.807,0.404-0.987,0.672c-0.269,0.479-0.493,1.435-0.673,2.87
		c-0.209,1.585-0.343,3.215-0.403,4.889l-0.449,0.448H1.122l-0.494-0.448l-0.089-7.668C0.507,41.255,0.329,39.027,0,36.725
		l0.403-0.448c1.764,0.299,8.192,0.448,19.283,0.448h18.163c10.225,0,16.651-0.149,19.283-0.448L57.579,36.725z"/>
        </symbol>
        <symbol viewBox="0 0 90 100" id="line-height">
            <path fill="currentColor" d="M78.328,42.279l-0.22,0.244c-3.613-0.098-5.794-0.146-6.543-0.146c-2.995,0-5.778,0.049-8.35,0.146l-0.22-0.244v-1.538
		l0.244-0.269l2.124-0.122c0.895-0.049,1.343-0.366,1.343-0.952c0-0.342-0.228-1.106-0.684-2.295l-1.978-5.151
		c-2.246-0.032-4.541-0.049-6.885-0.049c-1.27,0-3.158,0.017-5.664,0.049l-1.074,2.979c-0.814,2.263-1.221,3.679-1.221,4.248
		c0,0.619,0.382,0.985,1.147,1.099c0.423,0.065,1.253,0.13,2.49,0.195l0.244,0.244v1.563l-0.244,0.244
		c-3.011-0.098-4.948-0.146-5.811-0.146c-0.667,0-2.319,0.049-4.956,0.146l-0.244-0.22v-1.587l0.269-0.244
		c1.676-0.098,2.706-0.431,3.088-1.001c0.382-0.569,1.819-3.963,4.309-10.181l6.372-15.942c0.472-1.237,1.188-3.101,2.148-5.591
		h3.467l12.939,30.444c0.504,1.156,0.96,1.807,1.367,1.953c0.537,0.195,1.31,0.293,2.319,0.293l0.22,0.269V42.279z M62.85,29.145
		l-5.225-12.793L52.62,29.145c1.334,0.049,3.068,0.073,5.2,0.073C59.887,29.218,61.563,29.193,62.85,29.145z"/>
            <path fill="currentColor" d="M78.328,90.279l-0.22,0.244c-3.613-0.098-5.794-0.146-6.543-0.146c-2.995,0-5.778,0.049-8.35,0.146l-0.22-0.244v-1.538
		l0.244-0.269l2.124-0.122c0.895-0.049,1.343-0.366,1.343-0.952c0-0.342-0.228-1.106-0.684-2.295l-1.978-5.151
		c-2.246-0.032-4.541-0.049-6.885-0.049c-1.27,0-3.158,0.017-5.664,0.049l-1.074,2.979c-0.814,2.263-1.221,3.679-1.221,4.248
		c0,0.619,0.382,0.985,1.147,1.099c0.423,0.065,1.253,0.13,2.49,0.195l0.244,0.244v1.563l-0.244,0.244
		c-3.011-0.098-4.948-0.146-5.811-0.146c-0.667,0-2.319,0.049-4.956,0.146l-0.244-0.22v-1.587l0.269-0.244
		c1.676-0.098,2.706-0.431,3.088-1.001c0.382-0.569,1.819-3.963,4.309-10.181l6.372-15.942c0.472-1.237,1.188-3.101,2.148-5.591
		h3.467l12.939,30.444c0.504,1.156,0.96,1.807,1.367,1.953c0.537,0.195,1.31,0.293,2.319,0.293l0.22,0.269V90.279z M62.85,77.145
		l-5.225-12.793L52.62,77.145c1.334,0.049,3.068,0.073,5.2,0.073C59.887,77.218,61.563,77.193,62.85,77.145z"/>
            <rect fill="currentColor" x="25" width="65" height="4"/>
            <rect fill="currentColor" x="25" y="96" width="65" height="4"/>
            <rect fill="currentColor" x="25" y="48" width="65" height="4"/>
            <polygon fill="currentColor" points="0,13 9.006,0.025 18.013,13 "/>
            <polygon fill="currentColor" points="18.013,39 9.006,51.975 0,39 "/>
            <rect fill="currentColor" x="7" y="13" width="4" height="26"/>
        </symbol>
        <symbol viewBox="0 0 100 95.34" id="text-path">
            <path fill="currentColor" d="M5.028,95.34L0,92.778C0.591,91.615,14.887,64.28,50,64.28s49.409,27.335,50,28.498l-5.031,2.558
                C94.439,94.303,81.565,69.924,50,69.924S5.561,94.303,5.028,95.34z"/>
            <path fill="currentColor" d="M84.247,0.404c-0.426,1.996-0.658,4.059-0.693,6.189l-0.106,6.755l-0.533,0.404h-3.361l-0.586-0.364
		c-0.178-3.451-0.374-5.473-0.588-6.067c-0.426-1.079-1.564-1.712-3.414-1.901c-0.711-0.081-4.054-0.122-10.029-0.122h-7.147
		c-0.072,0.944-0.107,4.692-0.107,11.245V39.52c0,6.418,0.231,10.598,0.693,12.54c0.178,0.783,0.783,1.282,1.814,1.497
		c0.534,0.108,2.614,0.243,6.241,0.404l0.533,0.405v2.71L66.43,57.48c-3.52-0.162-8.998-0.243-16.43-0.243
		c-7.61,0-13.087,0.081-16.43,0.243l-0.48-0.364v-2.75l0.533-0.405c3.627-0.162,5.709-0.296,6.242-0.404
		c1.031-0.215,1.635-0.714,1.814-1.497c0.461-1.941,0.693-6.121,0.693-12.54V16.544c0-6.66-0.053-10.409-0.161-11.245h-7.628
		c-6.366,0-10.082,0.149-11.149,0.445c-0.569,0.162-0.96,0.364-1.173,0.606c-0.32,0.432-0.587,1.295-0.801,2.589
		c-0.249,1.43-0.409,2.899-0.48,4.41l-0.534,0.404h-3.361l-0.586-0.404l-0.106-6.917c-0.036-1.941-0.249-3.95-0.64-6.027L16.232,0
		c2.099,0.27,9.745,0.404,22.939,0.404h21.605C72.938,0.404,80.583,0.27,83.713,0L84.247,0.404z"/>
        </symbol>
        <symbol viewBox="0 0 21 15" id="vector-mask">
            <path fill="currentColor" d="M19.88,0H1.12C0.5,0,0,0.53,0,1.19v12.62C0,14.47,0.5,15,1.12,15h18.76C20.5,15,21,14.47,21,13.81V1.19
                C21,0.53,20.5,0,19.88,0z M10.6,11.31c-2.21,0-4-1.79-4-4s1.79-4,4-4c2.209,0,4,1.79,4,4S12.81,11.31,10.6,11.31z"/>
        </symbol>
        <symbol viewBox="0 0 640 448" id="bezier-curve-light">
            <path fill="currentColor" d="M576,144c35.35,0,64-28.65,64-64s-28.65-64-64-64c-29.79,0-54.6,20.44-61.74,48H400V32c0-17.67-14.33-32-32-32h-96
		c-17.67,0-32,14.33-32,32v32H125.74C118.6,36.44,93.79,16,64,16C28.65,16,0,44.65,0,80s28.65,64,64,64c29.79,0,54.6-20.44,61.74-48
		h112.81c-80.61,31.51-135.13,105.79-141.27,192H64c-17.67,0-32,14.33-32,32v96c0,17.67,14.33,32,32,32h96c17.67,0,32-14.33,32-32
		v-96c0-17.67-14.33-32-32-32h-30.73c5.76-69.41,48.06-129.54,111.08-158.25C241.31,146.56,254.95,160,272,160h96
		c17.05,0,30.69-13.44,31.65-30.25C462.67,158.47,504.97,218.59,510.73,288H480c-17.67,0-32,14.33-32,32v96c0,17.67,14.33,32,32,32
		h96c17.67,0,32-14.33,32-32v-96c0-17.67-14.33-32-32-32h-33.27C536.6,201.79,482.07,127.51,401.46,96h112.81
		C521.4,123.56,546.21,144,576,144L576,144z M160,416H64v-96h96V416z M64,112c-17.64,0-32-14.36-32-32s14.36-32,32-32
		s32,14.36,32,32S81.64,112,64,112z M368,128h-96V32h96V128z M576,416h-96v-96h96V416z M576,48c17.64,0,32,14.36,32,32
		s-14.36,32-32,32s-32-14.36-32-32S558.36,48,576,48z"/>
        </symbol>
        <symbol viewBox="0 0 512 512" id="pencil-alt-light">
            <path fill="currentColor" d="M493.254,56.235l-37.49-37.49c-24.993-24.993-65.515-24.994-90.51,0L12.837,371.161L0.15,485.345
		c-1.698,15.286,11.22,28.203,26.504,26.504l114.184-12.687l352.417-352.417C518.248,121.751,518.248,81.228,493.254,56.235z
		 M164.686,347.312c6.249,6.249,16.379,6.248,22.627,0L368,166.626l30.059,30.059L174,420.744v-34.745h-48v-48H91.254
		L315.313,113.94l30.059,30.059L164.686,324.687C158.437,330.934,158.437,341.064,164.686,347.312L164.686,347.312z
		 M126.146,468.597l-58.995,6.556l-30.305-30.306l6.555-58.995l19.853-19.853H98v48h48v34.745L126.146,468.597z M470.626,124.117
		l-49.941,49.941L337.94,91.313l49.941-49.941c12.505-12.505,32.748-12.507,45.255,0l37.49,37.49
		C483.133,91.368,483.133,111.609,470.626,124.117z"/>
        </symbol>    
        <symbol viewBox="0 0 512 512" id="pen-nib">
            <path fill="currentColor" stroke="none" d="M493.87,95.6L416.4,18.13C404.32,6.04,388.48,0,372.64,0c-15.84,0-31.68,6.04-43.76,18.13l-92.45,92.45l-99.83,28.21
                c-20.392,5.764-36.609,21.247-43.31,41.35L0,460l52,52l279.86-93.29c20.103-6.701,35.586-22.918,41.35-43.31l28.21-99.83
                l92.45-92.45C518.04,158.95,518.04,119.77,493.87,95.6z M327.02,362.35c-1.439,5.101-5.31,9.15-10.34,10.83L83.83,450.79
                L187.42,347.2c6.26,2.989,13.18,4.8,20.58,4.8c26.51,0,48-21.49,48-48s-21.49-48-48-48s-48,21.49-48,48c0,7.4,1.81,14.32,4.8,20.58
                L61.21,428.17l77.62-232.85c1.68-5.03,5.72-8.89,10.83-10.34l99.83-28.21l1.05-0.3l105,105l-0.29,1.039L327.02,362.35L327.02,362.35
                z M459.93,149.18l-74.41,74.41l-97.109-97.11l74.41-74.41c2.29-2.29,11.67-7.97,19.64,0l77.47,77.47
                C465.35,134.95,465.35,143.76,459.93,149.18L459.93,149.18z"/>
        </symbol>
        <symbol viewBox="0 0 512 512" id="pen-nib-light">
            <path fill="currentColor" d="M493.87,95.6L416.4,18.13C404.32,6.04,388.48,0,372.641,0C356.8,0,340.96,6.04,328.88,18.13l-92.45,92.45l-99.83,28.21
		c-20.391,5.764-36.608,21.247-43.31,41.351L0,460l52,52l279.859-93.29c20.104-6.701,35.587-22.918,41.351-43.31l28.21-99.83
		l92.45-92.45C518.04,158.95,518.04,119.77,493.87,95.6z M342.42,366.7c-2.879,10.2-10.623,18.313-20.68,21.66l-261.1,87.029
		l-0.701-0.699L175.7,358.93c9.521,5.62,20.47,9.07,32.3,9.07c35.279,0,64-28.7,64-64s-28.721-64-64-64s-64,28.7-64,64
		c0,11.83,3.45,22.79,9.07,32.31L37.32,452.06l-0.711-0.699l87.031-261.101c3.348-10.057,11.459-17.801,21.659-20.68l99.83-28.21
		l1.25-0.36l124.601,124.6l-0.351,1.25L342.42,366.7L342.42,366.7z M176,304c0-17.641,14.34-32,32-32s32,14.359,32,32
		c0,17.64-14.34,32-32,32S176,321.64,176,304z M471.25,160.49l-80.061,80.06L271.439,120.82l80.07-80.061
		c11.67-11.67,30.58-11.689,42.27,0l77.471,77.471C482.9,129.88,482.9,148.84,471.25,160.49z"/>
        </symbol>
        <symbol viewBox="0 0 384 384" id="plus-light">
            <path fill="currentColor" d="M376,168H216V8c0-4.42-3.58-8-8-8h-32c-4.42,0-8,3.58-8,8v160H8c-4.42,0-8,3.58-8,8v32c0,4.42,3.58,8,8,8h160v160
		c0,4.42,3.58,8,8,8h32c4.42,0,8-3.58,8-8V216h160c4.42,0,8-3.58,8-8v-32C384,171.58,380.42,168,376,168z"/>
        </symbol>
        <symbol viewBox="0 0 384 48" id="minus-light">
            <path fill="currentColor" d="M376,0H8C3.58,0,0,3.58,0,8v32c0,4.42,3.58,8,8,8h368c4.42,0,8-3.58,8-8V8C384,3.58,380.42,0,376,0z"/>
        </symbol>
        <symbol viewBox="0 0 100 95.664" id="text-letter-spacing">
            <path fill="currentColor" d="M23.864,47.867L40.444,0h8.37L27.292,58.031h-6.776L-0.966,0h8.33L23.864,47.867z"/>
            <path fill="currentColor" d="M85.642,42.846H61.33l-5.46,15.185h-7.892L70.138,0h6.696l22.2,58.031h-7.852L85.642,42.846z M63.641,36.588H83.37 L73.486,9.446L63.641,36.588z"/>
            <rect fill="currentColor" x="17" y="79" width="64" height="8"/>
            <polygon fill="currentColor" points="17,70.524 17,95.664 -0.814,83.094 "/>
            <polygon fill="currentColor" points="81,95.663 81,70.523 98.813,83.093 "/>
        </symbol>
        <symbol viewBox="0 0 100 95.664" id="text-word-spacing">
            <path fill="currentColor" d="M24.831,55.867L41.411,8h8.37L28.258,66.031h-6.776L0,8h8.33L24.831,55.867z"/>
            <path fill="currentColor" d="M86.608,50.846H62.296l-5.46,15.185h-7.892L71.104,8H77.8L100,66.031h-7.852L86.608,50.846z M64.607,44.588h19.729	l-9.884-27.142L64.607,44.588z"/>
            <rect fill="currentColor" x="18" y="79" width="64" height="8"/>
            <polygon fill="currentColor" points="18,70.524 18,95.664 0.186,83.094 "/>
            <polygon fill="currentColor" points="82,95.663 82,70.523 99.813,83.093 "/>
            <polygon fill="currentColor" points="65.966,0 37.966,73 32.966,73 60.966,0 "/>
        </symbol>
        <symbol viewBox="0 0 120.97 100" id="text-font-size">
            <path fill="currentColor" d="M120.97,0.704c-0.563,3.472-0.868,7.062-0.915,10.767l-0.141,11.752l-0.704,0.704h-4.434l-0.774-0.633
		c-0.235-6.005-0.493-9.523-0.774-10.556c-0.563-1.876-2.064-2.979-4.504-3.307c-0.938-0.141-5.348-0.211-13.23-0.211h-9.43
		c-0.095,1.643-0.141,8.164-0.141,19.564v39.972c0,11.166,0.305,18.438,0.915,21.815c0.234,1.361,1.032,2.229,2.393,2.604
		c0.704,0.188,3.448,0.422,8.234,0.704l0.704,0.704v4.715L97.465,100c-4.645-0.281-11.87-0.422-21.675-0.422
		c-10.04,0-17.265,0.141-21.675,0.422l-0.633-0.633v-4.786l0.704-0.704c4.786-0.281,7.53-0.516,8.234-0.704
		c1.36-0.375,2.158-1.243,2.393-2.604c0.609-3.378,0.915-10.649,0.915-21.815V28.783c0-11.588-0.07-18.109-0.211-19.564H55.453
		c-8.398,0-13.301,0.258-14.708,0.774c-0.751,0.281-1.267,0.633-1.548,1.055c-0.422,0.751-0.774,2.252-1.056,4.504
		c-0.329,2.487-0.54,5.044-0.633,7.671l-0.704,0.704H32.37l-0.774-0.704l-0.141-12.034c-0.047-3.378-0.329-6.873-0.844-10.486
		L31.244,0c2.768,0.469,12.854,0.704,30.26,0.704h28.501c16.045,0,26.131-0.234,30.26-0.704L120.97,0.704z"/>
            <path fill="currentColor" fill-opacity=".5" d="M57.579,36.725c-0.357,2.213-0.553,4.5-0.583,6.861l-0.089,7.49l-0.448,0.448h-2.825L53.14,51.12
		c-0.15-3.826-0.313-6.068-0.493-6.727c-0.359-1.195-1.316-1.898-2.871-2.107c-0.598-0.089-3.408-0.135-8.43-0.135h-6.009
		c-0.06,1.047-0.089,5.202-0.089,12.468v25.471c0,7.115,0.194,11.749,0.583,13.901c0.149,0.868,0.658,1.42,1.524,1.659
		c0.449,0.121,2.198,0.271,5.248,0.45l0.448,0.448v3.004L42.603,100c-2.96-0.18-7.565-0.269-13.812-0.269
		c-6.398,0-11.003,0.089-13.813,0.269l-0.404-0.403v-3.049l0.448-0.448c3.049-0.179,4.799-0.329,5.247-0.45
		c0.866-0.238,1.375-0.791,1.525-1.659c0.388-2.152,0.583-6.787,0.583-13.901V54.619c0-7.385-0.045-11.541-0.135-12.468H15.83
		c-5.351,0-8.475,0.165-9.372,0.494c-0.478,0.18-0.807,0.404-0.987,0.672c-0.269,0.479-0.493,1.435-0.673,2.87
		c-0.209,1.585-0.343,3.215-0.403,4.889l-0.449,0.448H1.122l-0.494-0.448l-0.089-7.668C0.507,41.255,0.329,39.027,0,36.725
		l0.403-0.448c1.764,0.299,8.192,0.448,19.283,0.448h18.163c10.225,0,16.651-0.149,19.283-0.448L57.579,36.725z"/>
        </symbol>
        <symbol viewBox="0 0 90 100" id="text-line-height">
            <path fill="currentColor" d="M78.328,42.279l-0.22,0.244c-3.613-0.098-5.794-0.146-6.543-0.146c-2.995,0-5.778,0.049-8.35,0.146l-0.22-0.244v-1.538
		l0.244-0.269l2.124-0.122c0.895-0.049,1.343-0.366,1.343-0.952c0-0.342-0.228-1.106-0.684-2.295l-1.978-5.151
		c-2.246-0.032-4.541-0.049-6.885-0.049c-1.27,0-3.158,0.017-5.664,0.049l-1.074,2.979c-0.814,2.263-1.221,3.679-1.221,4.248
		c0,0.619,0.382,0.985,1.147,1.099c0.423,0.065,1.253,0.13,2.49,0.195l0.244,0.244v1.563l-0.244,0.244
		c-3.011-0.098-4.948-0.146-5.811-0.146c-0.667,0-2.319,0.049-4.956,0.146l-0.244-0.22v-1.587l0.269-0.244
		c1.676-0.098,2.706-0.431,3.088-1.001c0.382-0.569,1.819-3.963,4.309-10.181l6.372-15.942c0.472-1.237,1.188-3.101,2.148-5.591
		h3.467l12.939,30.444c0.504,1.156,0.96,1.807,1.367,1.953c0.537,0.195,1.31,0.293,2.319,0.293l0.22,0.269V42.279z M62.85,29.145
		l-5.225-12.793L52.62,29.145c1.334,0.049,3.068,0.073,5.2,0.073C59.887,29.218,61.563,29.193,62.85,29.145z"/>
            <path fill="currentColor" d="M78.328,90.279l-0.22,0.244c-3.613-0.098-5.794-0.146-6.543-0.146c-2.995,0-5.778,0.049-8.35,0.146l-0.22-0.244v-1.538
		l0.244-0.269l2.124-0.122c0.895-0.049,1.343-0.366,1.343-0.952c0-0.342-0.228-1.106-0.684-2.295l-1.978-5.151
		c-2.246-0.032-4.541-0.049-6.885-0.049c-1.27,0-3.158,0.017-5.664,0.049l-1.074,2.979c-0.814,2.263-1.221,3.679-1.221,4.248
		c0,0.619,0.382,0.985,1.147,1.099c0.423,0.065,1.253,0.13,2.49,0.195l0.244,0.244v1.563l-0.244,0.244
		c-3.011-0.098-4.948-0.146-5.811-0.146c-0.667,0-2.319,0.049-4.956,0.146l-0.244-0.22v-1.587l0.269-0.244
		c1.676-0.098,2.706-0.431,3.088-1.001c0.382-0.569,1.819-3.963,4.309-10.181l6.372-15.942c0.472-1.237,1.188-3.101,2.148-5.591
		h3.467l12.939,30.444c0.504,1.156,0.96,1.807,1.367,1.953c0.537,0.195,1.31,0.293,2.319,0.293l0.22,0.269V90.279z M62.85,77.145
		l-5.225-12.793L52.62,77.145c1.334,0.049,3.068,0.073,5.2,0.073C59.887,77.218,61.563,77.193,62.85,77.145z"/>
            <rect fill="currentColor" x="25" width="65" height="4"/>
            <rect fill="currentColor" x="25" y="96" width="65" height="4"/>
            <rect fill="currentColor" x="25" y="48" width="65" height="4"/>
            <polygon fill="currentColor" points="0,13 9.006,0.025 18.013,13 "/>
            <polygon fill="currentColor" points="18.013,39 9.006,51.975 0,39 "/>
            <rect fill="currentColor" x="7" y="13" width="4" height="26"/>
        </symbol>
        <symbol viewBox="0 0 512 384" id="folder-plus-solid">
            <path fill="currentColor" d="M464,64H272L208,0H48C21.49,0,0,21.49,0,48v288c0,26.509,21.49,48,48,48h416c26.51,0,48-21.49,48-48V112
                C512,85.49,490.51,64,464,64z M368,232c0,8.84-7.16,16-16,16h-72v72c0,8.84-7.16,16-16,16h-16c-8.84,0-16-7.16-16-16v-72h-72
                c-8.84,0-16-7.16-16-16v-16c0-8.84,7.16-16,16-16h72v-72c0-8.84,7.16-16,16-16h16c8.84,0,16,7.16,16,16v72h72c8.84,0,16,7.16,16,16
                V232z"/>
        </symbol>
        <symbol viewBox="0 0 512 384" id="folder-solid">
            <path fill="currentColor" d="M464,64H272L208,0H48C21.49,0,0,21.49,0,48v288c0,26.509,21.49,48,48,48h416c26.51,0,48-21.49,48-48V112 C512,85.49,490.51,64,464,64z"/>
        </symbol>
        <symbol viewBox="0 0 16 16" fill="none" id="tabs-group">
            <path d="M3 2.5C3 1.83696 3.26339 1.20107 3.73223 0.732233C4.20107 0.263392 4.83696 0 5.5 0H7V2.5C7 2.89782 7.15804 3.27936 7.43934 3.56066C7.72064 3.84196 8.10218 4 8.5 4H16V10.5C16 11.163 15.7366 11.7989 15.2678 12.2678C14.7989 12.7366 14.163 13 13.5 13H5.5C4.83696 13 4.20107 12.7366 3.73223 12.2678C3.26339 11.7989 3 11.163 3 10.5V2.5Z" fill="#3517AF"/>
            <path d="M8 2.5V0H13.5C14.163 0 14.7989 0.263392 15.2678 0.732233C15.7366 1.20107 16 1.83696 16 2.5V3H8.5C8.36739 3 8.24021 2.94732 8.14645 2.85355C8.05268 2.75979 8 2.63261 8 2.5Z" fill="#3517AF"/>
            <path d="M10.5 16C11.0763 16.0001 11.635 15.8011 12.0815 15.4366C12.5279 15.0722 12.8347 14.5647 12.95 14H5.5C4.57174 14 3.6815 13.6312 3.02513 12.9749C2.36875 12.3185 2 11.4282 2 10.5V3.04999C1.43532 3.16525 0.927802 3.47208 0.563347 3.91854C0.198892 4.36499 -0.000117575 4.92366 5.21142e-08 5.49999V12C5.21142e-08 13.0609 0.421427 14.0783 1.17157 14.8284C1.92172 15.5786 2.93913 16 4 16H10.5Z" fill="#3517AF"/>
        </symbol>

        <symbol viewBox="0 0 512 384" id="folder-plus-regular">
            <path fill="currentColor" d="M464,64H272L217.37,9.37c-6-6-14.14-9.37-22.63-9.37H48C21.49,0,0,21.49,0,48v288c0,26.509,21.49,48,48,48h416
                c26.51,0,48-21.49,48-48V112C512,85.49,490.51,64,464,64z M464,336H48V48h140.12l54.63,54.63c6,6,14.14,9.37,22.63,9.37H464V336z
                M248,144c-8.84,0-16,7.16-16,16v40h-40c-8.84,0-16,7.16-16,16v16c0,8.84,7.16,16,16,16h40v40c0,8.84,7.16,16,16,16h16
                c8.84,0,16-7.16,16-16v-40h40c8.84,0,16-7.16,16-16v-16c0-8.84-7.16-16-16-16h-40v-40c0-8.84-7.16-16-16-16H248z"/>
        </symbol>
        <symbol viewBox="0 0 15 16" id="flip-vertical">
            <path fill="currentColor" d="M0,15l6-5L0,5.1V15z"/>
            <path fill="currentColor" d="M9,10.1l6,4.9V5L9,10.1z M14,12.9L10.6,10.1L14,7.1V12.9L14,12.9z"/>
            <path fill="currentColor" d="M7,5h1v1H7V5z"/>
            <path fill="currentColor" d="M7,3h1v1H7V3z"/>
            <path fill="currentColor" d="M7,7h1v1H7V7z"/>
            <path fill="currentColor" d="M7,9h1v1H7V9z"/>
            <path fill="currentColor" d="M7,11h1v1H7V11z"/>
            <path fill="currentColor" d="M7,13h1v1H7V13z"/>
            <path fill="currentColor" d="M7,15h1v1H7V15z"/>
            <path fill="currentColor" d="M7.5,1c1.3,0,2.6,0.7,3.6,1.9L10,4h3V1l-1.2,1.2c-1.2-1.4-2.7-2.2-4.3-2.2c-1.9,0-3.601,1-4.9,2.9l0.8,0.6 C4.5,1.9,5.899,1,7.5,1z"/>
        </symbol>
        <symbol viewBox="0 0 16 15" id="flip-horizontal">
            <path fill="currentColor" d="M1,0l5,6l4.9-6H1z"/>
            <path fill="currentColor" d="M5.899,9L1,15h10L5.899,9z M3.1,14l2.8-3.4L8.9,14H3.1L3.1,14z"/>
            <path fill="currentColor" d="M10,7h1v1h-1V7z"/>
            <path fill="currentColor" d="M12,7h1v1h-1V7z"/>
            <path fill="currentColor" d="M8,7h1v1H8V7z"/>
            <path fill="currentColor" d="M6,7h1v1H6V7z"/>
            <path fill="currentColor" d="M4,7h1v1H4V7z"/>
            <path fill="currentColor" d="M2,7h1v1H2V7z"/>
            <path fill="currentColor" d="M0,7h1v1H0V7z"/>
            <path fill="currentColor" d="M15,7.5c0,1.3-0.7,2.6-1.9,3.6L12,10v3h3l-1.2-1.2c1.4-1.2,2.2-2.7,2.2-4.3c0-1.9-1-3.6-2.9-4.9l-0.6,0.8 C14.1,4.5,15,5.9,15,7.5z"/>
        </symbol>
        <symbol id="link" viewBox="0 0 512 512">
            <path fill="currentColor" d="M314.222,197.78c51.091,51.091,54.377,132.287,9.75,187.16c-6.241,7.73-2.784,3.865-84.939,86.02
                c-54.696,54.696-143.266,54.745-197.99,0c-54.711-54.69-54.734-143.255,0-197.99c32.773-32.773,51.835-51.899,63.409-63.457
                c7.463-7.452,20.331-2.354,20.486,8.192c0.186,12.746,1.778,25.432,4.746,37.828c0.966,4.029-0.272,8.269-3.202,11.198
                L80.632,312.57c-32.755,32.775-32.887,85.892,0,118.8c32.775,32.755,85.892,32.887,118.8,0l75.19-75.2
                c32.718-32.725,32.777-86.013,0-118.79c-6.64-6.652-14.353-12.138-22.814-16.229c-4.623-2.233-7.182-7.25-6.561-12.346
                c1.356-11.122,6.296-21.885,14.815-30.405l4.375-4.375c3.625-3.626,9.177-4.594,13.76-2.294
                C291.196,178.255,303.384,186.942,314.222,197.78L314.222,197.78z M470.958,41.04c-54.724-54.745-143.294-54.696-197.99,0
                c-82.156,82.156-78.698,78.29-84.94,86.02c-44.627,54.873-41.341,136.069,9.75,187.16c10.838,10.838,23.026,19.525,36.025,26.049
                c4.582,2.3,10.134,1.331,13.76-2.294l4.375-4.375c8.52-8.519,13.459-19.283,14.815-30.405c0.621-5.096-1.938-10.113-6.561-12.346
                c-8.462-4.091-16.174-9.577-22.814-16.229c-32.777-32.777-32.718-86.065,0-118.79l75.19-75.2c32.907-32.887,86.024-32.755,118.8,0
                c32.887,32.908,32.755,86.025,0,118.8l-45.849,45.84c-2.93,2.929-4.168,7.169-3.201,11.198c2.968,12.396,4.56,25.083,4.746,37.828
                c0.154,10.546,13.022,15.644,20.485,8.192c11.574-11.558,30.636-30.684,63.409-63.457C525.692,184.296,525.669,95.731,470.958,41.04
                L470.958,41.04z" />
        </symbol>
        <symbol id="unlink" viewBox="0 0 512 512">
            <path fill="currentColor" d="M304.083,388.936c4.686,4.686,4.686,12.284,0,16.971l-65.057,65.056c-54.709,54.711-143.27,54.721-197.989,0
                c-54.713-54.713-54.719-143.27,0-197.989l65.056-65.057c4.686-4.686,12.284-4.686,16.971,0l22.627,22.627
                c4.686,4.686,4.686,12.284,0,16.971L81.386,311.82c-34.341,34.341-33.451,88.269,0.597,120.866
                c32.577,31.188,84.788,31.338,117.445-1.319l65.057-65.056c4.686-4.686,12.284-4.686,16.971,0L304.083,388.936L304.083,388.936z
                M247.515,145.691l64.304-64.304c34.346-34.346,88.286-33.453,120.882,0.612c31.18,32.586,31.309,84.785-1.335,117.43
                l-65.056,65.057c-4.687,4.686-4.687,12.284,0,16.971l22.627,22.627c4.686,4.686,12.283,4.686,16.971,0l65.056-65.057
                c54.711-54.709,54.722-143.271,0-197.99c-54.71-54.711-143.27-54.72-197.989,0l-65.057,65.057c-4.686,4.686-4.686,12.284,0,16.971
                l22.627,22.627C235.23,150.377,242.828,150.377,247.515,145.691L247.515,145.691z M485.858,508.485l22.627-22.627
                c4.686-4.687,4.686-12.284,0-16.972L43.112,3.515c-4.686-4.686-12.284-4.686-16.971,0L3.515,26.142
                c-4.686,4.686-4.686,12.284,0,16.971l465.373,465.374C473.574,513.172,481.172,513.172,485.858,508.485L485.858,508.485z" />
        </symbol>
        <symbol id="toggle-off-regular" viewBox="0 0 612 408">
            <path fill="currentColor" d="M408,0H204C91.333,0,0,91.333,0,204c0,112.666,91.333,204,204,204h204c112.666,0,204-91.334,204-204
                C612,91.333,520.666,0,408,0z M51,204c0-84.557,68.429-153,153-153c84.556,0,153,68.429,153,153c0,84.556-68.429,153-153,153
                C119.444,357,51,288.57,51,204z M408,357h-69.084c92.123-81.297,92.101-224.723,0-306H408c84.556,0,153,68.429,153,153
                C561,288.556,492.57,357,408,357z"/>
        </symbol>
        <symbol id="toggle-on-regular" viewBox="0 0 612 408">
            <path fill="currentColor" d="M408,0H204C91.375,0,0,91.375,0,204s91.375,204,204,204h204c112.625,0,204-91.375,204-204S520.625,0,408,0z M408,357 c-84.575,0-153-68.425-153-153S323.425,51,408,51s153,68.425,153,153S492.575,357,408,357z"/>
        </symbol>
        <symbol id="export" viewBox="0 0 512 512">
            <path fill="currentColor" d="m239.029 384.97a24 24 0 0 0 33.942 0l90.509-90.509a24 24 0 0 0 0-33.941 24 24 0 0 0 -33.941 0l-49.539 49.539v-262.059a24 24 0 0 0 -48 0v262.059l-49.539-49.539a24 24 0 0 0 -33.941 0 24 24 0 0 0 0 33.941z"/><path d="m464 232a24 24 0 0 0 -24 24v184h-368v-184a24 24 0 0 0 -48 0v192a40 40 0 0 0 40 40h384a40 40 0 0 0 40-40v-192a24 24 0 0 0 -24-24z"/>
        </symbol>
        <symbol id="list" viewBox="0 0 18 13">
            <path fill="currentColor" d="M5.44444 1H17M5.44444 6.5H17M5.44444 12H17M1 1H1.00889M1 6.5H1.00889M1 12H1.00889" stroke="black" stroke-width="2" stroke-linecap="round" stroke-linejoin="round"/>
        </symbol>
        <symbol id="collapse" viewBox="0 0 10 9">
            <path fill="#fff" d="M5.66667 8L9 4.5L5.66667 1M1 8L4.33333 4.5L1 1" stroke="#797979" stroke-width="2" stroke-linecap="round" stroke-linejoin="round"/>
        </symbol>
        <symbol id="paste" viewBox="0 0 512 512">
            <path fill="currentColor" d="M505.918,267.239c-3.809-9.137-8.378-16.371-13.706-21.701L375.726,129.053c-2.854-2.856-6.283-5.52-10.28-7.994V27.415
                    c0-7.616-2.663-14.092-7.994-19.417c-5.325-5.332-11.8-7.994-19.411-7.994H27.406c-7.611,0-14.084,2.663-19.414,7.994
                    C2.663,13.326,0,19.799,0,27.415v383.72c0,7.61,2.663,14.079,7.992,19.403c5.33,5.332,11.803,7.994,19.414,7.994h155.318v45.683
                    c0,7.614,2.662,14.089,7.992,19.414c5.327,5.331,11.8,7.994,19.414,7.994h274.091c7.61,0,14.085-2.663,19.41-7.994
                    c5.332-5.325,7.994-11.8,7.994-19.414v-191.86C511.626,284.744,509.724,276.37,505.918,267.239z M365.446,170.449l85.369,85.364
                    h-85.369V170.449z M82.224,73.088c-2.474,0-4.615-0.903-6.423-2.712c-1.807-1.809-2.712-3.946-2.712-6.423V45.682
                    c0-2.474,0.905-4.617,2.712-6.423c1.809-1.809,3.949-2.712,6.423-2.712h201.001c2.471,0,4.612,0.903,6.42,2.712
                    c1.807,1.807,2.717,3.949,2.717,6.423v18.271c0,2.478-0.913,4.615-2.717,6.423c-1.808,1.809-3.949,2.712-6.427,2.712H82.224z
                    M475.078,475.085H219.263V146.177h109.641v118.777c0,7.61,2.662,14.082,7.994,19.41c5.325,5.328,11.793,7.99,19.41,7.99h118.77
                    V475.085L475.078,475.085z"/>
        </symbol>
        <symbol id="copy" viewBox="0 0 247.744 247.744">
            <path fill="currentColor" d="M206.89,0H74.824c-9.649,0-17.5,7.851-17.5,17.5v21.005h-16.47c-9.649,0-17.5,7.85-17.5,17.5
                v174.239c0,9.649,7.851,17.5,17.5,17.5h132.065c9.649,0,17.5-7.851,17.5-17.5V209.24h16.471c9.649,0,17.5-7.851,17.5-17.5V17.5
                C224.39,7.851,216.54,0,206.89,0z M175.419,230.244c0,1.355-1.145,2.5-2.5,2.5H40.854c-1.355,0-2.5-1.145-2.5-2.5V56.005
                c0-1.356,1.145-2.5,2.5-2.5h132.065c1.355,0,2.5,1.144,2.5,2.5V230.244z M209.39,191.74c0,1.355-1.145,2.5-2.5,2.5h-16.471V56.005
                c0-9.65-7.851-17.5-17.5-17.5H72.324V17.5c0-1.355,1.144-2.5,2.5-2.5H206.89c1.355,0,2.5,1.145,2.5,2.5V191.74z"/>
            <path fill="currentColor" d="M149.553,77.121H64.22c-4.143,0-7.5,3.357-7.5,7.5c0,4.143,3.357,7.5,7.5,7.5h85.333
                c4.143,0,7.5-3.357,7.5-7.5C157.053,80.479,153.696,77.121,149.553,77.121z"/>
            <path fill="currentColor" d="M149.553,110.898H64.22c-4.143,0-7.5,3.357-7.5,7.5s3.357,7.5,7.5,7.5h85.333
                c4.143,0,7.5-3.357,7.5-7.5S153.696,110.898,149.553,110.898z"/>
            <path fill="currentColor" d="M149.553,144.676H64.22c-4.143,0-7.5,3.357-7.5,7.5c0,4.143,3.357,7.5,7.5,7.5h85.333
                c4.143,0,7.5-3.357,7.5-7.5C157.053,148.033,153.696,144.676,149.553,144.676z"/>
            <path fill="currentColor" d="M149.553,178.453H64.22c-4.143,0-7.5,3.357-7.5,7.5c0,4.143,3.357,7.5,7.5,7.5h85.333
                c4.143,0,7.5-3.357,7.5-7.5C157.053,181.811,153.696,178.453,149.553,178.453z"/>
        </symbol>
        <symbol id="merge" viewBox="0 0 480 480">
            <path fill="currentColor" d="m308.01 68.013c-24.146 0-47.141 5.012-68.013 14.036-20.872-9.023-43.867-14.036-68.013-14.036-94.835 0-171.99 77.153-171.99 171.99s77.152 171.99 171.99 171.99c24.146 0 47.142-5.012 68.013-14.036 20.872 9.023 43.867 14.036 68.013 14.036 94.835 0 171.99-77.153 171.99-171.99s-77.153-171.99-171.99-171.99zm-36.101 57.573-108.98 69.13c12.377-39.578 40.536-72.241 77.07-90.605 11.553 5.807 22.269 13.041 31.912 21.475zm-102.54 176.65c-3.408-7.563-6.211-15.454-8.355-23.61l151.92-95.432c2.838 7.018 5.168 14.292 6.941 21.78l-150.5 97.262zm153.98-75.697c0.391 4.437 0.603 8.924 0.603 13.46 0 6.589-0.423 13.081-1.24 19.451l-126.78 83.092c-6.38-6.968-12.116-14.533-17.123-22.597l144.54-93.406zm-166.3 30.959c-0.661-5.744-1.013-11.581-1.013-17.499 0-6.057 0.367-12.029 1.06-17.903l129.3-82.018c6.725 7.692 12.688 16.066 17.771 25.003l-147.12 92.417zm14.932 134.49c-83.805 0-151.99-68.181-151.99-151.99s68.181-151.99 151.99-151.99c15.396 0 30.261 2.309 44.277 6.587-48.171 30.51-80.222 84.28-80.222 145.4 0 28.47 6.96 55.343 19.257 79.017 0.247 1.155 0.693 2.287 1.372 3.338 0.378 0.585 0.819 1.102 1.29 1.58 14.039 25.004 34.14 46.162 58.304 61.467-14.016 4.275-28.882 6.584-44.278 6.584zm38.806-35.264 105.54-69.174c-12.73 38.557-40.5 70.329-76.334 88.34-10.484-5.27-20.278-11.715-29.207-19.166zm97.221 35.264c-15.396 0-30.261-2.309-44.276-6.586 48.171-30.51 80.223-84.28 80.223-145.4 0-10.923-1.035-21.606-2.991-31.969-0.021-0.13-0.049-0.259-0.075-0.389-9.072-47.458-37.702-88.053-77.157-113.04 14.015-4.277 28.88-6.586 44.276-6.586 83.805 0 151.99 68.181 151.99 151.99s-68.182 151.99-151.99 151.99z"/>
        </symbol>
        <symbol id="not-render" viewBox="0 0 160 160">
            <path fill="currentColor" d="M74.4442 0.10408C57.5449 1.32917 41.9191 7.63426 28.7262 18.513C26.3097 20.5058 20.5623 26.2556 18.5703 28.6731C7.56535 42.0183 1.27913 57.7647 0.168834 74.8179C-1.10474 94.0763 4.87125 113.694 16.5947 128.754C19.5826 132.593 23.6809 136.987 27.0935 139.976C48.7768 159.022 78.6568 164.984 105.875 155.69C120.489 150.708 133.633 141.332 143.119 129.114C155.12 113.661 161.08 94.3866 159.839 74.9813C158.729 57.6177 152.328 41.7406 140.997 28.183C139.217 26.0595 134.694 21.5022 132.326 19.4441C119.819 8.61432 104.847 2.12954 88.1596 0.332748C85.3186 0.0223935 77.3179 -0.108268 74.4442 0.10408ZM87.5065 19.5911C97.8257 20.8979 107.475 24.6385 115.46 30.4209L116.554 31.2212L74.5422 73.2498L32.5306 115.278L31.7306 114.151C25.8362 105.984 22.1951 96.5264 20.8562 86.007C20.5133 83.3119 20.5623 74.5729 20.9379 71.7961C23.2564 54.4979 32.1714 39.7968 46.3603 29.8655C54.4589 24.1974 64.5006 20.4731 74.1993 19.5421C75.1953 19.4441 76.2566 19.3297 76.5668 19.2971C77.8241 19.1501 85.7431 19.3624 87.5065 19.5911ZM131.608 47.7354C136.359 55.4289 139.315 64.2332 140.262 73.5928C140.735 78.0848 140.441 85.0433 139.576 89.813C135.706 111.374 120.228 129.244 99.4748 136.138C89.5638 139.437 79.1793 140.107 68.9417 138.098C61.8228 136.709 54.9978 134.014 48.7605 130.143L47.0134 129.048L88.6005 87.4445C111.492 64.5435 130.253 45.8242 130.318 45.8242C130.367 45.8242 130.955 46.69 131.608 47.7354Z"/>
        </symbol>
        <symbol id="not-render-dotted" viewBox="0 0 112 112">
            <path fill="currentColor" fill-rule="evenodd" clip-rule="evenodd" d="M91.2897 12.2251C91.3259 12.1888 91.3847 12.1888 91.421 12.2251L99.775 20.579C99.8112 20.6153 99.8112 20.6741 99.775 20.7103V20.7103C99.7397 20.7457 99.7386 20.8026 99.7726 20.8392L100.41 21.5254C100.81 21.9562 100.786 22.6299 100.355 23.0301L95.2736 27.7503C93.655 29.2539 91.1241 29.1607 89.6205 27.5422L88.2593 26.0769C87.8862 25.6752 87.504 25.2786 87.1127 24.8873C86.7214 24.4961 86.3248 24.1139 85.9232 23.7407L84.4579 22.3795C82.8393 20.8759 82.7461 18.345 84.2497 16.7265L88.97 11.6453C89.3702 11.2145 90.0438 11.1897 90.4746 11.5899L91.1609 12.2274C91.1974 12.2614 91.2544 12.2604 91.2897 12.2251V12.2251ZM75.888 11.8872C75.2386 13.9987 73.0005 15.1841 70.8889 14.5347L68.9773 13.9468C67.9268 13.6238 66.8663 13.3409 65.7983 13.0982L63.848 12.655C61.6938 12.1654 60.3443 10.0222 60.8339 7.86799L61.7203 3.96744C62.2099 1.81323 64.3531 0.463761 66.5073 0.953317L68.4576 1.39653C69.8166 1.70538 71.1667 2.06552 72.5046 2.47696L74.4162 3.06484C76.5278 3.71419 77.7131 5.95235 77.0638 8.0639L75.888 11.8872ZM103.936 34.9363C106.048 34.2869 108.286 35.4723 108.935 37.5838L109.523 39.4955C109.935 40.8334 110.295 42.1834 110.604 43.5425L111.047 45.4927C111.536 47.647 110.187 49.7902 108.033 50.2797L104.132 51.1661C101.978 51.6557 99.8346 50.3062 99.3451 48.152L98.9019 46.2017C98.6592 45.1337 98.3763 44.0733 98.0532 43.0227L97.4653 41.1111C96.816 38.9995 98.0013 36.7614 100.113 36.112L103.936 34.9363ZM108.033 61.7204C110.187 62.2099 111.536 64.3531 111.047 66.5073L110.604 68.4576C110.295 69.8167 109.935 71.1667 109.523 72.5046L108.935 74.4163C108.286 76.5278 106.048 77.7132 103.936 77.0638L100.113 75.888C98.0013 75.2387 96.816 73.0005 97.4653 70.889L98.0532 68.9773C98.3763 67.9268 98.6592 66.8664 98.9019 65.7983L99.3451 63.8481C99.8346 61.6939 101.978 60.3444 104.132 60.8339L108.033 61.7204ZM51.1661 7.86799C51.6557 10.0222 50.3062 12.1654 48.152 12.655L46.2017 13.0982C45.1337 13.3409 44.0732 13.6238 43.0227 13.9468L41.1111 14.5347C38.9995 15.1841 36.7614 13.9987 36.112 11.8872L34.9362 8.06389C34.2869 5.95235 35.4722 3.71419 37.5838 3.06484L39.4954 2.47696C40.8333 2.06552 42.1834 1.70539 43.5424 1.39653L45.4927 0.953318C47.6469 0.46376 49.7901 1.81323 50.2797 3.96744L51.1661 7.86799ZM27.7503 16.7265C29.2539 18.345 29.1607 20.8759 27.5421 22.3795L26.0769 23.7407C25.6752 24.1139 25.2786 24.4961 24.8873 24.8873C24.496 25.2786 24.1138 25.6752 23.7407 26.0769L22.3795 27.5422C20.8759 29.1607 18.345 29.2539 16.7264 27.7503L11.6453 23.0301C11.2145 22.6299 11.1897 21.9562 11.5899 21.5254L12.2274 20.8392C12.2614 20.8026 12.2603 20.7457 12.225 20.7103V20.7103C12.1888 20.6741 12.1888 20.6153 12.225 20.579L20.579 12.2251C20.6153 12.1888 20.6741 12.1888 20.7103 12.2251V12.2251C20.7456 12.2604 20.8026 12.2614 20.8391 12.2274L21.5254 11.5899C21.9562 11.1897 22.6298 11.2145 23.03 11.6453L27.7503 16.7265ZM100.355 88.97C100.786 89.3702 100.81 90.0438 100.41 90.4746L99.7726 91.1609C99.7386 91.1975 99.7397 91.2544 99.775 91.2897V91.2897C99.8112 91.326 99.8112 91.3848 99.775 91.421L91.421 99.775C91.3847 99.8113 91.3259 99.8113 91.2897 99.775V99.775C91.2544 99.7397 91.1974 99.7386 91.1609 99.7726L90.4746 100.41C90.0438 100.81 89.3702 100.786 88.97 100.355L84.2497 95.2736C82.7461 93.6551 82.8393 91.1241 84.4579 89.6206L85.9231 88.2594C86.3248 87.8862 86.7214 87.504 87.1127 87.1127C87.504 86.7214 87.8862 86.3249 88.2593 85.9232L89.6205 84.4579C91.1241 82.8394 93.655 82.7462 95.2736 84.2497L100.355 88.97ZM11.8872 36.112C13.9987 36.7614 15.184 38.9995 14.5347 41.1111L13.9468 43.0227C13.6237 44.0733 13.3408 45.1337 13.0981 46.2017L12.6549 48.152C12.1654 50.3062 10.0222 51.6557 7.86795 51.1661L3.96741 50.2797C1.81319 49.7902 0.463726 47.647 0.953283 45.4927L1.39649 43.5425C1.70535 42.1834 2.06548 40.8334 2.47692 39.4954L3.0648 37.5838C3.71416 35.4723 5.95231 34.2869 8.06386 34.9363L11.8872 36.112ZM77.0638 103.936C77.7131 106.048 76.5278 108.286 74.4162 108.935L72.5046 109.523C71.1667 109.935 69.8166 110.295 68.4576 110.604L66.5073 111.047C64.3531 111.536 62.2099 110.187 61.7203 108.033L60.8339 104.132C60.3443 101.978 61.6938 99.8347 63.848 99.3451L65.7983 98.9019C66.8663 98.6592 67.9268 98.3763 68.9773 98.0532L70.8889 97.4653C73.0005 96.816 75.2386 98.0013 75.888 100.113L77.0638 103.936ZM7.86795 60.8339C10.0222 60.3444 12.1654 61.6939 12.6549 63.8481L13.0981 65.7983C13.3408 66.8664 13.6237 67.9268 13.9468 68.9773L14.5347 70.889C15.184 73.0005 13.9987 75.2387 11.8872 75.888L8.06386 77.0638C5.95231 77.7132 3.71416 76.5278 3.0648 74.4163L2.47692 72.5046C2.06548 71.1667 1.70535 69.8167 1.39649 68.4576L0.95328 66.5073C0.463723 64.3531 1.81319 62.2099 3.96741 61.7204L7.86795 60.8339ZM50.2797 108.033C49.7901 110.187 47.6469 111.536 45.4927 111.047L43.5424 110.604C42.1834 110.295 40.8333 109.935 39.4954 109.523L37.5838 108.935C35.4722 108.286 34.2869 106.048 34.9362 103.936L36.112 100.113C36.7614 98.0013 38.9995 96.816 41.1111 97.4653L43.0227 98.0532C44.0732 98.3763 45.1337 98.6592 46.2017 98.9019L48.152 99.3451C50.3062 99.8347 51.6557 101.978 51.1661 104.132L50.2797 108.033ZM16.7264 84.2497C18.345 82.7462 20.8759 82.8394 22.3795 84.4579L23.7407 85.9232C24.1138 86.3248 24.496 86.7214 24.8873 87.1127C25.2786 87.504 25.6752 87.8862 26.0768 88.2593L27.5421 89.6206C29.1607 91.1241 29.2538 93.6551 27.7503 95.2736L23.03 100.355C22.6298 100.786 21.9562 100.81 21.5254 100.41L20.8391 99.7726C20.8026 99.7386 20.7456 99.7397 20.7103 99.775V99.775C20.6741 99.8113 20.6153 99.8113 20.579 99.775L12.225 91.421C12.1888 91.3848 12.1888 91.326 12.225 91.2897V91.2897C12.2603 91.2544 12.2614 91.1975 12.2274 91.1609L11.5899 90.4746C11.1897 90.0438 11.2145 89.3702 11.6453 88.97L16.7264 84.2497Z"/>
            <path fill="currentColor" fill-rule="evenodd" clip-rule="evenodd" d="M81.7819 32.0466C83.344 33.6087 83.344 36.1414 81.7819 37.7035L76.2035 43.2819C74.6414 44.844 72.1087 44.844 70.5466 43.2819L67.7182 40.4535C66.1561 38.8914 66.1561 36.3587 67.7182 34.7966L73.2966 29.2182C74.8587 27.6561 77.3914 27.6561 78.9535 29.2182L81.7819 32.0466ZM62.5319 51.2966C64.094 52.8587 64.094 55.3914 62.5319 56.9535L56.9535 62.5319C55.3914 64.094 52.8587 64.094 51.2966 62.5319L48.4682 59.7035C46.9061 58.1414 46.9061 55.6087 48.4682 54.0466L54.0466 48.4682C55.6087 46.9061 58.1414 46.9061 59.7035 48.4682L62.5319 51.2966ZM43.2819 70.5466C44.844 72.1087 44.844 74.6414 43.2819 76.2035L37.7035 81.7819C36.1414 83.344 33.6087 83.344 32.0466 81.7819L29.2182 78.9535C27.6561 77.3914 27.6561 74.8587 29.2182 73.2966L34.7966 67.7182C36.3587 66.1561 38.8914 66.1561 40.4535 67.7182L43.2819 70.5466Z"/>
        </symbol>
        <symbol id="eye-hide" viewBox="0 0 489 489">
            <path fill="currentColor" d="M485.313,252.34l4.345-7.511l-4.345-7.511c-23.974-41.44-58.446-76.197-99.691-100.511
	c-42.473-25.038-91.117-38.28-140.681-38.3c-0.037,0-0.074-0.001-0.112-0.001s-0.074,0.001-0.112,0.001
	c-36.01,0.014-71.531,7.015-104.556,20.441L27.936,6.723L6.723,27.936L111.407,132.62c-2.476,1.358-4.935,2.751-7.371,4.187
	c-41.245,24.314-75.718,59.07-99.691,100.511L0,244.829l4.345,7.511c23.974,41.44,58.446,76.197,99.691,100.511
	c42.473,25.038,91.117,38.28,140.681,38.3c0.037,0,0.074,0.001,0.112,0.001s0.074-0.001,0.112-0.001
	c36.01-0.014,71.531-7.015,104.556-20.441l112.226,112.226l21.213-21.213L378.251,357.038c2.476-1.358,4.935-2.751,7.371-4.187
	C426.867,328.537,461.34,293.781,485.313,252.34z M454.819,244.829c-22.94,36.587-54.809,66.03-91.791,86.144
	c17.673-24.184,28.124-53.964,28.124-86.144s-10.45-61.96-28.124-86.144C400.01,178.799,431.879,208.242,454.819,244.829z
	 M244.829,361.152c-0.036,0-0.071-0.001-0.107-0.001c-64.092-0.058-116.217-52.217-116.217-116.322
	c0-26.675,9.031-51.276,24.189-70.922l47.815,47.815c-3.621,6.916-5.681,14.773-5.681,23.106c0,27.57,22.43,50,50,50
	c8.333,0,16.19-2.06,23.106-5.681l47.815,47.815c-19.619,15.137-44.181,24.163-70.815,24.187
	C244.9,361.151,244.865,361.152,244.829,361.152z M244.829,128.506c0.036,0,0.071,0.001,0.107,0.001
	c64.092,0.058,116.217,52.217,116.217,116.322c0,26.675-9.031,51.276-24.189,70.922l-47.815-47.815
	c3.621-6.916,5.681-14.773,5.681-23.106c0-27.57-22.43-50-50-50c-8.333,0-16.19,2.06-23.106,5.681l-47.815-47.815
	c19.619-15.137,44.181-24.163,70.815-24.187C244.758,128.507,244.793,128.506,244.829,128.506z M34.839,244.829
	c22.94-36.587,54.809-66.03,91.791-86.144c-17.673,24.184-28.124,53.964-28.124,86.144s10.45,61.96,28.124,86.144
	C89.648,310.859,57.779,281.416,34.839,244.829z"/>
        </symbol>
    </defs>
</svg>