<?xml version="1.0" encoding="utf-8"?>
<!-- Generator: Adobe Illustrator 25.2.1, SVG Export Plug-In . SVG Version: 6.00 Build 0)  -->
<svg version="1.1" id="Mockup_1_x5F_SVG" xmlns="http://www.w3.org/2000/svg" xmlns:xlink="http://www.w3.org/1999/xlink" x="0px"
	 y="0px" viewBox="0 0 1000 1000" style="enable-background:new 0 0 1000 1000;" xml:space="preserve">
<style type="text/css">
	.st0{display:none;}
	.st1{display:inline;}
	.st2{fill:none;stroke:#27AAE1;stroke-width:2;stroke-miterlimit:10;}
</style>
<g id="default" class="st0">
	<g id="default_doc_1_" class="st1">
		<line class="st2" x1="202.63" y1="195.97" x2="202.63" y2="804.18"/>
		<line class="st2" x1="351.3" y1="195.97" x2="351.3" y2="804.18"/>
		<line class="st2" x1="499.97" y1="195.97" x2="499.97" y2="804.18"/>
		<line class="st2" x1="648.64" y1="195.97" x2="648.64" y2="804.18"/>
		<line class="st2" x1="797.31" y1="195.97" x2="797.31" y2="804.18"/>
	</g>
	<g id="default_ngang_1_" class="st1">
		<line class="st2" x1="196.08" y1="202.62" x2="802.85" y2="202.62"/>
		<line class="st2" x1="196.08" y1="351.31" x2="802.85" y2="351.31"/>
		<line class="st2" x1="196.08" y1="500.01" x2="802.85" y2="500.01"/>
		<line class="st2" x1="196.08" y1="648.71" x2="802.85" y2="648.71"/>
		<line class="st2" x1="196.08" y1="797.41" x2="802.85" y2="797.41"/>
	</g>
</g>
<g id="moved_1_">
	<g id="moved_doc">
		<path class="st2" d="M184.54,299.46c30.25,174.46,64.35,348.24,92.4,523.08"/>
		<path class="st2" d="M308.2,286.17c30.02,172.61,66.89,343.9,99.63,515.99"/>
		<path class="st2" d="M435.48,271.47c30.02,172.61,66.89,343.9,99.63,515.99"/>
		<path class="st2" d="M562.77,255.62c30.02,172.61,66.89,343.9,99.63,515.99"/>
		<path class="st2" d="M690.05,239.93c30.02,172.61,66.89,343.9,99.63,515.99"/>
	</g>
	<g id="moved_ngang">
		<path class="st2" d="M179.76,306.05c171.96-21.36,344.32-39.27,516.24-60.94"/>
		<path class="st2" d="M198.23,436.69c173.8-27.29,349.37-41.03,523.17-68.32"/>
		<path class="st2" d="M225.93,563.63c173.8-27.29,349.37-41.03,523.17-68.32"/>
		<path class="st2" d="M249,690.58c173.8-27.29,349.37-41.03,523.17-68.32"/>
		<path class="st2" d="M270.23,817.52c173.8-27.29,349.37-41.03,523.17-68.32"/>
	</g>
</g>
</svg>
