<svg display="none" width="0" height="0" version="1.1" xmlns="http://www.w3.org/2000/svg" xmlns:xlink="http://www.w3.org/1999/xlink">
    <defs>

        <symbol viewBox="0 0 45 37" id="support">
            <path fill-rule="evenodd" clip-rule="evenodd" d="M22.5 2C18.1239 2 13.9271 3.73839 10.8327 6.83274C7.73839 9.92709 6 14.1239 6 18.5V30.1667C6 30.719 5.55228 31.1667 5 31.1667C4.44772 31.1667 4 30.719 4 30.1667V18.5C4 13.5935 5.9491 8.88795 9.41852 5.41852C12.8879 1.9491 17.5935 0 22.5 0C27.4065 0 32.1121 1.9491 35.5815 5.41852C39.0509 8.88795 41 13.5935 41 18.5V30.1667C41 30.719 40.5523 31.1667 40 31.1667C39.4477 31.1667 39 30.719 39 30.1667V18.5C39 14.1239 37.2616 9.92709 34.1673 6.83274C31.0729 3.73839 26.8761 2 22.5 2Z" fill="#3A8EFF"/>
            <path fill-rule="evenodd" clip-rule="evenodd" d="M4 22.3887C4 21.8364 4.44772 21.3887 5 21.3887H10.8333C12.1299 21.3887 13.3735 21.9038 14.2903 22.8206C15.2071 23.7374 15.7222 24.9809 15.7222 26.2776V32.1109C15.7222 33.4075 15.2071 34.651 14.2903 35.5679C13.3735 36.4847 12.1299 36.9998 10.8333 36.9998H8.88889C7.59227 36.9998 6.34877 36.4847 5.43192 35.5679C4.51508 34.651 4 33.4075 4 32.1109V22.3887ZM6 23.3887V32.1109C6 32.8771 6.30436 33.6119 6.84614 34.1536C7.38791 34.6954 8.12271 34.9998 8.88889 34.9998H10.8333C11.5995 34.9998 12.3343 34.6954 12.8761 34.1536C13.4179 33.6119 13.7222 32.8771 13.7222 32.1109V26.2776C13.7222 25.5114 13.4179 24.7766 12.8761 24.2348C12.3343 23.693 11.5995 23.3887 10.8333 23.3887H6ZM34.1667 23.3887C33.4005 23.3887 32.6657 23.693 32.1239 24.2348C31.5821 24.7766 31.2778 25.5114 31.2778 26.2776V32.1109C31.2778 32.8771 31.5821 33.6119 32.1239 34.1536C32.6657 34.6954 33.4005 34.9998 34.1667 34.9998H36.1111C36.8773 34.9998 37.6121 34.6954 38.1539 34.1536C38.6956 33.6119 39 32.8771 39 32.1109V23.3887H34.1667ZM30.7097 22.8206C31.6265 21.9038 32.8701 21.3887 34.1667 21.3887H40C40.5523 21.3887 41 21.8364 41 22.3887V32.1109C41 33.4075 40.4849 34.651 39.5681 35.5679C38.6512 36.4847 37.4077 36.9998 36.1111 36.9998H34.1667C32.8701 36.9998 31.6265 36.4847 30.7097 35.5679C29.7929 34.651 29.2778 33.4075 29.2778 32.1109V26.2776C29.2778 24.9809 29.7929 23.7374 30.7097 22.8206Z" fill="#3A8EFF"/>
            <path fill-rule="evenodd" clip-rule="evenodd" d="M1 25C1.55228 25 2 25.4477 2 26V30C2 30.5523 1.55228 31 1 31C0.447715 31 0 30.5523 0 30V26C0 25.4477 0.447715 25 1 25Z" fill="#27AE60"/>
            <path fill-rule="evenodd" clip-rule="evenodd" d="M44 25C44.5523 25 45 25.4477 45 26V30C45 30.5523 44.5523 31 44 31C43.4477 31 43 30.5523 43 30V26C43 25.4477 43.4477 25 44 25Z" fill="#27AE60"/>
        </symbol>

        <symbol viewBox="0 0 35 35" id="plane">
            <path fill-rule="evenodd" clip-rule="evenodd" d="M5.63096 14.3621C6.11378 14.8449 6.11378 15.6277 5.63096 16.1106L4.11057 17.631C3.62774 18.1138 2.84494 18.1138 2.36212 17.631C1.87929 17.1481 1.87929 16.3653 2.36212 15.8825L3.88251 14.3621C4.36533 13.8793 5.14813 13.8793 5.63096 14.3621Z" fill="#27AE60"/>
            <path fill-rule="evenodd" clip-rule="evenodd" d="M20.5 29.6216C20.9828 30.1044 20.9828 30.8872 20.5 31.37L18.9796 32.8904C18.4968 33.3732 17.714 33.3732 17.2312 32.8904C16.7483 32.4076 16.7483 31.6248 17.2312 31.142L18.7515 29.6216C19.2344 29.1388 20.0172 29.1388 20.5 29.6216Z" fill="#27AE60"/>
            <path d="M35 3.2209C35 1.44489 33.5551 0 31.778 0H31.7778C30.0875 0 28.4984 0.658226 27.3034 1.85345L21.5722 7.58469L7.31152 4.2292C4.59129 3.58913 1.72234 4.72107 0.172234 7.04609C0.0600815 7.21458 0 7.41245 0 7.61486C0 7.99217 0.207214 8.33931 0.539398 8.51795L13.6038 15.5528L7.19055 21.9661H3.2209C1.44489 21.9661 0 23.4109 0 25.1883C0 25.5482 0.189056 25.882 0.498009 26.0674L5.76969 29.2306L8.93265 34.5023C9.11797 34.8109 9.45175 35 9.81197 35C10.6731 35 11.4822 34.6646 12.09 34.0563C12.6988 33.4478 13.0339 32.6387 13.0339 31.778V27.8097L19.4472 21.3962L26.482 34.4609C26.661 34.7931 27.0081 35.0003 27.3851 35.0003C27.5875 35.0003 27.7854 34.9402 27.9539 34.8278C30.2789 33.2779 31.4109 30.409 30.7711 27.6887L27.4156 13.4281L33.1466 7.69684C34.3418 6.50135 35 4.91226 35 3.2209ZM2.6297 7.31445C3.75229 6.30135 5.33016 5.86983 6.84181 6.22524L19.8667 9.28993L15.1178 14.0388L2.6297 7.31445ZM28.7748 28.1585C29.1304 29.6701 28.6987 31.248 27.6858 32.3706L20.9612 19.8822L25.7101 15.1333L28.7748 28.1585ZM31.6966 6.2466L11.2836 26.6596C11.091 26.8521 10.9832 27.1128 10.9832 27.3849V31.778C10.9832 32.0907 10.8614 32.3847 10.6398 32.6064C10.5458 32.7003 10.4387 32.7764 10.3225 32.8328L7.39616 27.9555C7.30965 27.8113 7.18895 27.6904 7.04449 27.6038L2.16774 24.6777C2.35733 24.2871 2.75814 24.0171 3.2209 24.0171H7.61539C7.88723 24.0171 8.14812 23.909 8.34038 23.7167L28.7534 3.30341C29.5612 2.49565 30.6351 2.05078 31.7778 2.05078H31.7791C32.4242 2.05078 32.9492 2.57576 32.9492 3.22197C32.9492 4.36459 32.5043 5.43858 31.6966 6.2466Z" fill="#3A8EFF"/>
        </symbol>

        <symbol viewBox="0 0 35 35" id="payment">
            <path fill-rule="evenodd" clip-rule="evenodd" d="M27.6667 2H5C3.34314 2 2 3.34314 2 5V24.1667C2 25.8235 3.34314 27.1667 5 27.1667H27.6667C29.3235 27.1667 30.6667 25.8235 30.6667 24.1667V5C30.6667 3.34314 29.3235 2 27.6667 2ZM5 0C2.23858 0 0 2.23857 0 5V24.1667C0 26.9281 2.23857 29.1667 5 29.1667H27.6667C30.4281 29.1667 32.6667 26.9281 32.6667 24.1667V5C32.6667 2.23858 30.4281 0 27.6667 0H5Z" fill="#3A8EFF"/>
            <path fill-rule="evenodd" clip-rule="evenodd" d="M0.166504 10.5C0.166504 9.94772 0.614219 9.5 1.1665 9.5H31.4998C32.0521 9.5 32.4998 9.94772 32.4998 10.5C32.4998 11.0523 32.0521 11.5 31.4998 11.5H1.1665C0.614219 11.5 0.166504 11.0523 0.166504 10.5Z" fill="#3A8EFF"/>
            <path d="M26.5 34C26.5 34 34 30.2 34 24.5V17.85L26.5 15L19 17.85V24.5C19 30.2 26.5 34 26.5 34Z" fill="white"/>
            <path fill-rule="evenodd" clip-rule="evenodd" d="M26.1448 14.0652C26.3736 13.9783 26.6264 13.9783 26.8552 14.0652L34.3552 16.9152C34.7434 17.0627 35 17.4348 35 17.85V24.5C35 27.791 32.8498 30.4188 30.9134 32.1357C29.9252 33.0119 28.9416 33.6967 28.2069 34.162C27.8386 34.3953 27.5301 34.5751 27.3115 34.6977C27.2021 34.7591 27.115 34.8063 27.0539 34.8388C27.0233 34.855 26.9993 34.8676 26.9821 34.8765L26.9617 34.8871L26.9555 34.8903L26.9534 34.8913L26.9526 34.8917C26.9523 34.8919 26.952 34.892 26.5 34C26.048 34.892 26.0477 34.8919 26.0474 34.8917L26.0466 34.8913L26.0445 34.8903L26.0383 34.8871L26.0179 34.8765C26.0007 34.8676 25.9767 34.855 25.9461 34.8388C25.885 34.8063 25.7979 34.7591 25.6885 34.6977C25.4699 34.5751 25.1614 34.3953 24.7931 34.162C24.0584 33.6967 23.0748 33.0119 22.0866 32.1357C20.1502 30.4188 18 27.791 18 24.5V17.85C18 17.4348 18.2566 17.0627 18.6448 16.9152L26.1448 14.0652ZM26.5 34L26.048 34.892C26.3322 35.036 26.6678 35.036 26.952 34.892L26.5 34ZM26.5 32.8583C26.6733 32.7582 26.8894 32.6291 27.1368 32.4724C27.8084 32.047 28.6998 31.4256 29.5866 30.6393C31.4002 29.0312 33 26.909 33 24.5V18.5398L26.5 16.0698L20 18.5398V24.5C20 26.909 21.5998 29.0312 23.4134 30.6393C24.3002 31.4256 25.1916 32.047 25.8632 32.4724C26.1106 32.6291 26.3267 32.7582 26.5 32.8583ZM26.9527 33.1083C26.9528 33.1084 26.9528 33.1084 26.9527 33.1083L26.9527 33.1083ZM26.0473 33.1083C26.0472 33.1084 26.0472 33.1084 26.0473 33.1083L26.0473 33.1083Z" fill="#27AE60"/>
            <path fill-rule="evenodd" clip-rule="evenodd" d="M30.6935 21.2795C31.0914 21.6625 31.1035 22.2956 30.7205 22.6935L25.908 27.6935C25.7195 27.8893 25.4593 28 25.1875 28C24.9157 28 24.6555 27.8893 24.467 27.6935L22.2795 25.4207C21.8965 25.0228 21.9086 24.3898 22.3065 24.0068C22.7044 23.6238 23.3375 23.6359 23.7205 24.0338L25.1875 25.558L29.2795 21.3065C29.6625 20.9086 30.2956 20.8965 30.6935 21.2795Z" fill="#27AE60"/>
        </symbol>

        <symbol viewBox="0 0 38 37" id="like">
            <path fill-rule="evenodd" clip-rule="evenodd" d="M17.0926 0.588413C17.2543 0.230222 17.6109 0 18.0039 0C19.6789 0 21.2884 0.654653 22.4775 1.82494C23.6672 2.99576 24.3386 4.58716 24.3386 6.24997V12.2499H33.3981C34.0541 12.2434 34.7042 12.377 35.3038 12.6418C35.9053 12.9075 36.4422 13.2992 36.8767 13.7909C37.3112 14.2827 37.6328 14.8626 37.8181 15.4909C38.0035 16.1192 38.0479 16.7801 37.948 17.4273L35.4941 33.1771C35.4941 33.1775 35.494 33.1778 35.494 33.1782C35.3278 34.255 34.7723 35.233 33.9345 35.9338C33.0982 36.6334 32.0363 37.0105 30.9441 36.9998H5.55643C4.35311 36.9998 3.19591 36.5295 2.34023 35.6874C1.484 34.8448 1 33.6985 1 32.4998V20.2499C1 19.0512 1.484 17.9049 2.34023 17.0623C3.19591 16.2202 4.35311 15.7499 5.55643 15.7499H10.2454L17.0926 0.588413ZM9.89108 17.7499H5.55643C4.87331 17.7499 4.22132 18.0171 3.74308 18.4878C3.26538 18.9579 3 19.5921 3 20.2499V32.4998C3 33.1576 3.26538 33.7918 3.74308 34.2619C4.22132 34.7326 4.87331 34.9998 5.55643 34.9998H9.89108V17.7499ZM11.8911 34.9998H30.9605C31.5815 35.0067 32.1819 34.7924 32.6513 34.3998C33.1202 34.0075 33.4262 33.4645 33.5175 32.8725L35.9714 17.1225C35.9714 17.1224 35.9714 17.1225 35.9714 17.1225C36.0263 16.7666 36.0019 16.4029 35.8998 16.0568C35.7977 15.7106 35.62 15.3892 35.3779 15.1152C35.1358 14.8412 34.835 14.6211 34.4958 14.4713C34.1565 14.3214 33.7875 14.2457 33.4144 14.2499L33.4033 14.25L23.3386 14.2499C22.7863 14.2499 22.3386 13.8022 22.3386 13.2499V6.24997C22.3386 5.12802 21.8859 4.04872 21.0747 3.25042C20.4111 2.59734 19.5519 2.17635 18.6295 2.04447L11.8911 16.9652V34.9998Z" fill="#3A8EFF"/>
            <path fill-rule="evenodd" clip-rule="evenodd" d="M6.0001 0.850098C6.63523 0.850098 7.1501 1.36497 7.1501 2.0001L7.1501 4.0001C7.1501 4.63523 6.63523 5.1501 6.0001 5.1501C5.36497 5.1501 4.8501 4.63523 4.8501 4.0001L4.8501 2.0001C4.8501 1.36497 5.36497 0.850098 6.0001 0.850098Z" fill="#27AE60"/>
            <path fill-rule="evenodd" clip-rule="evenodd" d="M6.0001 6.8501C6.63523 6.8501 7.1501 7.36497 7.1501 8.0001L7.1501 10.0001C7.1501 10.6352 6.63523 11.1501 6.0001 11.1501C5.36497 11.1501 4.8501 10.6352 4.8501 10.0001L4.8501 8.0001C4.8501 7.36497 5.36497 6.8501 6.0001 6.8501Z" fill="#27AE60"/>
            <path fill-rule="evenodd" clip-rule="evenodd" d="M11.1499 6.0001C11.1499 6.63523 10.635 7.1501 9.9999 7.1501L7.9999 7.1501C7.36477 7.1501 6.8499 6.63523 6.8499 6.0001C6.8499 5.36497 7.36477 4.8501 7.9999 4.8501L9.9999 4.8501C10.635 4.8501 11.1499 5.36497 11.1499 6.0001Z" fill="#27AE60"/>
            <path fill-rule="evenodd" clip-rule="evenodd" d="M5.1499 6.0001C5.1499 6.63523 4.63503 7.1501 3.9999 7.1501L1.9999 7.1501C1.36477 7.1501 0.849902 6.63523 0.849902 6.0001C0.849902 5.36497 1.36477 4.8501 1.9999 4.8501L3.9999 4.8501C4.63503 4.8501 5.1499 5.36497 5.1499 6.0001Z" fill="#27AE60"/>
        </symbol>

    </defs>
</svg>